<svg viewBox="0 0 1496 400" xmlns="http://www.w3.org/2000/svg"><g><g><g><g><g><line x1="70" y1="378" x2="65" y2="378" style="visibility: inherit;" fill="rgb(0, 0, 0)" stroke="rgb(204, 204, 204)" stroke-width="1px"></line><line x1="70" y1="346.5" x2="65" y2="346.5" style="visibility: inherit;" fill="rgb(0, 0, 0)" stroke="rgb(204, 204, 204)" stroke-width="1px"></line><line x1="70" y1="315" x2="65" y2="315" style="visibility: inherit;" fill="rgb(0, 0, 0)" stroke="rgb(204, 204, 204)" stroke-width="1px"></line><line x1="70" y1="283.5" x2="65" y2="283.5" style="visibility: inherit;" fill="rgb(0, 0, 0)" stroke="rgb(204, 204, 204)" stroke-width="1px"></line><line x1="70" y1="252" x2="65" y2="252" style="visibility: inherit;" fill="rgb(0, 0, 0)" stroke="rgb(204, 204, 204)" stroke-width="1px"></line><line x1="70" y1="220.5" x2="65" y2="220.5" style="visibility: inherit;" fill="rgb(0, 0, 0)" stroke="rgb(204, 204, 204)" stroke-width="1px"></line><line x1="70" y1="189" x2="65" y2="189" style="visibility: inherit;" fill="rgb(0, 0, 0)" stroke="rgb(204, 204, 204)" stroke-width="1px"></line><line x1="70" y1="157.5" x2="65" y2="157.5" style="visibility: inherit;" fill="rgb(0, 0, 0)" stroke="rgb(204, 204, 204)" stroke-width="1px"></line><line x1="70" y1="126" x2="65" y2="126" style="visibility: inherit;" fill="rgb(0, 0, 0)" stroke="rgb(204, 204, 204)" stroke-width="1px"></line><line x1="70" y1="94.5" x2="65" y2="94.5" style="visibility: inherit;" fill="rgb(0, 0, 0)" stroke="rgb(204, 204, 204)" stroke-width="1px"></line><line x1="70" y1="63" x2="65" y2="63" style="visibility: inherit;" fill="rgb(0, 0, 0)" stroke="rgb(204, 204, 204)" stroke-width="1px"></line><line x1="70" y1="31.5" x2="65" y2="31.5" style="visibility: inherit;" fill="rgb(0, 0, 0)" stroke="rgb(204, 204, 204)" stroke-width="1px"></line><line x1="70" y1="0" x2="65" y2="0" style="visibility: inherit;" fill="rgb(0, 0, 0)" stroke="rgb(204, 204, 204)" stroke-width="1px"></line></g><g transform="translate(60, 0)"><text x="0" y="378" dx="0em" dy="0.3em" style="text-anchor: end; visibility: hidden; font-family: &quot;Helvetica Neue&quot;, sans-serif; font-size: 12px; font-weight: 200;" fill="rgb(50, 49, 63)" stroke="none" stroke-width="1px">-200</text><text x="0" y="346.5" dx="0em" dy="0.3em" style="text-anchor: end; visibility: inherit; font-family: &quot;Helvetica Neue&quot;, sans-serif; font-size: 12px; font-weight: 200;" fill="rgb(50, 49, 63)" stroke="none" stroke-width="1px">0</text><text x="0" y="315" dx="0em" dy="0.3em" style="text-anchor: end; visibility: inherit; font-family: &quot;Helvetica Neue&quot;, sans-serif; font-size: 12px; font-weight: 200;" fill="rgb(50, 49, 63)" stroke="none" stroke-width="1px">200</text><text x="0" y="283.5" dx="0em" dy="0.3em" style="text-anchor: end; visibility: inherit; font-family: &quot;Helvetica Neue&quot;, sans-serif; font-size: 12px; font-weight: 200;" fill="rgb(50, 49, 63)" stroke="none" stroke-width="1px">400</text><text x="0" y="252" dx="0em" dy="0.3em" style="text-anchor: end; visibility: inherit; font-family: &quot;Helvetica Neue&quot;, sans-serif; font-size: 12px; font-weight: 200;" fill="rgb(50, 49, 63)" stroke="none" stroke-width="1px">600</text><text x="0" y="220.5" dx="0em" dy="0.3em" style="text-anchor: end; visibility: inherit; font-family: &quot;Helvetica Neue&quot;, sans-serif; font-size: 12px; font-weight: 200;" fill="rgb(50, 49, 63)" stroke="none" stroke-width="1px">800</text><text x="0" y="189" dx="0em" dy="0.3em" style="text-anchor: end; visibility: inherit; font-family: &quot;Helvetica Neue&quot;, sans-serif; font-size: 12px; font-weight: 200;" fill="rgb(50, 49, 63)" stroke="none" stroke-width="1px">1e+3</text><text x="0" y="157.5" dx="0em" dy="0.3em" style="text-anchor: end; visibility: inherit; font-family: &quot;Helvetica Neue&quot;, sans-serif; font-size: 12px; font-weight: 200;" fill="rgb(50, 49, 63)" stroke="none" stroke-width="1px">1.2e+3</text><text x="0" y="126" dx="0em" dy="0.3em" style="text-anchor: end; visibility: inherit; font-family: &quot;Helvetica Neue&quot;, sans-serif; font-size: 12px; font-weight: 200;" fill="rgb(50, 49, 63)" stroke="none" stroke-width="1px">1.4e+3</text><text x="0" y="94.5" dx="0em" dy="0.3em" style="text-anchor: end; visibility: inherit; font-family: &quot;Helvetica Neue&quot;, sans-serif; font-size: 12px; font-weight: 200;" fill="rgb(50, 49, 63)" stroke="none" stroke-width="1px">1.6e+3</text><text x="0" y="63" dx="0em" dy="0.3em" style="text-anchor: end; visibility: inherit; font-family: &quot;Helvetica Neue&quot;, sans-serif; font-size: 12px; font-weight: 200;" fill="rgb(50, 49, 63)" stroke="none" stroke-width="1px">1.8e+3</text><text x="0" y="31.5" dx="0em" dy="0.3em" style="text-anchor: end; visibility: inherit; font-family: &quot;Helvetica Neue&quot;, sans-serif; font-size: 12px; font-weight: 200;" fill="rgb(50, 49, 63)" stroke="none" stroke-width="1px">2e+3</text><text x="0" y="0" dx="0em" dy="0.3em" style="text-anchor: end; visibility: hidden; font-family: &quot;Helvetica Neue&quot;, sans-serif; font-size: 12px; font-weight: 200;" fill="rgb(50, 49, 63)" stroke="none" stroke-width="1px">2.2e+3</text></g><line x1="70" y1="0" x2="70" y2="378" fill="rgb(0, 0, 0)" stroke="rgb(204, 204, 204)" stroke-width="1px"></line></g></g><g transform="translate(70, 0)" clip-path="url(#clip_0)"><clipPath id="clip_0"><rect width="1426" height="378"></rect></clipPath><g><g><g><line x1="0" y1="0" x2="0" y2="378" fill="rgb(0, 0, 0)" stroke="rgb(60, 60, 60)" stroke-width="1px" opacity="0.25"></line><line x1="101.85714285714285" y1="0" x2="101.85714285714285" y2="378" fill="rgb(0, 0, 0)" stroke="rgb(60, 60, 60)" stroke-width="1px" opacity="0.25"></line><line x1="203.7142857142857" y1="0" x2="203.7142857142857" y2="378" fill="rgb(0, 0, 0)" stroke="rgb(60, 60, 60)" stroke-width="1px" opacity="0.25"></line><line x1="305.57142857142856" y1="0" x2="305.57142857142856" y2="378" fill="rgb(0, 0, 0)" stroke="rgb(60, 60, 60)" stroke-width="1px" opacity="0.25"></line><line x1="407.4285714285714" y1="0" x2="407.4285714285714" y2="378" fill="rgb(0, 0, 0)" stroke="rgb(60, 60, 60)" stroke-width="1px" opacity="0.25"></line><line x1="509.2857142857143" y1="0" x2="509.2857142857143" y2="378" fill="rgb(0, 0, 0)" stroke="rgb(60, 60, 60)" stroke-width="1px" opacity="0.25"></line><line x1="611.1428571428571" y1="0" x2="611.1428571428571" y2="378" fill="rgb(0, 0, 0)" stroke="rgb(60, 60, 60)" stroke-width="1px" opacity="0.25"></line><line x1="713" y1="0" x2="713" y2="378" fill="rgb(0, 0, 0)" stroke="rgb(60, 60, 60)" stroke-width="1px" opacity="0.25"></line><line x1="814.8571428571428" y1="0" x2="814.8571428571428" y2="378" fill="rgb(0, 0, 0)" stroke="rgb(60, 60, 60)" stroke-width="1px" opacity="0.25"></line><line x1="916.7142857142858" y1="0" x2="916.7142857142858" y2="378" fill="rgb(0, 0, 0)" stroke="rgb(60, 60, 60)" stroke-width="1px" opacity="0.25"></line><line x1="1018.5714285714286" y1="0" x2="1018.5714285714286" y2="378" fill="rgb(0, 0, 0)" stroke="rgb(60, 60, 60)" stroke-width="1px" opacity="0.25"></line><line x1="1120.4285714285713" y1="0" x2="1120.4285714285713" y2="378" fill="rgb(0, 0, 0)" stroke="rgb(60, 60, 60)" stroke-width="1px" opacity="0.25"></line><line x1="1222.2857142857142" y1="0" x2="1222.2857142857142" y2="378" fill="rgb(0, 0, 0)" stroke="rgb(60, 60, 60)" stroke-width="1px" opacity="0.25"></line><line x1="1324.142857142857" y1="0" x2="1324.142857142857" y2="378" fill="rgb(0, 0, 0)" stroke="rgb(60, 60, 60)" stroke-width="1px" opacity="0.25"></line><line x1="1426" y1="0" x2="1426" y2="378" fill="rgb(0, 0, 0)" stroke="rgb(60, 60, 60)" stroke-width="1px" opacity="0.25"></line></g><g><line x1="0" y1="378" x2="1426" y2="378" fill="rgb(0, 0, 0)" stroke="rgb(60, 60, 60)" stroke-width="1px" opacity="0.25"></line><line x1="0" y1="346.5" x2="1426" y2="346.5" fill="rgb(0, 0, 0)" stroke="rgb(60, 60, 60)" stroke-width="1px" opacity="0.25"></line><line x1="0" y1="315" x2="1426" y2="315" fill="rgb(0, 0, 0)" stroke="rgb(60, 60, 60)" stroke-width="1px" opacity="0.25"></line><line x1="0" y1="283.5" x2="1426" y2="283.5" fill="rgb(0, 0, 0)" stroke="rgb(60, 60, 60)" stroke-width="1px" opacity="0.25"></line><line x1="0" y1="252" x2="1426" y2="252" fill="rgb(0, 0, 0)" stroke="rgb(60, 60, 60)" stroke-width="1px" opacity="0.25"></line><line x1="0" y1="220.5" x2="1426" y2="220.5" fill="rgb(0, 0, 0)" stroke="rgb(60, 60, 60)" stroke-width="1px" opacity="0.25"></line><line x1="0" y1="189" x2="1426" y2="189" fill="rgb(0, 0, 0)" stroke="rgb(60, 60, 60)" stroke-width="1px" opacity="0.25"></line><line x1="0" y1="157.5" x2="1426" y2="157.5" fill="rgb(0, 0, 0)" stroke="rgb(60, 60, 60)" stroke-width="1px" opacity="0.25"></line><line x1="0" y1="126" x2="1426" y2="126" fill="rgb(0, 0, 0)" stroke="rgb(60, 60, 60)" stroke-width="1px" opacity="0.25"></line><line x1="0" y1="94.5" x2="1426" y2="94.5" fill="rgb(0, 0, 0)" stroke="rgb(60, 60, 60)" stroke-width="1px" opacity="0.25"></line><line x1="0" y1="63" x2="1426" y2="63" fill="rgb(0, 0, 0)" stroke="rgb(60, 60, 60)" stroke-width="1px" opacity="0.25"></line><line x1="0" y1="31.5" x2="1426" y2="31.5" fill="rgb(0, 0, 0)" stroke="rgb(60, 60, 60)" stroke-width="1px" opacity="0.25"></line><line x1="0" y1="0" x2="1426" y2="0" fill="rgb(0, 0, 0)" stroke="rgb(60, 60, 60)" stroke-width="1px" opacity="0.25"></line></g></g></g><g><g><line x1="0" y1="346.5" x2="1426" y2="346.5" fill="rgb(0, 0, 0)" stroke="rgb(153, 153, 153)" stroke-width="1.5px"></line></g></g><g><g><line x1="101.85714285714285" y1="0" x2="101.85714285714285" y2="378" fill="rgb(0, 0, 0)" stroke="rgb(153, 153, 153)" stroke-width="1.5px"></line></g></g><g><g><g><g><g><path stroke="rgb(0, 119, 187)" stroke-width="2px" d="M101.85714285714285,209.3175L112.04285714285714,280.783125L122.22857142857143,251.55321428571426L132.4142857142857,235.83482536764708L142.6,238.8839989590562L152.78571428571428,275.18191494360906L162.97142857142856,259.93842891569443L173.15714285714284,267.92215326091485L183.34285714285713,255.6970915005467L193.5285714285714,253.19512647456736L203.7142857142857,243.29415545336005L213.9,214.7734098167046L224.0857142857143,225.26775222953808L234.27142857142857,229.72714590429982L244.45714285714286,174.28722052211916L254.64285714285714,185.02636194309756L264.8285714285714,160.3406386975533L275.01428571428573,150.19435276217203L285.2,161.1812811564862L295.3857142857143,125.18345255624308L305.57142857142856,118.64292805458268L315.75714285714287,109.99364298938588L325.9428571428571,132.4613632280087L336.12857142857143,126.0967877790197L346.3142857142857,112.63903440663131L356.5,130.89845179120857L366.68571428571425,133.286073518433L376.87142857142857,139.25464777632672L387.0571428571428,126.01478378748163L397.24285714285713,160.21787783390104L407.4285714285714,136.89172360625798L417.61428571428576,129.44803357133677L427.8,124.85581992351476L437.9857142857143,105.21649139141897L448.1714285714286,94.1258946441962L458.3571428571429,90.30653674712323L468.54285714285714,95.07092207775906L478.7285714285714,96.29155325118785L488.9142857142857,108.23793197732829L499.09999999999997,104.00275918073555L509.2857142857143,107.8246555115067L519.4714285714285,108.22779330709807L529.6571428571428,97.50767598116352L539.8428571428572,97.94260558877352L550.0285714285715,92.659563352715L560.2142857142857,92.19873801160026L570.4,86.81924280675884L580.5857142857143,82.7725456839645L590.7714285714286,78.45452741032057L600.9571428571429,86.32171644625583L611.1428571428571,95.83002986779968L621.3285714285714,96.55801792068195L631.5142857142857,97.62481075241101L641.7,89.82288645143848L651.8857142857142,94.6547318708661L662.0714285714286,100.32583912252176L672.2571428571429,103.7915034735139L682.4428571428572,101.20890208410799L692.6285714285714,122.5283412504665L702.8142857142858,132.5480047502804L713,130.43280285016814L723.1857142857142,149.76468171010129L733.3714285714285,129.29680902606054L743.5571428571429,112.35408541563623L753.7428571428571,114.15845124938176L763.9285714285714,128.21907074962908L774.1142857142856,121.09444244977749L784.3000000000001,111.71666546986654L794.4857142857143,121.9029992819199L804.6714285714286,114.72179956915193L814.8571428571428,106.75907974149112L825.0428571428572,98.45344784489464L835.2285714285715,104.18006870693677L845.4142857142857,107.04904122416207L855.6,116.83442473449725L865.7857142857142,120.87865484069835L875.9714285714286,107.30319290441906L886.1571428571428,115.66391574265145L896.3428571428572,119.9243494455909L906.5285714285714,113.97560966735455L916.7142857142858,134.5983658004127L926.9,132.73401948024767L937.0857142857143,129.6624116881486L947.2714285714285,128.44944701288918L957.4571428571428,126.14666820773354L967.6428571428572,127.7890009246401L977.8285714285714,134.38140055478405L988.0142857142857,132.09984033287043L998.1999999999999,120.77690419972225L1008.3857142857144,109.57314251983331L1018.5714285714286,111.22988551190002L1028.7571428571428,103.08893130714L1038.942857142857,93.35335878428396L1049.1285714285716,89.90601527057038L1059.3142857142857,85.88460916234226L1069.5,86.81076549740538L1079.6857142857143,95.17845929844322L1089.8714285714284,97.04907557906591L1100.057142857143,110.45644534743957L1110.2428571428572,111.19286720846372L1120.4285714285713,128.26672032507824L1130.6142857142856,137.1250321950469L1140.8,126.06001931702815L1150.9857142857143,123.64201159021692L1161.1714285714286,122.06520695413016L1171.357142857143,113.05512417247814L1181.5428571428572,114.07507450348686L1191.7285714285715,115.12804470209215L1201.9142857142858,123.69782682125526L1212.1,118.12969609275314" style="fill: none;" fill="none"></path></g><g><path stroke="rgb(255, 112, 67)" stroke-width="2px" d="M101.85714285714285,322.7175L112.04285714285714,323.701875L122.22857142857143,314.4407142857143L132.4142857142857,320.6329411764706L142.6,300.01880985426783L152.78571428571428,303.79339285714286L162.97142857142856,301.53480984487345L173.15714285714284,306.82066802668305L183.34285714285713,309.171087630247L193.5285714285714,285.02263612627155L203.7142857142857,279.16332426482774L213.9,270.10527716196447L224.0857142857143,260.3303996287281L234.27142857142857,264.8137531197236L244.45714285714286,271.97661974416746L254.64285714285714,275.389934780187L264.8285714285714,242.65542000827588L275.01428571428573,236.81665902065265L285.2,270.42304325014726L295.3857142857143,277.98510243095336L305.57142857142856,268.0318431144137L315.75714285714287,257.5869683914275L325.9428571428571,240.86204895311292L336.12857142857143,257.09830630544656L346.3142857142857,238.74193159556592L356.5,235.6031536031578L366.68571428571425,240.4608971337484L376.87142857142857,234.05153434429636L387.0571428571428,225.98491763438022L397.24285714285713,223.22394997025015L407.4285714285714,232.40337119974845L417.61428571428576,211.38802104730857L427.8,231.60181359363347L437.9857142857143,226.90908802172797L448.1714285714286,254.4594532866471L458.3571428571429,239.61567181888316L468.54285714285714,229.07140302607505L478.7285714285714,221.48484178747466L488.9142857142857,187.4489049966556L499.09999999999997,174.71334298096912L509.2857142857143,200.5250058092837L519.4714285714285,186.21300347868285L529.6571428571428,173.53080208354788L539.8428571428572,154.77048124687863L550.0285714285715,150.00328874763164L560.2142857142857,173.6659732500548L570.4,164.8055839497013L580.5857142857143,155.14235036960383L590.7714285714286,142.54041022159254L600.9571428571429,173.09424613320246L611.1428571428571,154.9495476798335L621.3285714285714,129.6987286078266L631.5142857142857,117.8242371646752L641.7,105.65954229879236L651.8857142857142,96.40772537926966L662.0714285714286,117.06463522756957L672.2571428571429,101.99078113653832L682.4428571428572,85.76446868192079L692.6285714285714,96.50368120915334L702.8142857142858,84.61420872549144L713,97.01052523529523L723.1857142857142,112.70131514117742L733.3714285714285,92.00178908470622L743.5571428571429,80.33807345082369L753.7428571428571,80.01784407049422L763.9285714285714,72.70670644229648L774.1142857142856,76.88802386537787L784.3000000000001,84.81481431922674L794.4857142857143,88.24788859153608L804.6714285714286,76.57373315492163L814.8571428571428,82.42123989295294L825.0428571428572,80.19674393577179L835.2285714285715,72.94004636146303L845.4142857142857,68.96402781687789L855.6,71.30341669012671L865.7857142857142,68.42305001407601L875.9714285714286,70.72683000844563L886.1571428571428,72.17209800506731L896.3428571428572,71.2752588030404L906.5285714285714,75.71415528182428L916.7142857142858,75.98349316909457L926.9,82.3190959014567L937.0857142857143,87.38045754087403L947.2714285714285,80.33727452452445L957.4571428571428,87.07336471471467L967.6428571428572,91.93401882882875L977.8285714285714,92.64541129729724L988.0142857142857,93.38724677837837L998.1999999999999,86.96534806702704L1008.3857142857144,135.02420884021623L1018.5714285714286,116.35752530412975L1028.7571428571428,101.94451518247786L1038.942857142857,90.2727091094867L1049.1285714285716,90.01062546569199L1059.3142857142857,90.79837527941521L1069.5,85.03402516764913L1079.6857142857143,89.76541510058945L1089.8714285714284,86.80824906035366L1100.057142857143,99.83894943621215L1110.2428571428572,95.56136966172738L1120.4285714285713,101.43682179703643L1130.6142857142856,97.46509307822191L1140.8,101.82305584693307L1150.9857142857143,98.51583350815986L1161.1714285714286,105.16250010489591L1171.357142857143,99.44850006293757L1181.5428571428572,98.66610003776253L1191.7285714285715,92.33766002265753L1201.9142857142858,96.66759601359456L1212.1,102.60455760815671L1222.2857142857142,115.17573456489401L1232.4714285714285,111.18944073893641L1242.6571428571428,106.71866444336183L1252.8428571428572,107.81619866601716L1263.0285714285715,117.29471919961031L1273.2142857142858,130.73083151976616L1283.4,113.15149891185973L1293.5857142857142,110.03789934711585L1303.7714285714285,109.80773960826951L1313.9571428571428,105.0076437649617" style="fill: none;" fill="none"></path></g><g><path stroke="rgb(204, 51, 17)" stroke-width="2px" d="M101.85714285714285,309.4875L122.22857142857143,299.840625L142.6,319.7089285714286L162.97142857142856,332.0210018382353L183.34285714285713,338.30092817487855L203.7142857142857,341.74105968045114L224.0857142857143,343.69945843977985L244.45714285714286,344.83881182563323L264.8285714285714,345.51005164623507L285.2,345.908439889102L305.57142857142856,343.80643793224465L325.9428571428571,344.88621319506575L346.3142857142857,345.5325721066363L366.68571428571425,345.91984674851767L387.0571428571428,345.77383939864706L407.4285714285714,343.3546211511316L427.8,344.04588969935196L448.1714285714286,344.77560792976305L468.54285714285714,345.46540679142333L488.9142857142857,317.0242042194257L509.2857142857143,328.81478118096027L529.6571428571428,335.8889618201471L550.0285714285715,336.9203852375507L570.4,340.3112472097275L590.7714285714286,323.06769930193315L611.1428571428571,296.7195746360735L631.5142857142857,299.6217477519903L651.8857142857142,308.4820540922571L672.2571428571429,274.1712198133032L692.6285714285714,236.57472357637715L713,217.60783162997518L733.3714285714285,234.5147003235455L753.7428571428571,234.76782020621425L774.1142857142856,228.68269194938244L794.4857142857143,176.39561427077757L814.8571428571428,214.38636895431935L835.2285714285715,193.77382124502762L855.6,197.2822927600442L875.9714285714286,196.80437565496175L896.3428571428572,188.20162538147736L916.7142857142858,169.1169752135796" style="fill: none;" fill="none"></path></g></g></g></g><g opacity="0.2"><g><g><g><path stroke="rgb(0, 119, 187)" stroke-width="2px" d="M101.85714285714285,209.3175L112.04285714285714,323.6625L122.22857142857143,223.4925L132.4142857142857,217.35L142.6,242.865L152.78571428571428,325.395L162.97142857142856,238.14000000000001L173.15714285714284,279.5625L183.34285714285713,237.6675L193.5285714285714,249.48L203.7142857142857,228.5325L213.9,172.1475L224.0857142857143,240.975L234.27142857142857,236.4075L244.45714285714286,91.1925L254.64285714285714,201.1275L264.8285714285714,123.32250000000002L275.01428571428573,134.9775L285.2,177.66L295.3857142857143,71.19L305.57142857142856,108.83250000000004L315.75714285714287,97.02000000000004L325.9428571428571,166.1625L336.12857142857143,116.55000000000001L346.3142857142857,92.45250000000004L356.5,158.2875L366.68571428571425,136.86749999999998L376.87142857142857,148.2075L387.0571428571428,106.15500000000003L397.24285714285713,211.5225L407.4285714285714,101.90249999999997L417.61428571428576,118.28249999999997L427.8,117.96750000000003L437.9857142857143,75.7575L448.1714285714286,77.49000000000001L458.3571428571429,84.57749999999999L468.54285714285714,102.21749999999997L478.7285714285714,98.1225L488.9142857142857,126.1575L499.09999999999997,97.64999999999998L509.2857142857143,113.5575L519.4714285714285,108.83250000000004L529.6571428571428,81.42750000000001L539.8428571428572,98.59500000000003L550.0285714285715,84.73499999999996L560.2142857142857,91.5075L570.4,78.75L580.5857142857143,76.70249999999999L590.7714285714286,71.97750000000002L600.9571428571429,98.1225L611.1428571428571,110.09250000000003L621.3285714285714,97.64999999999998L631.5142857142857,99.22499999999997L641.7,78.12L651.8857142857142,101.90249999999997L662.0714285714286,108.83250000000004L672.2571428571429,108.99000000000001L682.4428571428572,97.33499999999998L692.6285714285714,154.5075L702.8142857142858,147.5775L713,127.25999999999999L723.1857142857142,178.7625L733.3714285714285,98.59500000000003L743.5571428571429,86.94L753.7428571428571,116.86500000000001L763.9285714285714,149.31L774.1142857142856,110.40750000000003L784.3000000000001,97.64999999999998L794.4857142857143,137.1825L804.6714285714286,103.94999999999999L814.8571428571428,94.815L825.0428571428572,85.995L835.2285714285715,112.76999999999998L845.4142857142857,111.35249999999996L855.6,131.5125L865.7857142857142,126.945L875.9714285714286,86.94L886.1571428571428,128.20499999999998L896.3428571428572,126.31499999999997L906.5285714285714,105.05250000000001L916.7142857142858,165.53249999999997L926.9,129.9375L937.0857142857143,125.05499999999998L947.2714285714285,126.63L957.4571428571428,122.6925L967.6428571428572,130.2525L977.8285714285714,144.27L988.0142857142857,128.6775L998.1999999999999,103.79249999999996L1008.3857142857144,92.76749999999998L1018.5714285714286,113.71499999999997L1028.7571428571428,90.8775L1038.942857142857,78.75L1049.1285714285716,84.73499999999996L1059.3142857142857,79.85250000000002L1069.5,88.19999999999999L1079.6857142857143,107.73000000000002L1089.8714285714284,99.85500000000002L1100.057142857143,130.56750000000002L1110.2428571428572,112.29750000000001L1120.4285714285713,153.8775L1130.6142857142856,150.41250000000002L1140.8,109.46249999999998L1150.9857142857143,120.01499999999999L1161.1714285714286,119.69999999999999L1171.357142857143,99.53999999999996L1181.5428571428572,115.60499999999996L1191.7285714285715,116.70749999999998L1201.9142857142858,136.55249999999998L1212.1,109.77749999999997" style="fill: none;" fill="none"></path></g><g><path stroke="rgb(255, 112, 67)" stroke-width="2px" d="M101.85714285714285,322.7175L112.04285714285714,324.2925L122.22857142857143,305.55L132.4142857142857,327.915L142.6,273.105L152.78571428571428,309.015L162.97142857142856,298.305L173.15714285714284,314.52750000000003L183.34285714285713,312.6375L193.5285714285714,249.165L203.7142857142857,270.4275L213.9,256.5675L224.0857142857143,245.70000000000002L234.27142857142857,271.53L244.45714285714286,282.7125L254.64285714285714,280.5075L264.8285714285714,193.5675L275.01428571428573,228.06L285.2,320.8275L295.3857142857143,289.3275L305.57142857142856,253.1025L315.75714285714287,241.92000000000002L325.9428571428571,215.775L336.12857142857143,281.4525L346.3142857142857,211.2075L356.5,230.895L366.68571428571425,247.7475L376.87142857142857,224.4375L387.0571428571428,213.88500000000002L397.24285714285713,219.0825L407.4285714285714,246.17249999999999L417.61428571428576,179.865L427.8,261.9225L437.9857142857143,219.87L448.1714285714286,295.78499999999997L458.3571428571429,217.35L468.54285714285714,213.255L478.7285714285714,210.10500000000002L488.9142857142857,136.395L499.09999999999997,155.60999999999999L509.2857142857143,239.2425L519.4714285714285,164.74499999999998L529.6571428571428,154.5075L539.8428571428572,126.63L550.0285714285715,142.8525L560.2142857142857,209.16L570.4,151.51500000000001L580.5857142857143,140.6475L590.7714285714286,123.63749999999999L600.9571428571429,218.925L611.1428571428571,127.73249999999999L621.3285714285714,91.82249999999999L631.5142857142857,100.01249999999999L641.7,87.41249999999997L651.8857142857142,82.53000000000003L662.0714285714286,148.05L672.2571428571429,79.38L682.4428571428572,61.42500000000001L692.6285714285714,112.61250000000001L702.8142857142858,66.77999999999997L713,115.60499999999996L723.1857142857142,136.2375L733.3714285714285,60.952499999999986L743.5571428571429,62.84250000000003L753.7428571428571,79.53750000000002L763.9285714285714,61.74000000000001L774.1142857142856,83.15999999999997L784.3000000000001,96.70499999999998L794.4857142857143,93.39749999999998L804.6714285714286,59.0625L814.8571428571428,91.1925L825.0428571428572,76.86000000000001L835.2285714285715,62.05500000000001L845.4142857142857,63L855.6,74.8125L865.7857142857142,64.10249999999996L875.9714285714286,74.1825L886.1571428571428,74.33999999999997L896.3428571428572,69.93L906.5285714285714,82.3725L916.7142857142858,76.38749999999999L926.9,91.82249999999999L937.0857142857143,94.97249999999997L947.2714285714285,69.77249999999998L957.4571428571428,97.17750000000001L967.6428571428572,99.22499999999997L977.8285714285714,93.71249999999998L988.0142857142857,94.5L998.1999999999999,77.33249999999998L1008.3857142857144,207.1125L1018.5714285714286,88.35750000000002L1028.7571428571428,80.32499999999999L1038.942857142857,72.76499999999999L1049.1285714285716,89.6175L1059.3142857142857,91.97999999999996L1069.5,76.38749999999999L1079.6857142857143,96.86250000000001L1089.8714285714284,82.3725L1100.057142857143,119.38499999999999L1110.2428571428572,89.14499999999998L1120.4285714285713,110.25L1130.6142857142856,91.5075L1140.8,108.35999999999996L1150.9857142857143,93.555L1161.1714285714286,115.1325L1171.357142857143,90.8775L1181.5428571428572,97.4925L1191.7285714285715,82.84499999999997L1201.9142857142858,103.16250000000002L1212.1,111.50999999999999L1222.2857142857142,134.0325L1232.4714285714285,105.20999999999998L1242.6571428571428,100.01249999999999L1252.8428571428572,109.46249999999998L1263.0285714285715,131.5125L1273.2142857142858,150.885L1283.4,86.78250000000003L1293.5857142857142,105.3675L1303.7714285714285,109.46249999999998L1313.9571428571428,97.8075" style="fill: none;" fill="none"></path></g><g><path stroke="rgb(204, 51, 17)" stroke-width="2px" d="M101.85714285714285,309.4875L122.22857142857143,294.0525L142.6,338.7825L162.97142857142856,346.5L183.34285714285713,346.5L203.7142857142857,346.5L224.0857142857143,346.5L244.45714285714286,346.5L264.8285714285714,346.5L285.2,346.5L305.57142857142856,340.6725L325.9428571428571,346.5L346.3142857142857,346.5L366.68571428571425,346.5L387.0571428571428,345.555L407.4285714285714,339.7275L427.8,345.0825L448.1714285714286,345.87L468.54285714285714,346.5L488.9142857142857,274.365L509.2857142857143,346.5L529.6571428571428,346.5L550.0285714285715,338.4675L570.4,345.3975L590.7714285714286,297.2025L611.1428571428571,257.1975L631.5142857142857,303.975L651.8857142857142,321.7725L672.2571428571429,222.705L692.6285714285714,180.18L713,189.1575L733.3714285714285,259.875L753.7428571428571,235.1475L774.1142857142856,219.55499999999998L794.4857142857143,97.96499999999997L814.8571428571428,271.3725L835.2285714285715,162.855L855.6,202.545L875.9714285714286,196.0875L896.3428571428572,175.29749999999999L916.7142857142858,140.49" style="fill: none;" fill="none"></path></g></g></g></g></g></g><g transform="translate(70, 378)" clip-path="url(#clip_1)"><clipPath id="clip_1"><rect width="1426" height="22"></rect></clipPath><g><g><line x1="0" y1="0" x2="0" y2="5" style="visibility: inherit;" fill="rgb(0, 0, 0)" stroke="rgb(204, 204, 204)" stroke-width="1px"></line><line x1="101.85714285714285" y1="0" x2="101.85714285714285" y2="5" style="visibility: inherit;" fill="rgb(0, 0, 0)" stroke="rgb(204, 204, 204)" stroke-width="1px"></line><line x1="203.7142857142857" y1="0" x2="203.7142857142857" y2="5" style="visibility: inherit;" fill="rgb(0, 0, 0)" stroke="rgb(204, 204, 204)" stroke-width="1px"></line><line x1="305.57142857142856" y1="0" x2="305.57142857142856" y2="5" style="visibility: inherit;" fill="rgb(0, 0, 0)" stroke="rgb(204, 204, 204)" stroke-width="1px"></line><line x1="407.4285714285714" y1="0" x2="407.4285714285714" y2="5" style="visibility: inherit;" fill="rgb(0, 0, 0)" stroke="rgb(204, 204, 204)" stroke-width="1px"></line><line x1="509.2857142857143" y1="0" x2="509.2857142857143" y2="5" style="visibility: inherit;" fill="rgb(0, 0, 0)" stroke="rgb(204, 204, 204)" stroke-width="1px"></line><line x1="611.1428571428571" y1="0" x2="611.1428571428571" y2="5" style="visibility: inherit;" fill="rgb(0, 0, 0)" stroke="rgb(204, 204, 204)" stroke-width="1px"></line><line x1="713" y1="0" x2="713" y2="5" style="visibility: inherit;" fill="rgb(0, 0, 0)" stroke="rgb(204, 204, 204)" stroke-width="1px"></line><line x1="814.8571428571428" y1="0" x2="814.8571428571428" y2="5" style="visibility: inherit;" fill="rgb(0, 0, 0)" stroke="rgb(204, 204, 204)" stroke-width="1px"></line><line x1="916.7142857142858" y1="0" x2="916.7142857142858" y2="5" style="visibility: inherit;" fill="rgb(0, 0, 0)" stroke="rgb(204, 204, 204)" stroke-width="1px"></line><line x1="1018.5714285714286" y1="0" x2="1018.5714285714286" y2="5" style="visibility: inherit;" fill="rgb(0, 0, 0)" stroke="rgb(204, 204, 204)" stroke-width="1px"></line><line x1="1120.4285714285713" y1="0" x2="1120.4285714285713" y2="5" style="visibility: inherit;" fill="rgb(0, 0, 0)" stroke="rgb(204, 204, 204)" stroke-width="1px"></line><line x1="1222.2857142857142" y1="0" x2="1222.2857142857142" y2="5" style="visibility: inherit;" fill="rgb(0, 0, 0)" stroke="rgb(204, 204, 204)" stroke-width="1px"></line><line x1="1324.142857142857" y1="0" x2="1324.142857142857" y2="5" style="visibility: inherit;" fill="rgb(0, 0, 0)" stroke="rgb(204, 204, 204)" stroke-width="1px"></line><line x1="1426" y1="0" x2="1426" y2="5" style="visibility: inherit;" fill="rgb(0, 0, 0)" stroke="rgb(204, 204, 204)" stroke-width="1px"></line></g><g transform="translate(0, 8)"><text x="0" y="0" dx="0em" dy="0.95em" style="text-anchor: middle; visibility: hidden; font-family: &quot;Helvetica Neue&quot;, sans-serif; font-size: 12px; font-weight: 200;" fill="rgb(50, 49, 63)" stroke="none" stroke-width="1px">-50</text><text x="101.85714285714285" y="0" dx="0em" dy="0.95em" style="text-anchor: middle; visibility: inherit; font-family: &quot;Helvetica Neue&quot;, sans-serif; font-size: 12px; font-weight: 200;" fill="rgb(50, 49, 63)" stroke="none" stroke-width="1px">0</text><text x="203.7142857142857" y="0" dx="0em" dy="0.95em" style="text-anchor: middle; visibility: inherit; font-family: &quot;Helvetica Neue&quot;, sans-serif; font-size: 12px; font-weight: 200;" fill="rgb(50, 49, 63)" stroke="none" stroke-width="1px">50</text><text x="305.57142857142856" y="0" dx="0em" dy="0.95em" style="text-anchor: middle; visibility: inherit; font-family: &quot;Helvetica Neue&quot;, sans-serif; font-size: 12px; font-weight: 200;" fill="rgb(50, 49, 63)" stroke="none" stroke-width="1px">100</text><text x="407.4285714285714" y="0" dx="0em" dy="0.95em" style="text-anchor: middle; visibility: inherit; font-family: &quot;Helvetica Neue&quot;, sans-serif; font-size: 12px; font-weight: 200;" fill="rgb(50, 49, 63)" stroke="none" stroke-width="1px">150</text><text x="509.2857142857143" y="0" dx="0em" dy="0.95em" style="text-anchor: middle; visibility: inherit; font-family: &quot;Helvetica Neue&quot;, sans-serif; font-size: 12px; font-weight: 200;" fill="rgb(50, 49, 63)" stroke="none" stroke-width="1px">200</text><text x="611.1428571428571" y="0" dx="0em" dy="0.95em" style="text-anchor: middle; visibility: inherit; font-family: &quot;Helvetica Neue&quot;, sans-serif; font-size: 12px; font-weight: 200;" fill="rgb(50, 49, 63)" stroke="none" stroke-width="1px">250</text><text x="713" y="0" dx="0em" dy="0.95em" style="text-anchor: middle; visibility: inherit; font-family: &quot;Helvetica Neue&quot;, sans-serif; font-size: 12px; font-weight: 200;" fill="rgb(50, 49, 63)" stroke="none" stroke-width="1px">300</text><text x="814.8571428571428" y="0" dx="0em" dy="0.95em" style="text-anchor: middle; visibility: inherit; font-family: &quot;Helvetica Neue&quot;, sans-serif; font-size: 12px; font-weight: 200;" fill="rgb(50, 49, 63)" stroke="none" stroke-width="1px">350</text><text x="916.7142857142858" y="0" dx="0em" dy="0.95em" style="text-anchor: middle; visibility: inherit; font-family: &quot;Helvetica Neue&quot;, sans-serif; font-size: 12px; font-weight: 200;" fill="rgb(50, 49, 63)" stroke="none" stroke-width="1px">400</text><text x="1018.5714285714286" y="0" dx="0em" dy="0.95em" style="text-anchor: middle; visibility: inherit; font-family: &quot;Helvetica Neue&quot;, sans-serif; font-size: 12px; font-weight: 200;" fill="rgb(50, 49, 63)" stroke="none" stroke-width="1px">450</text><text x="1120.4285714285713" y="0" dx="0em" dy="0.95em" style="text-anchor: middle; visibility: inherit; font-family: &quot;Helvetica Neue&quot;, sans-serif; font-size: 12px; font-weight: 200;" fill="rgb(50, 49, 63)" stroke="none" stroke-width="1px">500</text><text x="1222.2857142857142" y="0" dx="0em" dy="0.95em" style="text-anchor: middle; visibility: inherit; font-family: &quot;Helvetica Neue&quot;, sans-serif; font-size: 12px; font-weight: 200;" fill="rgb(50, 49, 63)" stroke="none" stroke-width="1px">550</text><text x="1324.142857142857" y="0" dx="0em" dy="0.95em" style="text-anchor: middle; visibility: inherit; font-family: &quot;Helvetica Neue&quot;, sans-serif; font-size: 12px; font-weight: 200;" fill="rgb(50, 49, 63)" stroke="none" stroke-width="1px">600</text><text x="1426" y="0" dx="0em" dy="0.95em" style="text-anchor: middle; visibility: hidden; font-family: &quot;Helvetica Neue&quot;, sans-serif; font-size: 12px; font-weight: 200;" fill="rgb(50, 49, 63)" stroke="none" stroke-width="1px">650</text></g><line x1="0" y1="0" x2="1426" y2="0" fill="rgb(0, 0, 0)" stroke="rgb(204, 204, 204)" stroke-width="1px"></line></g></g></g></g></svg>