<svg viewBox="0 0 1496 400" xmlns="http://www.w3.org/2000/svg"><g><g><g><g><g><line x1="70" y1="378" x2="65" y2="378" style="visibility: inherit;" fill="rgb(0, 0, 0)" stroke="rgb(204, 204, 204)" stroke-width="1px"></line><line x1="70" y1="336" x2="65" y2="336" style="visibility: inherit;" fill="rgb(0, 0, 0)" stroke="rgb(204, 204, 204)" stroke-width="1px"></line><line x1="70" y1="294" x2="65" y2="294" style="visibility: inherit;" fill="rgb(0, 0, 0)" stroke="rgb(204, 204, 204)" stroke-width="1px"></line><line x1="70" y1="252" x2="65" y2="252" style="visibility: inherit;" fill="rgb(0, 0, 0)" stroke="rgb(204, 204, 204)" stroke-width="1px"></line><line x1="70" y1="210" x2="65" y2="210" style="visibility: inherit;" fill="rgb(0, 0, 0)" stroke="rgb(204, 204, 204)" stroke-width="1px"></line><line x1="70" y1="168" x2="65" y2="168" style="visibility: inherit;" fill="rgb(0, 0, 0)" stroke="rgb(204, 204, 204)" stroke-width="1px"></line><line x1="70" y1="126" x2="65" y2="126" style="visibility: inherit;" fill="rgb(0, 0, 0)" stroke="rgb(204, 204, 204)" stroke-width="1px"></line><line x1="70" y1="84" x2="65" y2="84" style="visibility: inherit;" fill="rgb(0, 0, 0)" stroke="rgb(204, 204, 204)" stroke-width="1px"></line><line x1="70" y1="42" x2="65" y2="42" style="visibility: inherit;" fill="rgb(0, 0, 0)" stroke="rgb(204, 204, 204)" stroke-width="1px"></line><line x1="70" y1="0" x2="65" y2="0" style="visibility: inherit;" fill="rgb(0, 0, 0)" stroke="rgb(204, 204, 204)" stroke-width="1px"></line></g><g transform="translate(60, 0)"><text x="0" y="378" dx="0em" dy="0.3em" style="text-anchor: end; visibility: hidden; font-family: &quot;Helvetica Neue&quot;, sans-serif; font-size: 12px; font-weight: 200;" fill="rgb(50, 49, 63)" stroke="none" stroke-width="1px">-500</text><text x="0" y="336" dx="0em" dy="0.3em" style="text-anchor: end; visibility: inherit; font-family: &quot;Helvetica Neue&quot;, sans-serif; font-size: 12px; font-weight: 200;" fill="rgb(50, 49, 63)" stroke="none" stroke-width="1px">0</text><text x="0" y="294" dx="0em" dy="0.3em" style="text-anchor: end; visibility: inherit; font-family: &quot;Helvetica Neue&quot;, sans-serif; font-size: 12px; font-weight: 200;" fill="rgb(50, 49, 63)" stroke="none" stroke-width="1px">500</text><text x="0" y="252" dx="0em" dy="0.3em" style="text-anchor: end; visibility: inherit; font-family: &quot;Helvetica Neue&quot;, sans-serif; font-size: 12px; font-weight: 200;" fill="rgb(50, 49, 63)" stroke="none" stroke-width="1px">1e+3</text><text x="0" y="210" dx="0em" dy="0.3em" style="text-anchor: end; visibility: inherit; font-family: &quot;Helvetica Neue&quot;, sans-serif; font-size: 12px; font-weight: 200;" fill="rgb(50, 49, 63)" stroke="none" stroke-width="1px">1.5e+3</text><text x="0" y="168" dx="0em" dy="0.3em" style="text-anchor: end; visibility: inherit; font-family: &quot;Helvetica Neue&quot;, sans-serif; font-size: 12px; font-weight: 200;" fill="rgb(50, 49, 63)" stroke="none" stroke-width="1px">2e+3</text><text x="0" y="126" dx="0em" dy="0.3em" style="text-anchor: end; visibility: inherit; font-family: &quot;Helvetica Neue&quot;, sans-serif; font-size: 12px; font-weight: 200;" fill="rgb(50, 49, 63)" stroke="none" stroke-width="1px">2.5e+3</text><text x="0" y="84" dx="0em" dy="0.3em" style="text-anchor: end; visibility: inherit; font-family: &quot;Helvetica Neue&quot;, sans-serif; font-size: 12px; font-weight: 200;" fill="rgb(50, 49, 63)" stroke="none" stroke-width="1px">3e+3</text><text x="0" y="42" dx="0em" dy="0.3em" style="text-anchor: end; visibility: inherit; font-family: &quot;Helvetica Neue&quot;, sans-serif; font-size: 12px; font-weight: 200;" fill="rgb(50, 49, 63)" stroke="none" stroke-width="1px">3.5e+3</text><text x="0" y="0" dx="0em" dy="0.3em" style="text-anchor: end; visibility: hidden; font-family: &quot;Helvetica Neue&quot;, sans-serif; font-size: 12px; font-weight: 200;" fill="rgb(50, 49, 63)" stroke="none" stroke-width="1px">4e+3</text></g><line x1="70" y1="0" x2="70" y2="378" fill="rgb(0, 0, 0)" stroke="rgb(204, 204, 204)" stroke-width="1px"></line></g></g><g transform="translate(70, 0)" clip-path="url(#clip_0)"><clipPath id="clip_0"><rect width="1426" height="378"></rect></clipPath><g><g><g><line x1="0" y1="0" x2="0" y2="378" fill="rgb(0, 0, 0)" stroke="rgb(60, 60, 60)" stroke-width="1px" opacity="0.25"></line><line x1="101.85714285714285" y1="0" x2="101.85714285714285" y2="378" fill="rgb(0, 0, 0)" stroke="rgb(60, 60, 60)" stroke-width="1px" opacity="0.25"></line><line x1="203.7142857142857" y1="0" x2="203.7142857142857" y2="378" fill="rgb(0, 0, 0)" stroke="rgb(60, 60, 60)" stroke-width="1px" opacity="0.25"></line><line x1="305.57142857142856" y1="0" x2="305.57142857142856" y2="378" fill="rgb(0, 0, 0)" stroke="rgb(60, 60, 60)" stroke-width="1px" opacity="0.25"></line><line x1="407.4285714285714" y1="0" x2="407.4285714285714" y2="378" fill="rgb(0, 0, 0)" stroke="rgb(60, 60, 60)" stroke-width="1px" opacity="0.25"></line><line x1="509.2857142857143" y1="0" x2="509.2857142857143" y2="378" fill="rgb(0, 0, 0)" stroke="rgb(60, 60, 60)" stroke-width="1px" opacity="0.25"></line><line x1="611.1428571428571" y1="0" x2="611.1428571428571" y2="378" fill="rgb(0, 0, 0)" stroke="rgb(60, 60, 60)" stroke-width="1px" opacity="0.25"></line><line x1="713" y1="0" x2="713" y2="378" fill="rgb(0, 0, 0)" stroke="rgb(60, 60, 60)" stroke-width="1px" opacity="0.25"></line><line x1="814.8571428571428" y1="0" x2="814.8571428571428" y2="378" fill="rgb(0, 0, 0)" stroke="rgb(60, 60, 60)" stroke-width="1px" opacity="0.25"></line><line x1="916.7142857142858" y1="0" x2="916.7142857142858" y2="378" fill="rgb(0, 0, 0)" stroke="rgb(60, 60, 60)" stroke-width="1px" opacity="0.25"></line><line x1="1018.5714285714286" y1="0" x2="1018.5714285714286" y2="378" fill="rgb(0, 0, 0)" stroke="rgb(60, 60, 60)" stroke-width="1px" opacity="0.25"></line><line x1="1120.4285714285713" y1="0" x2="1120.4285714285713" y2="378" fill="rgb(0, 0, 0)" stroke="rgb(60, 60, 60)" stroke-width="1px" opacity="0.25"></line><line x1="1222.2857142857142" y1="0" x2="1222.2857142857142" y2="378" fill="rgb(0, 0, 0)" stroke="rgb(60, 60, 60)" stroke-width="1px" opacity="0.25"></line><line x1="1324.142857142857" y1="0" x2="1324.142857142857" y2="378" fill="rgb(0, 0, 0)" stroke="rgb(60, 60, 60)" stroke-width="1px" opacity="0.25"></line><line x1="1426" y1="0" x2="1426" y2="378" fill="rgb(0, 0, 0)" stroke="rgb(60, 60, 60)" stroke-width="1px" opacity="0.25"></line></g><g><line x1="0" y1="378" x2="1426" y2="378" fill="rgb(0, 0, 0)" stroke="rgb(60, 60, 60)" stroke-width="1px" opacity="0.25"></line><line x1="0" y1="336" x2="1426" y2="336" fill="rgb(0, 0, 0)" stroke="rgb(60, 60, 60)" stroke-width="1px" opacity="0.25"></line><line x1="0" y1="294" x2="1426" y2="294" fill="rgb(0, 0, 0)" stroke="rgb(60, 60, 60)" stroke-width="1px" opacity="0.25"></line><line x1="0" y1="252" x2="1426" y2="252" fill="rgb(0, 0, 0)" stroke="rgb(60, 60, 60)" stroke-width="1px" opacity="0.25"></line><line x1="0" y1="210" x2="1426" y2="210" fill="rgb(0, 0, 0)" stroke="rgb(60, 60, 60)" stroke-width="1px" opacity="0.25"></line><line x1="0" y1="168" x2="1426" y2="168" fill="rgb(0, 0, 0)" stroke="rgb(60, 60, 60)" stroke-width="1px" opacity="0.25"></line><line x1="0" y1="126" x2="1426" y2="126" fill="rgb(0, 0, 0)" stroke="rgb(60, 60, 60)" stroke-width="1px" opacity="0.25"></line><line x1="0" y1="84" x2="1426" y2="84" fill="rgb(0, 0, 0)" stroke="rgb(60, 60, 60)" stroke-width="1px" opacity="0.25"></line><line x1="0" y1="42" x2="1426" y2="42" fill="rgb(0, 0, 0)" stroke="rgb(60, 60, 60)" stroke-width="1px" opacity="0.25"></line><line x1="0" y1="0" x2="1426" y2="0" fill="rgb(0, 0, 0)" stroke="rgb(60, 60, 60)" stroke-width="1px" opacity="0.25"></line></g></g></g><g><g><line x1="0" y1="336" x2="1426" y2="336" fill="rgb(0, 0, 0)" stroke="rgb(153, 153, 153)" stroke-width="1.5px"></line></g></g><g><g><line x1="101.85714285714285" y1="0" x2="101.85714285714285" y2="378" fill="rgb(0, 0, 0)" stroke="rgb(153, 153, 153)" stroke-width="1.5px"></line></g></g><g><g><g><g><g><path stroke="rgb(0, 119, 187)" stroke-width="2px" d="M101.85714285714285,144.05999999999997L112.04285714285714,106.88999999999999L122.22857142857143,122.16857142857145L132.4142857142857,130.56904411764708L142.6,129.13382373351843L152.78571428571428,215.8241165413534L162.97142857142856,181.17573704864495L173.15714285714284,242.112953466089L183.34285714285713,202.25489468005765L193.5285714285714,170.45183587291748L203.7142857142857,155.94487068111968L213.9,172.83248306500624L224.0857142857143,161.30843863719394L234.27142857142857,149.3596996528913L244.45714285714286,197.158293973068L254.64285714285714,185.05476184440042L264.8285714285714,206.09081780819383L275.01428571428573,223.1458227904833L285.2,263.14913131485815L295.3857142857143,282.9830039467231L305.57142857142856,283.0218032191716L315.75714285714287,293.7300228749146L325.9428571428571,249.31766298711997L336.12857142857143,281.1011483945461L346.3142857142857,296.2399320767257L356.5,258.2830944986059L366.68571428571425,288.8994880347475L376.87142857142857,299.6084993971905L387.0571428571428,311.71230409804025L397.24285714285713,244.55056761111578L407.4285714285714,274.5111445407708L417.61428571428576,262.31468575378767L427.8,260.37281135954424L437.9857142857143,282.2908874437053L448.1714285714286,290.60333260912L458.3571428571429,299.9923996623148L468.54285714285714,307.6082398445207L478.7285714285714,316.9153439412715L488.9142857142857,311.3444063523513L499.09999999999997,315.9314438175425L509.2857142857143,296.91086627527005L519.4714285714285,291.74811976267756L529.6571428571428,303.3672718609614L539.8428571428572,300.3931631160616L550.0285714285715,310.4022978706774L560.2142857142857,308.44457872228435L570.4,309.9915472334285L580.5857142857143,310.98692834007943L590.7714285714286,305.737757003977L600.9571428571429,307.695454202402L611.1428571428571,314.31327252147327L621.3285714285714,313.3447635128812L631.5142857142857,317.83725810773655L641.7,316.26555486464025L651.8857142857142,323.75613291878886L662.0714285714286,323.10967975127306L672.2571428571429,290.06260785075636L682.4428571428572,306.287164710456L692.6285714285714,314.07309882627425L702.8142857142858,303.01985929576404L713,306.1319155774585L723.1857142857142,314.75274934647524L733.3714285714285,318.8836496078852L743.5571428571429,322.30298976473114L753.7428571428571,317.66819385883866L763.9285714285714,320.3641163153032L774.1142857142856,319.5960697891819L784.3000000000001,324.1416418735092L794.4857142857143,311.5473851241055L804.6714285714286,303.2180310744633L814.8571428571428,302.924418644678L825.0428571428572,308.0906511868068L835.2285714285715,305.9487907120841L845.4142857142857,300.8668744272504L855.6,300.9089246563503L865.7857142857142,295.7933547938102L875.9714285714286,308.9192128762861L886.1571428571428,307.55472772577167L896.3428571428572,306.803236635463L906.5285714285714,307.9987419812778L916.7142857142858,293.5288451887667L926.9,308.53490711326003L937.0857142857143,307.18974426795603L947.2714285714285,311.9938465607736L957.4571428571428,313.16270793646413L967.6428571428572,317.5264247618785L977.8285714285714,319.9094548571271L988.0142857142857,323.89287291427627L998.1999999999999,321.31012374856573L1008.3857142857144,323.45647424913943L1018.5714285714286,326.45788454948365L1028.7571428571428,325.5035307296902L1038.942857142857,322.74691843781414L1049.1285714285716,325.9985510626885L1059.3142857142857,328.9575306376131L1069.5,330.16171838256787L1079.6857142857143,327.7258310295407L1089.8714285714284,329.0194986177244L1100.057142857143,323.64689917063464L1110.2428571428572,323.71613950238077L1120.4285714285713,319.18808370142847L1130.6142857142856,305.85365022085705L1140.8,309.81459013251424L1150.9857142857143,313.56875407950855L1161.1714285714286,311.5876524477051L1171.357142857143,315.8085914686231L1181.5428571428572,319.0131548811739L1191.7285714285715,316.7694929287043L1201.9142857142858,314.0456957572226L1212.1,309.85781745433354" style="fill: none;" fill="none"></path></g><g><path stroke="rgb(255, 112, 67)" stroke-width="2px" d="M101.85714285714285,85.09200000000004L112.04285714285714,84.67199999999997L122.22857142857143,94.27199999999999L132.4142857142857,88.85655882352944L142.6,98.29941151977795L152.78571428571428,95.85940601503756L162.97142857142856,96.50985193183914L173.15714285714284,93.5050418888519L183.34285714285713,92.10814765790752L193.5285714285714,104.6318144185962L203.7142857142857,107.47741239684842L213.9,116.75464194752203L224.0857142857143,121.60151552178195L234.27142857142857,117.84756756313072L244.45714285714286,113.00866535872012L254.64285714285714,112.02252101307369L264.8285714285714,131.19115721761472L275.01428571428573,134.45742605269018L285.2,115.14687892461632L295.3857142857143,113.60807109351737L305.57142857142856,117.35532485943133L315.75714285714287,123.09807050265545L325.9428571428571,133.4317239095774L336.12857142857143,122.69738348234804L346.3142857142857,144.07769087423853L356.5,141.01300929675634L366.68571428571425,140.7198052779623L376.87142857142857,138.56148184136342L387.0571428571428,159.47609681094457L397.24285714285713,154.88885707244768L407.4285714285714,145.4501129914725L417.61428571428576,177.85567037393199L427.8,153.14860104454806L437.9857142857143,149.7819605302706L448.1714285714286,132.1379760148498L458.3571428571429,138.95638567923783L468.54285714285714,162.77063155492087L478.7285714285714,161.83837892949086L488.9142857142857,185.37022741012152L499.09999999999997,189.34213645138237L509.2857142857143,166.18928185225968L519.4714285714285,174.9439691155688L529.6571428571428,208.82398147912374L539.8428571428572,235.97278889217756L550.0285714285715,237.34367333544904L560.2142857142857,217.46860400002987L570.4,241.93236240093336L580.5857142857143,236.853817440446L590.7714285714286,246.17149046439312L600.9571428571429,227.9060942784882L611.1428571428571,254.5452565672221L621.3285714285714,270.02475394037833L631.5142857142857,286.09965236425506L641.7,302.1621914185699L651.8857142857142,311.59811485114784L662.0714285714286,287.01966891067946L672.2571428571429,299.5222013464105L682.4428571428572,311.6269208078479L692.6285714285714,309.11215248470853L702.8142857142858,314.8608914908254L713,295.9997348944947L723.1857142857142,258.77744093669617L733.3714285714285,285.096864562018L743.5571428571429,300.1493187372109L753.7428571428571,311.5327912423266L763.9285714285714,319.13567474539593L774.1142857142856,320.6398048472376L784.3000000000001,301.68468290834255L794.4857142857143,305.19640974500555L804.6714285714286,314.2586458470033L814.8571428571428,314.05118750820196L825.0428571428572,312.9523125049212L835.2285714285715,314.9809875029527L845.4142857142857,318.51659250177164L855.6,320.940355501063L865.7857142857142,323.6042133006378L875.9714285714286,323.11932798038265L886.1571428571428,319.5355967882296L896.3428571428572,319.63655807293776L906.5285714285714,319.7979348437627L916.7142857142858,315.1907609062576L926.9,315.8872565437546L937.0857142857143,314.92755392625276L947.2714285714285,316.16613235575164L957.4571428571428,311.33167941345096L967.6428571428572,308.1958076480706L977.8285714285714,303.49188458884237L988.0142857142857,303.4919307533054L998.1999999999999,310.64875845198327L1008.3857142857144,267.09645507118995L1018.5714285714286,287.299473042714L1028.7571428571428,297.5732838256284L1038.942857142857,302.830370295377L1049.1285714285716,303.6326221772262L1059.3142857142857,308.4483733063357L1069.5,309.1874239838014L1079.6857142857143,309.2612543902809L1089.8714285714284,312.5311526341685L1100.057142857143,304.3458915805011L1110.2428571428572,305.24753494830065L1120.4285714285713,304.9485209689804L1130.6142857142856,306.1467125813882L1140.8,304.48002754883294L1150.9857142857143,308.3184165292998L1161.1714285714286,286.19424991757984L1171.357142857143,295.2301499505479L1181.5428571428572,303.00368997032876L1191.7285714285715,306.65981398219725L1201.9142857142858,301.22628838931837L1212.1,301.59497303359103L1222.2857142857142,295.1297838201546L1232.4714285714285,301.9018702920928L1242.6571428571428,302.9747221752557L1252.8428571428572,303.8872333051534L1263.0285714285715,296.37073998309205L1273.2142857142858,254.4640439898552L1283.4,273.7392263939131L1293.5857142857142,284.4307358363479L1303.7714285714285,293.6680415018087L1313.9571428571428,299.81522490108523" style="fill: none;" fill="none"></path></g><g><path stroke="rgb(204, 51, 17)" stroke-width="2px" d="M101.85714285714285,91.476L122.22857142857143,96.46349999999995L142.6,113.07600000000002L162.97142857142856,215.5226911764706L183.34285714285713,267.7769021512838L203.7142857142857,239.65823684210525L224.0857142857143,279.3047919091891L244.45714285714286,302.3702868896851L264.8285714285714,315.9591162248467L285.2,324.02423643270293L305.57142857142856,230.1266843048458L325.9428571428571,272.56839695331024L346.3142857142857,295.1817728102598L366.68571428571425,311.5218684655286L387.0571428571428,260.80927678017775L407.4285714285714,210.1976879826478L427.8,215.19305833891687L448.1714285714286,196.31391763863866L468.54285714285714,245.57215218168264L488.9142857142857,271.328232992132L509.2857142857143,297.1975072882725L529.6571428571428,312.71870866566064L550.0285714285715,322.03129874373474L570.4,256.9240707433667L590.7714285714286,288.4201319902293L611.1428571428571,300.8329003680524L631.5142857142857,314.49655420544957L651.8857142857142,242.96188859424493L672.2571428571429,271.071543513733L692.6285714285714,296.2701316789904L713,291.16207832983986L733.3714285714285,246.93724347819918L753.7428571428571,230.14634528512107L774.1142857142856,221.11340691226832L794.4857142857143,254.8040447265269L814.8571428571428,210.37202637762542L835.2285714285715,247.98961605937754L855.6,228.99696956510314L875.9714285714286,217.46698171337405L896.3428571428572,196.8401890004516L916.7142857142858,201.43211340395393" style="fill: none;" fill="none"></path></g></g></g></g><g opacity="0.2"><g><g><g><path stroke="rgb(0, 119, 187)" stroke-width="2px" d="M101.85714285714285,144.05999999999997L112.04285714285714,84.58799999999997L122.22857142857143,136.83599999999998L132.4142857142857,140.44799999999998L142.6,127.25999999999999L152.78571428571428,335.748L162.97142857142856,131.628L173.15714285714284,330.96L183.34285714285713,143.47199999999998L193.5285714285714,123.22799999999998L203.7142857142857,134.31599999999997L213.9,198.072L224.0857142857143,144.05999999999997L234.27142857142857,131.45999999999998L244.45714285714286,268.8L254.64285714285714,166.90800000000002L264.8285714285714,237.636L275.01428571428573,248.724L285.2,323.148L295.3857142857143,312.73199999999997L305.57142857142856,283.08L315.75714285714287,309.79200000000003L325.9428571428571,182.7L336.12857142857143,328.776L346.3142857142857,318.948L356.5,201.348L366.68571428571425,334.824L376.87142857142857,315.672L387.0571428571428,329.868L397.24285714285713,143.80800000000002L407.4285714285714,319.452L417.61428571428576,244.02L427.8,257.46L437.9857142857143,315.168L448.1714285714286,303.072L458.3571428571429,314.076L468.54285714285714,319.032L478.7285714285714,330.876L488.9142857142857,302.988L499.09999999999997,322.812L509.2857142857143,268.38L519.4714285714285,284.004L529.6571428571428,320.796L539.8428571428572,295.932L550.0285714285715,325.416L560.2142857142857,305.50800000000004L570.4,312.312L580.5857142857143,312.48L590.7714285714286,297.86400000000003L600.9571428571429,310.632L611.1428571428571,324.24L621.3285714285714,311.892L631.5142857142857,324.576L641.7,313.908L651.8857142857142,334.992L662.0714285714286,322.14L672.2571428571429,240.49200000000002L682.4428571428572,330.624L692.6285714285714,325.752L702.8142857142858,286.44L713,310.8L723.1857142857142,327.68399999999997L733.3714285714285,325.08L743.5571428571429,327.432L753.7428571428571,310.716L763.9285714285714,324.408L774.1142857142856,318.444L784.3000000000001,330.96L794.4857142857143,292.656L804.6714285714286,290.724L814.8571428571428,302.484L825.0428571428572,315.84L835.2285714285715,302.736L845.4142857142857,293.244L855.6,300.972L865.7857142857142,288.12L875.9714285714286,328.608L886.1571428571428,305.50800000000004L896.3428571428572,305.676L906.5285714285714,309.79200000000003L916.7142857142858,271.824L926.9,331.044L937.0857142857143,305.172L947.2714285714285,319.2L957.4571428571428,314.916L967.6428571428572,324.072L977.8285714285714,323.484L988.0142857142857,329.868L998.1999999999999,317.43600000000004L1008.3857142857144,326.676L1018.5714285714286,330.96L1028.7571428571428,324.072L1038.942857142857,318.61199999999997L1049.1285714285716,330.876L1059.3142857142857,333.396L1069.5,331.968L1079.6857142857143,324.072L1089.8714285714284,330.96L1100.057142857143,315.588L1110.2428571428572,323.82L1120.4285714285713,312.396L1130.6142857142856,285.852L1140.8,315.75600000000003L1150.9857142857143,319.2L1161.1714285714286,308.616L1171.357142857143,322.14L1181.5428571428572,323.82L1191.7285714285715,313.404L1201.9142857142858,309.96000000000004L1212.1,303.576" style="fill: none;" fill="none"></path></g><g><path stroke="rgb(255, 112, 67)" stroke-width="2px" d="M101.85714285714285,85.09200000000004L112.04285714285714,84.42000000000002L122.22857142857143,103.488L132.4142857142857,82.488L142.6,110.62799999999999L152.78571428571428,92.48400000000004L162.97142857142856,97.44L173.15714285714284,89.12399999999997L183.34285714285713,90.048L193.5285714285714,123.22799999999998L203.7142857142857,111.72000000000003L213.9,130.61999999999998L224.0857142857143,128.856L234.27142857142857,112.22399999999999L244.45714285714286,105.75600000000003L254.64285714285714,110.54399999999998L264.8285714285714,159.936L275.01428571428573,139.35600000000002L285.2,86.18399999999997L295.3857142857143,111.29999999999995L305.57142857142856,122.976L315.75714285714287,131.712L325.9428571428571,148.93200000000002L336.12857142857143,106.596L346.3142857142857,176.148L356.5,136.41600000000003L366.68571428571425,140.27999999999997L376.87142857142857,135.32399999999998L387.0571428571428,190.848L397.24285714285713,148.008L407.4285714285714,131.29200000000003L417.61428571428576,226.464L427.8,116.08800000000002L437.9857142857143,144.73199999999997L448.1714285714286,105.67200000000003L458.3571428571429,149.18400000000003L468.54285714285714,198.492L478.7285714285714,160.44L488.9142857142857,220.668L499.09999999999997,195.3L509.2857142857143,131.45999999999998L519.4714285714285,188.076L529.6571428571428,259.644L539.8428571428572,276.696L550.0285714285715,239.4L560.2142857142857,187.656L570.4,278.628L580.5857142857143,229.236L590.7714285714286,260.148L600.9571428571429,200.508L611.1428571428571,294.504L621.3285714285714,293.244L631.5142857142857,310.212L641.7,326.256L651.8857142857142,325.752L662.0714285714286,250.152L672.2571428571429,318.276L682.4428571428572,329.784L692.6285714285714,305.34000000000003L702.8142857142858,323.484L713,267.70799999999997L723.1857142857142,202.94400000000002L733.3714285714285,324.576L743.5571428571429,322.728L753.7428571428571,328.608L763.9285714285714,330.54L774.1142857142856,322.896L784.3000000000001,273.252L794.4857142857143,310.464L804.6714285714286,327.852L814.8571428571428,313.74L825.0428571428572,311.304L835.2285714285715,318.024L845.4142857142857,323.82L855.6,324.576L865.7857142857142,327.6L875.9714285714286,322.392L886.1571428571428,314.15999999999997L896.3428571428572,319.788L906.5285714285714,320.04L916.7142857142858,308.28L926.9,316.932L937.0857142857143,313.488L947.2714285714285,318.024L957.4571428571428,304.08L967.6428571428572,303.492L977.8285714285714,296.436L988.0142857142857,303.492L998.1999999999999,321.384L1008.3857142857144,201.768L1018.5714285714286,317.604L1028.7571428571428,312.98400000000004L1038.942857142857,310.716L1049.1285714285716,304.836L1059.3142857142857,315.672L1069.5,310.296L1079.6857142857143,309.372L1089.8714285714284,317.43600000000004L1100.057142857143,292.068L1110.2428571428572,306.6L1120.4285714285713,304.5L1130.6142857142856,307.944L1140.8,301.98L1150.9857142857143,314.076L1161.1714285714286,253.00799999999998L1171.357142857143,308.784L1181.5428571428572,314.664L1191.7285714285715,312.144L1201.9142857142858,293.076L1212.1,302.148L1222.2857142857142,285.432L1232.4714285714285,312.06L1242.6571428571428,304.584L1252.8428571428572,305.256L1263.0285714285715,285.096L1273.2142857142858,191.604L1283.4,302.652L1293.5857142857142,300.468L1303.7714285714285,307.524L1313.9571428571428,309.036" style="fill: none;" fill="none"></path></g><g><path stroke="rgb(204, 51, 17)" stroke-width="2px" d="M101.85714285714285,91.476L122.22857142857143,99.45599999999996L142.6,129.02400000000003L162.97142857142856,336L183.34285714285713,336L203.7142857142857,200.76L224.0857142857143,336L244.45714285714286,336L264.8285714285714,336L285.2,336L305.57142857142856,90.132L325.9428571428571,336L346.3142857142857,329.028L366.68571428571425,336L387.0571428571428,184.8L407.4285714285714,134.31599999999997L427.8,222.684L448.1714285714286,168L468.54285714285714,319.452L488.9142857142857,309.96000000000004L509.2857142857143,336L529.6571428571428,336L550.0285714285715,336L570.4,159.264L590.7714285714286,335.664L611.1428571428571,319.452L631.5142857142857,334.992L651.8857142857142,135.66000000000003L672.2571428571429,313.236L692.6285714285714,334.068L713,283.5L733.3714285714285,180.6L753.7428571428571,204.96L774.1142857142856,207.564L794.4857142857143,305.34000000000003L814.8571428571428,143.72400000000002L835.2285714285715,304.416L855.6,200.508L875.9714285714286,200.172L896.3428571428572,165.9L916.7142857142858,208.32" style="fill: none;" fill="none"></path></g></g></g></g></g></g><g transform="translate(70, 378)" clip-path="url(#clip_1)"><clipPath id="clip_1"><rect width="1426" height="22"></rect></clipPath><g><g><line x1="0" y1="0" x2="0" y2="5" style="visibility: inherit;" fill="rgb(0, 0, 0)" stroke="rgb(204, 204, 204)" stroke-width="1px"></line><line x1="101.85714285714285" y1="0" x2="101.85714285714285" y2="5" style="visibility: inherit;" fill="rgb(0, 0, 0)" stroke="rgb(204, 204, 204)" stroke-width="1px"></line><line x1="203.7142857142857" y1="0" x2="203.7142857142857" y2="5" style="visibility: inherit;" fill="rgb(0, 0, 0)" stroke="rgb(204, 204, 204)" stroke-width="1px"></line><line x1="305.57142857142856" y1="0" x2="305.57142857142856" y2="5" style="visibility: inherit;" fill="rgb(0, 0, 0)" stroke="rgb(204, 204, 204)" stroke-width="1px"></line><line x1="407.4285714285714" y1="0" x2="407.4285714285714" y2="5" style="visibility: inherit;" fill="rgb(0, 0, 0)" stroke="rgb(204, 204, 204)" stroke-width="1px"></line><line x1="509.2857142857143" y1="0" x2="509.2857142857143" y2="5" style="visibility: inherit;" fill="rgb(0, 0, 0)" stroke="rgb(204, 204, 204)" stroke-width="1px"></line><line x1="611.1428571428571" y1="0" x2="611.1428571428571" y2="5" style="visibility: inherit;" fill="rgb(0, 0, 0)" stroke="rgb(204, 204, 204)" stroke-width="1px"></line><line x1="713" y1="0" x2="713" y2="5" style="visibility: inherit;" fill="rgb(0, 0, 0)" stroke="rgb(204, 204, 204)" stroke-width="1px"></line><line x1="814.8571428571428" y1="0" x2="814.8571428571428" y2="5" style="visibility: inherit;" fill="rgb(0, 0, 0)" stroke="rgb(204, 204, 204)" stroke-width="1px"></line><line x1="916.7142857142858" y1="0" x2="916.7142857142858" y2="5" style="visibility: inherit;" fill="rgb(0, 0, 0)" stroke="rgb(204, 204, 204)" stroke-width="1px"></line><line x1="1018.5714285714286" y1="0" x2="1018.5714285714286" y2="5" style="visibility: inherit;" fill="rgb(0, 0, 0)" stroke="rgb(204, 204, 204)" stroke-width="1px"></line><line x1="1120.4285714285713" y1="0" x2="1120.4285714285713" y2="5" style="visibility: inherit;" fill="rgb(0, 0, 0)" stroke="rgb(204, 204, 204)" stroke-width="1px"></line><line x1="1222.2857142857142" y1="0" x2="1222.2857142857142" y2="5" style="visibility: inherit;" fill="rgb(0, 0, 0)" stroke="rgb(204, 204, 204)" stroke-width="1px"></line><line x1="1324.142857142857" y1="0" x2="1324.142857142857" y2="5" style="visibility: inherit;" fill="rgb(0, 0, 0)" stroke="rgb(204, 204, 204)" stroke-width="1px"></line><line x1="1426" y1="0" x2="1426" y2="5" style="visibility: inherit;" fill="rgb(0, 0, 0)" stroke="rgb(204, 204, 204)" stroke-width="1px"></line></g><g transform="translate(0, 8)"><text x="0" y="0" dx="0em" dy="0.95em" style="text-anchor: middle; visibility: hidden; font-family: &quot;Helvetica Neue&quot;, sans-serif; font-size: 12px; font-weight: 200;" fill="rgb(50, 49, 63)" stroke="none" stroke-width="1px">-50</text><text x="101.85714285714285" y="0" dx="0em" dy="0.95em" style="text-anchor: middle; visibility: inherit; font-family: &quot;Helvetica Neue&quot;, sans-serif; font-size: 12px; font-weight: 200;" fill="rgb(50, 49, 63)" stroke="none" stroke-width="1px">0</text><text x="203.7142857142857" y="0" dx="0em" dy="0.95em" style="text-anchor: middle; visibility: inherit; font-family: &quot;Helvetica Neue&quot;, sans-serif; font-size: 12px; font-weight: 200;" fill="rgb(50, 49, 63)" stroke="none" stroke-width="1px">50</text><text x="305.57142857142856" y="0" dx="0em" dy="0.95em" style="text-anchor: middle; visibility: inherit; font-family: &quot;Helvetica Neue&quot;, sans-serif; font-size: 12px; font-weight: 200;" fill="rgb(50, 49, 63)" stroke="none" stroke-width="1px">100</text><text x="407.4285714285714" y="0" dx="0em" dy="0.95em" style="text-anchor: middle; visibility: inherit; font-family: &quot;Helvetica Neue&quot;, sans-serif; font-size: 12px; font-weight: 200;" fill="rgb(50, 49, 63)" stroke="none" stroke-width="1px">150</text><text x="509.2857142857143" y="0" dx="0em" dy="0.95em" style="text-anchor: middle; visibility: inherit; font-family: &quot;Helvetica Neue&quot;, sans-serif; font-size: 12px; font-weight: 200;" fill="rgb(50, 49, 63)" stroke="none" stroke-width="1px">200</text><text x="611.1428571428571" y="0" dx="0em" dy="0.95em" style="text-anchor: middle; visibility: inherit; font-family: &quot;Helvetica Neue&quot;, sans-serif; font-size: 12px; font-weight: 200;" fill="rgb(50, 49, 63)" stroke="none" stroke-width="1px">250</text><text x="713" y="0" dx="0em" dy="0.95em" style="text-anchor: middle; visibility: inherit; font-family: &quot;Helvetica Neue&quot;, sans-serif; font-size: 12px; font-weight: 200;" fill="rgb(50, 49, 63)" stroke="none" stroke-width="1px">300</text><text x="814.8571428571428" y="0" dx="0em" dy="0.95em" style="text-anchor: middle; visibility: inherit; font-family: &quot;Helvetica Neue&quot;, sans-serif; font-size: 12px; font-weight: 200;" fill="rgb(50, 49, 63)" stroke="none" stroke-width="1px">350</text><text x="916.7142857142858" y="0" dx="0em" dy="0.95em" style="text-anchor: middle; visibility: inherit; font-family: &quot;Helvetica Neue&quot;, sans-serif; font-size: 12px; font-weight: 200;" fill="rgb(50, 49, 63)" stroke="none" stroke-width="1px">400</text><text x="1018.5714285714286" y="0" dx="0em" dy="0.95em" style="text-anchor: middle; visibility: inherit; font-family: &quot;Helvetica Neue&quot;, sans-serif; font-size: 12px; font-weight: 200;" fill="rgb(50, 49, 63)" stroke="none" stroke-width="1px">450</text><text x="1120.4285714285713" y="0" dx="0em" dy="0.95em" style="text-anchor: middle; visibility: inherit; font-family: &quot;Helvetica Neue&quot;, sans-serif; font-size: 12px; font-weight: 200;" fill="rgb(50, 49, 63)" stroke="none" stroke-width="1px">500</text><text x="1222.2857142857142" y="0" dx="0em" dy="0.95em" style="text-anchor: middle; visibility: inherit; font-family: &quot;Helvetica Neue&quot;, sans-serif; font-size: 12px; font-weight: 200;" fill="rgb(50, 49, 63)" stroke="none" stroke-width="1px">550</text><text x="1324.142857142857" y="0" dx="0em" dy="0.95em" style="text-anchor: middle; visibility: inherit; font-family: &quot;Helvetica Neue&quot;, sans-serif; font-size: 12px; font-weight: 200;" fill="rgb(50, 49, 63)" stroke="none" stroke-width="1px">600</text><text x="1426" y="0" dx="0em" dy="0.95em" style="text-anchor: middle; visibility: hidden; font-family: &quot;Helvetica Neue&quot;, sans-serif; font-size: 12px; font-weight: 200;" fill="rgb(50, 49, 63)" stroke="none" stroke-width="1px">650</text></g><line x1="0" y1="0" x2="1426" y2="0" fill="rgb(0, 0, 0)" stroke="rgb(204, 204, 204)" stroke-width="1px"></line></g></g></g></g></svg>