<svg viewBox="0 0 1496 400" xmlns="http://www.w3.org/2000/svg"><g><g><g><g><g><line x1="50" y1="378" x2="45" y2="378" style="visibility: inherit;" fill="rgb(0, 0, 0)" stroke="rgb(204, 204, 204)" stroke-width="1px"></line><line x1="50" y1="346.5" x2="45" y2="346.5" style="visibility: inherit;" fill="rgb(0, 0, 0)" stroke="rgb(204, 204, 204)" stroke-width="1px"></line><line x1="50" y1="315" x2="45" y2="315" style="visibility: inherit;" fill="rgb(0, 0, 0)" stroke="rgb(204, 204, 204)" stroke-width="1px"></line><line x1="50" y1="283.5" x2="45" y2="283.5" style="visibility: inherit;" fill="rgb(0, 0, 0)" stroke="rgb(204, 204, 204)" stroke-width="1px"></line><line x1="50" y1="252" x2="45" y2="252" style="visibility: inherit;" fill="rgb(0, 0, 0)" stroke="rgb(204, 204, 204)" stroke-width="1px"></line><line x1="50" y1="220.5" x2="45" y2="220.5" style="visibility: inherit;" fill="rgb(0, 0, 0)" stroke="rgb(204, 204, 204)" stroke-width="1px"></line><line x1="50" y1="189.00000000000003" x2="45" y2="189.00000000000003" style="visibility: inherit;" fill="rgb(0, 0, 0)" stroke="rgb(204, 204, 204)" stroke-width="1px"></line><line x1="50" y1="157.50000000000003" x2="45" y2="157.50000000000003" style="visibility: inherit;" fill="rgb(0, 0, 0)" stroke="rgb(204, 204, 204)" stroke-width="1px"></line><line x1="50" y1="126.00000000000006" x2="45" y2="126.00000000000006" style="visibility: inherit;" fill="rgb(0, 0, 0)" stroke="rgb(204, 204, 204)" stroke-width="1px"></line><line x1="50" y1="94.50000000000006" x2="45" y2="94.50000000000006" style="visibility: inherit;" fill="rgb(0, 0, 0)" stroke="rgb(204, 204, 204)" stroke-width="1px"></line><line x1="50" y1="63" x2="45" y2="63" style="visibility: inherit;" fill="rgb(0, 0, 0)" stroke="rgb(204, 204, 204)" stroke-width="1px"></line><line x1="50" y1="31.5" x2="45" y2="31.5" style="visibility: inherit;" fill="rgb(0, 0, 0)" stroke="rgb(204, 204, 204)" stroke-width="1px"></line><line x1="50" y1="0" x2="45" y2="0" style="visibility: inherit;" fill="rgb(0, 0, 0)" stroke="rgb(204, 204, 204)" stroke-width="1px"></line></g><g transform="translate(40, 0)"><text x="0" y="378" dx="0em" dy="0.3em" style="text-anchor: end; visibility: hidden; font-family: &quot;Helvetica Neue&quot;, sans-serif; font-size: 12px; font-weight: 200;" fill="rgb(50, 49, 63)" stroke="none" stroke-width="1px">-0.1</text><text x="0" y="346.5" dx="0em" dy="0.3em" style="text-anchor: end; visibility: inherit; font-family: &quot;Helvetica Neue&quot;, sans-serif; font-size: 12px; font-weight: 200;" fill="rgb(50, 49, 63)" stroke="none" stroke-width="1px">0</text><text x="0" y="315" dx="0em" dy="0.3em" style="text-anchor: end; visibility: inherit; font-family: &quot;Helvetica Neue&quot;, sans-serif; font-size: 12px; font-weight: 200;" fill="rgb(50, 49, 63)" stroke="none" stroke-width="1px">0.1</text><text x="0" y="283.5" dx="0em" dy="0.3em" style="text-anchor: end; visibility: inherit; font-family: &quot;Helvetica Neue&quot;, sans-serif; font-size: 12px; font-weight: 200;" fill="rgb(50, 49, 63)" stroke="none" stroke-width="1px">0.2</text><text x="0" y="252" dx="0em" dy="0.3em" style="text-anchor: end; visibility: inherit; font-family: &quot;Helvetica Neue&quot;, sans-serif; font-size: 12px; font-weight: 200;" fill="rgb(50, 49, 63)" stroke="none" stroke-width="1px">0.3</text><text x="0" y="220.5" dx="0em" dy="0.3em" style="text-anchor: end; visibility: inherit; font-family: &quot;Helvetica Neue&quot;, sans-serif; font-size: 12px; font-weight: 200;" fill="rgb(50, 49, 63)" stroke="none" stroke-width="1px">0.4</text><text x="0" y="189.00000000000003" dx="0em" dy="0.3em" style="text-anchor: end; visibility: inherit; font-family: &quot;Helvetica Neue&quot;, sans-serif; font-size: 12px; font-weight: 200;" fill="rgb(50, 49, 63)" stroke="none" stroke-width="1px">0.5</text><text x="0" y="157.50000000000003" dx="0em" dy="0.3em" style="text-anchor: end; visibility: inherit; font-family: &quot;Helvetica Neue&quot;, sans-serif; font-size: 12px; font-weight: 200;" fill="rgb(50, 49, 63)" stroke="none" stroke-width="1px">0.6</text><text x="0" y="126.00000000000006" dx="0em" dy="0.3em" style="text-anchor: end; visibility: inherit; font-family: &quot;Helvetica Neue&quot;, sans-serif; font-size: 12px; font-weight: 200;" fill="rgb(50, 49, 63)" stroke="none" stroke-width="1px">0.7</text><text x="0" y="94.50000000000006" dx="0em" dy="0.3em" style="text-anchor: end; visibility: inherit; font-family: &quot;Helvetica Neue&quot;, sans-serif; font-size: 12px; font-weight: 200;" fill="rgb(50, 49, 63)" stroke="none" stroke-width="1px">0.8</text><text x="0" y="63" dx="0em" dy="0.3em" style="text-anchor: end; visibility: inherit; font-family: &quot;Helvetica Neue&quot;, sans-serif; font-size: 12px; font-weight: 200;" fill="rgb(50, 49, 63)" stroke="none" stroke-width="1px">0.9</text><text x="0" y="31.5" dx="0em" dy="0.3em" style="text-anchor: end; visibility: inherit; font-family: &quot;Helvetica Neue&quot;, sans-serif; font-size: 12px; font-weight: 200;" fill="rgb(50, 49, 63)" stroke="none" stroke-width="1px">1</text><text x="0" y="0" dx="0em" dy="0.3em" style="text-anchor: end; visibility: hidden; font-family: &quot;Helvetica Neue&quot;, sans-serif; font-size: 12px; font-weight: 200;" fill="rgb(50, 49, 63)" stroke="none" stroke-width="1px">1.1</text></g><line x1="50" y1="0" x2="50" y2="378" fill="rgb(0, 0, 0)" stroke="rgb(204, 204, 204)" stroke-width="1px"></line></g></g><g transform="translate(50, 0)" clip-path="url(#clip_0)"><clipPath id="clip_0"><rect width="1446" height="378"></rect></clipPath><g><g><g><line x1="0" y1="0" x2="0" y2="378" fill="rgb(0, 0, 0)" stroke="rgb(60, 60, 60)" stroke-width="1px" opacity="0.25"></line><line x1="103.28571428571428" y1="0" x2="103.28571428571428" y2="378" fill="rgb(0, 0, 0)" stroke="rgb(60, 60, 60)" stroke-width="1px" opacity="0.25"></line><line x1="206.57142857142856" y1="0" x2="206.57142857142856" y2="378" fill="rgb(0, 0, 0)" stroke="rgb(60, 60, 60)" stroke-width="1px" opacity="0.25"></line><line x1="309.85714285714283" y1="0" x2="309.85714285714283" y2="378" fill="rgb(0, 0, 0)" stroke="rgb(60, 60, 60)" stroke-width="1px" opacity="0.25"></line><line x1="413.1428571428571" y1="0" x2="413.1428571428571" y2="378" fill="rgb(0, 0, 0)" stroke="rgb(60, 60, 60)" stroke-width="1px" opacity="0.25"></line><line x1="516.4285714285714" y1="0" x2="516.4285714285714" y2="378" fill="rgb(0, 0, 0)" stroke="rgb(60, 60, 60)" stroke-width="1px" opacity="0.25"></line><line x1="619.7142857142857" y1="0" x2="619.7142857142857" y2="378" fill="rgb(0, 0, 0)" stroke="rgb(60, 60, 60)" stroke-width="1px" opacity="0.25"></line><line x1="723" y1="0" x2="723" y2="378" fill="rgb(0, 0, 0)" stroke="rgb(60, 60, 60)" stroke-width="1px" opacity="0.25"></line><line x1="826.2857142857142" y1="0" x2="826.2857142857142" y2="378" fill="rgb(0, 0, 0)" stroke="rgb(60, 60, 60)" stroke-width="1px" opacity="0.25"></line><line x1="929.5714285714287" y1="0" x2="929.5714285714287" y2="378" fill="rgb(0, 0, 0)" stroke="rgb(60, 60, 60)" stroke-width="1px" opacity="0.25"></line><line x1="1032.857142857143" y1="0" x2="1032.857142857143" y2="378" fill="rgb(0, 0, 0)" stroke="rgb(60, 60, 60)" stroke-width="1px" opacity="0.25"></line><line x1="1136.142857142857" y1="0" x2="1136.142857142857" y2="378" fill="rgb(0, 0, 0)" stroke="rgb(60, 60, 60)" stroke-width="1px" opacity="0.25"></line><line x1="1239.4285714285713" y1="0" x2="1239.4285714285713" y2="378" fill="rgb(0, 0, 0)" stroke="rgb(60, 60, 60)" stroke-width="1px" opacity="0.25"></line><line x1="1342.7142857142858" y1="0" x2="1342.7142857142858" y2="378" fill="rgb(0, 0, 0)" stroke="rgb(60, 60, 60)" stroke-width="1px" opacity="0.25"></line><line x1="1446" y1="0" x2="1446" y2="378" fill="rgb(0, 0, 0)" stroke="rgb(60, 60, 60)" stroke-width="1px" opacity="0.25"></line></g><g><line x1="0" y1="378" x2="1446" y2="378" fill="rgb(0, 0, 0)" stroke="rgb(60, 60, 60)" stroke-width="1px" opacity="0.25"></line><line x1="0" y1="346.5" x2="1446" y2="346.5" fill="rgb(0, 0, 0)" stroke="rgb(60, 60, 60)" stroke-width="1px" opacity="0.25"></line><line x1="0" y1="315" x2="1446" y2="315" fill="rgb(0, 0, 0)" stroke="rgb(60, 60, 60)" stroke-width="1px" opacity="0.25"></line><line x1="0" y1="283.5" x2="1446" y2="283.5" fill="rgb(0, 0, 0)" stroke="rgb(60, 60, 60)" stroke-width="1px" opacity="0.25"></line><line x1="0" y1="252" x2="1446" y2="252" fill="rgb(0, 0, 0)" stroke="rgb(60, 60, 60)" stroke-width="1px" opacity="0.25"></line><line x1="0" y1="220.5" x2="1446" y2="220.5" fill="rgb(0, 0, 0)" stroke="rgb(60, 60, 60)" stroke-width="1px" opacity="0.25"></line><line x1="0" y1="189.00000000000003" x2="1446" y2="189.00000000000003" fill="rgb(0, 0, 0)" stroke="rgb(60, 60, 60)" stroke-width="1px" opacity="0.25"></line><line x1="0" y1="157.50000000000003" x2="1446" y2="157.50000000000003" fill="rgb(0, 0, 0)" stroke="rgb(60, 60, 60)" stroke-width="1px" opacity="0.25"></line><line x1="0" y1="126.00000000000006" x2="1446" y2="126.00000000000006" fill="rgb(0, 0, 0)" stroke="rgb(60, 60, 60)" stroke-width="1px" opacity="0.25"></line><line x1="0" y1="94.50000000000006" x2="1446" y2="94.50000000000006" fill="rgb(0, 0, 0)" stroke="rgb(60, 60, 60)" stroke-width="1px" opacity="0.25"></line><line x1="0" y1="63" x2="1446" y2="63" fill="rgb(0, 0, 0)" stroke="rgb(60, 60, 60)" stroke-width="1px" opacity="0.25"></line><line x1="0" y1="31.5" x2="1446" y2="31.5" fill="rgb(0, 0, 0)" stroke="rgb(60, 60, 60)" stroke-width="1px" opacity="0.25"></line><line x1="0" y1="0" x2="1446" y2="0" fill="rgb(0, 0, 0)" stroke="rgb(60, 60, 60)" stroke-width="1px" opacity="0.25"></line></g></g></g><g><g><line x1="0" y1="346.5" x2="1446" y2="346.5" fill="rgb(0, 0, 0)" stroke="rgb(153, 153, 153)" stroke-width="1.5px"></line></g></g><g><g><line x1="103.28571428571428" y1="0" x2="103.28571428571428" y2="378" fill="rgb(0, 0, 0)" stroke="rgb(153, 153, 153)" stroke-width="1.5px"></line></g></g><g><g><g><g><g><path stroke="rgb(0, 119, 187)" stroke-width="2px" d="M103.28571428571428,59.09322792291641L113.61428571428571,60.11773453652859L123.94285714285715,59.78088500670026L134.27142857142857,59.79967508530791L144.6,60.00674521377073L154.92857142857142,174.97767074046226L165.25714285714284,128.60056811006578L175.5857142857143,199.2805369235451L185.91428571428568,149.00073524407844L196.24285714285713,113.07549947222282L206.57142857142856,91.62332440380806L216.9,93.4409187599324L227.22857142857143,87.01521973059539L237.55714285714285,76.639681640415L247.8857142857143,96.40403070597335L258.2142857142857,89.49163787625042L268.54285714285714,98.02409074040571L278.87142857142857,110.64730693978771L289.2,160.36869082265397L299.52857142857147,161.05714650399366L309.85714285714283,157.31746842801462L320.18571428571425,163.92552267639425L330.5142857142857,128.7677008203391L340.84285714285716,159.54506776305206L351.1714285714286,168.17615195772683L361.5,137.58369842439095L371.82857142857137,172.15632558968838L382.15714285714284,187.21730911021766L392.48571428571427,192.68407188190724L402.81428571428575,139.64842099689733L413.1428571428571,158.6423098888031L423.4714285714286,141.1158269669974L433.8,136.35536133125666L444.12857142857143,148.7618742854103L454.45714285714286,151.36102883936962L464.78571428571433,159.33162128159344L475.1142857142857,170.342946902882L485.4428571428571,181.13881092263816L495.7714285714286,182.00661896060672L506.09999999999997,184.5307733712009L516.4285714285714,166.11985084114502L526.7571428571429,160.75586397805782L537.0857142857143,167.15412888329578L547.4142857142857,164.18128972837297L557.7428571428571,171.97781134679877L568.0714285714286,169.58894041186554L578.4,168.15561785100093L588.7285714285714,166.89493340130707L599.0571428571429,158.70747231160146L609.3857142857142,165.37869035436864L619.7142857142857,178.05098000314518L630.0428571428572,177.42191779104692L640.3714285714285,182.9091766088571L650.7,176.69416309650288L661.0285714285714,187.60869066272195L671.3571428571429,190.18689618321764L681.6857142857143,156.36348308212297L692.0142857142857,172.4597186272568L702.3428571428572,193.22760743053288L712.6714285714286,187.03786586613347L723,189.1887208276445L733.3285714285714,209.71254033168913L743.6571428571427,202.3564064402625L753.9857142857144,196.26709863539008L764.3142857142857,192.28567183611074L774.6428571428571,203.33827118037513L784.9714285714285,198.38613609050734L795.3000000000001,197.89187184318916L805.6285714285715,190.12783472147595L815.9571428571428,176.94556248430618L826.2857142857142,172.02319507744434L836.6142857142858,172.8217204865606L846.9428571428572,173.81081486086796L857.2714285714286,169.96020949089976L867.6,175.66372461440838L877.9285714285713,172.45617260529207L888.2571428571429,178.83692995306018L898.5857142857143,182.19183714149096L908.9142857142857,183.8405149397713L919.2428571428571,181.6970205794252L929.5714285714287,177.9339071566151L939.9,193.12443745459834L950.2285714285714,189.89010350898334L960.5571428571428,194.39702721235415L970.8857142857142,194.33275066493312L981.2142857142858,200.01317953275657L991.5428571428572,206.4084290337981L1001.8714285714285,209.40776499941475L1012.1999999999999,200.0607909490736L1022.5285714285715,195.9096763330741L1032.857142857143,200.1215211986329L1043.1857142857143,194.37976396315256L1053.5142857142857,185.76211459775547L1063.8428571428572,187.29404236876832L1074.1714285714286,188.17677087786117L1084.5,190.01777269364786L1094.8285714285714,192.2151733274543L1105.1571428571428,194.69926955910228L1115.4857142857143,196.6268463648063L1125.8142857142857,197.12771197060957L1136.142857142857,202.09085098445544L1146.4714285714285,192.75650291168768L1156.8,190.65286162211945L1167.1285714285714,193.3247597140935L1177.4571428571428,190.26528267400667L1187.7857142857142,189.63167669974092L1198.1142857142859,193.69557135464146L1208.4428571428573,191.87198316551087L1218.7714285714285,193.8740993827393L1229.1,186.11440008221928" style="fill: none;" fill="none"></path></g><g><path stroke="rgb(255, 112, 67)" stroke-width="2px" d="M103.28571428571428,60.73243850469589L113.61428571428571,60.846276484429836L123.94285714285715,65.89908768449516L134.27142857142857,63.608412862700675L144.6,61.92655059647683L154.92857142857142,61.463737133246184L165.25714285714284,60.86298268414612L175.5857142857143,60.661678775839334L185.91428571428568,60.50627958913799L196.24285714285713,60.12086548341608L206.57142857142856,59.81799234985624L216.9,64.63832562266657L227.22857142857143,64.24110783284141L237.55714285714285,62.763625978248456L247.8857142857143,61.6592139929615L258.2142857142857,62.56369551865072L268.54285714285714,64.41780406376239L278.87142857142857,64.58287767659908L289.2,63.079034768127656L299.52857142857147,65.78316778810921L309.85714285714283,64.09068106310207L320.18571428571425,64.27730886230881L330.5142857142857,65.80993684972265L340.84285714285716,63.560365441480826L351.1714285714286,76.12567537855574L361.5,70.98832261311657L371.82857142857137,73.47920820394489L382.15714285714284,67.43340217109056L392.48571428571427,85.44339592668291L402.81428571428575,78.8738420471418L413.1428571428571,73.94859167958509L423.4714285714286,96.9292603485149L433.8,81.8312785659246L444.12857142857143,75.46806074233638L454.45714285714286,72.26939000979922L464.78571428571433,71.07872064253951L475.1142857142857,90.79970593343529L485.4428571428571,85.40246002511998L495.7714285714286,91.23436600456643L506.09999999999997,88.17669728877706L516.4285714285714,78.00038310356865L526.7571428571429,79.21636431554617L537.0857142857143,108.61377207376808L547.4142857142857,127.19931116389301L557.7428571428571,125.92912618318152L568.0714285714286,118.06380689094459L578.4,139.4625687365791L588.7285714285714,128.36947902207865L599.0571428571429,131.18456959826742L609.3857142857142,129.0488142734772L619.7142857142857,147.4377904276551L630.0428571428572,149.61948403958132L640.3714285714285,160.18088320044723L650.7,170.5610862681262L661.0285714285714,175.44142275506525L671.3571428571429,160.73909679325425L681.6857142857143,165.57771429581751L692.0142857142857,169.3186985323632L702.3428571428572,172.8018012326842L712.6714285714286,172.15966023694784L723,158.87931998784097L733.3285714285714,127.59801383146441L743.6571428571427,144.16314215260044L753.9857142857144,153.7379526305038L764.3142857142857,165.8939460997486L774.6428571428571,169.9091360381069L784.9714285714285,173.95745307271613L795.3000000000001,157.99095050135216L805.6285714285715,163.78312141680104L815.9571428571428,166.8577330528699L826.2857142857142,170.01386098974962L836.6142857142858,167.53633206435455L846.9428571428572,165.53983558027988L857.2714285714286,167.07394781594905L867.6,171.05425237944982L877.9285714285713,172.27678677637138L888.2571428571429,173.0831562113688L898.5857142857143,170.03358591985258L908.9142857142857,169.62448540563315L919.2428571428571,172.36602103254162L929.5714285714287,167.52698642933944L939.9,171.94533538177362L950.2285714285714,173.83137981507036L960.5571428571428,171.1017799163631L970.8857142857142,169.75543018488716L981.2142857142858,169.1661817569055L991.5428571428572,164.4778514110159L1001.8714285714285,164.90683494824836L1012.1999999999999,168.95260283242862L1022.5285714285715,149.52403512532234L1032.857142857143,160.63358547052576L1043.1857142857143,163.43808911896252L1053.5142857142857,162.38878869209591L1063.8428571428572,163.1069937896365L1074.1714285714286,168.78336066911427L1084.5,166.25162834471354L1094.8285714285714,169.0673702391737L1105.1571428571428,170.90252047972405L1115.4857142857143,169.56301821587402L1125.8142857142857,168.0672157366152L1136.142857142857,171.14024151319717L1146.4714285714285,170.1427736577657L1156.8,170.85565389974522L1167.1285714285714,173.10472212900885L1177.4571428571428,152.96240114373072L1187.7857142857142,159.45463084698983L1198.1142857142859,167.42975663853446L1208.4428571428573,167.73435323067162L1218.7714285714285,164.34728732483185L1229.1,168.17975143657085L1239.4285714285713,168.43933591881967L1249.757142857143,173.4762639143442L1260.0857142857144,172.05435871710628L1270.4142857142856,173.678232405366L1280.742857142857,171.00989147054048L1291.0714285714287,133.34643435494243L1301.4,144.07880251417242L1311.7285714285715,153.86948585992863L1322.0571428571427,163.75083504012713L1332.3857142857141,167.63974305326633" style="fill: none;" fill="none"></path></g><g><path stroke="rgb(204, 51, 17)" stroke-width="2px" d="M103.28571428571428,60.003894209861755L123.94285714285715,59.8331548422575L144.6,89.33112926142564L165.25714285714284,207.51535294643224L185.91428571428568,267.79668841380203L206.57142857142856,239.30153674010498L227.22857142857143,283.41584020966854L247.8857142857143,309.0805730855416L268.54285714285714,324.20072009637545L289.2,333.1746942478716L309.85714285714283,230.1623169539364L330.5142857142857,276.79890787970027L351.1714285714286,301.6884348946251L371.82857142857137,319.62711843618223L392.48571428571427,264.56373436157025L413.1428571428571,208.2954818110231L433.8,214.11079735534446L454.45714285714286,194.06530686140997L475.1142857142857,247.86640027532712L495.7714285714286,259.3445437996723L516.4285714285714,294.2074910665567L537.0857142857143,315.1247699567228L557.7428571428571,325.8171840450007L578.4,257.19319106040916L599.0571428571429,281.3687149474984L619.7142857142857,279.59121689319545L640.3714285714285,296.082414212084L661.0285714285714,223.65270278420178L681.6857142857143,234.28859189177876L702.3428571428572,239.86873333449986L723,223.36425592604104L743.6571428571427,185.19443676736034L764.3142857142857,167.13730035544765L784.9714285714285,153.82600218257693L805.6285714285715,160.11849668234413L826.2857142857142,133.91481302538548L846.9428571428572,162.77889828877542L867.6,144.21703365703465L888.2571428571429,131.44071184685518L908.9142857142857,104.10449691391L929.5714285714287,98.04795052385941" style="fill: none;" fill="none"></path></g></g></g></g><g opacity="0.2"><g><g><g><path stroke="rgb(0, 119, 187)" stroke-width="2px" d="M103.28571428571428,59.09322792291641L113.61428571428571,60.73243850469589L123.94285714285715,59.45750945806503L134.27142857142857,59.82177221775055L144.6,60.27709597349167L154.92857142857142,334.02385027706623L165.25714285714284,62.280569314956665L175.5857142857143,302.33260998129845L185.91428571428568,74.84779411554342L196.24285714285713,59.730711221694946L206.57142857142856,59.63963145017624L216.9,96.15741902589798L227.22857142857143,77.39765220880514L237.55714285714285,61.09670126438141L247.8857142857143,126.02732205390933L258.2142857142857,79.12792378664022L268.54285714285714,110.81915938854223L278.87142857142857,129.5789262056351L289.2,234.94319209456447L299.52857142857147,162.08976709842685L309.85714285714283,151.70815640687945L320.18571428571425,173.8373866081238L330.5142857142857,76.03166216611868L340.84285714285716,205.71075358986857L351.1714285714286,181.12271690368658L361.5,91.69514858722692L371.82857142857137,224.01517787575725L382.15714285714284,209.80876126885417L392.48571428571427,200.8842110037804L402.81428571428575,60.09497398138046L413.1428571428571,187.13313692808157L423.4714285714286,114.82610607147222L433.8,129.21466344594958L444.12857142857143,167.37164282798773L454.45714285714286,155.25976055860522L464.78571428571433,171.287509739399L475.1142857142857,186.85993516445163L485.4428571428571,197.33260685205462L495.7714285714286,183.30833101272586L506.09999999999997,188.31700497865683L516.4285714285714,138.50346708297735L526.7571428571429,152.70988368988043L537.0857142857143,176.75152623653415L547.4142857142857,159.72203099727633L557.7428571428571,183.67259377241137L568.0714285714286,166.00563400983813L578.4,166.00563400983813L588.7285714285714,165.00390672683722L599.0571428571429,146.42628067731863L609.3857142857142,175.38551741838458L619.7142857142857,197.05941447615626L630.0428571428572,176.47832447290426L640.3714285714285,191.14006483554843L650.7,167.37164282798773L661.0285714285714,203.9804820120335L671.3571428571429,194.05420446395877L681.6857142857143,105.62836343050003L692.0142857142857,196.60407194495204L702.3428571428572,224.37944063544276L712.6714285714286,177.7532535195351L723,192.41500326991084L733.3285714285714,240.49826958775523L743.6571428571427,191.32220560312274L753.9857142857144,187.13313692808157L764.3142857142857,186.31353163719183L774.6428571428571,219.91717019677165L784.9714285714285,190.95793345570567L795.3000000000001,197.15047547221187L805.6285714285715,178.48177903890613L815.9571428571428,157.1721541285515L826.2857142857142,164.6396439671517L836.6142857142858,174.01950860023504L846.9428571428572,175.294456422329L857.2714285714286,164.18430143594748L867.6,184.2189972996712L877.9285714285713,167.6448445916176L888.2571428571429,188.4080659747124L898.5857142857143,187.22419792413714L908.9142857142857,186.31353163719183L919.2428571428571,178.48177903890613L929.5714285714287,172.28923702239993L939.9,215.9102329015732L950.2285714285714,185.03860259056094L960.5571428571428,201.1574127674103L970.8857142857142,194.23633584380153L981.2142857142858,208.53382283449176L991.5428571428572,216.00130328536036L1001.8714285714285,213.90676894783977L1012.1999999999999,186.0403298735619L1022.5285714285715,189.6830044090748L1032.857142857143,206.43928849697116L1043.1857142857143,185.76712810993197L1053.5142857142857,172.8356405496598L1063.8428571428572,189.59193402528766L1074.1714285714286,189.5008636415005L1084.5,192.7792754173279L1094.8285714285714,195.51127427816394L1105.1571428571428,198.42541390657428L1115.4857142857143,199.51821157336238L1125.8142857142857,197.87901037931445L1136.142857142857,209.53555950522426L1146.4714285714285,178.75498080253607L1156.8,187.49739968776709L1167.1285714285714,197.33260685205462L1177.4571428571428,185.67606711387637L1187.7857142857142,188.68126773834234L1198.1142857142859,199.7914133369923L1208.4428571428573,189.13660088181499L1218.7714285714285,196.87727370858195L1229.1,174.47485113143927" style="fill: none;" fill="none"></path></g><g><path stroke="rgb(255, 112, 67)" stroke-width="2px" d="M103.28571428571428,60.73243850469589L113.61428571428571,60.9145792722702L123.94285714285715,70.74978643655783L134.27142857142857,60.9145792722702L144.6,59.730711221694946L154.92857142857142,60.823499500751495L165.25714285714284,60.003894209861755L175.5857142857143,60.368175745010376L185.91428571428568,60.27709597349167L196.24285714285713,59.548570454120636L206.57142857142856,59.366429686546326L216.9,71.84259349107748L227.22857142857143,63.64657813310629L237.55714285714285,60.55029773712158L247.8857142857143,60.003894209861755L258.2142857142857,63.9197798967362L268.54285714285714,67.19818228483206L278.87142857142857,64.83044618368154L289.2,60.823499500751495L299.52857142857147,69.83912014961248L309.85714285714283,61.55204379558563L320.18571428571425,64.55724442005163L330.5142857142857,68.1088485717774L340.84285714285716,60.186034977436066L351.1714285714286,94.97355097532272L361.5,63.28231537342077L371.82857142857137,77.21553021669394L382.15714285714284,58.36470240354538L392.48571428571427,112.45836997032171L402.81428571428575,69.01951485872274L413.1428571428571,66.56071776151663L423.4714285714286,131.4002587795258L433.8,59.18430769443512L444.12857142857143,65.9232344627381L454.45714285714286,67.47138404846197L464.78571428571433,69.29271662235266L475.1142857142857,120.38118356466299L485.4428571428571,77.30659121274954L495.7714285714286,99.98222494125372L506.09999999999997,83.59019422531134L516.4285714285714,62.73591184616089L526.7571428571429,81.04033613204962L537.0857142857143,152.70988368988043L547.4142857142857,155.07761979103094L557.7428571428571,124.02384871244433L568.0714285714286,106.26582795381552L578.4,171.5607115030289L588.7285714285714,111.72984445095068L599.0571428571429,135.4072054624558L609.3857142857142,125.84518128633505L619.7142857142857,175.02125465869906L630.0428571428572,152.8920244574547L640.3714285714285,176.02298194170004L650.7,186.1313908696175L661.0285714285714,182.76192748546606L671.3571428571429,138.68560785055163L681.6857142857143,172.8356405496598L692.0142857142857,174.93017488718036L702.3428571428572,178.02645528316503L712.6714285714286,171.19644874334338L723,138.95880961418158L733.3285714285714,80.676054596901L743.6571428571427,169.01083463430408L753.9857142857144,168.10016834735876L764.3142857142857,184.1279363036156L774.6428571428571,175.9319209456444L784.9714285714285,180.02992862463003L795.3000000000001,134.0411966443062L805.6285714285715,172.47137778997427L815.9571428571428,171.4696505069733L826.2857142857142,174.74805289506915L836.6142857142858,163.82003867626196L846.9428571428572,162.545090854168L857.2714285714286,169.37511616945272L867.6,177.02470922470096L877.9285714285713,174.11058837175375L888.2571428571429,174.29271036386493L898.5857142857143,165.4592304825783L908.9142857142857,169.01083463430408L919.2428571428571,176.47832447290426L929.5714285714287,160.2684345245362L939.9,178.57285881042483L950.2285714285714,176.66044646501544L960.5571428571428,167.0073800683022L970.8857142857142,167.73590558767324L981.2142857142858,168.28230911493304L991.5428571428572,157.44535589218145L1001.8714285714285,165.550310254097L1012.1999999999999,175.02125465869906L1022.5285714285715,120.38118356466299L1032.857142857143,177.29791098833087L1043.1857142857143,167.6448445916176L1053.5142857142857,160.814838051796L1063.8428571428572,164.18430143594748L1074.1714285714286,177.29791098833087L1084.5,162.45402985811236L1094.8285714285714,173.290983080864L1105.1571428571428,173.65524584054953L1115.4857142857143,167.5537648200989L1125.8142857142857,165.82351201772696L1136.142857142857,175.7497801780701L1146.4714285714285,168.64657187461856L1156.8,171.92497426271441L1167.1285714285714,176.47832447290426L1177.4571428571428,122.7489196658135L1187.7857142857142,169.19297540187839L1198.1142857142859,179.39244532585147L1208.4428571428573,168.19124811887747L1218.7714285714285,159.2666884660721L1229.1,173.9284476041794L1239.4285714285713,168.82871264219287L1249.757142857143,181.03165590763095L1260.0857142857144,169.92150092124942L1270.4142857142856,176.1140429377556L1280.742857142857,167.0073800683022L1291.0714285714287,76.85124868154531L1301.4,160.17735475301748L1311.7285714285715,168.55551087856298L1322.0571428571427,178.57285881042483L1332.3857142857141,173.4731050729752" style="fill: none;" fill="none"></path></g><g><path stroke="rgb(204, 51, 17)" stroke-width="2px" d="M103.28571428571428,60.003894209861755L123.94285714285715,59.730711221694946L144.6,117.64918470382696L165.25714285714284,346.5L185.91428571428568,346.5L206.57142857142856,199.88248372077945L227.22857142857143,346.5L247.8857142857143,346.5L268.54285714285714,346.5L289.2,346.5L309.85714285714283,76.5780656933785L330.5142857142857,346.5L351.1714285714286,338.9414567928761L371.82857142857137,346.5L392.48571428571427,182.0333831906319L413.1428571428571,123.93278771638876L433.8,222.831309825182L454.45714285714286,164.00216066837314L475.1142857142857,328.55984434112906L495.7714285714286,276.56070993840694L516.4285714285714,346.5L537.0857142857143,346.5L557.7428571428571,341.8555940743536L578.4,154.2580145001412L599.0571428571429,317.6318289488554L619.7142857142857,276.92497739195824L640.3714285714285,320.81916799396276L661.0285714285714,115.00824683904654L681.6857142857143,250.24241575598717L702.3428571428572,248.2389424145222L723,198.60754528641704L743.6571428571427,127.93971562385562L764.3142857142857,140.05159789323812L784.9714285714285,133.8590558767319L805.6285714285715,169.5572381615639L826.2857142857142,94.6092882156372L846.9428571428572,206.07502573728564L867.6,116.374236881733L888.2571428571429,112.27622920274734L908.9142857142857,63.10017460584646L929.5714285714287,88.96313095092779" style="fill: none;" fill="none"></path></g></g></g></g></g></g><g transform="translate(50, 378)" clip-path="url(#clip_1)"><clipPath id="clip_1"><rect width="1446" height="22"></rect></clipPath><g><g><line x1="0" y1="0" x2="0" y2="5" style="visibility: inherit;" fill="rgb(0, 0, 0)" stroke="rgb(204, 204, 204)" stroke-width="1px"></line><line x1="103.28571428571428" y1="0" x2="103.28571428571428" y2="5" style="visibility: inherit;" fill="rgb(0, 0, 0)" stroke="rgb(204, 204, 204)" stroke-width="1px"></line><line x1="206.57142857142856" y1="0" x2="206.57142857142856" y2="5" style="visibility: inherit;" fill="rgb(0, 0, 0)" stroke="rgb(204, 204, 204)" stroke-width="1px"></line><line x1="309.85714285714283" y1="0" x2="309.85714285714283" y2="5" style="visibility: inherit;" fill="rgb(0, 0, 0)" stroke="rgb(204, 204, 204)" stroke-width="1px"></line><line x1="413.1428571428571" y1="0" x2="413.1428571428571" y2="5" style="visibility: inherit;" fill="rgb(0, 0, 0)" stroke="rgb(204, 204, 204)" stroke-width="1px"></line><line x1="516.4285714285714" y1="0" x2="516.4285714285714" y2="5" style="visibility: inherit;" fill="rgb(0, 0, 0)" stroke="rgb(204, 204, 204)" stroke-width="1px"></line><line x1="619.7142857142857" y1="0" x2="619.7142857142857" y2="5" style="visibility: inherit;" fill="rgb(0, 0, 0)" stroke="rgb(204, 204, 204)" stroke-width="1px"></line><line x1="723" y1="0" x2="723" y2="5" style="visibility: inherit;" fill="rgb(0, 0, 0)" stroke="rgb(204, 204, 204)" stroke-width="1px"></line><line x1="826.2857142857142" y1="0" x2="826.2857142857142" y2="5" style="visibility: inherit;" fill="rgb(0, 0, 0)" stroke="rgb(204, 204, 204)" stroke-width="1px"></line><line x1="929.5714285714287" y1="0" x2="929.5714285714287" y2="5" style="visibility: inherit;" fill="rgb(0, 0, 0)" stroke="rgb(204, 204, 204)" stroke-width="1px"></line><line x1="1032.857142857143" y1="0" x2="1032.857142857143" y2="5" style="visibility: inherit;" fill="rgb(0, 0, 0)" stroke="rgb(204, 204, 204)" stroke-width="1px"></line><line x1="1136.142857142857" y1="0" x2="1136.142857142857" y2="5" style="visibility: inherit;" fill="rgb(0, 0, 0)" stroke="rgb(204, 204, 204)" stroke-width="1px"></line><line x1="1239.4285714285713" y1="0" x2="1239.4285714285713" y2="5" style="visibility: inherit;" fill="rgb(0, 0, 0)" stroke="rgb(204, 204, 204)" stroke-width="1px"></line><line x1="1342.7142857142858" y1="0" x2="1342.7142857142858" y2="5" style="visibility: inherit;" fill="rgb(0, 0, 0)" stroke="rgb(204, 204, 204)" stroke-width="1px"></line><line x1="1446" y1="0" x2="1446" y2="5" style="visibility: inherit;" fill="rgb(0, 0, 0)" stroke="rgb(204, 204, 204)" stroke-width="1px"></line></g><g transform="translate(0, 8)"><text x="0" y="0" dx="0em" dy="0.95em" style="text-anchor: middle; visibility: hidden; font-family: &quot;Helvetica Neue&quot;, sans-serif; font-size: 12px; font-weight: 200;" fill="rgb(50, 49, 63)" stroke="none" stroke-width="1px">-50</text><text x="103.28571428571428" y="0" dx="0em" dy="0.95em" style="text-anchor: middle; visibility: inherit; font-family: &quot;Helvetica Neue&quot;, sans-serif; font-size: 12px; font-weight: 200;" fill="rgb(50, 49, 63)" stroke="none" stroke-width="1px">0</text><text x="206.57142857142856" y="0" dx="0em" dy="0.95em" style="text-anchor: middle; visibility: inherit; font-family: &quot;Helvetica Neue&quot;, sans-serif; font-size: 12px; font-weight: 200;" fill="rgb(50, 49, 63)" stroke="none" stroke-width="1px">50</text><text x="309.85714285714283" y="0" dx="0em" dy="0.95em" style="text-anchor: middle; visibility: inherit; font-family: &quot;Helvetica Neue&quot;, sans-serif; font-size: 12px; font-weight: 200;" fill="rgb(50, 49, 63)" stroke="none" stroke-width="1px">100</text><text x="413.1428571428571" y="0" dx="0em" dy="0.95em" style="text-anchor: middle; visibility: inherit; font-family: &quot;Helvetica Neue&quot;, sans-serif; font-size: 12px; font-weight: 200;" fill="rgb(50, 49, 63)" stroke="none" stroke-width="1px">150</text><text x="516.4285714285714" y="0" dx="0em" dy="0.95em" style="text-anchor: middle; visibility: inherit; font-family: &quot;Helvetica Neue&quot;, sans-serif; font-size: 12px; font-weight: 200;" fill="rgb(50, 49, 63)" stroke="none" stroke-width="1px">200</text><text x="619.7142857142857" y="0" dx="0em" dy="0.95em" style="text-anchor: middle; visibility: inherit; font-family: &quot;Helvetica Neue&quot;, sans-serif; font-size: 12px; font-weight: 200;" fill="rgb(50, 49, 63)" stroke="none" stroke-width="1px">250</text><text x="723" y="0" dx="0em" dy="0.95em" style="text-anchor: middle; visibility: inherit; font-family: &quot;Helvetica Neue&quot;, sans-serif; font-size: 12px; font-weight: 200;" fill="rgb(50, 49, 63)" stroke="none" stroke-width="1px">300</text><text x="826.2857142857142" y="0" dx="0em" dy="0.95em" style="text-anchor: middle; visibility: inherit; font-family: &quot;Helvetica Neue&quot;, sans-serif; font-size: 12px; font-weight: 200;" fill="rgb(50, 49, 63)" stroke="none" stroke-width="1px">350</text><text x="929.5714285714287" y="0" dx="0em" dy="0.95em" style="text-anchor: middle; visibility: inherit; font-family: &quot;Helvetica Neue&quot;, sans-serif; font-size: 12px; font-weight: 200;" fill="rgb(50, 49, 63)" stroke="none" stroke-width="1px">400</text><text x="1032.857142857143" y="0" dx="0em" dy="0.95em" style="text-anchor: middle; visibility: inherit; font-family: &quot;Helvetica Neue&quot;, sans-serif; font-size: 12px; font-weight: 200;" fill="rgb(50, 49, 63)" stroke="none" stroke-width="1px">450</text><text x="1136.142857142857" y="0" dx="0em" dy="0.95em" style="text-anchor: middle; visibility: inherit; font-family: &quot;Helvetica Neue&quot;, sans-serif; font-size: 12px; font-weight: 200;" fill="rgb(50, 49, 63)" stroke="none" stroke-width="1px">500</text><text x="1239.4285714285713" y="0" dx="0em" dy="0.95em" style="text-anchor: middle; visibility: inherit; font-family: &quot;Helvetica Neue&quot;, sans-serif; font-size: 12px; font-weight: 200;" fill="rgb(50, 49, 63)" stroke="none" stroke-width="1px">550</text><text x="1342.7142857142858" y="0" dx="0em" dy="0.95em" style="text-anchor: middle; visibility: inherit; font-family: &quot;Helvetica Neue&quot;, sans-serif; font-size: 12px; font-weight: 200;" fill="rgb(50, 49, 63)" stroke="none" stroke-width="1px">600</text><text x="1446" y="0" dx="0em" dy="0.95em" style="text-anchor: middle; visibility: hidden; font-family: &quot;Helvetica Neue&quot;, sans-serif; font-size: 12px; font-weight: 200;" fill="rgb(50, 49, 63)" stroke="none" stroke-width="1px">650</text></g><line x1="0" y1="0" x2="1446" y2="0" fill="rgb(0, 0, 0)" stroke="rgb(204, 204, 204)" stroke-width="1px"></line></g></g></g></g></svg>