<svg viewBox="0 0 1496 400" xmlns="http://www.w3.org/2000/svg"><g><g><g><g><g><line x1="60" y1="378" x2="55" y2="378" style="visibility: inherit;" fill="rgb(0, 0, 0)" stroke="rgb(204, 204, 204)" stroke-width="1px"></line><line x1="60" y1="336" x2="55" y2="336" style="visibility: inherit;" fill="rgb(0, 0, 0)" stroke="rgb(204, 204, 204)" stroke-width="1px"></line><line x1="60" y1="294" x2="55" y2="294" style="visibility: inherit;" fill="rgb(0, 0, 0)" stroke="rgb(204, 204, 204)" stroke-width="1px"></line><line x1="60" y1="252" x2="55" y2="252" style="visibility: inherit;" fill="rgb(0, 0, 0)" stroke="rgb(204, 204, 204)" stroke-width="1px"></line><line x1="60" y1="210" x2="55" y2="210" style="visibility: inherit;" fill="rgb(0, 0, 0)" stroke="rgb(204, 204, 204)" stroke-width="1px"></line><line x1="60" y1="168" x2="55" y2="168" style="visibility: inherit;" fill="rgb(0, 0, 0)" stroke="rgb(204, 204, 204)" stroke-width="1px"></line><line x1="60" y1="126" x2="55" y2="126" style="visibility: inherit;" fill="rgb(0, 0, 0)" stroke="rgb(204, 204, 204)" stroke-width="1px"></line><line x1="60" y1="84" x2="55" y2="84" style="visibility: inherit;" fill="rgb(0, 0, 0)" stroke="rgb(204, 204, 204)" stroke-width="1px"></line><line x1="60" y1="42" x2="55" y2="42" style="visibility: inherit;" fill="rgb(0, 0, 0)" stroke="rgb(204, 204, 204)" stroke-width="1px"></line><line x1="60" y1="0" x2="55" y2="0" style="visibility: inherit;" fill="rgb(0, 0, 0)" stroke="rgb(204, 204, 204)" stroke-width="1px"></line></g><g transform="translate(50, 0)"><text x="0" y="378" dx="0em" dy="0.3em" style="text-anchor: end; visibility: hidden; font-family: &quot;Helvetica Neue&quot;, sans-serif; font-size: 12px; font-weight: 200;" fill="rgb(50, 49, 63)" stroke="none" stroke-width="1px">-5e+4</text><text x="0" y="336" dx="0em" dy="0.3em" style="text-anchor: end; visibility: inherit; font-family: &quot;Helvetica Neue&quot;, sans-serif; font-size: 12px; font-weight: 200;" fill="rgb(50, 49, 63)" stroke="none" stroke-width="1px">-4e+4</text><text x="0" y="294" dx="0em" dy="0.3em" style="text-anchor: end; visibility: inherit; font-family: &quot;Helvetica Neue&quot;, sans-serif; font-size: 12px; font-weight: 200;" fill="rgb(50, 49, 63)" stroke="none" stroke-width="1px">-3e+4</text><text x="0" y="252" dx="0em" dy="0.3em" style="text-anchor: end; visibility: inherit; font-family: &quot;Helvetica Neue&quot;, sans-serif; font-size: 12px; font-weight: 200;" fill="rgb(50, 49, 63)" stroke="none" stroke-width="1px">-2e+4</text><text x="0" y="210" dx="0em" dy="0.3em" style="text-anchor: end; visibility: inherit; font-family: &quot;Helvetica Neue&quot;, sans-serif; font-size: 12px; font-weight: 200;" fill="rgb(50, 49, 63)" stroke="none" stroke-width="1px">-1e+4</text><text x="0" y="168" dx="0em" dy="0.3em" style="text-anchor: end; visibility: inherit; font-family: &quot;Helvetica Neue&quot;, sans-serif; font-size: 12px; font-weight: 200;" fill="rgb(50, 49, 63)" stroke="none" stroke-width="1px">0</text><text x="0" y="126" dx="0em" dy="0.3em" style="text-anchor: end; visibility: inherit; font-family: &quot;Helvetica Neue&quot;, sans-serif; font-size: 12px; font-weight: 200;" fill="rgb(50, 49, 63)" stroke="none" stroke-width="1px">1e+4</text><text x="0" y="84" dx="0em" dy="0.3em" style="text-anchor: end; visibility: inherit; font-family: &quot;Helvetica Neue&quot;, sans-serif; font-size: 12px; font-weight: 200;" fill="rgb(50, 49, 63)" stroke="none" stroke-width="1px">2e+4</text><text x="0" y="42" dx="0em" dy="0.3em" style="text-anchor: end; visibility: inherit; font-family: &quot;Helvetica Neue&quot;, sans-serif; font-size: 12px; font-weight: 200;" fill="rgb(50, 49, 63)" stroke="none" stroke-width="1px">3e+4</text><text x="0" y="0" dx="0em" dy="0.3em" style="text-anchor: end; visibility: hidden; font-family: &quot;Helvetica Neue&quot;, sans-serif; font-size: 12px; font-weight: 200;" fill="rgb(50, 49, 63)" stroke="none" stroke-width="1px">4e+4</text></g><line x1="60" y1="0" x2="60" y2="378" fill="rgb(0, 0, 0)" stroke="rgb(204, 204, 204)" stroke-width="1px"></line></g></g><g transform="translate(60, 0)" clip-path="url(#clip_0)"><clipPath id="clip_0"><rect width="1436" height="378"></rect></clipPath><g><g><g><line x1="0" y1="0" x2="0" y2="378" fill="rgb(0, 0, 0)" stroke="rgb(60, 60, 60)" stroke-width="1px" opacity="0.25"></line><line x1="102.57142857142857" y1="0" x2="102.57142857142857" y2="378" fill="rgb(0, 0, 0)" stroke="rgb(60, 60, 60)" stroke-width="1px" opacity="0.25"></line><line x1="205.14285714285714" y1="0" x2="205.14285714285714" y2="378" fill="rgb(0, 0, 0)" stroke="rgb(60, 60, 60)" stroke-width="1px" opacity="0.25"></line><line x1="307.7142857142857" y1="0" x2="307.7142857142857" y2="378" fill="rgb(0, 0, 0)" stroke="rgb(60, 60, 60)" stroke-width="1px" opacity="0.25"></line><line x1="410.2857142857143" y1="0" x2="410.2857142857143" y2="378" fill="rgb(0, 0, 0)" stroke="rgb(60, 60, 60)" stroke-width="1px" opacity="0.25"></line><line x1="512.8571428571429" y1="0" x2="512.8571428571429" y2="378" fill="rgb(0, 0, 0)" stroke="rgb(60, 60, 60)" stroke-width="1px" opacity="0.25"></line><line x1="615.4285714285714" y1="0" x2="615.4285714285714" y2="378" fill="rgb(0, 0, 0)" stroke="rgb(60, 60, 60)" stroke-width="1px" opacity="0.25"></line><line x1="718" y1="0" x2="718" y2="378" fill="rgb(0, 0, 0)" stroke="rgb(60, 60, 60)" stroke-width="1px" opacity="0.25"></line><line x1="820.5714285714286" y1="0" x2="820.5714285714286" y2="378" fill="rgb(0, 0, 0)" stroke="rgb(60, 60, 60)" stroke-width="1px" opacity="0.25"></line><line x1="923.1428571428572" y1="0" x2="923.1428571428572" y2="378" fill="rgb(0, 0, 0)" stroke="rgb(60, 60, 60)" stroke-width="1px" opacity="0.25"></line><line x1="1025.7142857142858" y1="0" x2="1025.7142857142858" y2="378" fill="rgb(0, 0, 0)" stroke="rgb(60, 60, 60)" stroke-width="1px" opacity="0.25"></line><line x1="1128.2857142857142" y1="0" x2="1128.2857142857142" y2="378" fill="rgb(0, 0, 0)" stroke="rgb(60, 60, 60)" stroke-width="1px" opacity="0.25"></line><line x1="1230.857142857143" y1="0" x2="1230.857142857143" y2="378" fill="rgb(0, 0, 0)" stroke="rgb(60, 60, 60)" stroke-width="1px" opacity="0.25"></line><line x1="1333.4285714285716" y1="0" x2="1333.4285714285716" y2="378" fill="rgb(0, 0, 0)" stroke="rgb(60, 60, 60)" stroke-width="1px" opacity="0.25"></line><line x1="1436" y1="0" x2="1436" y2="378" fill="rgb(0, 0, 0)" stroke="rgb(60, 60, 60)" stroke-width="1px" opacity="0.25"></line></g><g><line x1="0" y1="378" x2="1436" y2="378" fill="rgb(0, 0, 0)" stroke="rgb(60, 60, 60)" stroke-width="1px" opacity="0.25"></line><line x1="0" y1="336" x2="1436" y2="336" fill="rgb(0, 0, 0)" stroke="rgb(60, 60, 60)" stroke-width="1px" opacity="0.25"></line><line x1="0" y1="294" x2="1436" y2="294" fill="rgb(0, 0, 0)" stroke="rgb(60, 60, 60)" stroke-width="1px" opacity="0.25"></line><line x1="0" y1="252" x2="1436" y2="252" fill="rgb(0, 0, 0)" stroke="rgb(60, 60, 60)" stroke-width="1px" opacity="0.25"></line><line x1="0" y1="210" x2="1436" y2="210" fill="rgb(0, 0, 0)" stroke="rgb(60, 60, 60)" stroke-width="1px" opacity="0.25"></line><line x1="0" y1="168" x2="1436" y2="168" fill="rgb(0, 0, 0)" stroke="rgb(60, 60, 60)" stroke-width="1px" opacity="0.25"></line><line x1="0" y1="126" x2="1436" y2="126" fill="rgb(0, 0, 0)" stroke="rgb(60, 60, 60)" stroke-width="1px" opacity="0.25"></line><line x1="0" y1="84" x2="1436" y2="84" fill="rgb(0, 0, 0)" stroke="rgb(60, 60, 60)" stroke-width="1px" opacity="0.25"></line><line x1="0" y1="42" x2="1436" y2="42" fill="rgb(0, 0, 0)" stroke="rgb(60, 60, 60)" stroke-width="1px" opacity="0.25"></line><line x1="0" y1="0" x2="1436" y2="0" fill="rgb(0, 0, 0)" stroke="rgb(60, 60, 60)" stroke-width="1px" opacity="0.25"></line></g></g></g><g><g><line x1="0" y1="168" x2="1436" y2="168" fill="rgb(0, 0, 0)" stroke="rgb(153, 153, 153)" stroke-width="1.5px"></line></g></g><g><g><line x1="102.57142857142857" y1="0" x2="102.57142857142857" y2="378" fill="rgb(0, 0, 0)" stroke="rgb(153, 153, 153)" stroke-width="1.5px"></line></g></g><g><g><g><g><g><path stroke="rgb(0, 119, 187)" stroke-width="2px" d="M102.57142857142857,174.35880000000003L112.82857142857142,288.53055L123.08571428571429,289.46108571428573L133.34285714285716,289.01463088235295L143.6,301.73521082581544L153.85714285714286,244.93061109022557L164.1142857142857,267.7162178145329L174.37142857142857,221.54722896496418L184.6285714285714,252.03849913035924L194.88571428571427,274.28320470645883L205.14285714285714,285.5489546329449L215.4,254.19937156109518L225.65714285714284,272.23814282384586L235.9142857142857,281.3683605130798L246.17142857142858,211.28198274539818L256.42857142857144,227.6023538032874L266.6857142857143,196.80099864147982L276.9428571428572,176.4954969590169L287.2,148.96578062533138L297.45714285714286,110.45198024963577L307.7142857142857,108.46434454711516L317.97142857142853,96.70277192044625L328.2285714285714,150.75136999038185L338.48571428571427,120.61843921291222L348.74285714285713,94.00098785356641L359,141.17347317978056L369.2571428571428,121.49942377166826L379.51428571428573,112.97436902781408L389.77142857142854,93.00813405999872L400.02857142857147,172.48089800535465L410.2857142857143,133.12373358270722L420.54285714285714,138.5919205848188L430.8,136.56571225413586L441.0571428571429,103.14438639492113L451.3142857142857,89.65703160509543L461.5714285714286,76.87405883120823L471.8285714285714,77.30859530141419L482.08571428571423,72.88883716443706L492.34285714285716,81.13514231703437L502.59999999999997,69.95492537527542L512.8571428571429,87.67903523938094L523.1142857142856,96.84182114803792L533.3714285714286,82.85653268478467L543.6285714285714,85.73143961136884L553.8857142857144,85.09934376675562L564.1428571428571,83.3895262599467L574.4,83.30107575596469L584.6571428571428,73.11928545335024L594.9142857142857,79.45229127209547L605.1714285714286,101.38433476343454L615.4285714285714,106.94660085808772L625.6857142857143,101.10780051483567L635.9428571428571,101.30556030890176L646.2,83.85141618532276L656.4571428571428,86.59884971119538L666.7142857142858,94.04498982671998L676.9714285714285,114.54659389603665L687.2285714285715,99.37283633761996L697.4857142857143,108.25970180257269L707.7428571428571,125.0443810815444L718,123.65590864892664L728.2571428571429,125.457065189356L738.5142857142856,105.28575911361338L748.7714285714286,91.59201546816792L759.0285714285715,98.93424928090081L769.2857142857142,101.42942956854046L779.5428571428571,102.53173774112429L789.8000000000001,110.44904264467459L800.0571428571429,114.62654558680481L810.3142857142857,106.85312735208282L820.5714285714286,94.20907641124967L830.8285714285715,80.80816584674977L841.0857142857143,103.62249950804988L851.3428571428572,105.22517970482994L861.6,107.61310782289797L871.8571428571428,112.90986469373877L882.1142857142858,90.39231881624323L892.3714285714286,116.22403128974594L902.6285714285714,135.19225877384756L912.8857142857142,115.02783526430852L923.1428571428572,126.24422115858513L933.4,131.8921326951511L943.6571428571428,111.42487961709065L953.9142857142857,95.87524777025436L964.1714285714285,105.0691486621526L974.4285714285714,99.53108919729158L984.6857142857143,96.40985351837497L994.9428571428571,100.83711211102502L1005.1999999999999,94.97754726661498L1015.4571428571429,87.05516835996895L1025.7142857142858,92.26078101598142L1035.9714285714285,82.74718860958882L1046.2285714285713,89.40719316575326L1056.4857142857143,80.49911589945197L1066.7428571428572,87.40314953967112L1077,98.16476972380269L1087.2571428571428,94.03774183428163L1097.5142857142857,78.86576510056898L1107.7714285714287,88.28625906034137L1118.0285714285715,102.22935543620486L1128.2857142857142,112.74225326172291L1138.542857142857,121.25751195703373L1148.8,106.25706717422025L1159.057142857143,97.6768003045321L1169.3142857142857,93.99024018271928L1179.5714285714284,92.95262410963159L1189.8285714285714,107.43661446577892L1200.0857142857144,97.67556867946735L1210.3428571428572,93.15118120768045L1220.6,91.18918872460824" style="fill: none;" fill="none"></path></g><g><path stroke="rgb(255, 112, 67)" stroke-width="2px" d="M102.57142857142857,261.4416L112.82857142857142,263.601975L123.08571428571429,280.94545714285715L133.34285714285716,299.89993455882353L143.6,285.02296780013876L153.85714285714286,302.5277644736842L164.1142857142857,307.45984538439257L174.37142857142857,310.8896752010082L184.6285714285714,320.39794658914L194.88571428571427,307.704012588744L205.14285714285714,302.1501784063375L215.4,293.6737356729884L225.65714285714284,291.26429450641047L235.9142857142857,296.12054226180624L246.17142857142858,301.6253136179189L256.42857142857144,297.03837414471207L266.6857142857143,276.60708615228856L276.9428571428572,269.15581494059177L287.2,285.6582545565865L297.45714285714286,288.30792961027L307.7142857142857,284.44595304617275L317.97142857142853,281.30897053820536L328.2285714285714,270.5260971673133L338.48571428571427,280.8229070906L348.74285714285713,261.584169558075L359,263.74138541466107L369.2571428571428,269.24915688594774L379.51428571428573,269.00901398409826L389.77142857142854,253.06956251746394L400.02857142857147,256.5040582697558L410.2857142857143,264.8647560708528L420.54285714285714,234.57261123166253L430.8,258.7887678953666L441.0571428571429,261.20566080646677L451.3142857142857,279.69603680174276L461.5714285714286,271.62314199777836L471.8285714285714,253.0454050836958L482.08571428571423,254.44836305542694L492.34285714285716,225.48693776873256L502.59999999999997,220.03640265395356L512.8571428571429,243.95520161155616L523.1142857142856,231.9170409611406L533.3714285714286,202.38878456815843L543.6285714285714,177.3335907365544L553.8857142857144,180.98375444231203L564.1428571428571,202.06377266670194L574.4,178.8521835991526L584.6571428571428,176.19299015943184L594.9142857142857,162.1621140954701L605.1714285714286,185.89038845747385L615.4285714285714,162.57935307437126L625.6857142857143,142.37673184456398L635.9428571428571,128.5465991067142L646.2,115.41515946401478L656.4571428571428,107.27253567840381L666.7142857142858,130.12544140705086L676.9714285714285,118.53470484422786L687.2285714285715,102.98538290653465L697.4857142857143,107.98450974392114L707.7428571428571,98.94846584635224L718,112.87539950781178L728.2571428571429,145.91747970468765L738.5142857142856,122.02576782281236L748.7714285714286,107.20186069368731L759.0285714285715,101.78511641621236L769.2857142857142,95.53458984972735L779.5428571428571,99.6685139098364L789.8000000000001,113.90046834590191L800.0571428571429,110.20588100754111L810.3142857142857,100.35352860452468L820.5714285714286,103.31755716271482L830.8285714285715,102.14421429762888L841.0857142857143,101.15292857857736L851.3428571428572,99.84751714714639L861.6,99.47419028828784L871.8571428571428,97.21907417297268L882.1142857142858,100.22896450378363L892.3714285714286,102.5422587022702L902.6285714285714,102.9894352213621L912.8857142857142,107.12846113281728L923.1428571428572,105.01035667969035L933.4,105.45645400781422L943.6571428571428,108.79179240468852L953.9142857142857,103.9301954428131L964.1714285714285,106.79747726568786L974.4285714285714,112.67752635941275L984.6857142857143,115.01947581564764L994.9428571428571,113.92144548938859L1005.1999999999999,112.90142729363316L1015.4571428571429,137.60365637617988L1025.7142857142858,127.67019382570791L1035.9714285714285,122.26955629542474L1046.2285714285713,114.97197377725485L1056.4857142857143,114.53638426635297L1066.7428571428572,119.60903055981174L1077,119.46733833588706L1087.2571428571428,122.62808300153227L1097.5142857142857,116.71252980091936L1107.7714285714287,118.81807788055158L1118.0285714285715,118.30060672833099L1128.2857142857142,119.06532403699856L1138.542857142857,116.03479442219913L1148.8,121.22375665331947L1159.057142857143,118.3361739919917L1169.3142857142857,137.38690439519502L1179.5714285714284,131.10846263711701L1189.8285714285714,123.88563758227022L1200.0857142857144,117.9710625493621L1210.3428571428572,122.59719752961723L1220.6,125.79959851777036L1230.857142857143,131.4993591106622L1241.1142857142859,126.55113546639731L1251.3714285714286,120.5766812798384L1261.6285714285714,119.03992876790306L1271.8857142857141,124.73203726074183L1282.142857142857,157.17098235644508L1292.4,140.99986941386706L1302.6571428571428,133.33504164832024L1312.9142857142856,125.69702498899213L1323.1714285714286,128.3516549933953" style="fill: none;" fill="none"></path></g><g><path stroke="rgb(204, 51, 17)" stroke-width="2px" d="M102.57142857142857,279.0186L123.08571428571429,274.27785L143.6,297.67945714285713L164.1142857142857,238.08411838235293L184.6285714285714,207.6867734906315L205.14285714285714,242.1042456766917L225.65714285714284,211.60887211672681L246.17142857142858,193.86733354961672L266.6857142857143,183.41506534832698L287.2,177.2115287956948L307.7142857142857,260.1917269935417L328.2285714285714,223.2345885499719L348.74285714285713,203.90430643999503L369.2571428571428,189.53132059378297L389.77142857142854,238.1506924548784L410.2857142857143,277.84929488498983L430.8,275.7025735627864L451.3142857142857,299.68958025703233L471.8285714285714,252.63720097165856L492.34285714285716,214.3053991115862L512.8571428571429,195.78283313833623L533.3714285714286,184.66955360812304L553.8857142857144,176.62574864051493L574.4,240.11199000633025L594.9142857142857,203.99941133469684L615.4285714285714,180.61496691122866L635.9428571428571,172.53489187685824L656.4571428571428,245.99338023654818L676.9714285714285,214.6078565777277L697.4857142857143,171.62318444384664L718,161.2295892876563L738.5142857142856,203.39255692820151L759.0285714285715,228.1376153385461L779.5428571428571,234.87024939602557L800.0571428571429,171.88790855490433L820.5714285714286,234.61626577994952L841.0857142857143,188.4212791820849L861.6,203.67364756588594L882.1142857142858,211.4004285567462L902.6285714285714,226.19881715382945L923.1428571428572,210.84217027998085" style="fill: none;" fill="none"></path></g></g></g></g><g opacity="0.2"><g><g><g><path stroke="rgb(0, 119, 187)" stroke-width="2px" d="M102.57142857142857,174.35880000000003L112.82857142857142,357.0336L123.08571428571429,290.3544L133.34285714285716,288.4896L143.6,318.3432L153.85714285714286,166.3494L164.1142857142857,300.3L174.37142857142857,154.23239999999998L184.6285714285714,297.0072L194.88571428571427,307.314L205.14285714285714,302.3454L215.4,207.3456L225.65714285714284,299.2374L235.9142857142857,295.0458L246.17142857142858,106.2348L256.42857142857144,252.07139999999998L266.6857142857143,150.61200000000002L276.9428571428572,146.04240000000001L287.2,107.67539999999997L297.45714285714286,52.684799999999996L307.7142857142857,105.483L317.97142857142853,79.06079999999997L328.2285714285714,231.82319999999999L338.48571428571427,75.4194L348.74285714285713,54.075000000000045L359,211.932L369.2571428571428,91.98840000000001L379.51428571428573,100.1868L389.77142857142854,63.05880000000002L400.02857142857147,291.69L410.2857142857143,74.08799999999997L420.54285714285714,146.79420000000002L430.8,133.52640000000002L441.0571428571429,53.01239999999996L451.3142857142857,69.42599999999999L461.5714285714286,57.69960000000003L471.8285714285714,77.96039999999999L482.08571428571423,66.25920000000002L492.34285714285716,93.50459999999998L502.59999999999997,53.184600000000046L512.8571428571429,114.2652L523.1142857142856,110.58600000000001L533.3714285714286,61.878600000000006L543.6285714285714,90.04380000000003L553.8857142857144,84.15120000000002L564.1428571428571,80.82479999999998L574.4,83.16840000000002L584.6571428571428,57.846600000000024L594.9142857142857,88.95179999999999L605.1714285714286,134.28240000000002L615.4285714285714,115.29000000000002L625.6857142857143,92.34960000000001L635.9428571428571,101.60219999999998L646.2,57.670199999999966L656.4571428571428,90.71999999999997L666.7142857142858,105.2142L676.9714285714285,145.299L687.2285714285715,76.61219999999997L697.4857142857143,121.58999999999997L707.7428571428571,150.22140000000002L718,121.57319999999999L728.2571428571429,128.1588L738.5142857142856,75.02880000000005L748.7714285714286,71.0514L759.0285714285715,109.94760000000002L769.2857142857142,105.17219999999998L779.5428571428571,104.18520000000001L789.8000000000001,122.32499999999999L800.0571428571429,120.89280000000002L810.3142857142857,95.19299999999998L820.5714285714286,75.243L830.8285714285715,60.70679999999999L841.0857142857143,137.84400000000002L851.3428571428572,107.62919999999997L861.6,111.195L871.8571428571428,120.85500000000002L882.1142857142858,56.615999999999985L892.3714285714286,154.9716L902.6285714285714,163.6446L912.8857142857142,84.78120000000001L923.1428571428572,143.06879999999998L933.4,140.36399999999998L943.6571428571428,80.72400000000005L953.9142857142857,72.55079999999998L964.1714285714285,118.86000000000001L974.4285714285714,91.22399999999999L984.6857142857143,91.72800000000001L994.9428571428571,107.47800000000001L1005.1999999999999,86.1882L1015.4571428571429,75.17160000000001L1025.7142857142858,100.06920000000002L1035.9714285714285,68.47679999999997L1046.2285714285713,99.3972L1056.4857142857143,67.137L1066.7428571428572,97.75919999999996L1077,114.30720000000002L1087.2571428571428,87.84720000000004L1097.5142857142857,56.1078L1107.7714285714287,102.41699999999997L1118.0285714285715,123.14400000000003L1128.2857142857142,128.51160000000002L1138.542857142857,134.0304L1148.8,83.75639999999999L1159.057142857143,84.8064L1169.3142857142857,88.46039999999999L1179.5714285714284,91.39620000000002L1189.8285714285714,129.1626L1200.0857142857144,83.03399999999999L1210.3428571428572,86.3646L1220.6,88.24619999999999" style="fill: none;" fill="none"></path></g><g><path stroke="rgb(255, 112, 67)" stroke-width="2px" d="M102.57142857142857,261.4416L112.82857142857142,264.8982L123.08571428571429,297.5952L133.34285714285716,322.1904L143.6,265.5996L153.85714285714286,326.7432L164.1142857142857,314.51279999999997L174.37142857142857,315.8904L184.6285714285714,334.4208L194.88571428571427,288.855L205.14285714285714,293.8698L215.4,281.0052L225.65714285714284,287.658L235.9142857142857,303.3954L246.17142857142858,309.876L256.42857142857144,290.1612L266.6857142857143,245.96880000000002L276.9428571428572,257.9808L287.2,310.4094L297.45714285714286,292.2822L307.7142857142857,278.65319999999997L317.97142857142853,276.60360000000003L328.2285714285714,254.35199999999998L338.48571428571427,296.26800000000003L348.74285714285713,232.7262L359,266.97720000000004L369.2571428571428,277.5108L379.51428571428573,268.6488L389.77142857142854,229.16039999999998L400.02857142857147,261.6558L410.2857142857143,277.4058L420.54285714285714,189.1344L430.8,295.113L441.0571428571429,264.831L451.3142857142857,307.4316L461.5714285714286,259.5138L471.8285714285714,225.1788L482.08571428571423,256.5528L492.34285714285716,182.0448L502.59999999999997,211.8606L512.8571428571429,279.8334L523.1142857142856,213.85979999999998L533.3714285714286,158.0964L543.6285714285714,139.7508L553.8857142857144,186.459L564.1428571428571,233.6838L574.4,144.0348L584.6571428571428,172.20420000000001L594.9142857142857,141.1158L605.1714285714286,221.4828L615.4285714285714,127.6128L625.6857142857143,112.07280000000003L635.9428571428571,107.8014L646.2,95.71800000000002L656.4571428571428,95.05860000000001L666.7142857142858,164.4048L676.9714285714285,101.14859999999999L687.2285714285715,79.66139999999996L697.4857142857143,115.48320000000001L707.7428571428571,85.39439999999996L718,133.76579999999998L728.2571428571429,195.4806L738.5142857142856,86.1882L748.7714285714286,84.96600000000001L759.0285714285715,93.65999999999997L769.2857142857142,86.15879999999999L779.5428571428571,105.86939999999998L789.8000000000001,135.2484L800.0571428571429,104.66399999999999L810.3142857142857,85.57499999999999L820.5714285714286,107.7636L830.8285714285715,100.38419999999996L841.0857142857143,99.666L851.3428571428572,97.88940000000002L861.6,98.9142L871.8571428571428,93.83640000000003L882.1142857142858,104.74380000000002L892.3714285714286,106.0122L902.6285714285714,103.66019999999997L912.8857142857142,113.33699999999999L923.1428571428572,101.83319999999998L933.4,106.12560000000002L943.6571428571428,113.79480000000001L953.9142857142857,96.63779999999997L964.1714285714285,111.09840000000003L974.4285714285714,121.49760000000003L984.6857142857143,118.5324L994.9428571428571,112.27440000000001L1005.1999999999999,111.3714L1015.4571428571429,174.657L1025.7142857142858,112.76999999999998L1035.9714285714285,114.16860000000003L1046.2285714285713,104.0256L1056.4857142857143,113.88299999999998L1066.7428571428572,127.21800000000002L1077,119.25479999999999L1087.2571428571428,127.3692L1097.5142857142857,107.8392L1107.7714285714287,121.97640000000001L1118.0285714285715,117.52440000000001L1128.2857142857142,120.2124L1138.542857142857,111.48899999999998L1148.8,129.00719999999998L1159.057142857143,114.00479999999999L1169.3142857142857,165.963L1179.5714285714284,121.69079999999997L1189.8285714285714,113.0514L1200.0857142857144,109.0992L1210.3428571428572,129.53640000000001L1220.6,130.6032L1230.857142857143,140.049L1241.1142857142859,119.12880000000001L1251.3714285714286,111.61500000000001L1261.6285714285714,116.7348L1271.8857142857141,133.27020000000002L1282.142857142857,205.82940000000002L1292.4,116.7432L1302.6571428571428,121.83779999999996L1312.9142857142856,114.23999999999995L1323.1714285714286,132.3336" style="fill: none;" fill="none"></path></g><g><path stroke="rgb(204, 51, 17)" stroke-width="2px" d="M102.57142857142857,279.0186L123.08571428571429,271.4334L143.6,320.145L164.1142857142857,168L184.6285714285714,168L205.14285714285714,289.716L225.65714285714284,168L246.17142857142858,168L266.6857142857143,168L287.2,168L307.7142857142857,383.9094L328.2285714285714,168L348.74285714285713,174.972L369.2571428571428,168L389.77142857142854,311.0226L410.2857142857143,337.3692L430.8,272.4834L451.3142857142857,335.664L471.8285714285714,182.06579999999997L492.34285714285716,156.8112L512.8571428571429,168L533.3714285714286,168L553.8857142857144,164.56019999999998L574.4,335.3406L594.9142857142857,149.8308L615.4285714285714,145.53840000000002L635.9428571428571,160.41479999999999L656.4571428571428,356.181L676.9714285714285,167.52960000000002L697.4857142857143,107.14620000000002L718,145.63920000000002L738.5142857142856,266.637L759.0285714285715,265.2552L779.5428571428571,244.9692L800.0571428571429,77.4144L820.5714285714286,328.7088L841.0857142857143,119.12880000000001L861.6,226.5522L882.1142857142858,222.9906L902.6285714285714,248.3964L923.1428571428572,187.8072" style="fill: none;" fill="none"></path></g></g></g></g></g></g><g transform="translate(60, 378)" clip-path="url(#clip_1)"><clipPath id="clip_1"><rect width="1436" height="22"></rect></clipPath><g><g><line x1="0" y1="0" x2="0" y2="5" style="visibility: inherit;" fill="rgb(0, 0, 0)" stroke="rgb(204, 204, 204)" stroke-width="1px"></line><line x1="102.57142857142857" y1="0" x2="102.57142857142857" y2="5" style="visibility: inherit;" fill="rgb(0, 0, 0)" stroke="rgb(204, 204, 204)" stroke-width="1px"></line><line x1="205.14285714285714" y1="0" x2="205.14285714285714" y2="5" style="visibility: inherit;" fill="rgb(0, 0, 0)" stroke="rgb(204, 204, 204)" stroke-width="1px"></line><line x1="307.7142857142857" y1="0" x2="307.7142857142857" y2="5" style="visibility: inherit;" fill="rgb(0, 0, 0)" stroke="rgb(204, 204, 204)" stroke-width="1px"></line><line x1="410.2857142857143" y1="0" x2="410.2857142857143" y2="5" style="visibility: inherit;" fill="rgb(0, 0, 0)" stroke="rgb(204, 204, 204)" stroke-width="1px"></line><line x1="512.8571428571429" y1="0" x2="512.8571428571429" y2="5" style="visibility: inherit;" fill="rgb(0, 0, 0)" stroke="rgb(204, 204, 204)" stroke-width="1px"></line><line x1="615.4285714285714" y1="0" x2="615.4285714285714" y2="5" style="visibility: inherit;" fill="rgb(0, 0, 0)" stroke="rgb(204, 204, 204)" stroke-width="1px"></line><line x1="718" y1="0" x2="718" y2="5" style="visibility: inherit;" fill="rgb(0, 0, 0)" stroke="rgb(204, 204, 204)" stroke-width="1px"></line><line x1="820.5714285714286" y1="0" x2="820.5714285714286" y2="5" style="visibility: inherit;" fill="rgb(0, 0, 0)" stroke="rgb(204, 204, 204)" stroke-width="1px"></line><line x1="923.1428571428572" y1="0" x2="923.1428571428572" y2="5" style="visibility: inherit;" fill="rgb(0, 0, 0)" stroke="rgb(204, 204, 204)" stroke-width="1px"></line><line x1="1025.7142857142858" y1="0" x2="1025.7142857142858" y2="5" style="visibility: inherit;" fill="rgb(0, 0, 0)" stroke="rgb(204, 204, 204)" stroke-width="1px"></line><line x1="1128.2857142857142" y1="0" x2="1128.2857142857142" y2="5" style="visibility: inherit;" fill="rgb(0, 0, 0)" stroke="rgb(204, 204, 204)" stroke-width="1px"></line><line x1="1230.857142857143" y1="0" x2="1230.857142857143" y2="5" style="visibility: inherit;" fill="rgb(0, 0, 0)" stroke="rgb(204, 204, 204)" stroke-width="1px"></line><line x1="1333.4285714285716" y1="0" x2="1333.4285714285716" y2="5" style="visibility: inherit;" fill="rgb(0, 0, 0)" stroke="rgb(204, 204, 204)" stroke-width="1px"></line><line x1="1436" y1="0" x2="1436" y2="5" style="visibility: inherit;" fill="rgb(0, 0, 0)" stroke="rgb(204, 204, 204)" stroke-width="1px"></line></g><g transform="translate(0, 8)"><text x="0" y="0" dx="0em" dy="0.95em" style="text-anchor: middle; visibility: hidden; font-family: &quot;Helvetica Neue&quot;, sans-serif; font-size: 12px; font-weight: 200;" fill="rgb(50, 49, 63)" stroke="none" stroke-width="1px">-50</text><text x="102.57142857142857" y="0" dx="0em" dy="0.95em" style="text-anchor: middle; visibility: inherit; font-family: &quot;Helvetica Neue&quot;, sans-serif; font-size: 12px; font-weight: 200;" fill="rgb(50, 49, 63)" stroke="none" stroke-width="1px">0</text><text x="205.14285714285714" y="0" dx="0em" dy="0.95em" style="text-anchor: middle; visibility: inherit; font-family: &quot;Helvetica Neue&quot;, sans-serif; font-size: 12px; font-weight: 200;" fill="rgb(50, 49, 63)" stroke="none" stroke-width="1px">50</text><text x="307.7142857142857" y="0" dx="0em" dy="0.95em" style="text-anchor: middle; visibility: inherit; font-family: &quot;Helvetica Neue&quot;, sans-serif; font-size: 12px; font-weight: 200;" fill="rgb(50, 49, 63)" stroke="none" stroke-width="1px">100</text><text x="410.2857142857143" y="0" dx="0em" dy="0.95em" style="text-anchor: middle; visibility: inherit; font-family: &quot;Helvetica Neue&quot;, sans-serif; font-size: 12px; font-weight: 200;" fill="rgb(50, 49, 63)" stroke="none" stroke-width="1px">150</text><text x="512.8571428571429" y="0" dx="0em" dy="0.95em" style="text-anchor: middle; visibility: inherit; font-family: &quot;Helvetica Neue&quot;, sans-serif; font-size: 12px; font-weight: 200;" fill="rgb(50, 49, 63)" stroke="none" stroke-width="1px">200</text><text x="615.4285714285714" y="0" dx="0em" dy="0.95em" style="text-anchor: middle; visibility: inherit; font-family: &quot;Helvetica Neue&quot;, sans-serif; font-size: 12px; font-weight: 200;" fill="rgb(50, 49, 63)" stroke="none" stroke-width="1px">250</text><text x="718" y="0" dx="0em" dy="0.95em" style="text-anchor: middle; visibility: inherit; font-family: &quot;Helvetica Neue&quot;, sans-serif; font-size: 12px; font-weight: 200;" fill="rgb(50, 49, 63)" stroke="none" stroke-width="1px">300</text><text x="820.5714285714286" y="0" dx="0em" dy="0.95em" style="text-anchor: middle; visibility: inherit; font-family: &quot;Helvetica Neue&quot;, sans-serif; font-size: 12px; font-weight: 200;" fill="rgb(50, 49, 63)" stroke="none" stroke-width="1px">350</text><text x="923.1428571428572" y="0" dx="0em" dy="0.95em" style="text-anchor: middle; visibility: inherit; font-family: &quot;Helvetica Neue&quot;, sans-serif; font-size: 12px; font-weight: 200;" fill="rgb(50, 49, 63)" stroke="none" stroke-width="1px">400</text><text x="1025.7142857142858" y="0" dx="0em" dy="0.95em" style="text-anchor: middle; visibility: inherit; font-family: &quot;Helvetica Neue&quot;, sans-serif; font-size: 12px; font-weight: 200;" fill="rgb(50, 49, 63)" stroke="none" stroke-width="1px">450</text><text x="1128.2857142857142" y="0" dx="0em" dy="0.95em" style="text-anchor: middle; visibility: inherit; font-family: &quot;Helvetica Neue&quot;, sans-serif; font-size: 12px; font-weight: 200;" fill="rgb(50, 49, 63)" stroke="none" stroke-width="1px">500</text><text x="1230.857142857143" y="0" dx="0em" dy="0.95em" style="text-anchor: middle; visibility: inherit; font-family: &quot;Helvetica Neue&quot;, sans-serif; font-size: 12px; font-weight: 200;" fill="rgb(50, 49, 63)" stroke="none" stroke-width="1px">550</text><text x="1333.4285714285716" y="0" dx="0em" dy="0.95em" style="text-anchor: middle; visibility: inherit; font-family: &quot;Helvetica Neue&quot;, sans-serif; font-size: 12px; font-weight: 200;" fill="rgb(50, 49, 63)" stroke="none" stroke-width="1px">600</text><text x="1436" y="0" dx="0em" dy="0.95em" style="text-anchor: middle; visibility: hidden; font-family: &quot;Helvetica Neue&quot;, sans-serif; font-size: 12px; font-weight: 200;" fill="rgb(50, 49, 63)" stroke="none" stroke-width="1px">650</text></g><line x1="0" y1="0" x2="1436" y2="0" fill="rgb(0, 0, 0)" stroke="rgb(204, 204, 204)" stroke-width="1px"></line></g></g></g></g></svg>