<svg viewBox="0 0 1496 400" xmlns="http://www.w3.org/2000/svg"><g><g><g><g><g><line x1="70" y1="378" x2="65" y2="378" style="visibility: inherit;" fill="rgb(0, 0, 0)" stroke="rgb(204, 204, 204)" stroke-width="1px"></line><line x1="70" y1="348.9230769230769" x2="65" y2="348.9230769230769" style="visibility: inherit;" fill="rgb(0, 0, 0)" stroke="rgb(204, 204, 204)" stroke-width="1px"></line><line x1="70" y1="319.8461538461538" x2="65" y2="319.8461538461538" style="visibility: inherit;" fill="rgb(0, 0, 0)" stroke="rgb(204, 204, 204)" stroke-width="1px"></line><line x1="70" y1="290.7692307692308" x2="65" y2="290.7692307692308" style="visibility: inherit;" fill="rgb(0, 0, 0)" stroke="rgb(204, 204, 204)" stroke-width="1px"></line><line x1="70" y1="261.6923076923077" x2="65" y2="261.6923076923077" style="visibility: inherit;" fill="rgb(0, 0, 0)" stroke="rgb(204, 204, 204)" stroke-width="1px"></line><line x1="70" y1="232.6153846153846" x2="65" y2="232.6153846153846" style="visibility: inherit;" fill="rgb(0, 0, 0)" stroke="rgb(204, 204, 204)" stroke-width="1px"></line><line x1="70" y1="203.53846153846152" x2="65" y2="203.53846153846152" style="visibility: inherit;" fill="rgb(0, 0, 0)" stroke="rgb(204, 204, 204)" stroke-width="1px"></line><line x1="70" y1="174.46153846153848" x2="65" y2="174.46153846153848" style="visibility: inherit;" fill="rgb(0, 0, 0)" stroke="rgb(204, 204, 204)" stroke-width="1px"></line><line x1="70" y1="145.38461538461536" x2="65" y2="145.38461538461536" style="visibility: inherit;" fill="rgb(0, 0, 0)" stroke="rgb(204, 204, 204)" stroke-width="1px"></line><line x1="70" y1="116.30769230769232" x2="65" y2="116.30769230769232" style="visibility: inherit;" fill="rgb(0, 0, 0)" stroke="rgb(204, 204, 204)" stroke-width="1px"></line><line x1="70" y1="87.23076923076923" x2="65" y2="87.23076923076923" style="visibility: inherit;" fill="rgb(0, 0, 0)" stroke="rgb(204, 204, 204)" stroke-width="1px"></line><line x1="70" y1="58.15384615384613" x2="65" y2="58.15384615384613" style="visibility: inherit;" fill="rgb(0, 0, 0)" stroke="rgb(204, 204, 204)" stroke-width="1px"></line><line x1="70" y1="29.076923076923038" x2="65" y2="29.076923076923038" style="visibility: inherit;" fill="rgb(0, 0, 0)" stroke="rgb(204, 204, 204)" stroke-width="1px"></line><line x1="70" y1="0" x2="65" y2="0" style="visibility: inherit;" fill="rgb(0, 0, 0)" stroke="rgb(204, 204, 204)" stroke-width="1px"></line></g><g transform="translate(60, 0)"><text x="0" y="378" dx="0em" dy="0.3em" style="text-anchor: end; visibility: hidden; font-family: &quot;Helvetica Neue&quot;, sans-serif; font-size: 12px; font-weight: 200;" fill="rgb(50, 49, 63)" stroke="none" stroke-width="1px">-200</text><text x="0" y="348.9230769230769" dx="0em" dy="0.3em" style="text-anchor: end; visibility: inherit; font-family: &quot;Helvetica Neue&quot;, sans-serif; font-size: 12px; font-weight: 200;" fill="rgb(50, 49, 63)" stroke="none" stroke-width="1px">0</text><text x="0" y="319.8461538461538" dx="0em" dy="0.3em" style="text-anchor: end; visibility: inherit; font-family: &quot;Helvetica Neue&quot;, sans-serif; font-size: 12px; font-weight: 200;" fill="rgb(50, 49, 63)" stroke="none" stroke-width="1px">200</text><text x="0" y="290.7692307692308" dx="0em" dy="0.3em" style="text-anchor: end; visibility: inherit; font-family: &quot;Helvetica Neue&quot;, sans-serif; font-size: 12px; font-weight: 200;" fill="rgb(50, 49, 63)" stroke="none" stroke-width="1px">400</text><text x="0" y="261.6923076923077" dx="0em" dy="0.3em" style="text-anchor: end; visibility: inherit; font-family: &quot;Helvetica Neue&quot;, sans-serif; font-size: 12px; font-weight: 200;" fill="rgb(50, 49, 63)" stroke="none" stroke-width="1px">600</text><text x="0" y="232.6153846153846" dx="0em" dy="0.3em" style="text-anchor: end; visibility: inherit; font-family: &quot;Helvetica Neue&quot;, sans-serif; font-size: 12px; font-weight: 200;" fill="rgb(50, 49, 63)" stroke="none" stroke-width="1px">800</text><text x="0" y="203.53846153846152" dx="0em" dy="0.3em" style="text-anchor: end; visibility: inherit; font-family: &quot;Helvetica Neue&quot;, sans-serif; font-size: 12px; font-weight: 200;" fill="rgb(50, 49, 63)" stroke="none" stroke-width="1px">1e+3</text><text x="0" y="174.46153846153848" dx="0em" dy="0.3em" style="text-anchor: end; visibility: inherit; font-family: &quot;Helvetica Neue&quot;, sans-serif; font-size: 12px; font-weight: 200;" fill="rgb(50, 49, 63)" stroke="none" stroke-width="1px">1.2e+3</text><text x="0" y="145.38461538461536" dx="0em" dy="0.3em" style="text-anchor: end; visibility: inherit; font-family: &quot;Helvetica Neue&quot;, sans-serif; font-size: 12px; font-weight: 200;" fill="rgb(50, 49, 63)" stroke="none" stroke-width="1px">1.4e+3</text><text x="0" y="116.30769230769232" dx="0em" dy="0.3em" style="text-anchor: end; visibility: inherit; font-family: &quot;Helvetica Neue&quot;, sans-serif; font-size: 12px; font-weight: 200;" fill="rgb(50, 49, 63)" stroke="none" stroke-width="1px">1.6e+3</text><text x="0" y="87.23076923076923" dx="0em" dy="0.3em" style="text-anchor: end; visibility: inherit; font-family: &quot;Helvetica Neue&quot;, sans-serif; font-size: 12px; font-weight: 200;" fill="rgb(50, 49, 63)" stroke="none" stroke-width="1px">1.8e+3</text><text x="0" y="58.15384615384613" dx="0em" dy="0.3em" style="text-anchor: end; visibility: inherit; font-family: &quot;Helvetica Neue&quot;, sans-serif; font-size: 12px; font-weight: 200;" fill="rgb(50, 49, 63)" stroke="none" stroke-width="1px">2e+3</text><text x="0" y="29.076923076923038" dx="0em" dy="0.3em" style="text-anchor: end; visibility: inherit; font-family: &quot;Helvetica Neue&quot;, sans-serif; font-size: 12px; font-weight: 200;" fill="rgb(50, 49, 63)" stroke="none" stroke-width="1px">2.2e+3</text><text x="0" y="0" dx="0em" dy="0.3em" style="text-anchor: end; visibility: hidden; font-family: &quot;Helvetica Neue&quot;, sans-serif; font-size: 12px; font-weight: 200;" fill="rgb(50, 49, 63)" stroke="none" stroke-width="1px">2.4e+3</text></g><line x1="70" y1="0" x2="70" y2="378" fill="rgb(0, 0, 0)" stroke="rgb(204, 204, 204)" stroke-width="1px"></line></g></g><g transform="translate(70, 0)" clip-path="url(#clip_0)"><clipPath id="clip_0"><rect width="1426" height="378"></rect></clipPath><g><g><g><line x1="0" y1="0" x2="0" y2="378" fill="rgb(0, 0, 0)" stroke="rgb(60, 60, 60)" stroke-width="1px" opacity="0.25"></line><line x1="118.83333333333333" y1="0" x2="118.83333333333333" y2="378" fill="rgb(0, 0, 0)" stroke="rgb(60, 60, 60)" stroke-width="1px" opacity="0.25"></line><line x1="237.66666666666666" y1="0" x2="237.66666666666666" y2="378" fill="rgb(0, 0, 0)" stroke="rgb(60, 60, 60)" stroke-width="1px" opacity="0.25"></line><line x1="356.5" y1="0" x2="356.5" y2="378" fill="rgb(0, 0, 0)" stroke="rgb(60, 60, 60)" stroke-width="1px" opacity="0.25"></line><line x1="475.3333333333333" y1="0" x2="475.3333333333333" y2="378" fill="rgb(0, 0, 0)" stroke="rgb(60, 60, 60)" stroke-width="1px" opacity="0.25"></line><line x1="594.1666666666667" y1="0" x2="594.1666666666667" y2="378" fill="rgb(0, 0, 0)" stroke="rgb(60, 60, 60)" stroke-width="1px" opacity="0.25"></line><line x1="713" y1="0" x2="713" y2="378" fill="rgb(0, 0, 0)" stroke="rgb(60, 60, 60)" stroke-width="1px" opacity="0.25"></line><line x1="831.8333333333334" y1="0" x2="831.8333333333334" y2="378" fill="rgb(0, 0, 0)" stroke="rgb(60, 60, 60)" stroke-width="1px" opacity="0.25"></line><line x1="950.6666666666666" y1="0" x2="950.6666666666666" y2="378" fill="rgb(0, 0, 0)" stroke="rgb(60, 60, 60)" stroke-width="1px" opacity="0.25"></line><line x1="1069.5" y1="0" x2="1069.5" y2="378" fill="rgb(0, 0, 0)" stroke="rgb(60, 60, 60)" stroke-width="1px" opacity="0.25"></line><line x1="1188.3333333333335" y1="0" x2="1188.3333333333335" y2="378" fill="rgb(0, 0, 0)" stroke="rgb(60, 60, 60)" stroke-width="1px" opacity="0.25"></line><line x1="1307.1666666666665" y1="0" x2="1307.1666666666665" y2="378" fill="rgb(0, 0, 0)" stroke="rgb(60, 60, 60)" stroke-width="1px" opacity="0.25"></line><line x1="1426" y1="0" x2="1426" y2="378" fill="rgb(0, 0, 0)" stroke="rgb(60, 60, 60)" stroke-width="1px" opacity="0.25"></line></g><g><line x1="0" y1="378" x2="1426" y2="378" fill="rgb(0, 0, 0)" stroke="rgb(60, 60, 60)" stroke-width="1px" opacity="0.25"></line><line x1="0" y1="348.9230769230769" x2="1426" y2="348.9230769230769" fill="rgb(0, 0, 0)" stroke="rgb(60, 60, 60)" stroke-width="1px" opacity="0.25"></line><line x1="0" y1="319.8461538461538" x2="1426" y2="319.8461538461538" fill="rgb(0, 0, 0)" stroke="rgb(60, 60, 60)" stroke-width="1px" opacity="0.25"></line><line x1="0" y1="290.7692307692308" x2="1426" y2="290.7692307692308" fill="rgb(0, 0, 0)" stroke="rgb(60, 60, 60)" stroke-width="1px" opacity="0.25"></line><line x1="0" y1="261.6923076923077" x2="1426" y2="261.6923076923077" fill="rgb(0, 0, 0)" stroke="rgb(60, 60, 60)" stroke-width="1px" opacity="0.25"></line><line x1="0" y1="232.6153846153846" x2="1426" y2="232.6153846153846" fill="rgb(0, 0, 0)" stroke="rgb(60, 60, 60)" stroke-width="1px" opacity="0.25"></line><line x1="0" y1="203.53846153846152" x2="1426" y2="203.53846153846152" fill="rgb(0, 0, 0)" stroke="rgb(60, 60, 60)" stroke-width="1px" opacity="0.25"></line><line x1="0" y1="174.46153846153848" x2="1426" y2="174.46153846153848" fill="rgb(0, 0, 0)" stroke="rgb(60, 60, 60)" stroke-width="1px" opacity="0.25"></line><line x1="0" y1="145.38461538461536" x2="1426" y2="145.38461538461536" fill="rgb(0, 0, 0)" stroke="rgb(60, 60, 60)" stroke-width="1px" opacity="0.25"></line><line x1="0" y1="116.30769230769232" x2="1426" y2="116.30769230769232" fill="rgb(0, 0, 0)" stroke="rgb(60, 60, 60)" stroke-width="1px" opacity="0.25"></line><line x1="0" y1="87.23076923076923" x2="1426" y2="87.23076923076923" fill="rgb(0, 0, 0)" stroke="rgb(60, 60, 60)" stroke-width="1px" opacity="0.25"></line><line x1="0" y1="58.15384615384613" x2="1426" y2="58.15384615384613" fill="rgb(0, 0, 0)" stroke="rgb(60, 60, 60)" stroke-width="1px" opacity="0.25"></line><line x1="0" y1="29.076923076923038" x2="1426" y2="29.076923076923038" fill="rgb(0, 0, 0)" stroke="rgb(60, 60, 60)" stroke-width="1px" opacity="0.25"></line><line x1="0" y1="0" x2="1426" y2="0" fill="rgb(0, 0, 0)" stroke="rgb(60, 60, 60)" stroke-width="1px" opacity="0.25"></line></g></g></g><g><g><line x1="0" y1="348.9230769230769" x2="1426" y2="348.9230769230769" fill="rgb(0, 0, 0)" stroke="rgb(153, 153, 153)" stroke-width="1.5px"></line></g></g><g><g><line x1="118.83333333333333" y1="0" x2="118.83333333333333" y2="378" fill="rgb(0, 0, 0)" stroke="rgb(153, 153, 153)" stroke-width="1.5px"></line></g></g><g><g><g><g><g><path stroke="rgb(51, 187, 238)" stroke-width="2px" d="M118.83333333333333,295.7123076923077L130.71666666666667,303.52673076923077L142.6,322.97934065934066L154.48333333333335,323.14296380090497L166.36666666666667,288.103577109913L178.25,264.7610786581839L190.13333333333333,266.42982289195436L202.01666666666665,271.83670865352565L213.9,232.96008454670675L225.78333333333333,253.29903256910177L237.66666666666666,263.2638794047233L249.54999999999998,235.59162963988695L261.43333333333334,258.2156031866011L273.31666666666666,278.9295942579146L285.2,273.48596627337804L297.08333333333337,268.06912853764345L308.9666666666667,291.4589747037297L320.85,284.7854762927976L332.73333333333335,288.9820030335845L344.6166666666667,273.35509201398605L356.5,250.83625352143548L368.3833333333334,247.90940589688645L380.26666666666665,231.73105423433765L392.15000000000003,259.8824582403823L404.0333333333333,270.08550395178224L415.9166666666667,252.82942678150852L427.8,225.49485886146886L439.68333333333334,249.22031450193114L451.56666666666666,248.6263423284596L463.45,234.48749457903756L475.3333333333333,198.84633817367063L487.2166666666667,218.57641985906812L499.09999999999997,214.53846710723604L510.98333333333335,220.08277273088484L522.8666666666667,225.09581757086252L534.75,261.60026014980906L546.6333333333333,234.01400207300978L558.5166666666667,246.42286282834388L570.4,249.79741001221686L582.2833333333333,253.45044601221332L594.1666666666667,264.4234983853597L606.05,251.9328682559742L617.9333333333334,248.2766440294519L629.8166666666666,249.2232171870659L641.7,245.0225456964183L653.5833333333333,203.59721972295966L665.4666666666667,169.96079337097865L677.35,157.45524525307567L689.2333333333333,176.47007022902457L701.1166666666667,151.70727290644538L713,148.7711329746222L724.8833333333333,136.19283363089062L736.7666666666668,130.5649309477553L748.65,115.20849703017558L760.5333333333333,128.26755975657514L772.4166666666666,127.67068970009865L784.3000000000001,113.1230292046713L796.1833333333334,102.5916636766475L808.0666666666666,109.35745974445058L819.9499999999999,94.22616815436197L831.8333333333334,89.45077781569393L843.7166666666667,79.5489282278777L855.6,72.50289539826503L867.4833333333332,73.62542954665139L879.3666666666667,71.85648849722156L891.25,85.10097002140992L903.1333333333333,89.55842816669212L915.0166666666668,78.79936459232295L926.9,78.21746490923988L938.7833333333333,79.08955586862089L950.6666666666666,77.57742582886482L962.5500000000001,73.6461478050112L974.4333333333334,88.09384252916055L986.3166666666666,80.47938244057326L998.1999999999999,74.1079371566517L1010.0833333333334,64.52783921706794L1021.9666666666667,62.152703530240785L1033.85,58.57592981045212L1045.7333333333333,70.03786557857899L1057.6166666666668,76.74056550099351L1069.5,72.155416223673L1081.3833333333332,70.50924973420382L1093.2666666666667,63.29908830206068L1105.15,65.48622221200566L1117.0333333333333,72.90465640412651L1128.9166666666665,65.95756307324507L1140.8,70.62869169010088L1152.6833333333334,76.28090732175286L1164.5666666666666,79.20700593151321L1176.45,75.72881894352338L1188.3333333333335,80.09698367380628L1200.2166666666667,82.19449789659149L1212.1,84.61608335333949L1223.9833333333333,80.0210346273883L1235.8666666666668,84.88215923797145L1247.75,87.21729554278284L1259.6333333333332,80.53499271028511L1271.5166666666667,83.62038024155567L1283.4,88.72822814493344L1295.2833333333333,87.9547830408062" style="fill: none;" fill="none"></path></g><g><path stroke="rgb(204, 51, 17)" stroke-width="2px" d="M118.83333333333333,316.5023076923077L130.71666666666667,318.22875L142.6,313.7874725274725L154.48333333333335,325.7919570135747L166.36666666666667,303.7914952223349L178.25,295.88767495662233L190.13333333333333,265.24305956073476L202.01666666666665,286.0378780659954L213.9,285.8348344741578L225.78333333333333,280.15610202244494L237.66666666666666,271.4596492001898L249.54999999999998,245.80548444897707L261.43333333333334,259.50549152173335L273.31666666666666,232.32876733106855L285.2,231.68711254835088L297.08333333333337,242.93636414344624L308.9666666666667,245.08895207806592L320.85,271.7960836219619L332.73333333333335,287.7604691324037L344.6166666666667,273.84346495941185L356.5,244.67405447234444L368.3833333333334,235.77970022978528L380.26666666666665,248.47099728795666L392.15000000000003,234.10345337079508L404.0333333333333,257.7002929551255L415.9166666666667,221.20626736708962L427.8,218.67514244505642L439.68333333333334,221.80877969907468L451.56666666666666,230.3766555917193L463.45,206.7893727558831L475.3333333333333,205.89608507350187L487.2166666666667,216.0022672330333L499.09999999999997,221.42628367575048L510.98333333333335,214.03853922455193L522.8666666666667,219.608354399711L534.75,176.77608912111333L546.6333333333333,192.42411510796975L558.5166666666667,189.42616136134217L570.4,182.5680044938336L582.2833333333333,182.58203346554964L594.1666666666667,160.37568159998074L606.05,157.92663972804064L617.9333333333334,148.43198383408293L629.8166666666666,138.14103645251305L641.7,149.58708341115914L653.5833333333333,132.55348081486395L665.4666666666667,109.83024233422191L677.35,104.10522232348154L689.2333333333333,112.41728724035471L701.1166666666667,119.84698772888828L713,112.73219263729845L724.8833333333333,139.28485404399478L736.7666666666668,136.43275858023807L748.65,105.23750130195634L760.5333333333333,96.34834693501438L772.4166666666666,73.62685431484618L784.3000000000001,58.19118951198112L796.1833333333334,88.8233290918082L808.0666666666666,71.20538207046815L819.9499999999999,74.06815231920416L831.8333333333334,67.70242985306066L843.7166666666667,49.926073296451534L855.6,51.937797824024756L867.4833333333332,44.24729407903027L879.3666666666667,38.12099183203355L891.25,45.66890279152784L903.1333333333333,49.616110905686014L915.0166666666668,46.92505115879624L926.9,47.46210761835471L938.7833333333333,43.539110724858915L950.6666666666666,49.67577412722312L962.5500000000001,49.11254139941076L974.4333333333334,56.625370993492595L986.3166666666666,63.45922259609563L998.1999999999999,64.24476432688812L1010.0833333333334,69.77547398074825L1021.9666666666667,74.89666900383361L1033.85,86.69246294076169L1045.7333333333333,82.83701622599551L1057.6166666666668,68.95113281252037L1069.5,64.63221814905074L1081.3833333333332,74.19502319712274L1093.2666666666667,78.36255237981209L1105.15,87.31814681250262L1117.0333333333333,85.65488808750155L1128.9166666666665,74.59631746788557L1140.8,77.55655971150054L1152.6833333333334,71.83085890382341L1164.5666666666666,75.66466918844787L1176.45,75.69695535922261L1188.3333333333335,79.03109629245665L1200.2166666666667,79.46142700624324L1212.1,77.33531774220751L1223.9833333333333,73.03565218378606L1235.8666666666668,66.55954515642549L1247.75,72.61818863231684L1259.6333333333332,72.64783625631316L1271.5166666666667,77.20162483071101L1283.4,65.86066720611888L1295.2833333333333,66.03455416982518" style="fill: none;" fill="none"></path></g><g><path stroke="rgb(0, 119, 187)" stroke-width="2px" d="M118.83333333333333,298.03846153846155L142.6,325.02548076923074L166.36666666666667,325.5725274725275L190.13333333333333,304.63421945701356L213.9,238.84240644851332L237.66666666666666,236.9616975130133L261.43333333333334,273.7027639957293L285.2,259.1163550465948L308.9666666666667,258.68857895361265L332.73333333333335,282.9493816301602L356.5,260.1160209871281L380.26666666666665,261.09759542000995L404.0333333333333,258.482526405768L427.8,274.43370816139935L451.56666666666666,248.27315536695824L475.3333333333333,243.52070634822763L499.09999999999997,205.19024343432324L522.8666666666667,232.50430469085623L546.6333333333333,210.50708854656884L570.4,181.66566017808526L594.1666666666667,192.33409167816794L617.9333333333334,176.2291661080494L641.7,128.94051082741146L665.4666666666667,129.4120010382396L689.2333333333333,91.60401621067695L713,112.65106101343434L736.7666666666668,119.4057204444664L760.5333333333333,86.58895057562955L784.3000000000001,84.86844663452376L808.0666666666666,69.41398764105946L831.8333333333334,79.7973170388488L855.6,68.34854315829398L879.3666666666667,56.36174070719835L903.1333333333333,62.19612151455783L926.9,65.34782680906858L950.6666666666666,86.37146553305718L974.4333333333334,96.48503322857749L998.1999999999999,93.88825069673487L1021.9666666666667,80.58310423455202L1045.7333333333333,91.61632409394139L1069.5,91.14148676367631L1093.2666666666667,80.4470458992131L1117.0333333333333,97.52453523676644L1140.8,88.58025960204884L1164.5666666666666,81.17830960661371L1188.3333333333335,70.80544730178292L1212.1,87.37803761245914L1235.8666666666668,83.07389949045574L1259.6333333333332,81.48003200194427L1283.4,68.95109612414223" style="fill: none;" fill="none"></path></g></g></g></g><g opacity="0.2"><g><g><g><path stroke="rgb(51, 187, 238)" stroke-width="2px" d="M118.83333333333333,295.7123076923077L130.71666666666667,308.2153846153846L142.6,341.65384615384613L154.48333333333335,323.3353846153846L166.36666666666667,242.35615384615383L178.25,232.47L190.13333333333333,268.81615384615384L202.01666666666665,279.72L213.9,175.6246153846154L225.78333333333333,283.5L237.66666666666666,278.12076923076927L249.54999999999998,194.23384615384614L261.43333333333334,292.0776923076923L273.31666666666666,309.96000000000004L285.2,265.3269230769231L297.08333333333337,259.9476923076923L308.9666666666667,326.5338461538462L320.85,274.7769230769231L332.73333333333335,295.2761538461539L344.6166666666667,249.91615384615383L356.5,217.05923076923077L368.3833333333334,243.51923076923077L380.26666666666665,207.46384615384616L392.15000000000003,302.10923076923075L404.0333333333333,285.39L415.9166666666667,226.94538461538463L427.8,184.49307692307693L439.68333333333334,284.80846153846153L451.56666666666666,247.73538461538462L463.45,213.2792307692308L475.3333333333333,145.38461538461536L487.2166666666667,248.17153846153846L499.09999999999997,208.48153846153846L510.98333333333335,228.39923076923077L522.8666666666667,232.6153846153846L534.75,316.35692307692307L546.6333333333333,192.6346153846154L558.5166666666667,265.03615384615387L570.4,254.85923076923078L582.2833333333333,258.93L594.1666666666667,280.88307692307694L606.05,233.19692307692307L617.9333333333334,242.7923076923077L629.8166666666666,250.64307692307693L641.7,238.72153846153847L653.5833333333333,141.45923076923077L665.4666666666667,119.50615384615384L677.35,138.69692307692307L689.2333333333333,204.9923076923077L701.1166666666667,114.56307692307689L713,144.3669230769231L724.8833333333333,117.32538461538462L736.7666666666668,122.12307692307692L748.65,92.17384615384617L760.5333333333333,147.85615384615386L772.4166666666666,126.77538461538461L784.3000000000001,91.30153846153848L796.1833333333334,86.79461538461538L808.0666666666666,119.50615384615384L819.9499999999999,71.52923076923076L831.8333333333334,82.28769230769234L843.7166666666667,64.69615384615383L855.6,61.93384615384616L867.4833333333332,75.30923076923074L879.3666666666667,69.20307692307688L891.25,104.96769230769229L903.1333333333333,96.24461538461537L915.0166666666668,62.66076923076923L926.9,77.3446153846154L938.7833333333333,80.3976923076923L950.6666666666666,75.30923076923074L962.5500000000001,67.74923076923073L974.4333333333334,109.76538461538462L986.3166666666666,69.05769230769232L998.1999999999999,64.55076923076922L1010.0833333333334,50.15769230769229L1021.9666666666667,58.59000000000003L1033.85,53.210769230769245L1045.7333333333333,87.23076923076923L1057.6166666666668,86.79461538461538L1069.5,65.27769230769229L1081.3833333333332,68.04000000000002L1093.2666666666667,52.48384615384617L1105.15,68.76692307692309L1117.0333333333333,84.03230769230771L1128.9166666666665,55.536923076923074L1140.8,77.63538461538462L1152.6833333333334,84.75923076923078L1164.5666666666666,83.59615384615387L1176.45,70.51153846153846L1188.3333333333335,86.64923076923077L1200.2166666666667,85.34076923076924L1212.1,88.24846153846153L1223.9833333333333,73.12846153846152L1235.8666666666668,92.17384615384617L1247.75,90.71999999999997L1259.6333333333332,70.51153846153846L1271.5166666666667,88.24846153846153L1283.4,96.38999999999999L1295.2833333333333,86.79461538461538" style="fill: none;" fill="none"></path></g><g><path stroke="rgb(204, 51, 17)" stroke-width="2px" d="M118.83333333333333,316.5023076923077L130.71666666666667,319.2646153846154L142.6,309.52384615384614L154.48333333333335,339.90923076923076L166.36666666666667,275.0676923076923L178.25,284.95384615384614L190.13333333333333,221.42076923076922L202.01666666666665,316.35692307692307L213.9,285.5353846153846L225.78333333333333,271.7238461538461L237.66666666666666,258.49384615384616L249.54999999999998,207.46384615384616L261.43333333333334,280.01076923076926L273.31666666666666,191.6169230769231L285.2,230.7253846153846L297.08333333333337,259.8023076923077L308.9666666666667,248.31692307692308L320.85,311.85L332.73333333333335,311.7046153846154L344.6166666666667,252.96923076923076L356.5,200.92153846153846L368.3833333333334,222.43846153846155L380.26666666666665,267.5076923076923L392.15000000000003,212.5523076923077L404.0333333333333,293.0953846153846L415.9166666666667,166.4653846153846L427.8,214.87846153846155L439.68333333333334,226.50923076923078L451.56666666666666,243.22846153846154L463.45,171.40846153846155L475.3333333333333,204.55615384615385L487.2166666666667,231.16153846153847L499.09999999999997,229.5623076923077L510.98333333333335,202.9569230769231L522.8666666666667,227.96307692307693L534.75,112.52769230769229L546.6333333333333,215.89615384615385L558.5166666666667,184.92923076923077L570.4,172.28076923076924L582.2833333333333,182.6030769230769L594.1666666666667,127.06615384615384L606.05,154.25307692307695L617.9333333333334,134.19L629.8166666666666,122.70461538461538L641.7,166.75615384615384L653.5833333333333,107.00307692307695L665.4666666666667,75.74538461538464L677.35,95.5176923076923L689.2333333333333,124.88538461538462L701.1166666666667,130.99153846153848L713,102.06L724.8833333333333,179.11384615384614L736.7666666666668,132.1546153846154L748.65,58.44461538461536L760.5333333333333,83.01461538461541L772.4166666666666,39.54461538461538L784.3000000000001,35.03769230769234L796.1833333333334,134.77153846153848L808.0666666666666,44.778461538461556L819.9499999999999,78.3623076923077L831.8333333333334,58.15384615384613L843.7166666666667,23.261538461538464L855.6,54.95538461538462L867.4833333333332,32.71153846153845L879.3666666666667,28.93153846153848L891.25,56.99076923076922L903.1333333333333,55.536923076923074L915.0166666666668,42.88846153846157L926.9,48.2676923076923L938.7833333333333,37.6546153846154L950.6666666666666,58.880769230769204L962.5500000000001,48.2676923076923L974.4333333333334,67.8946153846154L986.3166666666666,73.70999999999998L998.1999999999999,65.42307692307696L1010.0833333333334,78.07153846153847L1021.9666666666667,82.57846153846157L1033.85,104.38615384615389L1045.7333333333333,77.05384615384617L1057.6166666666668,48.122307692307686L1069.5,58.15384615384613L1081.3833333333332,88.53923076923076L1093.2666666666667,84.61384615384611L1105.15,100.75153846153847L1117.0333333333333,83.15999999999997L1128.9166666666665,58.00846153846152L1140.8,81.99692307692305L1152.6833333333334,63.24230769230769L1164.5666666666666,81.4153846153846L1176.45,75.74538461538464L1188.3333333333335,84.03230769230771L1200.2166666666667,80.10692307692307L1212.1,74.14615384615382L1223.9833333333333,66.58615384615382L1235.8666666666668,56.8453846153846L1247.75,81.70615384615382L1259.6333333333332,72.69230769230768L1271.5166666666667,84.03230769230771L1283.4,48.84923076923076L1295.2833333333333,66.29538461538459" style="fill: none;" fill="none"></path></g><g><path stroke="rgb(0, 119, 187)" stroke-width="2px" d="M118.83333333333333,298.03846153846155L142.6,341.2176923076923L166.36666666666667,326.09769230769234L190.13333333333333,280.01076923076926L213.9,152.9446153846154L237.66666666666666,234.35999999999999L261.43333333333334,326.2430769230769L285.2,237.84923076923076L308.9666666666667,258.0576923076923L332.73333333333335,318.9738461538462L356.5,226.0730769230769L380.26666666666665,262.5646153846154L404.0333333333333,254.56846153846152L427.8,298.3292307692308L451.56666666666666,209.06307692307692L475.3333333333333,236.39538461538461L499.09999999999997,147.71076923076922L522.8666666666667,273.46846153846155L546.6333333333333,177.5146153846154L570.4,138.40615384615384L594.1666666666667,208.33615384615385L617.9333333333334,152.07230769230767L641.7,58.00846153846152L665.4666666666667,130.11923076923077L689.2333333333333,34.89230769230767L713,144.22153846153844L736.7666666666668,129.53769230769234L760.5333333333333,37.36384615384611L784.3000000000001,82.28769230769234L808.0666666666666,46.2323076923077L831.8333333333334,95.37230769230769L855.6,51.175384615384644L879.3666666666667,38.38153846153847L903.1333333333333,70.94769230769231L926.9,70.07538461538462L950.6666666666666,117.90692307692308L974.4333333333334,111.6553846153846L998.1999999999999,89.9930769230769L1021.9666666666667,60.625384615384576L1045.7333333333333,108.16615384615386L1069.5,90.4292307692308L1093.2666666666667,64.4053846153846L1117.0333333333333,123.14076923076925L1140.8,75.16384615384618L1164.5666666666666,70.07538461538462L1188.3333333333335,55.246153846153845L1212.1,112.23692307692306L1235.8666666666668,76.61769230769232L1259.6333333333332,79.08923076923077L1283.4,50.15769230769229" style="fill: none;" fill="none"></path></g></g></g></g></g><g><g opacity="0.704758"><span fill="rgb(0, 0, 0)" stroke="none" stroke-width="1px">Alt + Scroll to Zoom</span></g></g></g><g transform="translate(70, 378)" clip-path="url(#clip_1)"><clipPath id="clip_1"><rect width="1426" height="22"></rect></clipPath><g><g><line x1="0" y1="0" x2="0" y2="5" style="visibility: inherit;" fill="rgb(0, 0, 0)" stroke="rgb(204, 204, 204)" stroke-width="1px"></line><line x1="118.83333333333333" y1="0" x2="118.83333333333333" y2="5" style="visibility: inherit;" fill="rgb(0, 0, 0)" stroke="rgb(204, 204, 204)" stroke-width="1px"></line><line x1="237.66666666666666" y1="0" x2="237.66666666666666" y2="5" style="visibility: inherit;" fill="rgb(0, 0, 0)" stroke="rgb(204, 204, 204)" stroke-width="1px"></line><line x1="356.5" y1="0" x2="356.5" y2="5" style="visibility: inherit;" fill="rgb(0, 0, 0)" stroke="rgb(204, 204, 204)" stroke-width="1px"></line><line x1="475.3333333333333" y1="0" x2="475.3333333333333" y2="5" style="visibility: inherit;" fill="rgb(0, 0, 0)" stroke="rgb(204, 204, 204)" stroke-width="1px"></line><line x1="594.1666666666667" y1="0" x2="594.1666666666667" y2="5" style="visibility: inherit;" fill="rgb(0, 0, 0)" stroke="rgb(204, 204, 204)" stroke-width="1px"></line><line x1="713" y1="0" x2="713" y2="5" style="visibility: inherit;" fill="rgb(0, 0, 0)" stroke="rgb(204, 204, 204)" stroke-width="1px"></line><line x1="831.8333333333334" y1="0" x2="831.8333333333334" y2="5" style="visibility: inherit;" fill="rgb(0, 0, 0)" stroke="rgb(204, 204, 204)" stroke-width="1px"></line><line x1="950.6666666666666" y1="0" x2="950.6666666666666" y2="5" style="visibility: inherit;" fill="rgb(0, 0, 0)" stroke="rgb(204, 204, 204)" stroke-width="1px"></line><line x1="1069.5" y1="0" x2="1069.5" y2="5" style="visibility: inherit;" fill="rgb(0, 0, 0)" stroke="rgb(204, 204, 204)" stroke-width="1px"></line><line x1="1188.3333333333335" y1="0" x2="1188.3333333333335" y2="5" style="visibility: inherit;" fill="rgb(0, 0, 0)" stroke="rgb(204, 204, 204)" stroke-width="1px"></line><line x1="1307.1666666666665" y1="0" x2="1307.1666666666665" y2="5" style="visibility: inherit;" fill="rgb(0, 0, 0)" stroke="rgb(204, 204, 204)" stroke-width="1px"></line><line x1="1426" y1="0" x2="1426" y2="5" style="visibility: inherit;" fill="rgb(0, 0, 0)" stroke="rgb(204, 204, 204)" stroke-width="1px"></line></g><g transform="translate(0, 8)"><text x="0" y="0" dx="0em" dy="0.95em" style="text-anchor: middle; visibility: hidden; font-family: &quot;Helvetica Neue&quot;, sans-serif; font-size: 12px; font-weight: 200;" fill="rgb(50, 49, 63)" stroke="none" stroke-width="1px">-50</text><text x="118.83333333333333" y="0" dx="0em" dy="0.95em" style="text-anchor: middle; visibility: inherit; font-family: &quot;Helvetica Neue&quot;, sans-serif; font-size: 12px; font-weight: 200;" fill="rgb(50, 49, 63)" stroke="none" stroke-width="1px">0</text><text x="237.66666666666666" y="0" dx="0em" dy="0.95em" style="text-anchor: middle; visibility: inherit; font-family: &quot;Helvetica Neue&quot;, sans-serif; font-size: 12px; font-weight: 200;" fill="rgb(50, 49, 63)" stroke="none" stroke-width="1px">50</text><text x="356.5" y="0" dx="0em" dy="0.95em" style="text-anchor: middle; visibility: inherit; font-family: &quot;Helvetica Neue&quot;, sans-serif; font-size: 12px; font-weight: 200;" fill="rgb(50, 49, 63)" stroke="none" stroke-width="1px">100</text><text x="475.3333333333333" y="0" dx="0em" dy="0.95em" style="text-anchor: middle; visibility: inherit; font-family: &quot;Helvetica Neue&quot;, sans-serif; font-size: 12px; font-weight: 200;" fill="rgb(50, 49, 63)" stroke="none" stroke-width="1px">150</text><text x="594.1666666666667" y="0" dx="0em" dy="0.95em" style="text-anchor: middle; visibility: inherit; font-family: &quot;Helvetica Neue&quot;, sans-serif; font-size: 12px; font-weight: 200;" fill="rgb(50, 49, 63)" stroke="none" stroke-width="1px">200</text><text x="713" y="0" dx="0em" dy="0.95em" style="text-anchor: middle; visibility: inherit; font-family: &quot;Helvetica Neue&quot;, sans-serif; font-size: 12px; font-weight: 200;" fill="rgb(50, 49, 63)" stroke="none" stroke-width="1px">250</text><text x="831.8333333333334" y="0" dx="0em" dy="0.95em" style="text-anchor: middle; visibility: inherit; font-family: &quot;Helvetica Neue&quot;, sans-serif; font-size: 12px; font-weight: 200;" fill="rgb(50, 49, 63)" stroke="none" stroke-width="1px">300</text><text x="950.6666666666666" y="0" dx="0em" dy="0.95em" style="text-anchor: middle; visibility: inherit; font-family: &quot;Helvetica Neue&quot;, sans-serif; font-size: 12px; font-weight: 200;" fill="rgb(50, 49, 63)" stroke="none" stroke-width="1px">350</text><text x="1069.5" y="0" dx="0em" dy="0.95em" style="text-anchor: middle; visibility: inherit; font-family: &quot;Helvetica Neue&quot;, sans-serif; font-size: 12px; font-weight: 200;" fill="rgb(50, 49, 63)" stroke="none" stroke-width="1px">400</text><text x="1188.3333333333335" y="0" dx="0em" dy="0.95em" style="text-anchor: middle; visibility: inherit; font-family: &quot;Helvetica Neue&quot;, sans-serif; font-size: 12px; font-weight: 200;" fill="rgb(50, 49, 63)" stroke="none" stroke-width="1px">450</text><text x="1307.1666666666665" y="0" dx="0em" dy="0.95em" style="text-anchor: middle; visibility: inherit; font-family: &quot;Helvetica Neue&quot;, sans-serif; font-size: 12px; font-weight: 200;" fill="rgb(50, 49, 63)" stroke="none" stroke-width="1px">500</text><text x="1426" y="0" dx="0em" dy="0.95em" style="text-anchor: middle; visibility: hidden; font-family: &quot;Helvetica Neue&quot;, sans-serif; font-size: 12px; font-weight: 200;" fill="rgb(50, 49, 63)" stroke="none" stroke-width="1px">550</text></g><line x1="0" y1="0" x2="1426" y2="0" fill="rgb(0, 0, 0)" stroke="rgb(204, 204, 204)" stroke-width="1px"></line></g></g></g></g></svg>