<svg viewBox="0 0 1496 400" xmlns="http://www.w3.org/2000/svg"><g><g><g><g><g><line x1="70" y1="378" x2="65" y2="378" style="visibility: inherit;" fill="rgb(0, 0, 0)" stroke="rgb(204, 204, 204)" stroke-width="1px"></line><line x1="70" y1="336" x2="65" y2="336" style="visibility: inherit;" fill="rgb(0, 0, 0)" stroke="rgb(204, 204, 204)" stroke-width="1px"></line><line x1="70" y1="294" x2="65" y2="294" style="visibility: inherit;" fill="rgb(0, 0, 0)" stroke="rgb(204, 204, 204)" stroke-width="1px"></line><line x1="70" y1="252" x2="65" y2="252" style="visibility: inherit;" fill="rgb(0, 0, 0)" stroke="rgb(204, 204, 204)" stroke-width="1px"></line><line x1="70" y1="210" x2="65" y2="210" style="visibility: inherit;" fill="rgb(0, 0, 0)" stroke="rgb(204, 204, 204)" stroke-width="1px"></line><line x1="70" y1="168" x2="65" y2="168" style="visibility: inherit;" fill="rgb(0, 0, 0)" stroke="rgb(204, 204, 204)" stroke-width="1px"></line><line x1="70" y1="126" x2="65" y2="126" style="visibility: inherit;" fill="rgb(0, 0, 0)" stroke="rgb(204, 204, 204)" stroke-width="1px"></line><line x1="70" y1="84" x2="65" y2="84" style="visibility: inherit;" fill="rgb(0, 0, 0)" stroke="rgb(204, 204, 204)" stroke-width="1px"></line><line x1="70" y1="42" x2="65" y2="42" style="visibility: inherit;" fill="rgb(0, 0, 0)" stroke="rgb(204, 204, 204)" stroke-width="1px"></line><line x1="70" y1="0" x2="65" y2="0" style="visibility: inherit;" fill="rgb(0, 0, 0)" stroke="rgb(204, 204, 204)" stroke-width="1px"></line></g><g transform="translate(60, 0)"><text x="0" y="378" dx="0em" dy="0.3em" style="text-anchor: end; visibility: hidden; font-family: &quot;Helvetica Neue&quot;, sans-serif; font-size: 12px; font-weight: 200;" fill="rgb(50, 49, 63)" stroke="none" stroke-width="1px">-500</text><text x="0" y="336" dx="0em" dy="0.3em" style="text-anchor: end; visibility: inherit; font-family: &quot;Helvetica Neue&quot;, sans-serif; font-size: 12px; font-weight: 200;" fill="rgb(50, 49, 63)" stroke="none" stroke-width="1px">0</text><text x="0" y="294" dx="0em" dy="0.3em" style="text-anchor: end; visibility: inherit; font-family: &quot;Helvetica Neue&quot;, sans-serif; font-size: 12px; font-weight: 200;" fill="rgb(50, 49, 63)" stroke="none" stroke-width="1px">500</text><text x="0" y="252" dx="0em" dy="0.3em" style="text-anchor: end; visibility: inherit; font-family: &quot;Helvetica Neue&quot;, sans-serif; font-size: 12px; font-weight: 200;" fill="rgb(50, 49, 63)" stroke="none" stroke-width="1px">1e+3</text><text x="0" y="210" dx="0em" dy="0.3em" style="text-anchor: end; visibility: inherit; font-family: &quot;Helvetica Neue&quot;, sans-serif; font-size: 12px; font-weight: 200;" fill="rgb(50, 49, 63)" stroke="none" stroke-width="1px">1.5e+3</text><text x="0" y="168" dx="0em" dy="0.3em" style="text-anchor: end; visibility: inherit; font-family: &quot;Helvetica Neue&quot;, sans-serif; font-size: 12px; font-weight: 200;" fill="rgb(50, 49, 63)" stroke="none" stroke-width="1px">2e+3</text><text x="0" y="126" dx="0em" dy="0.3em" style="text-anchor: end; visibility: inherit; font-family: &quot;Helvetica Neue&quot;, sans-serif; font-size: 12px; font-weight: 200;" fill="rgb(50, 49, 63)" stroke="none" stroke-width="1px">2.5e+3</text><text x="0" y="84" dx="0em" dy="0.3em" style="text-anchor: end; visibility: inherit; font-family: &quot;Helvetica Neue&quot;, sans-serif; font-size: 12px; font-weight: 200;" fill="rgb(50, 49, 63)" stroke="none" stroke-width="1px">3e+3</text><text x="0" y="42" dx="0em" dy="0.3em" style="text-anchor: end; visibility: inherit; font-family: &quot;Helvetica Neue&quot;, sans-serif; font-size: 12px; font-weight: 200;" fill="rgb(50, 49, 63)" stroke="none" stroke-width="1px">3.5e+3</text><text x="0" y="0" dx="0em" dy="0.3em" style="text-anchor: end; visibility: hidden; font-family: &quot;Helvetica Neue&quot;, sans-serif; font-size: 12px; font-weight: 200;" fill="rgb(50, 49, 63)" stroke="none" stroke-width="1px">4e+3</text></g><line x1="70" y1="0" x2="70" y2="378" fill="rgb(0, 0, 0)" stroke="rgb(204, 204, 204)" stroke-width="1px"></line></g></g><g transform="translate(70, 0)" clip-path="url(#clip_0)"><clipPath id="clip_0"><rect width="1426" height="378"></rect></clipPath><g><g><g><line x1="0" y1="0" x2="0" y2="378" fill="rgb(0, 0, 0)" stroke="rgb(60, 60, 60)" stroke-width="1px" opacity="0.25"></line><line x1="118.83333333333333" y1="0" x2="118.83333333333333" y2="378" fill="rgb(0, 0, 0)" stroke="rgb(60, 60, 60)" stroke-width="1px" opacity="0.25"></line><line x1="237.66666666666666" y1="0" x2="237.66666666666666" y2="378" fill="rgb(0, 0, 0)" stroke="rgb(60, 60, 60)" stroke-width="1px" opacity="0.25"></line><line x1="356.5" y1="0" x2="356.5" y2="378" fill="rgb(0, 0, 0)" stroke="rgb(60, 60, 60)" stroke-width="1px" opacity="0.25"></line><line x1="475.3333333333333" y1="0" x2="475.3333333333333" y2="378" fill="rgb(0, 0, 0)" stroke="rgb(60, 60, 60)" stroke-width="1px" opacity="0.25"></line><line x1="594.1666666666667" y1="0" x2="594.1666666666667" y2="378" fill="rgb(0, 0, 0)" stroke="rgb(60, 60, 60)" stroke-width="1px" opacity="0.25"></line><line x1="713" y1="0" x2="713" y2="378" fill="rgb(0, 0, 0)" stroke="rgb(60, 60, 60)" stroke-width="1px" opacity="0.25"></line><line x1="831.8333333333334" y1="0" x2="831.8333333333334" y2="378" fill="rgb(0, 0, 0)" stroke="rgb(60, 60, 60)" stroke-width="1px" opacity="0.25"></line><line x1="950.6666666666666" y1="0" x2="950.6666666666666" y2="378" fill="rgb(0, 0, 0)" stroke="rgb(60, 60, 60)" stroke-width="1px" opacity="0.25"></line><line x1="1069.5" y1="0" x2="1069.5" y2="378" fill="rgb(0, 0, 0)" stroke="rgb(60, 60, 60)" stroke-width="1px" opacity="0.25"></line><line x1="1188.3333333333335" y1="0" x2="1188.3333333333335" y2="378" fill="rgb(0, 0, 0)" stroke="rgb(60, 60, 60)" stroke-width="1px" opacity="0.25"></line><line x1="1307.1666666666665" y1="0" x2="1307.1666666666665" y2="378" fill="rgb(0, 0, 0)" stroke="rgb(60, 60, 60)" stroke-width="1px" opacity="0.25"></line><line x1="1426" y1="0" x2="1426" y2="378" fill="rgb(0, 0, 0)" stroke="rgb(60, 60, 60)" stroke-width="1px" opacity="0.25"></line></g><g><line x1="0" y1="378" x2="1426" y2="378" fill="rgb(0, 0, 0)" stroke="rgb(60, 60, 60)" stroke-width="1px" opacity="0.25"></line><line x1="0" y1="336" x2="1426" y2="336" fill="rgb(0, 0, 0)" stroke="rgb(60, 60, 60)" stroke-width="1px" opacity="0.25"></line><line x1="0" y1="294" x2="1426" y2="294" fill="rgb(0, 0, 0)" stroke="rgb(60, 60, 60)" stroke-width="1px" opacity="0.25"></line><line x1="0" y1="252" x2="1426" y2="252" fill="rgb(0, 0, 0)" stroke="rgb(60, 60, 60)" stroke-width="1px" opacity="0.25"></line><line x1="0" y1="210" x2="1426" y2="210" fill="rgb(0, 0, 0)" stroke="rgb(60, 60, 60)" stroke-width="1px" opacity="0.25"></line><line x1="0" y1="168" x2="1426" y2="168" fill="rgb(0, 0, 0)" stroke="rgb(60, 60, 60)" stroke-width="1px" opacity="0.25"></line><line x1="0" y1="126" x2="1426" y2="126" fill="rgb(0, 0, 0)" stroke="rgb(60, 60, 60)" stroke-width="1px" opacity="0.25"></line><line x1="0" y1="84" x2="1426" y2="84" fill="rgb(0, 0, 0)" stroke="rgb(60, 60, 60)" stroke-width="1px" opacity="0.25"></line><line x1="0" y1="42" x2="1426" y2="42" fill="rgb(0, 0, 0)" stroke="rgb(60, 60, 60)" stroke-width="1px" opacity="0.25"></line><line x1="0" y1="0" x2="1426" y2="0" fill="rgb(0, 0, 0)" stroke="rgb(60, 60, 60)" stroke-width="1px" opacity="0.25"></line></g></g></g><g><g><line x1="0" y1="336" x2="1426" y2="336" fill="rgb(0, 0, 0)" stroke="rgb(153, 153, 153)" stroke-width="1.5px"></line></g></g><g><g><line x1="118.83333333333333" y1="0" x2="118.83333333333333" y2="378" fill="rgb(0, 0, 0)" stroke="rgb(153, 153, 153)" stroke-width="1.5px"></line></g></g><g><g><g><g><g><path stroke="rgb(51, 187, 238)" stroke-width="2px" d="M118.83333333333333,59.891999999999996L130.71666666666667,55.3245L142.6,44.41199999999998L154.48333333333335,44.26861764705882L166.36666666666667,64.12435253296326L178.25,77.08070300751876L190.13333333333333,76.12568748189312L202.01666666666665,73.24624897933683L213.9,95.3092940486448L225.78333333333333,84.77467763215367L237.66666666666666,83.75550906573761L249.54999999999998,97.15447206542103L261.43333333333334,86.43548349626627L273.31666666666666,74.29657754558116L285.2,75.38966047853069L297.08333333333337,80.7505086413048L308.9666666666667,68.64185559431826L320.85,82.548125676778L332.73333333333335,73.6531333810475L344.6166666666667,83.57144265773024L356.5,167.81191357369056L368.3833333333334,174.17043183611509L380.26666666666665,150.26527031538365L392.15000000000003,222.5099045118567L404.0333333333333,183.2674311396319L415.9166666666667,151.89320516508224L427.8,147.11351820708575L439.68333333333334,151.57051366126663L451.56666666666666,200.24312613050202L463.45,186.87547272306168L475.3333333333333,232.51408968754177L487.2166666666667,266.91965655074756L499.09999999999997,235.14699241324132L510.98333333333335,269.33939642759753L522.8666666666667,292.1396382485108L534.75,238.41818239500057L546.6333333333333,251.14210951574432L558.5166666666667,284.0436658316164L570.4,293.60379952026904L582.2833333333333,308.54627973213576L594.1666666666667,233.98216777947732L606.05,273.8149006868551L617.9333333333334,243.98814040350092L629.8166666666666,276.9624842478131L641.7,298.49429055092605L653.5833333333333,311.6821743313781L665.4666666666667,314.8237045989444L677.35,320.1358227594859L689.2333333333333,326.3134936557748L701.1166666666667,329.28089619348884L713,330.52373771609933L724.8833333333333,318.33344262962413L736.7666666666668,323.3168655777832L748.65,326.97891934667376L760.5333333333333,328.30255160800505L772.4166666666666,330.2391309648038L784.3000000000001,329.9898785788822L796.1833333333334,323.82592714732846L808.0666666666666,327.5195562883974L819.9499999999999,327.61893377303846L831.8333333333334,327.57776026382305L843.7166666666667,326.20905615829383L855.6,322.0950336949762L867.4833333333332,322.48262021698577L879.3666666666667,320.49757213019143L891.25,318.9369432781149L903.1333333333333,320.7893659668689L915.0166666666668,321.3632195801213L926.9,320.7331317480728L938.7833333333333,317.23027904884367L950.6666666666666,315.8341674293062L962.5500000000001,318.1885004575837L974.4333333333334,312.54510027455024L986.3166666666666,311.88066016473016L998.1999999999999,316.7571960988381L1010.0833333333334,317.4319176593028L1021.9666666666667,316.25755059558173L1033.85,318.07293035734904L1045.7333333333333,307.30135821440945L1057.6166666666668,302.28321492864563L1069.5,306.2611289571874L1081.3833333333332,308.17747737431245L1093.2666666666667,312.48568642458747L1105.15,314.39861185475246L1117.0333333333333,315.8823671128515L1128.9166666666665,316.7054202677109L1140.8,316.59445216062653L1152.6833333333334,312.29427129637594L1164.5666666666666,318.01336277782553L1176.45,316.94241766669535L1188.3333333333335,311.4278506000172L1200.2166666666667,305.7671103600103L1212.1,304.7562662160062L1223.9833333333333,310.5673597296037L1235.8666666666668,310.99641583776224L1247.75,313.6394495026573L1259.6333333333332,315.3260697015944L1271.5166666666667,309.6516418209566L1283.4,315.18458509257397L1295.2833333333333,312.1875510555444" style="fill: none;" fill="none"></path></g><g><path stroke="rgb(204, 51, 17)" stroke-width="2px" d="M118.83333333333333,48.21600000000001L130.71666666666667,47.061000000000035L142.6,49.70742857142858L154.48333333333335,42.88416176470588L166.36666666666667,55.03364052741148L178.25,59.64492857142858L190.13333333333333,77.03044020121678L202.01666666666665,65.10272429595068L213.9,65.06768142618188L225.78333333333333,68.49493213013523L237.66666666666666,73.40437057622972L249.54999999999998,87.65283815828553L261.43333333333334,79.8310871453063L273.31666666666666,95.15225859512014L285.2,95.52993273378115L297.08333333333337,89.57227892064896L308.9666666666667,88.35116065785968L320.85,73.37077498739626L332.73333333333335,64.41711939271318L344.6166666666667,72.35136172409852L356.5,93.34087748043027L368.3833333333334,96.96297416291179L380.26666666666665,92.28174752868557L392.15000000000003,97.90667517026355L404.0333333333333,84.24636626550642L415.9166666666667,103.53505266227847L427.8,104.3226324034473L439.68333333333334,102.24157816410502L451.56666666666666,96.99454496515932L463.45,110.14232988572792L475.3333333333333,110.6053979928601L487.2166666666667,104.80163833381454L499.09999999999997,108.84578319340454L510.98333333333335,111.44026999037789L522.8666666666667,106.04176190142255L534.75,183.9802579447443L546.6333333333333,152.48895457195778L558.5166666666667,140.68377269933976L570.4,172.91266369140712L582.2833333333333,152.7699981879186L594.1666666666667,218.63639896557927L606.05,212.15783937622987L617.9333333333334,221.71070362849622L629.8166666666666,225.66162217778222L641.7,192.5505733032276L653.5833333333333,212.63434398318915L665.4666666666667,249.68300639129984L677.35,259.4802038349999L689.2333333333333,240.72972230074734L701.1166666666667,241.91143338045794L713,250.5164600283165L724.8833333333333,204.74187601685674L736.7666666666668,199.4531256101048L748.65,228.03187536609283L760.5333333333333,239.33272521966282L772.4166666666666,268.2892351318086L784.3000000000001,288.08234107908964L796.1833333333334,235.47980464744663L808.0666666666666,274.0750827884711L819.9499999999999,256.3074496730818L831.8333333333334,278.6420698038497L843.7166666666667,292.2108418823101L855.6,302.56970512938614L867.4833333333332,306.66822307763175L879.3666666666667,315.71293384657906L891.25,313.7141603079474L903.1333333333333,320.8812961847685L915.0166666666668,318.5287777108611L926.9,324.2740666265167L938.7833333333333,326.67963997591L950.6666666666666,325.300583985546L962.5500000000001,320.4747503913276L974.4333333333334,322.8208502347966L986.3166666666666,324.0605101408779L998.1999999999999,322.7547060845268L1010.0833333333334,321.19842365071605L1021.9666666666667,320.73505419042965L1033.85,307.75623251425776L1045.7333333333333,312.6025395085547L1057.6166666666668,311.6799237051328L1069.5,316.3007542230797L1081.3833333333332,305.0284525338478L1093.2666666666667,305.2874715203087L1105.15,296.2700829121852L1117.0333333333333,295.66444974731115L1128.9166666666665,305.51546984838666L1140.8,306.419681909032L1152.6833333333334,312.3046091454192L1164.5666666666666,307.2339654872515L1176.45,303.7883792923509L1188.3333333333335,301.25062757541053L1200.2166666666667,304.3983765452463L1212.1,303.8342259271478L1223.9833333333333,304.6045355562887L1235.8666666666668,308.1579213337732L1247.75,306.7955528002639L1259.6333333333332,305.47413168015834L1271.5166666666667,288.788479008095L1283.4,297.055487404857L1295.2833333333333,301.61249244291423" style="fill: none;" fill="none"></path></g><g><path stroke="rgb(0, 119, 187)" stroke-width="2px" d="M118.83333333333333,58.04399999999998L142.6,43.134000000000015L166.36666666666667,42.89828571428575L190.13333333333333,54.37517647058826L213.9,91.63438167938938L237.66666666666666,92.51952631578945L261.43333333333334,72.59392651900237L285.2,80.48082552907846L308.9666666666667,80.74879584078548L332.73333333333335,67.14944744511348L356.5,93.6080595327806L380.26666666666665,87.3656473470885L404.0333333333333,85.68118838794834L427.8,74.75214858208142L451.56666666666666,88.50415513623847L475.3333333333333,90.23098023808336L499.09999999999997,114.28665996583464L522.8666666666667,97.63430476702842L546.6333333333333,108.81326406098992L570.4,131.85040071080994L594.1666666666667,128.87177508452262L617.9333333333334,133.6703282100874L641.7,204.01875248882044L665.4666666666667,211.08168496015966L689.2333333333333,253.55633173273998L713,243.05538112694097L736.7666666666668,219.75320482661158L760.5333333333333,255.97034513670354L784.3000000000001,279.41421572006936L808.0666666666666,295.02613288342934L831.8333333333334,290.3148791051364L855.6,301.1969283291473L879.3666666666667,312.9677575595686L903.1333333333333,303.0622542519368L926.9,300.27735250328766L950.6666666666666,289.70241139289817L974.4333333333334,288.36384682745495L998.1999999999999,287.3591080927422L1021.9666666666667,290.9226648635846L1045.7333333333333,282.7455989072201L1069.5,282.61055934422376L1093.2666666666667,295.90233561293064L1117.0333333333333,286.9094013651618L1140.8,295.4912408205838L1164.5666666666666,289.0147444916771L1188.3333333333335,295.6120466954177L1212.1,289.7592280170316L1235.8666666666668,289.23793681020726L1259.6333333333332,289.09316208612245L1283.4,300.66549725176696" style="fill: none;" fill="none"></path></g></g></g></g><g opacity="0.2"><g><g><g><path stroke="rgb(51, 187, 238)" stroke-width="2px" d="M118.83333333333333,59.891999999999996L130.71666666666667,52.584L142.6,33.93599999999998L154.48333333333335,44.10000000000002L166.36666666666667,90.048L178.25,95.00399999999996L190.13333333333333,74.76000000000005L202.01666666666665,69.048L213.9,127.84799999999998L225.78333333333333,69.132L237.66666666666666,82.23599999999999L249.54999999999998,117.18L261.43333333333334,70.392L273.31666666666666,56.11200000000002L285.2,77.02799999999996L297.08333333333337,88.78800000000001L308.9666666666667,50.48399999999998L320.85,103.404L332.73333333333335,60.31200000000001L344.6166666666667,98.44800000000004L356.5,294.168L368.3833333333334,183.708L380.26666666666665,114.40800000000002L392.15000000000003,330.876L404.0333333333333,124.404L415.9166666666667,104.832L427.8,139.94400000000002L439.68333333333334,158.256L451.56666666666666,273.252L463.45,166.824L475.3333333333333,300.972L487.2166666666667,318.528L499.09999999999997,187.488L510.98333333333335,320.628L522.8666666666667,326.34000000000003L534.75,157.836L546.6333333333333,270.228L558.5166666666667,333.396L570.4,307.944L582.2833333333333,330.96L594.1666666666667,122.136L606.05,333.564L617.9333333333334,199.248L629.8166666666666,326.424L641.7,330.79200000000003L653.5833333333333,331.464L665.4666666666667,319.536L677.35,328.104L689.2333333333333,335.58L701.1166666666667,333.73199999999997L713,332.388L724.8833333333333,300.048L736.7666666666668,330.79200000000003L748.65,332.472L760.5333333333333,330.288L772.4166666666666,333.144L784.3000000000001,329.616L796.1833333333334,314.58L808.0666666666666,333.06L819.9499999999999,327.76800000000003L831.8333333333334,327.516L843.7166666666667,324.156L855.6,315.924L867.4833333333332,323.064L879.3666666666667,317.52L891.25,316.596L903.1333333333333,323.568L915.0166666666668,322.224L926.9,319.788L938.7833333333333,311.976L950.6666666666666,313.74L962.5500000000001,321.72L974.4333333333334,304.08L986.3166666666666,310.884L998.1999999999999,324.072L1010.0833333333334,318.444L1021.9666666666667,314.496L1033.85,320.796L1045.7333333333333,291.144L1057.6166666666668,294.756L1069.5,312.228L1081.3833333333332,311.052L1093.2666666666667,318.948L1105.15,317.268L1117.0333333333333,318.108L1128.9166666666665,317.94L1140.8,316.428L1152.6833333333334,305.844L1164.5666666666666,326.592L1176.45,315.336L1188.3333333333335,303.156L1200.2166666666667,297.276L1212.1,303.24L1223.9833333333333,319.284L1235.8666666666668,311.64L1247.75,317.604L1259.6333333333332,317.856L1271.5166666666667,301.14L1283.4,323.484L1295.2833333333333,307.692" style="fill: none;" fill="none"></path></g><g><path stroke="rgb(204, 51, 17)" stroke-width="2px" d="M118.83333333333333,48.21600000000001L130.71666666666667,46.367999999999995L142.6,52.24799999999999L154.48333333333335,34.860000000000014L166.36666666666667,70.89600000000002L178.25,66.024L190.13333333333333,101.892L202.01666666666665,47.71199999999999L213.9,65.01600000000002L225.78333333333333,73.584L237.66666666666666,80.72400000000005L249.54999999999998,108.94800000000004L261.43333333333334,68.12399999999997L273.31666666666666,118.10399999999998L285.2,96.096L297.08333333333337,80.64000000000004L308.9666666666667,86.52000000000004L320.85,50.903999999999996L332.73333333333335,50.988L344.6166666666667,84.25200000000001L356.5,124.82399999999998L368.3833333333334,102.39599999999996L380.26666666666665,85.25999999999999L392.15000000000003,106.344L404.0333333333333,63.75599999999997L415.9166666666667,132.468L427.8,105.50400000000002L439.68333333333334,99.12L451.56666666666666,89.12399999999997L463.45,129.86399999999998L475.3333333333333,111.29999999999995L487.2166666666667,96.096L499.09999999999997,114.91200000000003L510.98333333333335,115.332L522.8666666666667,97.94399999999996L534.75,300.88800000000003L546.6333333333333,105.25200000000001L558.5166666666667,122.976L570.4,221.256L582.2833333333333,122.55599999999998L594.1666666666667,317.43600000000004L606.05,202.44L617.9333333333334,236.04000000000002L629.8166666666666,231.58800000000002L641.7,142.88400000000001L653.5833333333333,242.76000000000002L665.4666666666667,305.256L677.35,274.176L689.2333333333333,212.604L701.1166666666667,243.684L713,263.424L724.8833333333333,136.07999999999998L736.7666666666668,191.51999999999998L748.65,270.9L760.5333333333333,256.284L772.4166666666666,311.724L784.3000000000001,317.772L796.1833333333334,156.57600000000002L808.0666666666666,331.968L819.9499999999999,229.656L831.8333333333334,312.144L843.7166666666667,312.564L855.6,318.108L867.4833333333332,312.81600000000003L879.3666666666667,329.28L891.25,310.716L903.1333333333333,331.632L915.0166666666668,315L926.9,332.892L938.7833333333333,330.288L950.6666666666666,323.23199999999997L962.5500000000001,313.236L974.4333333333334,326.34000000000003L986.3166666666666,325.92L998.1999999999999,320.796L1010.0833333333334,318.86400000000003L1021.9666666666667,320.04L1033.85,288.288L1045.7333333333333,319.872L1057.6166666666668,310.296L1069.5,323.23199999999997L1081.3833333333332,288.12L1093.2666666666667,305.676L1105.15,282.744L1117.0333333333333,294.756L1128.9166666666665,320.292L1140.8,307.776L1152.6833333333334,321.132L1164.5666666666666,299.628L1176.45,298.62L1188.3333333333335,297.444L1200.2166666666667,309.12L1212.1,302.988L1223.9833333333333,305.76L1235.8666666666668,313.488L1247.75,304.752L1259.6333333333332,303.492L1271.5166666666667,263.76L1283.4,309.456L1295.2833333333333,308.448" style="fill: none;" fill="none"></path></g><g><path stroke="rgb(0, 119, 187)" stroke-width="2px" d="M118.83333333333333,58.04399999999998L142.6,34.18799999999999L166.36666666666667,42.672000000000025L190.13333333333333,67.87200000000001L213.9,140.27999999999997L237.66666666666666,93.74399999999997L261.43333333333334,44.10000000000002L285.2,91.97999999999996L308.9666666666667,81.144L332.73333333333335,46.95600000000002L356.5,133.05599999999998L380.26666666666665,78.036L404.0333333333333,83.15999999999997L427.8,58.379999999999995L451.56666666666666,109.11599999999999L475.3333333333333,92.82L499.09999999999997,150.36L522.8666666666667,72.65999999999997L546.6333333333333,125.57999999999998L570.4,166.404L594.1666666666667,124.404L617.9333333333334,140.86800000000002L641.7,309.54L665.4666666666667,221.676L689.2333333333333,317.268L713,227.304L736.7666666666668,184.8L760.5333333333333,310.296L784.3000000000001,314.58L808.0666666666666,318.444L831.8333333333334,283.248L855.6,317.52L879.3666666666667,330.624L903.1333333333333,288.204L926.9,296.1L950.6666666666666,273.84000000000003L974.4333333333334,286.356L998.1999999999999,285.852L1021.9666666666667,296.26800000000003L1045.7333333333333,270.48L1069.5,282.408L1093.2666666666667,315.84L1117.0333333333333,273.42L1140.8,308.364L1164.5666666666666,279.3L1188.3333333333335,305.50800000000004L1212.1,280.98L1235.8666666666668,288.456L1259.6333333333332,288.876L1283.4,318.024" style="fill: none;" fill="none"></path></g></g></g></g></g></g><g transform="translate(70, 378)" clip-path="url(#clip_1)"><clipPath id="clip_1"><rect width="1426" height="22"></rect></clipPath><g><g><line x1="0" y1="0" x2="0" y2="5" style="visibility: inherit;" fill="rgb(0, 0, 0)" stroke="rgb(204, 204, 204)" stroke-width="1px"></line><line x1="118.83333333333333" y1="0" x2="118.83333333333333" y2="5" style="visibility: inherit;" fill="rgb(0, 0, 0)" stroke="rgb(204, 204, 204)" stroke-width="1px"></line><line x1="237.66666666666666" y1="0" x2="237.66666666666666" y2="5" style="visibility: inherit;" fill="rgb(0, 0, 0)" stroke="rgb(204, 204, 204)" stroke-width="1px"></line><line x1="356.5" y1="0" x2="356.5" y2="5" style="visibility: inherit;" fill="rgb(0, 0, 0)" stroke="rgb(204, 204, 204)" stroke-width="1px"></line><line x1="475.3333333333333" y1="0" x2="475.3333333333333" y2="5" style="visibility: inherit;" fill="rgb(0, 0, 0)" stroke="rgb(204, 204, 204)" stroke-width="1px"></line><line x1="594.1666666666667" y1="0" x2="594.1666666666667" y2="5" style="visibility: inherit;" fill="rgb(0, 0, 0)" stroke="rgb(204, 204, 204)" stroke-width="1px"></line><line x1="713" y1="0" x2="713" y2="5" style="visibility: inherit;" fill="rgb(0, 0, 0)" stroke="rgb(204, 204, 204)" stroke-width="1px"></line><line x1="831.8333333333334" y1="0" x2="831.8333333333334" y2="5" style="visibility: inherit;" fill="rgb(0, 0, 0)" stroke="rgb(204, 204, 204)" stroke-width="1px"></line><line x1="950.6666666666666" y1="0" x2="950.6666666666666" y2="5" style="visibility: inherit;" fill="rgb(0, 0, 0)" stroke="rgb(204, 204, 204)" stroke-width="1px"></line><line x1="1069.5" y1="0" x2="1069.5" y2="5" style="visibility: inherit;" fill="rgb(0, 0, 0)" stroke="rgb(204, 204, 204)" stroke-width="1px"></line><line x1="1188.3333333333335" y1="0" x2="1188.3333333333335" y2="5" style="visibility: inherit;" fill="rgb(0, 0, 0)" stroke="rgb(204, 204, 204)" stroke-width="1px"></line><line x1="1307.1666666666665" y1="0" x2="1307.1666666666665" y2="5" style="visibility: inherit;" fill="rgb(0, 0, 0)" stroke="rgb(204, 204, 204)" stroke-width="1px"></line><line x1="1426" y1="0" x2="1426" y2="5" style="visibility: inherit;" fill="rgb(0, 0, 0)" stroke="rgb(204, 204, 204)" stroke-width="1px"></line></g><g transform="translate(0, 8)"><text x="0" y="0" dx="0em" dy="0.95em" style="text-anchor: middle; visibility: hidden; font-family: &quot;Helvetica Neue&quot;, sans-serif; font-size: 12px; font-weight: 200;" fill="rgb(50, 49, 63)" stroke="none" stroke-width="1px">-50</text><text x="118.83333333333333" y="0" dx="0em" dy="0.95em" style="text-anchor: middle; visibility: inherit; font-family: &quot;Helvetica Neue&quot;, sans-serif; font-size: 12px; font-weight: 200;" fill="rgb(50, 49, 63)" stroke="none" stroke-width="1px">0</text><text x="237.66666666666666" y="0" dx="0em" dy="0.95em" style="text-anchor: middle; visibility: inherit; font-family: &quot;Helvetica Neue&quot;, sans-serif; font-size: 12px; font-weight: 200;" fill="rgb(50, 49, 63)" stroke="none" stroke-width="1px">50</text><text x="356.5" y="0" dx="0em" dy="0.95em" style="text-anchor: middle; visibility: inherit; font-family: &quot;Helvetica Neue&quot;, sans-serif; font-size: 12px; font-weight: 200;" fill="rgb(50, 49, 63)" stroke="none" stroke-width="1px">100</text><text x="475.3333333333333" y="0" dx="0em" dy="0.95em" style="text-anchor: middle; visibility: inherit; font-family: &quot;Helvetica Neue&quot;, sans-serif; font-size: 12px; font-weight: 200;" fill="rgb(50, 49, 63)" stroke="none" stroke-width="1px">150</text><text x="594.1666666666667" y="0" dx="0em" dy="0.95em" style="text-anchor: middle; visibility: inherit; font-family: &quot;Helvetica Neue&quot;, sans-serif; font-size: 12px; font-weight: 200;" fill="rgb(50, 49, 63)" stroke="none" stroke-width="1px">200</text><text x="713" y="0" dx="0em" dy="0.95em" style="text-anchor: middle; visibility: inherit; font-family: &quot;Helvetica Neue&quot;, sans-serif; font-size: 12px; font-weight: 200;" fill="rgb(50, 49, 63)" stroke="none" stroke-width="1px">250</text><text x="831.8333333333334" y="0" dx="0em" dy="0.95em" style="text-anchor: middle; visibility: inherit; font-family: &quot;Helvetica Neue&quot;, sans-serif; font-size: 12px; font-weight: 200;" fill="rgb(50, 49, 63)" stroke="none" stroke-width="1px">300</text><text x="950.6666666666666" y="0" dx="0em" dy="0.95em" style="text-anchor: middle; visibility: inherit; font-family: &quot;Helvetica Neue&quot;, sans-serif; font-size: 12px; font-weight: 200;" fill="rgb(50, 49, 63)" stroke="none" stroke-width="1px">350</text><text x="1069.5" y="0" dx="0em" dy="0.95em" style="text-anchor: middle; visibility: inherit; font-family: &quot;Helvetica Neue&quot;, sans-serif; font-size: 12px; font-weight: 200;" fill="rgb(50, 49, 63)" stroke="none" stroke-width="1px">400</text><text x="1188.3333333333335" y="0" dx="0em" dy="0.95em" style="text-anchor: middle; visibility: inherit; font-family: &quot;Helvetica Neue&quot;, sans-serif; font-size: 12px; font-weight: 200;" fill="rgb(50, 49, 63)" stroke="none" stroke-width="1px">450</text><text x="1307.1666666666665" y="0" dx="0em" dy="0.95em" style="text-anchor: middle; visibility: inherit; font-family: &quot;Helvetica Neue&quot;, sans-serif; font-size: 12px; font-weight: 200;" fill="rgb(50, 49, 63)" stroke="none" stroke-width="1px">500</text><text x="1426" y="0" dx="0em" dy="0.95em" style="text-anchor: middle; visibility: hidden; font-family: &quot;Helvetica Neue&quot;, sans-serif; font-size: 12px; font-weight: 200;" fill="rgb(50, 49, 63)" stroke="none" stroke-width="1px">550</text></g><line x1="0" y1="0" x2="1426" y2="0" fill="rgb(0, 0, 0)" stroke="rgb(204, 204, 204)" stroke-width="1px"></line></g></g></g></g></svg>