<svg viewBox="0 0 1496 400" xmlns="http://www.w3.org/2000/svg"><g><g><g><g><g><line x1="50" y1="378" x2="45" y2="378" style="visibility: inherit;" fill="rgb(0, 0, 0)" stroke="rgb(204, 204, 204)" stroke-width="1px"></line><line x1="50" y1="346.5" x2="45" y2="346.5" style="visibility: inherit;" fill="rgb(0, 0, 0)" stroke="rgb(204, 204, 204)" stroke-width="1px"></line><line x1="50" y1="315" x2="45" y2="315" style="visibility: inherit;" fill="rgb(0, 0, 0)" stroke="rgb(204, 204, 204)" stroke-width="1px"></line><line x1="50" y1="283.5" x2="45" y2="283.5" style="visibility: inherit;" fill="rgb(0, 0, 0)" stroke="rgb(204, 204, 204)" stroke-width="1px"></line><line x1="50" y1="252" x2="45" y2="252" style="visibility: inherit;" fill="rgb(0, 0, 0)" stroke="rgb(204, 204, 204)" stroke-width="1px"></line><line x1="50" y1="220.5" x2="45" y2="220.5" style="visibility: inherit;" fill="rgb(0, 0, 0)" stroke="rgb(204, 204, 204)" stroke-width="1px"></line><line x1="50" y1="189.00000000000003" x2="45" y2="189.00000000000003" style="visibility: inherit;" fill="rgb(0, 0, 0)" stroke="rgb(204, 204, 204)" stroke-width="1px"></line><line x1="50" y1="157.50000000000003" x2="45" y2="157.50000000000003" style="visibility: inherit;" fill="rgb(0, 0, 0)" stroke="rgb(204, 204, 204)" stroke-width="1px"></line><line x1="50" y1="126.00000000000006" x2="45" y2="126.00000000000006" style="visibility: inherit;" fill="rgb(0, 0, 0)" stroke="rgb(204, 204, 204)" stroke-width="1px"></line><line x1="50" y1="94.50000000000006" x2="45" y2="94.50000000000006" style="visibility: inherit;" fill="rgb(0, 0, 0)" stroke="rgb(204, 204, 204)" stroke-width="1px"></line><line x1="50" y1="63" x2="45" y2="63" style="visibility: inherit;" fill="rgb(0, 0, 0)" stroke="rgb(204, 204, 204)" stroke-width="1px"></line><line x1="50" y1="31.5" x2="45" y2="31.5" style="visibility: inherit;" fill="rgb(0, 0, 0)" stroke="rgb(204, 204, 204)" stroke-width="1px"></line><line x1="50" y1="0" x2="45" y2="0" style="visibility: inherit;" fill="rgb(0, 0, 0)" stroke="rgb(204, 204, 204)" stroke-width="1px"></line></g><g transform="translate(40, 0)"><text x="0" y="378" dx="0em" dy="0.3em" style="text-anchor: end; visibility: hidden; font-family: &quot;Helvetica Neue&quot;, sans-serif; font-size: 12px; font-weight: 200;" fill="rgb(50, 49, 63)" stroke="none" stroke-width="1px">-0.1</text><text x="0" y="346.5" dx="0em" dy="0.3em" style="text-anchor: end; visibility: inherit; font-family: &quot;Helvetica Neue&quot;, sans-serif; font-size: 12px; font-weight: 200;" fill="rgb(50, 49, 63)" stroke="none" stroke-width="1px">0</text><text x="0" y="315" dx="0em" dy="0.3em" style="text-anchor: end; visibility: inherit; font-family: &quot;Helvetica Neue&quot;, sans-serif; font-size: 12px; font-weight: 200;" fill="rgb(50, 49, 63)" stroke="none" stroke-width="1px">0.1</text><text x="0" y="283.5" dx="0em" dy="0.3em" style="text-anchor: end; visibility: inherit; font-family: &quot;Helvetica Neue&quot;, sans-serif; font-size: 12px; font-weight: 200;" fill="rgb(50, 49, 63)" stroke="none" stroke-width="1px">0.2</text><text x="0" y="252" dx="0em" dy="0.3em" style="text-anchor: end; visibility: inherit; font-family: &quot;Helvetica Neue&quot;, sans-serif; font-size: 12px; font-weight: 200;" fill="rgb(50, 49, 63)" stroke="none" stroke-width="1px">0.3</text><text x="0" y="220.5" dx="0em" dy="0.3em" style="text-anchor: end; visibility: inherit; font-family: &quot;Helvetica Neue&quot;, sans-serif; font-size: 12px; font-weight: 200;" fill="rgb(50, 49, 63)" stroke="none" stroke-width="1px">0.4</text><text x="0" y="189.00000000000003" dx="0em" dy="0.3em" style="text-anchor: end; visibility: inherit; font-family: &quot;Helvetica Neue&quot;, sans-serif; font-size: 12px; font-weight: 200;" fill="rgb(50, 49, 63)" stroke="none" stroke-width="1px">0.5</text><text x="0" y="157.50000000000003" dx="0em" dy="0.3em" style="text-anchor: end; visibility: inherit; font-family: &quot;Helvetica Neue&quot;, sans-serif; font-size: 12px; font-weight: 200;" fill="rgb(50, 49, 63)" stroke="none" stroke-width="1px">0.6</text><text x="0" y="126.00000000000006" dx="0em" dy="0.3em" style="text-anchor: end; visibility: inherit; font-family: &quot;Helvetica Neue&quot;, sans-serif; font-size: 12px; font-weight: 200;" fill="rgb(50, 49, 63)" stroke="none" stroke-width="1px">0.7</text><text x="0" y="94.50000000000006" dx="0em" dy="0.3em" style="text-anchor: end; visibility: inherit; font-family: &quot;Helvetica Neue&quot;, sans-serif; font-size: 12px; font-weight: 200;" fill="rgb(50, 49, 63)" stroke="none" stroke-width="1px">0.8</text><text x="0" y="63" dx="0em" dy="0.3em" style="text-anchor: end; visibility: inherit; font-family: &quot;Helvetica Neue&quot;, sans-serif; font-size: 12px; font-weight: 200;" fill="rgb(50, 49, 63)" stroke="none" stroke-width="1px">0.9</text><text x="0" y="31.5" dx="0em" dy="0.3em" style="text-anchor: end; visibility: inherit; font-family: &quot;Helvetica Neue&quot;, sans-serif; font-size: 12px; font-weight: 200;" fill="rgb(50, 49, 63)" stroke="none" stroke-width="1px">1</text><text x="0" y="0" dx="0em" dy="0.3em" style="text-anchor: end; visibility: hidden; font-family: &quot;Helvetica Neue&quot;, sans-serif; font-size: 12px; font-weight: 200;" fill="rgb(50, 49, 63)" stroke="none" stroke-width="1px">1.1</text></g><line x1="50" y1="0" x2="50" y2="378" fill="rgb(0, 0, 0)" stroke="rgb(204, 204, 204)" stroke-width="1px"></line></g></g><g transform="translate(50, 0)" clip-path="url(#clip_0)"><clipPath id="clip_0"><rect width="1446" height="378"></rect></clipPath><g><g><g><line x1="0" y1="0" x2="0" y2="378" fill="rgb(0, 0, 0)" stroke="rgb(60, 60, 60)" stroke-width="1px" opacity="0.25"></line><line x1="120.5" y1="0" x2="120.5" y2="378" fill="rgb(0, 0, 0)" stroke="rgb(60, 60, 60)" stroke-width="1px" opacity="0.25"></line><line x1="241" y1="0" x2="241" y2="378" fill="rgb(0, 0, 0)" stroke="rgb(60, 60, 60)" stroke-width="1px" opacity="0.25"></line><line x1="361.5" y1="0" x2="361.5" y2="378" fill="rgb(0, 0, 0)" stroke="rgb(60, 60, 60)" stroke-width="1px" opacity="0.25"></line><line x1="482" y1="0" x2="482" y2="378" fill="rgb(0, 0, 0)" stroke="rgb(60, 60, 60)" stroke-width="1px" opacity="0.25"></line><line x1="602.5" y1="0" x2="602.5" y2="378" fill="rgb(0, 0, 0)" stroke="rgb(60, 60, 60)" stroke-width="1px" opacity="0.25"></line><line x1="723" y1="0" x2="723" y2="378" fill="rgb(0, 0, 0)" stroke="rgb(60, 60, 60)" stroke-width="1px" opacity="0.25"></line><line x1="843.5" y1="0" x2="843.5" y2="378" fill="rgb(0, 0, 0)" stroke="rgb(60, 60, 60)" stroke-width="1px" opacity="0.25"></line><line x1="964" y1="0" x2="964" y2="378" fill="rgb(0, 0, 0)" stroke="rgb(60, 60, 60)" stroke-width="1px" opacity="0.25"></line><line x1="1084.5" y1="0" x2="1084.5" y2="378" fill="rgb(0, 0, 0)" stroke="rgb(60, 60, 60)" stroke-width="1px" opacity="0.25"></line><line x1="1205" y1="0" x2="1205" y2="378" fill="rgb(0, 0, 0)" stroke="rgb(60, 60, 60)" stroke-width="1px" opacity="0.25"></line><line x1="1325.5" y1="0" x2="1325.5" y2="378" fill="rgb(0, 0, 0)" stroke="rgb(60, 60, 60)" stroke-width="1px" opacity="0.25"></line><line x1="1446" y1="0" x2="1446" y2="378" fill="rgb(0, 0, 0)" stroke="rgb(60, 60, 60)" stroke-width="1px" opacity="0.25"></line></g><g><line x1="0" y1="378" x2="1446" y2="378" fill="rgb(0, 0, 0)" stroke="rgb(60, 60, 60)" stroke-width="1px" opacity="0.25"></line><line x1="0" y1="346.5" x2="1446" y2="346.5" fill="rgb(0, 0, 0)" stroke="rgb(60, 60, 60)" stroke-width="1px" opacity="0.25"></line><line x1="0" y1="315" x2="1446" y2="315" fill="rgb(0, 0, 0)" stroke="rgb(60, 60, 60)" stroke-width="1px" opacity="0.25"></line><line x1="0" y1="283.5" x2="1446" y2="283.5" fill="rgb(0, 0, 0)" stroke="rgb(60, 60, 60)" stroke-width="1px" opacity="0.25"></line><line x1="0" y1="252" x2="1446" y2="252" fill="rgb(0, 0, 0)" stroke="rgb(60, 60, 60)" stroke-width="1px" opacity="0.25"></line><line x1="0" y1="220.5" x2="1446" y2="220.5" fill="rgb(0, 0, 0)" stroke="rgb(60, 60, 60)" stroke-width="1px" opacity="0.25"></line><line x1="0" y1="189.00000000000003" x2="1446" y2="189.00000000000003" fill="rgb(0, 0, 0)" stroke="rgb(60, 60, 60)" stroke-width="1px" opacity="0.25"></line><line x1="0" y1="157.50000000000003" x2="1446" y2="157.50000000000003" fill="rgb(0, 0, 0)" stroke="rgb(60, 60, 60)" stroke-width="1px" opacity="0.25"></line><line x1="0" y1="126.00000000000006" x2="1446" y2="126.00000000000006" fill="rgb(0, 0, 0)" stroke="rgb(60, 60, 60)" stroke-width="1px" opacity="0.25"></line><line x1="0" y1="94.50000000000006" x2="1446" y2="94.50000000000006" fill="rgb(0, 0, 0)" stroke="rgb(60, 60, 60)" stroke-width="1px" opacity="0.25"></line><line x1="0" y1="63" x2="1446" y2="63" fill="rgb(0, 0, 0)" stroke="rgb(60, 60, 60)" stroke-width="1px" opacity="0.25"></line><line x1="0" y1="31.5" x2="1446" y2="31.5" fill="rgb(0, 0, 0)" stroke="rgb(60, 60, 60)" stroke-width="1px" opacity="0.25"></line><line x1="0" y1="0" x2="1446" y2="0" fill="rgb(0, 0, 0)" stroke="rgb(60, 60, 60)" stroke-width="1px" opacity="0.25"></line></g></g></g><g><g><line x1="0" y1="346.5" x2="1446" y2="346.5" fill="rgb(0, 0, 0)" stroke="rgb(153, 153, 153)" stroke-width="1.5px"></line></g></g><g><g><line x1="120.5" y1="0" x2="120.5" y2="378" fill="rgb(0, 0, 0)" stroke="rgb(153, 153, 153)" stroke-width="1.5px"></line></g></g><g><g><g><g><g><path stroke="rgb(51, 187, 238)" stroke-width="2px" d="M120.5,58.3219318985939L132.54999999999998,58.27263457328081L144.6,58.579533168247735L156.65,58.53366355532239L168.7,58.16810521994262L180.75,57.66995676567683L192.8,57.67854744639419L204.85,57.908208360533365L216.9,57.533483905168566L228.95,58.676207883818904L241,63.126154532000214L253.04999999999998,60.69429213045987L265.09999999999997,62.9037582460648L277.15000000000003,62.743330120020005L289.2,60.816090700855455L301.25,62.9114347052016L313.3,64.23138149772075L325.35,73.67021555815916L337.4,67.59364740950565L349.45,68.42894671345942L361.5,135.32374867353457L373.55,139.7071559679161L385.6,108.47814210482909L397.65000000000003,191.60162900257015L409.7,160.28365166357247L421.75,121.45532330956593L433.8,102.13433241497012L445.85,119.19390588559395L457.9,164.58217472620535L469.95,144.35606131911393L482,167.87780284532099L494.05,210.89543131016214L506.09999999999997,178.86528102406592L518.15,213.9852836887004L530.1999999999999,238.1181433034047L542.25,207.47389415080542L554.3000000000001,204.4547348144081L566.35,242.08726548354758L578.4,252.8966862752515L590.45,268.91201655588463L602.5,204.83977107942258L614.55,235.47080437668095L626.6,205.475269763916L638.65,236.95653639936413L650.7,254.89863940487425L662.75,244.80589940729448L674.8,229.5045752554336L686.85,227.70770477226506L698.9,243.82717819814425L710.9499999999999,233.17729984396755L723,232.75130856438707L735.05,214.47767915961333L747.1,216.104037932382L759.15,211.21058334816544L771.2,219.53972462362006L783.25,221.0345791551235L795.3000000000001,212.90669753388954L807.35,201.40337163350662L819.4,208.54345107163059L831.4499999999999,200.42629408887032L843.5,197.7964233401477L855.55,191.13810841101753L867.6,183.45115744983156L879.65,184.42426657626035L891.7,181.6001677033246L903.75,187.3211826751793L915.8,191.47956093967943L927.85,186.18045006287687L939.9,185.272957265929L951.95,182.45648785862662L964,180.32483458777273L976.0500000000001,180.40271530306342L988.1,182.9423070297003L1000.15,178.1865708795405L1012.1999999999999,179.3090888480673L1024.25,174.74443317772926L1036.3,172.3527455170273L1048.35,172.1168316268515L1060.3999999999999,168.22021320245216L1072.45,167.14444894064394L1084.5,168.3923005728062L1096.55,169.2987930338464L1108.6000000000001,169.43246717219844L1120.65,172.4157562909442L1132.7,177.83457616912827L1144.75,174.8379347082824L1156.8,177.26834934692687L1168.85,176.2968504294223L1180.9,183.2556453028003L1192.95,180.36254991761925L1205,177.55381766362243L1217.05,173.37571501376186L1229.1,173.74038026119445L1241.1499999999999,176.7044825636457L1253.2,179.74515073794785L1265.25,183.49442338525455L1277.3,181.452475616808L1289.3500000000001,177.7975592550488L1301.4,185.76538688760112L1313.45,182.53105606330107" style="fill: none;" fill="none"></path></g><g><path stroke="rgb(204, 51, 17)" stroke-width="2px" d="M120.5,58.637491106987L132.54999999999998,58.489575661718845L144.6,58.5650427256312L156.65,58.67084171360034L168.7,58.143137788913236L180.75,58.185061119496766L192.8,57.88428385109404L204.85,57.96605055170858L216.9,57.822963447207144L228.95,57.96027299953164L241,57.85210426965989L253.04999999999998,57.31309272904565L265.09999999999997,57.40119552211189L277.15000000000003,57.04344043953745L289.2,57.04996037567764L301.25,57.55889256020697L313.3,57.58011423276713L325.35,58.003107941677854L337.4,58.256876671446264L349.45,58.15667892574493L361.5,62.04105101322847L373.55,60.61650021396554L385.6,63.10665690212994L397.65000000000003,60.59320939301267L409.7,60.568249087412426L421.75,58.88084196550352L433.8,58.24706346198661L445.85,57.99301302570376L457.9,57.71436664410396L469.95,57.263181163152865L482,57.21335202586164L494.05,57.246570149511456L506.09999999999997,63.98776415557728L518.15,62.415650200927985L530.1999999999999,60.36794901670606L542.25,110.32189466491678L554.3000000000001,89.23791177299131L566.35,76.52441403452377L578.4,103.07062487069561L590.45,84.16138072027587L602.5,133.96985704848845L614.55,126.55667049021224L626.6,130.37622582027745L638.65,128.50266758832322L650.7,103.61745560049422L662.75,113.23629033553635L674.8,135.70029966908137L686.85,141.7947887712741L698.9,128.6956581432261L710.9499999999999,133.83692625518654L723,138.05767774200115L735.05,109.4766778683765L747.1,102.96219232892469L759.15,112.87468266020551L771.2,118.66440288740961L783.25,133.52966897797288L795.3000000000001,143.74259322352464L807.35,110.96275916973661L819.4,137.64947943258446L831.4499999999999,122.51651053648021L843.5,140.03778279436182L855.55,143.1350643432889L867.6,153.95511952619287L879.65,153.63122393834914L891.7,158.80127672045433L903.75,161.01975762658714L915.8,169.89254414924028L927.85,166.2229795210841L939.9,171.91004446466468L951.95,172.04054276537715L964,174.07526753182304L976.0500000000001,169.23750077387746L988.1,175.51740903080136L1000.15,180.38978680622958L1012.1999999999999,179.58969366939297L1024.25,181.1291716598954L1036.3,183.47284672877112L1048.35,177.684459532624L1060.3999999999999,180.14380514939162L1072.45,171.74263272475918L1084.5,173.73874002570938L1096.55,168.3413652770223L1108.6000000000001,170.84599410250797L1120.65,167.23682111951717L1132.7,165.7655363229097L1144.75,169.0164990751255L1156.8,171.4719564395135L1168.85,173.89188970786245L1180.9,171.2101160386915L1192.95,167.9917317926714L1205,167.41758143304764L1217.05,170.60727173923834L1229.1,168.92378980421657L1241.1499999999999,167.31415504517338L1253.2,167.1372515577208L1265.25,169.14530922282523L1277.3,167.9203961211967L1289.3500000000001,154.7211317729072L1301.4,156.33125472731092L1313.45,160.70529284874618" style="fill: none;" fill="none"></path></g><g><path stroke="rgb(0, 119, 187)" stroke-width="2px" d="M120.5,57.84860247373581L144.6,58.489573314786014L168.7,58.565041576113L192.8,57.98202491814607L216.9,57.27405890518395L241,57.08483402867972L265.09999999999997,58.308136818818355L289.2,57.800244496969526L313.3,57.81978460696439L337.4,58.21234898020788L361.5,70.67103248688153L385.6,65.34112666683836L409.7,62.34019756792492L433.8,60.73163076025969L457.9,59.45160142190349L482,58.494583914364L506.09999999999997,60.287586504545004L530.1999999999999,59.46969130856354L554.3000000000001,58.03229081726022L578.4,64.01764344182402L602.5,67.00914869887498L626.6,62.776886703421326L650.7,103.18456066983754L674.8,110.07350138323596L698.9,129.44806569098094L723,131.0066327769928L747.1,112.78773022155673L771.2,128.99390839427383L795.3000000000001,150.07749678020804L819.4,156.35348635972673L843.5,157.56310749638126L867.6,161.57062100230488L891.7,166.12088656016027L915.8,159.98402513318504L939.9,159.07876938964353L964,160.55514984691303L988.1,164.78583439443597L1012.1999999999999,162.4331843780783L1036.3,158.56028886929428L1060.3999999999999,156.8676549668054L1084.5,156.48317802368206L1108.6000000000001,163.16308644388863L1132.7,163.98394920238567L1156.8,167.19021972359363L1180.9,157.0914446840586L1205,157.6587765890655L1229.1,161.1546927142437L1253.2,158.32963139100264L1277.3,157.32880608010967L1301.4,161.3984820352447" style="fill: none;" fill="none"></path></g></g></g></g><g opacity="0.2"><g><g><g><path stroke="rgb(51, 187, 238)" stroke-width="2px" d="M120.5,58.3219318985939L132.54999999999998,58.24305617809296L144.6,58.874155819416046L156.65,58.479720890522L168.7,57.69083225727081L180.75,56.98083811998367L192.8,57.69083225727081L204.85,58.24305617809296L216.9,56.98083811998367L228.95,60.37301981449127L241,69.76071381568914L253.04999999999998,57.05973261594772L265.09999999999997,66.21074312925344L277.15000000000003,62.50300222635269L289.2,57.92749696969986L301.25,66.05297291278845L313.3,66.21074312925344L325.35,87.82607012987143L337.4,58.479720890522L349.45,69.6818193197251L361.5,235.66228294372561L373.55,146.28212267160418L385.6,61.635237872600555L397.65000000000003,316.28587467223406L409.7,113.3069082498551L421.75,63.21299636363989L433.8,73.15289551019674L445.85,144.78323990106588L457.9,232.66453617811206L469.95,114.01690238714224L482,203.16040733456614L494.05,275.4218654483557L506.09999999999997,130.8200594186783L518.15,266.6652851700783L530.1999999999999,274.3174316883087L542.25,161.507521212101L554.3000000000001,199.92599585652354L566.35,298.53606113791466L578.4,269.11081740260124L590.45,292.93501192331314L602.5,108.73140299320227L614.55,281.417354285717L626.6,160.4819678664208L638.65,284.1784363389015L650.7,281.81179390847683L662.75,229.6667894124985L674.8,206.55258902907374L686.85,225.01239904761317L698.9,268.00638833642006L710.9499999999999,217.20248231291774L723,232.11232164502147L735.05,187.06723505258566L747.1,218.54357609152797L759.15,203.87040147185328L771.2,232.03343653678897L783.25,223.27686095237735L795.3000000000001,200.71487510204318L807.35,184.14838278293612L819.4,219.2535702288151L831.4499999999999,188.25055861473086L843.5,193.85161721706393L855.55,181.15063601732257L867.6,171.92073100805288L879.65,185.88393026590353L891.7,177.36401939392093L903.75,195.9027051329613L915.8,197.71712833642962L927.85,178.23178374767306L939.9,183.9117180705071L951.95,178.23178374767306L964,177.12735468149188L976.0500000000001,180.51953637599948L988.1,186.75169461965567L1000.15,171.05296665430075L1012.1999999999999,180.99286580085757L1024.25,167.8974496722222L1036.3,168.76521402597433L1048.35,171.7629607915879L1060.3999999999999,162.37528556585315L1072.45,165.5308025479317L1084.5,170.26407802104953L1096.55,170.65853172540668L1108.6000000000001,169.63297837972647L1120.65,176.89068996906286L1132.7,185.96280598640445L1144.75,170.3429725170136L1156.8,180.91397130489355L1168.85,174.83960205316546L1180.9,193.69383761286738L1192.95,176.0229068398476L1205,173.34071928262716L1217.05,167.10856103897098L1229.1,174.28737813234332L1241.1499999999999,181.15063601732257L1253.2,184.30615299940112L1265.25,189.11833235621455L1277.3,178.38955396413806L1289.3500000000001,172.31518471241003L1301.4,197.71712833642962L1313.45,177.67955982685092" style="fill: none;" fill="none"></path></g><g><path stroke="rgb(204, 51, 17)" stroke-width="2px" d="M120.5,58.637491106987L132.54999999999998,58.40082639455795L144.6,58.637491106987L156.65,58.795261323451996L168.7,57.454167544841766L180.75,58.24305617809296L192.8,57.454167544841766L204.85,58.085267186164856L216.9,57.61193776130676L228.95,58.164161682128906L241,57.69083225727081L253.04999999999998,56.50750869512558L265.09999999999997,57.53306204080582L277.15000000000003,56.50750869512558L289.2,57.05973261594772L301.25,58.3219318985939L313.3,57.61193776130676L325.35,58.637491106987L337.4,58.637491106987L349.45,58.00639146566391L361.5,67.86739611625677L373.55,58.479720890522L385.6,66.84184277057653L397.65000000000003,56.82306790351868L409.7,60.53080880641937L421.75,56.34973847866058L433.8,57.29639732837677L445.85,57.61193776130676L457.9,57.29639732837677L469.95,56.58640319108963L482,57.13860833644867L494.05,57.29639732837677L506.09999999999997,74.09955435991293L518.15,60.05747938156128L530.1999999999999,57.29639732837677L542.25,185.2528118491173L554.3000000000001,57.61193776130676L566.35,57.454167544841766L578.4,142.88994097709661L590.45,55.79751455783844L602.5,208.68257144093516L614.55,115.43689066171652L626.6,136.10555881261828L638.65,125.69233024120334L650.7,66.2896376252175L662.75,127.66454243659976L674.8,169.3963136672974L686.85,150.93652242422107L698.9,109.04696220159536L710.9499999999999,141.54882842302325L723,144.3888049721718L735.05,66.60517805814749L747.1,93.19046401977545L759.15,127.7434181571007L771.2,127.34898322820669L783.25,155.8275681138039L795.3000000000001,159.06197959184652L807.35,61.79300808906555L819.4,177.67955982685092L831.4499999999999,99.81705719232559L843.5,166.31969118118292L855.55,147.78098666667944L867.6,170.1852023005486L879.65,153.14538055658343L891.7,166.55635589361194L903.75,164.3474789857865L915.8,183.20172393321997L927.85,160.71863257884982L939.9,180.44064188003543L951.95,172.23629021644595L964,177.12735468149188L976.0500000000001,161.9808506369591L988.1,184.93727141618731L1000.15,187.69835346937182L1012.1999999999999,178.38955396413806L1024.25,183.43838864564898L1036.3,186.98835933208468L1048.35,169.00187873840335L1060.3999999999999,183.83282357454303L1072.45,159.14087408781054L1084.5,176.73290097713473L1096.55,160.24530315399173L1108.6000000000001,174.60293734073645L1120.65,161.823061645031L1132.7,163.55860912799838L1144.75,173.8929432034493L1156.8,175.15514248609546L1168.85,177.52178961038592L1180.9,167.18745553493505L1192.95,163.16415542364123L1205,166.55635589361194L1217.05,175.3918071985245L1229.1,166.39856690168384L1241.1499999999999,164.89970290660864L1253.2,166.87189632654193L1265.25,172.1573957204819L1277.3,166.08302646875384L1289.3500000000001,134.92223525047308L1301.4,158.74643915891653L1313.45,167.26635003089908" style="fill: none;" fill="none"></path></g><g><path stroke="rgb(0, 119, 187)" stroke-width="2px" d="M120.5,57.84860247373581L144.6,58.874155819416046L168.7,58.637491106987L192.8,57.29639732837677L216.9,56.34973847866058L241,56.82306790351868L265.09999999999997,60.05747938156128L289.2,57.05973261594772L313.3,57.84860247373581L337.4,58.795261323451996L361.5,89.2460584044457L385.6,57.375273048877716L409.7,57.84860247373581L433.8,58.3219318985939L457.9,57.53306204080582L482,57.05973261594772L506.09999999999997,62.976331651210785L530.1999999999999,58.24305617809296L554.3000000000001,55.87640905380249L578.4,72.99512529373175L602.5,71.49624252319342L626.6,56.428632974624634L650.7,163.79527384042743L674.8,120.40683084726334L698.9,158.50977444648746L723,133.3444767594338L747.1,85.45942300558096L771.2,153.30315077304843L795.3000000000001,181.7028599381447L819.4,165.76746726036077L843.5,159.3775388002396L867.6,167.58189046382907L891.7,172.9462843537331L915.8,150.778733432293L939.9,157.72088581323626L964,162.76972049474722L988.1,171.13186115026477L1012.1999999999999,158.90420937538153L1036.3,152.75094562768942L1060.3999999999999,154.3287041187287L1084.5,155.90646260976797L1108.6000000000001,173.18294906616217L1132.7,165.21524333953863L1156.8,171.9996255040169L1180.9,141.9432821273804L1205,158.50977444648746L1229.1,166.39856690168384L1253.2,154.09203940629962L1277.3,155.8275681138039L1301.4,167.50299596786505" style="fill: none;" fill="none"></path></g></g></g></g></g></g><g transform="translate(50, 378)" clip-path="url(#clip_1)"><clipPath id="clip_1"><rect width="1446" height="22"></rect></clipPath><g><g><line x1="0" y1="0" x2="0" y2="5" style="visibility: inherit;" fill="rgb(0, 0, 0)" stroke="rgb(204, 204, 204)" stroke-width="1px"></line><line x1="120.5" y1="0" x2="120.5" y2="5" style="visibility: inherit;" fill="rgb(0, 0, 0)" stroke="rgb(204, 204, 204)" stroke-width="1px"></line><line x1="241" y1="0" x2="241" y2="5" style="visibility: inherit;" fill="rgb(0, 0, 0)" stroke="rgb(204, 204, 204)" stroke-width="1px"></line><line x1="361.5" y1="0" x2="361.5" y2="5" style="visibility: inherit;" fill="rgb(0, 0, 0)" stroke="rgb(204, 204, 204)" stroke-width="1px"></line><line x1="482" y1="0" x2="482" y2="5" style="visibility: inherit;" fill="rgb(0, 0, 0)" stroke="rgb(204, 204, 204)" stroke-width="1px"></line><line x1="602.5" y1="0" x2="602.5" y2="5" style="visibility: inherit;" fill="rgb(0, 0, 0)" stroke="rgb(204, 204, 204)" stroke-width="1px"></line><line x1="723" y1="0" x2="723" y2="5" style="visibility: inherit;" fill="rgb(0, 0, 0)" stroke="rgb(204, 204, 204)" stroke-width="1px"></line><line x1="843.5" y1="0" x2="843.5" y2="5" style="visibility: inherit;" fill="rgb(0, 0, 0)" stroke="rgb(204, 204, 204)" stroke-width="1px"></line><line x1="964" y1="0" x2="964" y2="5" style="visibility: inherit;" fill="rgb(0, 0, 0)" stroke="rgb(204, 204, 204)" stroke-width="1px"></line><line x1="1084.5" y1="0" x2="1084.5" y2="5" style="visibility: inherit;" fill="rgb(0, 0, 0)" stroke="rgb(204, 204, 204)" stroke-width="1px"></line><line x1="1205" y1="0" x2="1205" y2="5" style="visibility: inherit;" fill="rgb(0, 0, 0)" stroke="rgb(204, 204, 204)" stroke-width="1px"></line><line x1="1325.5" y1="0" x2="1325.5" y2="5" style="visibility: inherit;" fill="rgb(0, 0, 0)" stroke="rgb(204, 204, 204)" stroke-width="1px"></line><line x1="1446" y1="0" x2="1446" y2="5" style="visibility: inherit;" fill="rgb(0, 0, 0)" stroke="rgb(204, 204, 204)" stroke-width="1px"></line></g><g transform="translate(0, 8)"><text x="0" y="0" dx="0em" dy="0.95em" style="text-anchor: middle; visibility: hidden; font-family: &quot;Helvetica Neue&quot;, sans-serif; font-size: 12px; font-weight: 200;" fill="rgb(50, 49, 63)" stroke="none" stroke-width="1px">-50</text><text x="120.5" y="0" dx="0em" dy="0.95em" style="text-anchor: middle; visibility: inherit; font-family: &quot;Helvetica Neue&quot;, sans-serif; font-size: 12px; font-weight: 200;" fill="rgb(50, 49, 63)" stroke="none" stroke-width="1px">0</text><text x="241" y="0" dx="0em" dy="0.95em" style="text-anchor: middle; visibility: inherit; font-family: &quot;Helvetica Neue&quot;, sans-serif; font-size: 12px; font-weight: 200;" fill="rgb(50, 49, 63)" stroke="none" stroke-width="1px">50</text><text x="361.5" y="0" dx="0em" dy="0.95em" style="text-anchor: middle; visibility: inherit; font-family: &quot;Helvetica Neue&quot;, sans-serif; font-size: 12px; font-weight: 200;" fill="rgb(50, 49, 63)" stroke="none" stroke-width="1px">100</text><text x="482" y="0" dx="0em" dy="0.95em" style="text-anchor: middle; visibility: inherit; font-family: &quot;Helvetica Neue&quot;, sans-serif; font-size: 12px; font-weight: 200;" fill="rgb(50, 49, 63)" stroke="none" stroke-width="1px">150</text><text x="602.5" y="0" dx="0em" dy="0.95em" style="text-anchor: middle; visibility: inherit; font-family: &quot;Helvetica Neue&quot;, sans-serif; font-size: 12px; font-weight: 200;" fill="rgb(50, 49, 63)" stroke="none" stroke-width="1px">200</text><text x="723" y="0" dx="0em" dy="0.95em" style="text-anchor: middle; visibility: inherit; font-family: &quot;Helvetica Neue&quot;, sans-serif; font-size: 12px; font-weight: 200;" fill="rgb(50, 49, 63)" stroke="none" stroke-width="1px">250</text><text x="843.5" y="0" dx="0em" dy="0.95em" style="text-anchor: middle; visibility: inherit; font-family: &quot;Helvetica Neue&quot;, sans-serif; font-size: 12px; font-weight: 200;" fill="rgb(50, 49, 63)" stroke="none" stroke-width="1px">300</text><text x="964" y="0" dx="0em" dy="0.95em" style="text-anchor: middle; visibility: inherit; font-family: &quot;Helvetica Neue&quot;, sans-serif; font-size: 12px; font-weight: 200;" fill="rgb(50, 49, 63)" stroke="none" stroke-width="1px">350</text><text x="1084.5" y="0" dx="0em" dy="0.95em" style="text-anchor: middle; visibility: inherit; font-family: &quot;Helvetica Neue&quot;, sans-serif; font-size: 12px; font-weight: 200;" fill="rgb(50, 49, 63)" stroke="none" stroke-width="1px">400</text><text x="1205" y="0" dx="0em" dy="0.95em" style="text-anchor: middle; visibility: inherit; font-family: &quot;Helvetica Neue&quot;, sans-serif; font-size: 12px; font-weight: 200;" fill="rgb(50, 49, 63)" stroke="none" stroke-width="1px">450</text><text x="1325.5" y="0" dx="0em" dy="0.95em" style="text-anchor: middle; visibility: inherit; font-family: &quot;Helvetica Neue&quot;, sans-serif; font-size: 12px; font-weight: 200;" fill="rgb(50, 49, 63)" stroke="none" stroke-width="1px">500</text><text x="1446" y="0" dx="0em" dy="0.95em" style="text-anchor: middle; visibility: hidden; font-family: &quot;Helvetica Neue&quot;, sans-serif; font-size: 12px; font-weight: 200;" fill="rgb(50, 49, 63)" stroke="none" stroke-width="1px">550</text></g><line x1="0" y1="0" x2="1446" y2="0" fill="rgb(0, 0, 0)" stroke="rgb(204, 204, 204)" stroke-width="1px"></line></g></g></g></g></svg>