<svg viewBox="0 0 1496 400" xmlns="http://www.w3.org/2000/svg"><g><g><g><g><g><line x1="60" y1="378" x2="55" y2="378" style="visibility: inherit;" fill="rgb(0, 0, 0)" stroke="rgb(204, 204, 204)" stroke-width="1px"></line><line x1="60" y1="346.5" x2="55" y2="346.5" style="visibility: inherit;" fill="rgb(0, 0, 0)" stroke="rgb(204, 204, 204)" stroke-width="1px"></line><line x1="60" y1="315" x2="55" y2="315" style="visibility: inherit;" fill="rgb(0, 0, 0)" stroke="rgb(204, 204, 204)" stroke-width="1px"></line><line x1="60" y1="283.5" x2="55" y2="283.5" style="visibility: inherit;" fill="rgb(0, 0, 0)" stroke="rgb(204, 204, 204)" stroke-width="1px"></line><line x1="60" y1="252" x2="55" y2="252" style="visibility: inherit;" fill="rgb(0, 0, 0)" stroke="rgb(204, 204, 204)" stroke-width="1px"></line><line x1="60" y1="220.5" x2="55" y2="220.5" style="visibility: inherit;" fill="rgb(0, 0, 0)" stroke="rgb(204, 204, 204)" stroke-width="1px"></line><line x1="60" y1="189" x2="55" y2="189" style="visibility: inherit;" fill="rgb(0, 0, 0)" stroke="rgb(204, 204, 204)" stroke-width="1px"></line><line x1="60" y1="157.5" x2="55" y2="157.5" style="visibility: inherit;" fill="rgb(0, 0, 0)" stroke="rgb(204, 204, 204)" stroke-width="1px"></line><line x1="60" y1="126" x2="55" y2="126" style="visibility: inherit;" fill="rgb(0, 0, 0)" stroke="rgb(204, 204, 204)" stroke-width="1px"></line><line x1="60" y1="94.5" x2="55" y2="94.5" style="visibility: inherit;" fill="rgb(0, 0, 0)" stroke="rgb(204, 204, 204)" stroke-width="1px"></line><line x1="60" y1="63" x2="55" y2="63" style="visibility: inherit;" fill="rgb(0, 0, 0)" stroke="rgb(204, 204, 204)" stroke-width="1px"></line><line x1="60" y1="31.5" x2="55" y2="31.5" style="visibility: inherit;" fill="rgb(0, 0, 0)" stroke="rgb(204, 204, 204)" stroke-width="1px"></line><line x1="60" y1="0" x2="55" y2="0" style="visibility: inherit;" fill="rgb(0, 0, 0)" stroke="rgb(204, 204, 204)" stroke-width="1px"></line></g><g transform="translate(50, 0)"><text x="0" y="378" dx="0em" dy="0.3em" style="text-anchor: end; visibility: hidden; font-family: &quot;Helvetica Neue&quot;, sans-serif; font-size: 12px; font-weight: 200;" fill="rgb(50, 49, 63)" stroke="none" stroke-width="1px">-7e+4</text><text x="0" y="346.5" dx="0em" dy="0.3em" style="text-anchor: end; visibility: inherit; font-family: &quot;Helvetica Neue&quot;, sans-serif; font-size: 12px; font-weight: 200;" fill="rgb(50, 49, 63)" stroke="none" stroke-width="1px">-6e+4</text><text x="0" y="315" dx="0em" dy="0.3em" style="text-anchor: end; visibility: inherit; font-family: &quot;Helvetica Neue&quot;, sans-serif; font-size: 12px; font-weight: 200;" fill="rgb(50, 49, 63)" stroke="none" stroke-width="1px">-5e+4</text><text x="0" y="283.5" dx="0em" dy="0.3em" style="text-anchor: end; visibility: inherit; font-family: &quot;Helvetica Neue&quot;, sans-serif; font-size: 12px; font-weight: 200;" fill="rgb(50, 49, 63)" stroke="none" stroke-width="1px">-4e+4</text><text x="0" y="252" dx="0em" dy="0.3em" style="text-anchor: end; visibility: inherit; font-family: &quot;Helvetica Neue&quot;, sans-serif; font-size: 12px; font-weight: 200;" fill="rgb(50, 49, 63)" stroke="none" stroke-width="1px">-3e+4</text><text x="0" y="220.5" dx="0em" dy="0.3em" style="text-anchor: end; visibility: inherit; font-family: &quot;Helvetica Neue&quot;, sans-serif; font-size: 12px; font-weight: 200;" fill="rgb(50, 49, 63)" stroke="none" stroke-width="1px">-2e+4</text><text x="0" y="189" dx="0em" dy="0.3em" style="text-anchor: end; visibility: inherit; font-family: &quot;Helvetica Neue&quot;, sans-serif; font-size: 12px; font-weight: 200;" fill="rgb(50, 49, 63)" stroke="none" stroke-width="1px">-1e+4</text><text x="0" y="157.5" dx="0em" dy="0.3em" style="text-anchor: end; visibility: inherit; font-family: &quot;Helvetica Neue&quot;, sans-serif; font-size: 12px; font-weight: 200;" fill="rgb(50, 49, 63)" stroke="none" stroke-width="1px">0</text><text x="0" y="126" dx="0em" dy="0.3em" style="text-anchor: end; visibility: inherit; font-family: &quot;Helvetica Neue&quot;, sans-serif; font-size: 12px; font-weight: 200;" fill="rgb(50, 49, 63)" stroke="none" stroke-width="1px">1e+4</text><text x="0" y="94.5" dx="0em" dy="0.3em" style="text-anchor: end; visibility: inherit; font-family: &quot;Helvetica Neue&quot;, sans-serif; font-size: 12px; font-weight: 200;" fill="rgb(50, 49, 63)" stroke="none" stroke-width="1px">2e+4</text><text x="0" y="63" dx="0em" dy="0.3em" style="text-anchor: end; visibility: inherit; font-family: &quot;Helvetica Neue&quot;, sans-serif; font-size: 12px; font-weight: 200;" fill="rgb(50, 49, 63)" stroke="none" stroke-width="1px">3e+4</text><text x="0" y="31.5" dx="0em" dy="0.3em" style="text-anchor: end; visibility: inherit; font-family: &quot;Helvetica Neue&quot;, sans-serif; font-size: 12px; font-weight: 200;" fill="rgb(50, 49, 63)" stroke="none" stroke-width="1px">4e+4</text><text x="0" y="0" dx="0em" dy="0.3em" style="text-anchor: end; visibility: hidden; font-family: &quot;Helvetica Neue&quot;, sans-serif; font-size: 12px; font-weight: 200;" fill="rgb(50, 49, 63)" stroke="none" stroke-width="1px">5e+4</text></g><line x1="60" y1="0" x2="60" y2="378" fill="rgb(0, 0, 0)" stroke="rgb(204, 204, 204)" stroke-width="1px"></line></g></g><g transform="translate(60, 0)" clip-path="url(#clip_0)"><clipPath id="clip_0"><rect width="1436" height="378"></rect></clipPath><g><g><g><line x1="0" y1="0" x2="0" y2="378" fill="rgb(0, 0, 0)" stroke="rgb(60, 60, 60)" stroke-width="1px" opacity="0.25"></line><line x1="119.66666666666666" y1="0" x2="119.66666666666666" y2="378" fill="rgb(0, 0, 0)" stroke="rgb(60, 60, 60)" stroke-width="1px" opacity="0.25"></line><line x1="239.33333333333331" y1="0" x2="239.33333333333331" y2="378" fill="rgb(0, 0, 0)" stroke="rgb(60, 60, 60)" stroke-width="1px" opacity="0.25"></line><line x1="359" y1="0" x2="359" y2="378" fill="rgb(0, 0, 0)" stroke="rgb(60, 60, 60)" stroke-width="1px" opacity="0.25"></line><line x1="478.66666666666663" y1="0" x2="478.66666666666663" y2="378" fill="rgb(0, 0, 0)" stroke="rgb(60, 60, 60)" stroke-width="1px" opacity="0.25"></line><line x1="598.3333333333334" y1="0" x2="598.3333333333334" y2="378" fill="rgb(0, 0, 0)" stroke="rgb(60, 60, 60)" stroke-width="1px" opacity="0.25"></line><line x1="718" y1="0" x2="718" y2="378" fill="rgb(0, 0, 0)" stroke="rgb(60, 60, 60)" stroke-width="1px" opacity="0.25"></line><line x1="837.6666666666667" y1="0" x2="837.6666666666667" y2="378" fill="rgb(0, 0, 0)" stroke="rgb(60, 60, 60)" stroke-width="1px" opacity="0.25"></line><line x1="957.3333333333333" y1="0" x2="957.3333333333333" y2="378" fill="rgb(0, 0, 0)" stroke="rgb(60, 60, 60)" stroke-width="1px" opacity="0.25"></line><line x1="1077" y1="0" x2="1077" y2="378" fill="rgb(0, 0, 0)" stroke="rgb(60, 60, 60)" stroke-width="1px" opacity="0.25"></line><line x1="1196.6666666666667" y1="0" x2="1196.6666666666667" y2="378" fill="rgb(0, 0, 0)" stroke="rgb(60, 60, 60)" stroke-width="1px" opacity="0.25"></line><line x1="1316.3333333333333" y1="0" x2="1316.3333333333333" y2="378" fill="rgb(0, 0, 0)" stroke="rgb(60, 60, 60)" stroke-width="1px" opacity="0.25"></line><line x1="1436" y1="0" x2="1436" y2="378" fill="rgb(0, 0, 0)" stroke="rgb(60, 60, 60)" stroke-width="1px" opacity="0.25"></line></g><g><line x1="0" y1="378" x2="1436" y2="378" fill="rgb(0, 0, 0)" stroke="rgb(60, 60, 60)" stroke-width="1px" opacity="0.25"></line><line x1="0" y1="346.5" x2="1436" y2="346.5" fill="rgb(0, 0, 0)" stroke="rgb(60, 60, 60)" stroke-width="1px" opacity="0.25"></line><line x1="0" y1="315" x2="1436" y2="315" fill="rgb(0, 0, 0)" stroke="rgb(60, 60, 60)" stroke-width="1px" opacity="0.25"></line><line x1="0" y1="283.5" x2="1436" y2="283.5" fill="rgb(0, 0, 0)" stroke="rgb(60, 60, 60)" stroke-width="1px" opacity="0.25"></line><line x1="0" y1="252" x2="1436" y2="252" fill="rgb(0, 0, 0)" stroke="rgb(60, 60, 60)" stroke-width="1px" opacity="0.25"></line><line x1="0" y1="220.5" x2="1436" y2="220.5" fill="rgb(0, 0, 0)" stroke="rgb(60, 60, 60)" stroke-width="1px" opacity="0.25"></line><line x1="0" y1="189" x2="1436" y2="189" fill="rgb(0, 0, 0)" stroke="rgb(60, 60, 60)" stroke-width="1px" opacity="0.25"></line><line x1="0" y1="157.5" x2="1436" y2="157.5" fill="rgb(0, 0, 0)" stroke="rgb(60, 60, 60)" stroke-width="1px" opacity="0.25"></line><line x1="0" y1="126" x2="1436" y2="126" fill="rgb(0, 0, 0)" stroke="rgb(60, 60, 60)" stroke-width="1px" opacity="0.25"></line><line x1="0" y1="94.5" x2="1436" y2="94.5" fill="rgb(0, 0, 0)" stroke="rgb(60, 60, 60)" stroke-width="1px" opacity="0.25"></line><line x1="0" y1="63" x2="1436" y2="63" fill="rgb(0, 0, 0)" stroke="rgb(60, 60, 60)" stroke-width="1px" opacity="0.25"></line><line x1="0" y1="31.5" x2="1436" y2="31.5" fill="rgb(0, 0, 0)" stroke="rgb(60, 60, 60)" stroke-width="1px" opacity="0.25"></line><line x1="0" y1="0" x2="1436" y2="0" fill="rgb(0, 0, 0)" stroke="rgb(60, 60, 60)" stroke-width="1px" opacity="0.25"></line></g></g></g><g><g><line x1="0" y1="157.5" x2="1436" y2="157.5" fill="rgb(0, 0, 0)" stroke="rgb(153, 153, 153)" stroke-width="1.5px"></line></g></g><g><g><line x1="119.66666666666666" y1="0" x2="119.66666666666666" y2="378" fill="rgb(0, 0, 0)" stroke="rgb(153, 153, 153)" stroke-width="1.5px"></line></g></g><g><g><g><g><g><path stroke="rgb(51, 187, 238)" stroke-width="2px" d="M119.66666666666666,201.87405L131.63333333333333,200.7597375L143.6,273.52594285714287L155.56666666666666,299.3142044117647L167.53333333333333,296.41588969465647L179.5,286.01534605263157L191.46666666666667,290.63982340066894L203.43333333333334,298.24617147975334L215.4,276.1558432756711L227.36666666666665,299.27739313572573L239.33333333333331,304.07941748440084L251.29999999999998,282.7640315350209L263.26666666666665,287.4493382567589L275.23333333333335,312.89260135450064L287.2,311.1908206609712L299.1666666666667,306.9059435856658L311.1333333333333,318.5283134303625L323.1,310.93339671880534L335.06666666666666,319.18940111895273L347.03333333333336,304.4116203722936L359,234.9946694271497L370.9666666666667,230.63944433207502L382.93333333333334,243.68448961991027L394.90000000000003,204.24484689187906L406.8666666666667,236.9776811955182L418.83333333333337,253.46227683701903L430.8,244.75665719209354L442.7666666666667,253.1324794588002L454.7333333333333,215.71359388804726L466.7,219.88733725553416L478.66666666666663,170.53627580718097L490.6333333333333,156.31150435220724L502.59999999999997,178.73988368232352L514.5666666666667,157.16638959128807L526.5333333333333,142.97615351083266L538.5,197.62203267014038L550.4666666666667,175.26691946373614L562.4333333333333,158.58919161631408L574.4,152.43563495607887L586.3666666666667,141.17342095859257L598.3333333333334,198.2174526209077L610.3,166.67187155736394L622.2666666666667,184.59826293959438L634.2333333333333,162.73269775996854L646.2,146.87285865433256L658.1666666666666,118.54641519083287L670.1333333333333,102.05454911388262L682.1,95.58284946818424L694.0666666666667,101.91716968099587L706.0333333333333,93.02578180852566L718,94.19128908512107L729.9666666666666,94.6259934510739L741.9333333333334,92.0757560706399L753.9,85.6303536423772L765.8666666666667,87.15591218542727L777.8333333333333,83.2051273112549L789.8000000000001,80.08621638675226L801.7666666666667,80.43246983205137L813.7333333333333,85.08046189923124L825.6999999999999,82.32273713953856L837.6666666666667,75.53108228372292L849.6333333333333,76.51876937023383L861.6,73.98532162214025L873.5666666666666,73.63579297328414L885.5333333333334,75.11447578397048L897.5,82.38610547038235L909.4666666666666,80.59524328222938L921.4333333333334,79.47284596933764L933.4,80.03798758160264L945.3666666666667,83.50061254896156L957.3333333333333,82.93470752937696L969.3000000000001,74.87766451762616L981.2666666666667,84.88245871057569L993.2333333333333,82.94859522634545L1005.1999999999999,76.60337713580725L1017.1666666666667,75.01510628148435L1029.1333333333334,72.53376376889065L1041.1,68.92689826133437L1053.0666666666666,82.63247895680058L1065.0333333333333,86.69152737408035L1077,84.97147642444821L1088.9666666666667,89.05504585466895L1100.9333333333334,82.60202751280139L1112.9,82.09315650768087L1124.8666666666666,83.01633390460853L1136.8333333333333,80.6268803427651L1148.8,79.47166820565906L1160.7666666666667,85.7488609233954L1172.7333333333333,81.83547655403726L1184.7,82.83148593242237L1196.6666666666667,85.96295155945347L1208.6333333333334,86.05263093567203L1220.6,85.37815856140321L1232.5666666666666,85.05411513684192L1244.5333333333333,90.35706908210517L1256.5,90.89662144926308L1268.4666666666667,85.94095286955786L1280.4333333333334,92.71365172173472L1292.4,92.02707103304084L1304.3666666666666,98.76940261982446" style="fill: none;" fill="none"></path></g><g><path stroke="rgb(204, 51, 17)" stroke-width="2px" d="M119.66666666666666,239.91344999999998L131.63333333333333,242.2877625L143.6,273.2128071428572L155.56666666666666,295.40579558823526L167.53333333333333,298.96946856349757L179.5,297.98887034774435L191.46666666666667,284.903310274171L203.43333333333334,311.0496238304032L215.4,312.06417867352627L227.36666666666665,315.52871593610354L239.33333333333331,308.40169293202285L251.29999999999998,286.853770622553L263.26666666666665,299.24102098219646L275.23333333333335,281.7521876112366L287.2,282.23229830758225L299.1666666666667,291.26330673128325L311.1333333333333,295.6884930749921L323.1,309.4750960117921L335.06666666666666,320.40366354998264L347.03333333333336,312.322422667019L359,289.4327914715017L370.9666666666667,282.3471816208969L382.93333333333334,285.75421587891736L394.90000000000003,278.3219143102714L406.8666666666667,296.28809966454526L418.83333333333337,270.6121360002246L430.8,271.06370206230827L442.7666666666667,276.00042426899756L454.7333333333333,284.8819378338502L466.7,266.4346386220934L478.66666666666663,265.44248304165217L490.6333333333333,274.00865050674355L502.59999999999997,270.39135013131295L514.5666666666667,266.4456299657382L526.5333333333333,269.1824580264909L538.5,203.13105413461233L550.4666666666667,232.31259266136186L562.4333333333333,239.49959562350384L574.4,219.9587373305669L586.3666666666667,234.9159824183342L598.3333333333334,182.23222940874555L610.3,183.45505764583578L622.2666666666667,168.3039345831268L634.2333333333333,159.39218074833218L646.2,188.538888452029L658.1666666666666,170.84393307011382L670.1333333333333,134.98033984072623L682.1,123.68204390418205L694.0666666666667,140.59358634273707L706.0333333333333,139.9120718056367L718,129.57814308333192L729.9666666666666,172.8567258501251L741.9333333333334,175.19131551007914L753.9,140.6417493060113L765.8666666666667,129.2511295835996L777.8333333333333,99.23527775014844L789.8000000000001,82.75162665008531L801.7666666666667,135.52753599005834L813.7333333333333,101.0985215940322L825.6999999999999,118.33057295642016L837.6666666666667,97.72294377385145L849.6333333333333,76.8281662643106L861.6,76.12269975858635L873.5666666666666,65.8663798551517L885.5333333333334,58.133807913091005L897.5,63.3890447478546L909.4666666666666,64.7529868487128L921.4333333333334,59.93537210922767L933.4,54.98344326553661L945.3666666666667,49.75310595932194L957.3333333333333,58.93770357559316L969.3000000000001,62.4438021453559L981.2666666666667,63.334081287213564L993.2333333333333,68.49370877232815L1005.1999999999999,71.15604526339689L1017.1666666666667,77.8766071580381L1029.1333333333334,81.77664429482286L1041.1,90.75812657689369L1053.0666666666666,94.11841594613622L1065.0333333333333,88.20666956768173L1077,78.820781740609L1088.9666666666667,92.06782904436545L1100.9333333333334,91.04359742661921L1112.9,102.77453845597154L1124.8666666666666,101.24510307358292L1136.8333333333333,93.63054184414972L1148.8,95.36054510648984L1160.7666666666667,95.06042706389388L1172.7333333333333,95.28607623833636L1184.7,96.37906574300177L1196.6666666666667,99.77157944580102L1208.6333333333334,96.5377676674807L1220.6,97.91884060048841L1232.5666666666666,93.43784436029307L1244.5333333333333,92.88242661617579L1256.5,95.44969596970549L1268.4666666666667,92.20961758182324L1280.4333333333334,105.96643054909396L1292.4,90.93571832945634L1304.3666666666666,89.3878309976738" style="fill: none;" fill="none"></path></g><g><path stroke="rgb(0, 119, 187)" stroke-width="2px" d="M119.66666666666666,237.96675L143.6,276.5818125L167.53333333333333,302.2515L191.46666666666667,307.8684347426471L215.4,272.89953955586395L239.33333333333331,281.63206860902255L263.26666666666665,306.59726694145223L287.2,300.73497619146804L311.1333333333333,295.3834749118412L335.06666666666666,313.1427887265808L359,294.5401835319631L382.93333333333334,295.524091873476L406.8666666666667,288.41827443335364L430.8,304.62656615233203L454.7333333333333,290.18162789832905L478.66666666666663,286.60580796089215L502.59999999999997,257.48987642195954L526.5333333333333,280.6663796578401L550.4666666666667,263.48216065758186L574.4,240.57435884901983L598.3333333333334,250.880361391681L622.2666666666667,243.59046088409602L646.2,176.92547005687686L670.1333333333333,170.47951149071633L694.0666666666667,126.26790119954828L718,143.9406308661767L741.9333333333334,162.5880976052086L765.8666666666667,122.92671420729883L789.8000000000001,108.04818304228729L813.7333333333333,94.26880677911163L837.6666666666667,99.14802471466771L861.6,89.45035405699582L885.5333333333334,83.71239216019859L909.4666666666666,89.52053546252932L933.4,94.81226136848613L957.3333333333333,109.65615697419793L981.2666666666667,111.73455419738121L1005.1999999999999,110.6178325142821L1029.1333333333334,105.73687949769493L1053.0666666666666,115.68802771191912L1077,116.57461662786255L1100.9333333333334,105.4112499713454L1124.8666666666666,114.04868998530122L1148.8,111.55523399074872L1172.7333333333333,113.28098039462861L1196.6666666666667,103.79290823618544L1220.6,115.04580494213235L1244.5333333333333,115.15860296528194L1268.4666666666667,113.68656177914932L1292.4,112.18719706747748" style="fill: none;" fill="none"></path></g></g></g></g><g opacity="0.2"><g><g><g><path stroke="rgb(51, 187, 238)" stroke-width="2px" d="M119.66666666666666,201.87405L131.63333333333333,200.09115L143.6,343.3815L155.56666666666666,329.6412L167.53333333333333,292.63185L179.5,271.62765L191.46666666666667,297.2529L203.43333333333334,309.3363L215.4,243.5769L227.36666666666665,333.6102L239.33333333333331,311.2389L251.29999999999998,250.90695L263.26666666666665,294.462L275.23333333333335,351.00765L287.2,308.64015L299.1666666666667,300.48165L311.1333333333333,335.95695L323.1,299.54295L335.06666666666666,331.57215L347.03333333333336,282.2463L359,130.87305L370.9666666666667,224.10675L382.93333333333334,263.2518L394.90000000000003,145.08585L406.8666666666667,286.0767L418.83333333333337,278.1891L430.8,231.69825L442.7666666666667,265.6962L454.7333333333333,159.58530000000002L466.7,226.14795L478.66666666666663,96.50970000000001L490.6333333333333,134.97435000000002L502.59999999999997,212.38245L514.5666666666667,124.80615L526.5333333333333,121.69079999999997L538.5,279.59085L550.4666666666667,141.73424999999997L562.4333333333333,133.57260000000002L574.4,143.2053L586.3666666666667,124.2801L598.3333333333334,283.7835L610.3,119.3535L622.2666666666667,211.48785L634.2333333333333,129.93434999999997L646.2,123.0831L658.1666666666666,76.05675000000002L670.1333333333333,77.31674999999996L682.1,85.87529999999998L694.0666666666667,111.41865000000001L706.0333333333333,79.68869999999998L718,95.93955L729.9666666666666,95.27805000000001L741.9333333333334,88.25040000000001L753.9,75.96224999999998L765.8666666666667,89.44425000000001L777.8333333333333,77.27895000000001L789.8000000000001,75.40785L801.7666666666667,80.95184999999998L813.7333333333333,92.05245000000002L825.6999999999999,78.18615L837.6666666666667,65.34359999999998L849.6333333333333,78.00030000000004L861.6,70.18515000000002L873.5666666666666,73.11149999999998L885.5333333333334,77.33249999999998L897.5,93.29354999999998L909.4666666666666,77.90895L921.4333333333334,77.78925000000004L933.4,80.88569999999999L945.3666666666667,88.69454999999999L957.3333333333333,82.08585L969.3000000000001,62.792100000000005L981.2666666666667,99.88965000000002L993.2333333333333,80.0478L1005.1999999999999,67.08555000000001L1017.1666666666667,72.6327L1029.1333333333334,68.81175000000002L1041.1,63.51660000000004L1053.0666666666666,103.19085000000001L1065.0333333333333,92.7801L1077,82.39139999999998L1088.9666666666667,95.18040000000002L1100.9333333333334,72.92249999999996L1112.9,81.32985000000002L1124.8666666666666,84.40109999999999L1136.8333333333333,77.04269999999997L1148.8,77.73885000000001L1160.7666666666667,95.16465L1172.7333333333333,75.96539999999999L1184.7,84.32549999999998L1196.6666666666667,90.66014999999999L1208.6333333333334,86.18715000000003L1220.6,84.36644999999999L1232.5666666666666,84.56804999999997L1244.5333333333333,98.31150000000002L1256.5,91.70594999999997L1268.4666666666667,78.50745L1280.4333333333334,102.87270000000001L1292.4,90.99720000000002L1304.3666666666666,108.8829" style="fill: none;" fill="none"></path></g><g><path stroke="rgb(204, 51, 17)" stroke-width="2px" d="M119.66666666666666,239.91344999999998L131.63333333333333,243.71235L143.6,302.90085L155.56666666666666,321.50475L167.53333333333333,303.6222L179.5,296.63235L191.46666666666667,266.19075L203.43333333333334,349.1712L215.4,313.56045L227.36666666666665,320.67315L239.33333333333331,297.7758L251.29999999999998,254.64915000000002L263.26666666666665,317.78145L275.23333333333335,255.5532L287.2,282.9519L299.1666666666667,304.80345L311.1333333333333,302.32439999999997L323.1,330.1515L335.06666666666666,336.79485L347.03333333333336,300.2013L359,255.0996L370.9666666666667,271.719L382.93333333333334,290.86469999999997L394.90000000000003,267.17355L406.8666666666667,323.23725L418.83333333333337,232.0983L430.8,271.74105L442.7666666666667,283.4055L454.7333333333333,298.2042L466.7,238.7637L478.66666666666663,263.95425L490.6333333333333,286.8579L502.59999999999997,264.9654L514.5666666666667,260.52705L526.5333333333333,273.2877L538.5,104.05395000000004L550.4666666666667,276.0849L562.4333333333333,250.2801L574.4,190.64745000000002L586.3666666666667,257.35185L598.3333333333334,103.20659999999998L610.3,185.2893L622.2666666666667,145.57725000000002L634.2333333333333,146.02455L646.2,232.25895L658.1666666666666,144.3015L670.1333333333333,81.18495000000001L682.1,106.7346L694.0666666666667,165.9609L706.0333333333333,138.88979999999998L718,114.07724999999999L729.9666666666666,237.7746L741.9333333333334,178.6932L753.9,88.81740000000002L765.8666666666667,112.16519999999997L777.8333333333333,54.2115L789.8000000000001,58.02615000000003L801.7666666666667,214.69140000000002L813.7333333333333,49.454999999999984L825.6999999999999,144.17865L837.6666666666667,66.81149999999997L849.6333333333333,45.48599999999999L861.6,75.06450000000001L873.5666666666666,50.481899999999996L885.5333333333334,46.53495000000004L897.5,71.27190000000002L909.4666666666666,66.7989L921.4333333333334,52.708950000000016L933.4,47.55554999999998L945.3666666666667,41.9076L957.3333333333333,72.71460000000002L969.3000000000001,67.70294999999999L981.2666666666667,64.66950000000003L993.2333333333333,76.23315000000002L1005.1999999999999,75.14955000000003L1017.1666666666667,87.95745L1029.1333333333334,87.62670000000003L1041.1,104.23034999999999L1053.0666666666666,99.15885000000003L1065.0333333333333,79.33904999999999L1077,64.74194999999997L1088.9666666666667,111.9384L1100.9333333333334,89.50725L1112.9,120.37095L1124.8666666666666,98.95094999999998L1136.8333333333333,82.20870000000002L1148.8,97.95555000000002L1160.7666666666667,94.61025000000001L1172.7333333333333,95.62455L1184.7,98.01855L1196.6666666666667,104.86035000000004L1208.6333333333334,91.68705L1220.6,99.99045000000001L1232.5666666666666,86.71634999999998L1244.5333333333333,92.04930000000002L1256.5,99.30060000000003L1268.4666666666667,87.34949999999998L1280.4333333333334,126.60165L1292.4,68.38965000000002L1304.3666666666666,87.06599999999997" style="fill: none;" fill="none"></path></g><g><path stroke="rgb(0, 119, 187)" stroke-width="2px" d="M119.66666666666666,237.96675L143.6,299.75085L167.53333333333333,326.8944L191.46666666666667,314.47395L215.4,227.24415000000002L239.33333333333331,293.7123L263.26666666666665,342.2979L287.2,292.1877L311.1333333333333,287.49105L335.06666666666666,339.5133L359,266.805L382.93333333333334,296.9946L406.8666666666667,277.78275L430.8,328.90725L454.7333333333333,268.5312L478.66666666666663,281.2446L502.59999999999997,213.82829999999998L526.5333333333333,315.42525L550.4666666666667,237.70845L574.4,206.21474999999998L598.3333333333334,266.3388L622.2666666666667,232.65585L646.2,76.92930000000001L670.1333333333333,160.81065L694.0666666666667,59.95079999999996L718,170.44965000000002L741.9333333333334,190.55925L765.8666666666667,63.434699999999964L789.8000000000001,85.73039999999997L813.7333333333333,73.59975000000003L837.6666666666667,106.46685000000002L861.6,74.90384999999998L885.5333333333334,75.10545000000002L909.4666666666666,98.23275000000001L933.4,102.74984999999998L957.3333333333333,131.922L981.2666666666667,114.85215L1005.1999999999999,108.94274999999999L1029.1333333333334,98.41545000000002L1053.0666666666666,130.61475L1077,117.90449999999998L1100.9333333333334,88.6662L1124.8666666666666,127.00485L1148.8,107.81504999999999L1172.7333333333333,115.86959999999999L1196.6666666666667,89.56079999999997L1220.6,131.92515L1244.5333333333333,115.32780000000002L1268.4666666666667,111.4785L1292.4,109.93815000000001" style="fill: none;" fill="none"></path></g></g></g></g></g></g><g transform="translate(60, 378)" clip-path="url(#clip_1)"><clipPath id="clip_1"><rect width="1436" height="22"></rect></clipPath><g><g><line x1="0" y1="0" x2="0" y2="5" style="visibility: inherit;" fill="rgb(0, 0, 0)" stroke="rgb(204, 204, 204)" stroke-width="1px"></line><line x1="119.66666666666666" y1="0" x2="119.66666666666666" y2="5" style="visibility: inherit;" fill="rgb(0, 0, 0)" stroke="rgb(204, 204, 204)" stroke-width="1px"></line><line x1="239.33333333333331" y1="0" x2="239.33333333333331" y2="5" style="visibility: inherit;" fill="rgb(0, 0, 0)" stroke="rgb(204, 204, 204)" stroke-width="1px"></line><line x1="359" y1="0" x2="359" y2="5" style="visibility: inherit;" fill="rgb(0, 0, 0)" stroke="rgb(204, 204, 204)" stroke-width="1px"></line><line x1="478.66666666666663" y1="0" x2="478.66666666666663" y2="5" style="visibility: inherit;" fill="rgb(0, 0, 0)" stroke="rgb(204, 204, 204)" stroke-width="1px"></line><line x1="598.3333333333334" y1="0" x2="598.3333333333334" y2="5" style="visibility: inherit;" fill="rgb(0, 0, 0)" stroke="rgb(204, 204, 204)" stroke-width="1px"></line><line x1="718" y1="0" x2="718" y2="5" style="visibility: inherit;" fill="rgb(0, 0, 0)" stroke="rgb(204, 204, 204)" stroke-width="1px"></line><line x1="837.6666666666667" y1="0" x2="837.6666666666667" y2="5" style="visibility: inherit;" fill="rgb(0, 0, 0)" stroke="rgb(204, 204, 204)" stroke-width="1px"></line><line x1="957.3333333333333" y1="0" x2="957.3333333333333" y2="5" style="visibility: inherit;" fill="rgb(0, 0, 0)" stroke="rgb(204, 204, 204)" stroke-width="1px"></line><line x1="1077" y1="0" x2="1077" y2="5" style="visibility: inherit;" fill="rgb(0, 0, 0)" stroke="rgb(204, 204, 204)" stroke-width="1px"></line><line x1="1196.6666666666667" y1="0" x2="1196.6666666666667" y2="5" style="visibility: inherit;" fill="rgb(0, 0, 0)" stroke="rgb(204, 204, 204)" stroke-width="1px"></line><line x1="1316.3333333333333" y1="0" x2="1316.3333333333333" y2="5" style="visibility: inherit;" fill="rgb(0, 0, 0)" stroke="rgb(204, 204, 204)" stroke-width="1px"></line><line x1="1436" y1="0" x2="1436" y2="5" style="visibility: inherit;" fill="rgb(0, 0, 0)" stroke="rgb(204, 204, 204)" stroke-width="1px"></line></g><g transform="translate(0, 8)"><text x="0" y="0" dx="0em" dy="0.95em" style="text-anchor: middle; visibility: hidden; font-family: &quot;Helvetica Neue&quot;, sans-serif; font-size: 12px; font-weight: 200;" fill="rgb(50, 49, 63)" stroke="none" stroke-width="1px">-50</text><text x="119.66666666666666" y="0" dx="0em" dy="0.95em" style="text-anchor: middle; visibility: inherit; font-family: &quot;Helvetica Neue&quot;, sans-serif; font-size: 12px; font-weight: 200;" fill="rgb(50, 49, 63)" stroke="none" stroke-width="1px">0</text><text x="239.33333333333331" y="0" dx="0em" dy="0.95em" style="text-anchor: middle; visibility: inherit; font-family: &quot;Helvetica Neue&quot;, sans-serif; font-size: 12px; font-weight: 200;" fill="rgb(50, 49, 63)" stroke="none" stroke-width="1px">50</text><text x="359" y="0" dx="0em" dy="0.95em" style="text-anchor: middle; visibility: inherit; font-family: &quot;Helvetica Neue&quot;, sans-serif; font-size: 12px; font-weight: 200;" fill="rgb(50, 49, 63)" stroke="none" stroke-width="1px">100</text><text x="478.66666666666663" y="0" dx="0em" dy="0.95em" style="text-anchor: middle; visibility: inherit; font-family: &quot;Helvetica Neue&quot;, sans-serif; font-size: 12px; font-weight: 200;" fill="rgb(50, 49, 63)" stroke="none" stroke-width="1px">150</text><text x="598.3333333333334" y="0" dx="0em" dy="0.95em" style="text-anchor: middle; visibility: inherit; font-family: &quot;Helvetica Neue&quot;, sans-serif; font-size: 12px; font-weight: 200;" fill="rgb(50, 49, 63)" stroke="none" stroke-width="1px">200</text><text x="718" y="0" dx="0em" dy="0.95em" style="text-anchor: middle; visibility: inherit; font-family: &quot;Helvetica Neue&quot;, sans-serif; font-size: 12px; font-weight: 200;" fill="rgb(50, 49, 63)" stroke="none" stroke-width="1px">250</text><text x="837.6666666666667" y="0" dx="0em" dy="0.95em" style="text-anchor: middle; visibility: inherit; font-family: &quot;Helvetica Neue&quot;, sans-serif; font-size: 12px; font-weight: 200;" fill="rgb(50, 49, 63)" stroke="none" stroke-width="1px">300</text><text x="957.3333333333333" y="0" dx="0em" dy="0.95em" style="text-anchor: middle; visibility: inherit; font-family: &quot;Helvetica Neue&quot;, sans-serif; font-size: 12px; font-weight: 200;" fill="rgb(50, 49, 63)" stroke="none" stroke-width="1px">350</text><text x="1077" y="0" dx="0em" dy="0.95em" style="text-anchor: middle; visibility: inherit; font-family: &quot;Helvetica Neue&quot;, sans-serif; font-size: 12px; font-weight: 200;" fill="rgb(50, 49, 63)" stroke="none" stroke-width="1px">400</text><text x="1196.6666666666667" y="0" dx="0em" dy="0.95em" style="text-anchor: middle; visibility: inherit; font-family: &quot;Helvetica Neue&quot;, sans-serif; font-size: 12px; font-weight: 200;" fill="rgb(50, 49, 63)" stroke="none" stroke-width="1px">450</text><text x="1316.3333333333333" y="0" dx="0em" dy="0.95em" style="text-anchor: middle; visibility: inherit; font-family: &quot;Helvetica Neue&quot;, sans-serif; font-size: 12px; font-weight: 200;" fill="rgb(50, 49, 63)" stroke="none" stroke-width="1px">500</text><text x="1436" y="0" dx="0em" dy="0.95em" style="text-anchor: middle; visibility: hidden; font-family: &quot;Helvetica Neue&quot;, sans-serif; font-size: 12px; font-weight: 200;" fill="rgb(50, 49, 63)" stroke="none" stroke-width="1px">550</text></g><line x1="0" y1="0" x2="1436" y2="0" fill="rgb(0, 0, 0)" stroke="rgb(204, 204, 204)" stroke-width="1px"></line></g></g></g></g></svg>