<svg viewBox="0 0 1496 400" xmlns="http://www.w3.org/2000/svg"><g><g><g><g><g><line x1="70" y1="378" x2="65" y2="378" style="visibility: inherit;" fill="rgb(0, 0, 0)" stroke="rgb(204, 204, 204)" stroke-width="1px"></line><line x1="70" y1="340.2" x2="65" y2="340.2" style="visibility: inherit;" fill="rgb(0, 0, 0)" stroke="rgb(204, 204, 204)" stroke-width="1px"></line><line x1="70" y1="302.4" x2="65" y2="302.4" style="visibility: inherit;" fill="rgb(0, 0, 0)" stroke="rgb(204, 204, 204)" stroke-width="1px"></line><line x1="70" y1="264.6" x2="65" y2="264.6" style="visibility: inherit;" fill="rgb(0, 0, 0)" stroke="rgb(204, 204, 204)" stroke-width="1px"></line><line x1="70" y1="226.79999999999998" x2="65" y2="226.79999999999998" style="visibility: inherit;" fill="rgb(0, 0, 0)" stroke="rgb(204, 204, 204)" stroke-width="1px"></line><line x1="70" y1="189" x2="65" y2="189" style="visibility: inherit;" fill="rgb(0, 0, 0)" stroke="rgb(204, 204, 204)" stroke-width="1px"></line><line x1="70" y1="151.20000000000002" x2="65" y2="151.20000000000002" style="visibility: inherit;" fill="rgb(0, 0, 0)" stroke="rgb(204, 204, 204)" stroke-width="1px"></line><line x1="70" y1="113.40000000000003" x2="65" y2="113.40000000000003" style="visibility: inherit;" fill="rgb(0, 0, 0)" stroke="rgb(204, 204, 204)" stroke-width="1px"></line><line x1="70" y1="75.59999999999997" x2="65" y2="75.59999999999997" style="visibility: inherit;" fill="rgb(0, 0, 0)" stroke="rgb(204, 204, 204)" stroke-width="1px"></line><line x1="70" y1="37.80000000000001" x2="65" y2="37.80000000000001" style="visibility: inherit;" fill="rgb(0, 0, 0)" stroke="rgb(204, 204, 204)" stroke-width="1px"></line><line x1="70" y1="0" x2="65" y2="0" style="visibility: inherit;" fill="rgb(0, 0, 0)" stroke="rgb(204, 204, 204)" stroke-width="1px"></line></g><g transform="translate(60, 0)"><text x="0" y="378" dx="0em" dy="0.3em" style="text-anchor: end; visibility: hidden; font-family: &quot;Helvetica Neue&quot;, sans-serif; font-size: 12px; font-weight: 200;" fill="rgb(50, 49, 63)" stroke="none" stroke-width="1px">-500</text><text x="0" y="340.2" dx="0em" dy="0.3em" style="text-anchor: end; visibility: inherit; font-family: &quot;Helvetica Neue&quot;, sans-serif; font-size: 12px; font-weight: 200;" fill="rgb(50, 49, 63)" stroke="none" stroke-width="1px">0</text><text x="0" y="302.4" dx="0em" dy="0.3em" style="text-anchor: end; visibility: inherit; font-family: &quot;Helvetica Neue&quot;, sans-serif; font-size: 12px; font-weight: 200;" fill="rgb(50, 49, 63)" stroke="none" stroke-width="1px">500</text><text x="0" y="264.6" dx="0em" dy="0.3em" style="text-anchor: end; visibility: inherit; font-family: &quot;Helvetica Neue&quot;, sans-serif; font-size: 12px; font-weight: 200;" fill="rgb(50, 49, 63)" stroke="none" stroke-width="1px">1e+3</text><text x="0" y="226.79999999999998" dx="0em" dy="0.3em" style="text-anchor: end; visibility: inherit; font-family: &quot;Helvetica Neue&quot;, sans-serif; font-size: 12px; font-weight: 200;" fill="rgb(50, 49, 63)" stroke="none" stroke-width="1px">1.5e+3</text><text x="0" y="189" dx="0em" dy="0.3em" style="text-anchor: end; visibility: inherit; font-family: &quot;Helvetica Neue&quot;, sans-serif; font-size: 12px; font-weight: 200;" fill="rgb(50, 49, 63)" stroke="none" stroke-width="1px">2e+3</text><text x="0" y="151.20000000000002" dx="0em" dy="0.3em" style="text-anchor: end; visibility: inherit; font-family: &quot;Helvetica Neue&quot;, sans-serif; font-size: 12px; font-weight: 200;" fill="rgb(50, 49, 63)" stroke="none" stroke-width="1px">2.5e+3</text><text x="0" y="113.40000000000003" dx="0em" dy="0.3em" style="text-anchor: end; visibility: inherit; font-family: &quot;Helvetica Neue&quot;, sans-serif; font-size: 12px; font-weight: 200;" fill="rgb(50, 49, 63)" stroke="none" stroke-width="1px">3e+3</text><text x="0" y="75.59999999999997" dx="0em" dy="0.3em" style="text-anchor: end; visibility: inherit; font-family: &quot;Helvetica Neue&quot;, sans-serif; font-size: 12px; font-weight: 200;" fill="rgb(50, 49, 63)" stroke="none" stroke-width="1px">3.5e+3</text><text x="0" y="37.80000000000001" dx="0em" dy="0.3em" style="text-anchor: end; visibility: inherit; font-family: &quot;Helvetica Neue&quot;, sans-serif; font-size: 12px; font-weight: 200;" fill="rgb(50, 49, 63)" stroke="none" stroke-width="1px">4e+3</text><text x="0" y="0" dx="0em" dy="0.3em" style="text-anchor: end; visibility: hidden; font-family: &quot;Helvetica Neue&quot;, sans-serif; font-size: 12px; font-weight: 200;" fill="rgb(50, 49, 63)" stroke="none" stroke-width="1px">4.5e+3</text></g><line x1="70" y1="0" x2="70" y2="378" fill="rgb(0, 0, 0)" stroke="rgb(204, 204, 204)" stroke-width="1px"></line></g></g><g transform="translate(70, 0)" clip-path="url(#clip_0)"><clipPath id="clip_0"><rect width="1426" height="378"></rect></clipPath><g><g><g><line x1="0" y1="0" x2="0" y2="378" fill="rgb(0, 0, 0)" stroke="rgb(60, 60, 60)" stroke-width="1px" opacity="0.25"></line><line x1="118.83333333333333" y1="0" x2="118.83333333333333" y2="378" fill="rgb(0, 0, 0)" stroke="rgb(60, 60, 60)" stroke-width="1px" opacity="0.25"></line><line x1="237.66666666666666" y1="0" x2="237.66666666666666" y2="378" fill="rgb(0, 0, 0)" stroke="rgb(60, 60, 60)" stroke-width="1px" opacity="0.25"></line><line x1="356.5" y1="0" x2="356.5" y2="378" fill="rgb(0, 0, 0)" stroke="rgb(60, 60, 60)" stroke-width="1px" opacity="0.25"></line><line x1="475.3333333333333" y1="0" x2="475.3333333333333" y2="378" fill="rgb(0, 0, 0)" stroke="rgb(60, 60, 60)" stroke-width="1px" opacity="0.25"></line><line x1="594.1666666666667" y1="0" x2="594.1666666666667" y2="378" fill="rgb(0, 0, 0)" stroke="rgb(60, 60, 60)" stroke-width="1px" opacity="0.25"></line><line x1="713" y1="0" x2="713" y2="378" fill="rgb(0, 0, 0)" stroke="rgb(60, 60, 60)" stroke-width="1px" opacity="0.25"></line><line x1="831.8333333333334" y1="0" x2="831.8333333333334" y2="378" fill="rgb(0, 0, 0)" stroke="rgb(60, 60, 60)" stroke-width="1px" opacity="0.25"></line><line x1="950.6666666666666" y1="0" x2="950.6666666666666" y2="378" fill="rgb(0, 0, 0)" stroke="rgb(60, 60, 60)" stroke-width="1px" opacity="0.25"></line><line x1="1069.5" y1="0" x2="1069.5" y2="378" fill="rgb(0, 0, 0)" stroke="rgb(60, 60, 60)" stroke-width="1px" opacity="0.25"></line><line x1="1188.3333333333335" y1="0" x2="1188.3333333333335" y2="378" fill="rgb(0, 0, 0)" stroke="rgb(60, 60, 60)" stroke-width="1px" opacity="0.25"></line><line x1="1307.1666666666665" y1="0" x2="1307.1666666666665" y2="378" fill="rgb(0, 0, 0)" stroke="rgb(60, 60, 60)" stroke-width="1px" opacity="0.25"></line><line x1="1426" y1="0" x2="1426" y2="378" fill="rgb(0, 0, 0)" stroke="rgb(60, 60, 60)" stroke-width="1px" opacity="0.25"></line></g><g><line x1="0" y1="378" x2="1426" y2="378" fill="rgb(0, 0, 0)" stroke="rgb(60, 60, 60)" stroke-width="1px" opacity="0.25"></line><line x1="0" y1="340.2" x2="1426" y2="340.2" fill="rgb(0, 0, 0)" stroke="rgb(60, 60, 60)" stroke-width="1px" opacity="0.25"></line><line x1="0" y1="302.4" x2="1426" y2="302.4" fill="rgb(0, 0, 0)" stroke="rgb(60, 60, 60)" stroke-width="1px" opacity="0.25"></line><line x1="0" y1="264.6" x2="1426" y2="264.6" fill="rgb(0, 0, 0)" stroke="rgb(60, 60, 60)" stroke-width="1px" opacity="0.25"></line><line x1="0" y1="226.79999999999998" x2="1426" y2="226.79999999999998" fill="rgb(0, 0, 0)" stroke="rgb(60, 60, 60)" stroke-width="1px" opacity="0.25"></line><line x1="0" y1="189" x2="1426" y2="189" fill="rgb(0, 0, 0)" stroke="rgb(60, 60, 60)" stroke-width="1px" opacity="0.25"></line><line x1="0" y1="151.20000000000002" x2="1426" y2="151.20000000000002" fill="rgb(0, 0, 0)" stroke="rgb(60, 60, 60)" stroke-width="1px" opacity="0.25"></line><line x1="0" y1="113.40000000000003" x2="1426" y2="113.40000000000003" fill="rgb(0, 0, 0)" stroke="rgb(60, 60, 60)" stroke-width="1px" opacity="0.25"></line><line x1="0" y1="75.59999999999997" x2="1426" y2="75.59999999999997" fill="rgb(0, 0, 0)" stroke="rgb(60, 60, 60)" stroke-width="1px" opacity="0.25"></line><line x1="0" y1="37.80000000000001" x2="1426" y2="37.80000000000001" fill="rgb(0, 0, 0)" stroke="rgb(60, 60, 60)" stroke-width="1px" opacity="0.25"></line><line x1="0" y1="0" x2="1426" y2="0" fill="rgb(0, 0, 0)" stroke="rgb(60, 60, 60)" stroke-width="1px" opacity="0.25"></line></g></g></g><g><g><line x1="0" y1="340.2" x2="1426" y2="340.2" fill="rgb(0, 0, 0)" stroke="rgb(153, 153, 153)" stroke-width="1.5px"></line></g></g><g><g><line x1="118.83333333333333" y1="0" x2="118.83333333333333" y2="378" fill="rgb(0, 0, 0)" stroke="rgb(153, 153, 153)" stroke-width="1.5px"></line></g></g><g><g><g><g><g><path stroke="rgb(51, 187, 238)" stroke-width="2px" d="M118.83333333333333,129.2004L130.71666666666667,121.73489999999998L142.6,104.40668571428574L154.48333333333335,87.62456911764707L166.36666666666667,87.09812519083965L178.25,79.45071766917289L190.13333333333333,77.74162700097446L202.01666666666665,84.12889782327943L213.9,93.14613163508398L225.78333333333333,86.96727781479274L237.66666666666666,91.1142919340121L249.54999999999998,94.25958177176767L261.43333333333334,85.30229021864187L273.31666666666666,88.07634799837575L285.2,97.00040475651468L297.08333333333337,112.0921804096904L308.9666666666667,105.59852908756937L320.85,110.11061569986248L332.73333333333335,118.77521740586178L344.6166666666667,121.19145878513012L356.5,121.09887324003358L368.3833333333334,122.49486231826623L380.26666666666665,114.19989188307119L392.15000000000003,123.64749989621225L404.0333333333333,115.98015813925389L415.9166666666667,112.92200966690984L427.8,119.49385252636375L439.68333333333334,115.2419089047242L451.56666666666666,106.58226215213114L463.45,103.92663670418915L475.3333333333333,114.8223834677728L487.2166666666667,112.92286992948783L499.09999999999997,111.66220189749328L510.98333333333335,112.81092117140815L522.8666666666667,109.75039265023224L534.75,110.60543559895865L546.6333333333333,136.33862151862897L558.5166666666667,128.82637288328294L570.4,168.28798381788692L582.2833333333333,203.3654303376219L594.1666666666667,167.71189817397723L606.05,186.59945891347556L617.9333333333334,194.4846353503621L629.8166666666666,172.15094120634808L641.7,168.42752472342187L653.5833333333333,162.02035483365353L665.4666666666667,168.79029290044548L677.35,197.58857574091385L689.2333333333333,195.0905854445147L701.1166666666667,245.15099126711343L713,255.4102747603178L724.8833333333333,263.95480485621556L736.7666666666668,272.68008291374457L748.65,239.60116974821207L760.5333333333333,200.24902184890254L772.4166666666666,236.029093109355L784.3000000000001,233.18417586561233L796.1833333333334,269.70058551937234L808.0666666666666,284.4737913116246L819.9499999999999,303.1959547869757L831.8333333333334,308.80461287218554L843.7166666666667,310.62756772331136L855.6,308.6973406339868L867.4833333333332,311.34944438039213L879.3666666666667,313.42454662823525L891.25,291.1428879769411L903.1333333333333,257.1199727861646L915.0166666666668,269.3351836716988L926.9,278.9625502030193L938.7833333333333,292.87353012181154L950.6666666666666,292.4807580730869L962.5500000000001,298.05117484385215L974.4333333333334,293.1983849063113L986.3166666666666,299.7215909437868L998.1999999999999,298.31327456627207L1010.0833333333334,289.87804473976325L1021.9666666666667,259.17338684385794L1033.85,281.36291210631475L1045.7333333333333,283.36686726378883L1057.6166666666668,280.75900035827334L1069.5,250.919880214964L1081.3833333333332,267.79240812897837L1093.2666666666667,269.05560487738705L1105.15,273.5028029264322L1117.0333333333333,257.18040175585935L1128.9166666666665,265.2588010535156L1140.8,279.29880063210936L1152.6833333333334,267.91560037926564L1164.5666666666666,272.5768802275594L1176.45,284.62708813653563L1188.3333333333335,280.12409288192134L1200.2166666666667,253.4117357291528L1212.1,259.7619214374917L1223.9833333333333,272.674272862495L1235.8666666666668,279.665683717497L1247.75,267.8938102304982L1259.6333333333332,255.35724613829893L1271.5166666666667,280.31306768297935L1283.4,284.3396806097876L1295.2833333333333,286.78588836587255" style="fill: none;" fill="none"></path></g><g><path stroke="rgb(0, 119, 187)" stroke-width="2px" d="M118.83333333333333,79.22879999999998L130.71666666666667,81.54404999999997L142.6,87.5370857142857L154.48333333333335,80.07096176470583L166.36666666666667,102.23223789035393L178.25,102.95296917293228L190.13333333333333,126.29200514103613L202.01666666666665,122.67720837985331L213.9,138.38752886179157L225.78333333333333,154.40504913707983L237.66666666666666,144.8934817959548L249.54999999999998,150.5431070821008L261.43333333333334,142.5096119470767L273.31666666666666,154.55312496655156L285.2,145.31489130117745L297.08333333333337,146.70164599944832L308.9666666666667,133.8324092677943L320.85,169.51106908382152L332.73333333333335,141.62174198698207L344.6166666666667,116.75437600188889L356.5,155.75364112608742L368.3833333333334,156.744517717739L380.26666666666665,154.0730895335676L392.15000000000003,132.57223184087772L404.0333333333333,133.79390257777172L415.9166666666667,136.00866532464363L427.8,134.07159721221558L439.68333333333334,129.76439568230174L451.56666666666666,136.4032798555213L463.45,130.46788660115214L475.3333333333333,137.12777284408756L487.2166666666667,152.46370492698742L499.09999999999997,148.81326278187663L510.98333333333335,142.7220374946052L522.8666666666667,143.81498251555163L534.75,154.41970961871263L546.6333333333333,152.5875057598887L558.5166666666667,164.76354350114522L570.4,167.50292610679026L582.2833333333333,162.52399565741854L594.1666666666667,161.1091173933163L606.05,156.14755043360213L617.9333333333334,167.83701026353646L629.8166666666666,173.33868615907502L641.7,199.89425169820532L653.5833333333333,234.2739910210674L665.4666666666667,266.81639461385817L677.35,271.1008767684111L689.2333333333333,267.01876606099165L701.1166666666667,286.9773396367563L713,286.94720378205363L724.8833333333333,300.3859222692713L736.7666666666668,297.26035336155735L748.65,292.6936520169296L760.5333333333333,281.0025912101504L772.4166666666666,297.2425147260964L784.3000000000001,312.1272688356612L796.1833333333334,307.17796130139607L808.0666666666666,288.66501678083614L819.9499999999999,289.8951700685017L831.8333333333334,308.8377420411016L843.7166666666667,308.92376522466094L855.6,311.9691391347966L867.4833333333332,317.636843480878L879.3666666666667,320.8257860885268L891.25,325.1885916531161L903.1333333333333,299.07827499186965L915.0166666666668,310.9909649951218L926.9,319.9832189970731L938.7833333333333,325.49953139824385L950.6666666666666,304.1334788389463L962.5500000000001,306.7362473033678L974.4333333333334,303.7619083820207L986.3166666666666,307.2390650292124L998.1999999999999,315.67575901752747L1010.0833333333334,314.05473541051646L1021.9666666666667,316.01540124630986L1033.85,318.82476074778594L1045.7333333333333,318.57501644867153L1057.6166666666668,315.06852986920296L1069.5,319.8593579215218L1081.3833333333332,311.726494752913L1093.2666666666667,314.5882168517478L1105.15,317.4846101110487L1117.0333333333333,315.07956606662924L1128.9166666666665,314.3018196399775L1140.8,320.6391717839865L1152.6833333333334,322.6876630703919L1164.5666666666666,320.49963784223513L1176.45,319.8823427053411L1188.3333333333335,314.85500562320465L1200.2166666666667,320.6989233739228L1212.1,321.93727402435366L1223.9833333333333,318.0838044146122L1235.8666666666668,315.1064426487673L1247.75,314.0760255892604L1259.6333333333332,314.21377535355623L1271.5166666666667,311.39338521213375L1283.4,305.13491112728025L1295.2833333333333,298.23486667636814" style="fill: none;" fill="none"></path></g><g><path stroke="rgb(204, 51, 17)" stroke-width="2px" d="M118.83333333333333,82.9332L130.71666666666667,85.76819999999998L142.6,76.91605714285714L154.48333333333335,81.17522205882352L166.36666666666667,106.46442137404586L178.25,117.87536165413536L190.13333333333333,131.3402270483816L202.01666666666665,135.88283459215134L213.9,179.18771416696234L225.78333333333333,172.60981445601416L237.66666666666666,144.31748493503255L249.54999999999998,146.86435494266422L261.43333333333334,119.0480429316155L273.31666666666666,117.72522914700443L285.2,110.94186805367161L297.08333333333337,113.67981323663116L308.9666666666667,119.3446868158374L320.85,118.53921028534091L332.73333333333335,124.22531265939097L344.6166666666667,121.01395018313434L356.5,114.5208676714501L368.3833333333334,105.51448205928807L380.26666666666665,116.86381886471571L392.15000000000003,116.11332776271638L404.0333333333333,106.68172984332529L415.9166666666667,116.83833523130818L427.8,119.45468381659242L439.68333333333334,108.95872384444709L451.56666666666666,119.89795833730068L463.45,115.5146140333373L475.3333333333333,106.80636726490263L487.2166666666667,117.72958122828322L499.09999999999997,123.92062903260461L510.98333333333335,135.07429773912858L522.8666666666667,120.84041839878665L534.75,127.93417111244003L546.6333333333333,117.16114260079343L558.5166666666667,118.13636556409722L570.4,125.01141935377535L582.2833333333333,113.80477159728474L594.1666666666667,141.0100629801908L606.05,177.95691780589445L617.9333333333334,187.78711068637497L629.8166666666666,169.03962640857713L641.7,232.30249585172214L653.5833333333333,239.929497511509L665.4666666666667,197.99657850533626L677.35,238.33666710410748L689.2333333333333,230.09320026235346L701.1166666666667,220.91352015733784L713,202.67467209431427L724.8833333333333,238.54288325669293L736.7666666666668,247.57468995403153L748.65,265.6038539724378L760.5333333333333,253.77159238345524L772.4166666666666,271.1968754300797L784.3000000000001,242.30980525804128L796.1833333333334,233.32380315482357L808.0666666666666,261.71028189289643L819.9499999999999,281.1916091357388L831.8333333333334,293.93880548144364L843.7166666666667,290.76120328886617L855.6,296.47512197331974L867.4833333333332,309.21739318399193L879.3666666666667,316.3184359103952L891.25,317.8272215462371L903.1333333333333,324.0547329277423L915.0166666666668,329.03107975664534L926.9,323.2170478539872L938.7833333333333,312.4105487123923L950.6666666666666,305.8056892274354L962.5500000000001,308.67701353646123L974.4333333333334,315.8430081218768L986.3166666666666,283.0986048731261L998.1999999999999,303.06636292387566L1010.0833333333334,315.59133775432537L1021.9666666666667,323.7413626525952L1033.85,324.60945759155715L1045.7333333333333,324.49527455493427L1057.6166666666668,328.59988473296056L1069.5,328.15961083977635L1081.3833333333332,322.6034465038658L1093.2666666666667,291.4489479023195L1105.15,303.4498487413917L1117.0333333333333,299.58254924483504L1128.9166666666665,279.934649546901L1140.8,296.45054972814063L1152.6833333333334,298.01384983688433L1164.5666666666666,305.8465499021306L1176.45,300.5064899412784L1188.3333333333335,310.154453964767L1200.2166666666667,315.3384323788602L1212.1,308.4696194273161L1223.9833333333333,301.5360116563897L1235.8666666666668,307.6272069938338L1247.75,308.8929641963003L1259.6333333333332,316.06329851778014L1271.5166666666667,313.9243791106681L1283.4,308.7703074664009L1295.2833333333333,310.6977044798405" style="fill: none;" fill="none"></path></g><g><path stroke="rgb(255, 112, 67)" stroke-width="2px" d="M118.83333333333333,97.9776L130.71666666666667,96.37110000000007L142.6,103.43931428571432L154.48333333333335,101.13779117647061L166.36666666666667,100.16060902151287L178.25,99.75219022556388L190.13333333333333,94.57305139455872L202.01666666666665,93.8666866209798L213.9,100.29325699514129L225.78333333333333,100.03068653391267L237.66666666666666,100.81501744981983L249.54999999999998,107.28437284844892L261.43333333333334,126.20589653218434L273.31666666666666,136.24164234762966L285.2,132.06238038235514L297.08333333333337,143.5309036258677L308.9666666666667,152.19440861750653L320.85,150.7683403390714L332.73333333333335,147.37247727321932L344.6166666666667,150.08294546294306L356.5,154.27961933999356L368.3833333333334,152.86631300181728L380.26666666666665,159.51792033084376L392.15000000000003,166.80502672759522L404.0333333333333,170.08862537192266L415.9166666666667,175.20374394861128L427.8,168.95887997760866L439.68333333333334,180.18077487786599L451.56666666666666,177.47902393124178L463.45,172.9851733652719L475.3333333333333,165.90406307989386L487.2166666666667,167.4917179742924L499.09999999999997,173.7967910856551L510.98333333333335,178.27535477970918L522.8666666666667,172.2836127648232L534.75,175.06920768762575L546.6333333333333,177.85944462984324L558.5166666666667,182.95070679681078L570.4,185.88450408462273L582.2833333333333,186.46542245155018L594.1666666666667,177.56053346378798L606.05,175.78592007741878L617.9333333333334,172.15075204540165L629.8166666666666,164.8590912259778L641.7,173.3965747364741L653.5833333333333,172.5617848418324L665.4666666666667,162.71675090473107L677.35,173.44173054307944L689.2333333333333,183.92887832598896" style="fill: none;" fill="none"></path></g></g></g></g><g opacity="0.2"><g><g><g><path stroke="rgb(51, 187, 238)" stroke-width="2px" d="M118.83333333333333,129.2004L130.71666666666667,117.25560000000002L142.6,87.77159999999998L154.48333333333335,67.8888L166.36666666666667,86.4108L178.25,68.8716L190.13333333333333,75.29759999999999L202.01666666666665,93.4416L213.9,106.44479999999999L225.78333333333333,77.79239999999999L237.66666666666666,97.29719999999998L249.54999999999998,98.96039999999999L261.43333333333334,71.8956L273.31666666666666,92.23199999999997L285.2,110.37600000000003L297.08333333333337,134.71920000000003L308.9666666666667,95.86080000000004L320.85,116.87760000000003L332.73333333333335,131.7708L344.6166666666667,124.81560000000002L356.5,120.95999999999998L368.3833333333334,124.58879999999999L380.26666666666665,101.75760000000002L392.15000000000003,137.8188L404.0333333333333,104.47919999999999L415.9166666666667,108.33479999999997L427.8,129.3516L439.68333333333334,108.86400000000003L451.56666666666666,93.59280000000001L463.45,99.94319999999999L475.3333333333333,131.166L487.2166666666667,110.0736L499.09999999999997,109.77120000000002L510.98333333333335,114.53399999999999L522.8666666666667,105.15960000000001L534.75,111.88800000000003L546.6333333333333,174.9384L558.5166666666667,117.55799999999999L570.4,227.4804L582.2833333333333,255.98160000000001L594.1666666666667,114.23160000000001L606.05,214.9308L617.9333333333334,206.3124L629.8166666666666,138.65040000000002L641.7,162.8424L653.5833333333333,152.4096L665.4666666666667,178.94520000000003L677.35,240.786L689.2333333333333,191.34359999999998L701.1166666666667,320.2416L713,270.7992L724.8833333333333,276.77160000000003L736.7666666666668,285.76800000000003L748.65,189.9828L760.5333333333333,141.22080000000003L772.4166666666666,289.6992L784.3000000000001,228.91680000000002L796.1833333333334,324.4752L808.0666666666666,306.6336L819.9499999999999,331.2792L831.8333333333334,317.2176L843.7166666666667,313.36199999999997L855.6,305.802L867.4833333333332,315.3276L879.3666666666667,316.5372L891.25,257.72040000000004L903.1333333333333,206.0856L915.0166666666668,287.658L926.9,293.4036L938.7833333333333,313.74L950.6666666666666,291.8916L962.5500000000001,306.4068L974.4333333333334,285.9192L986.3166666666666,309.5064L998.1999999999999,296.2008L1010.0833333333334,277.2252L1021.9666666666667,213.1164L1033.85,314.6472L1045.7333333333333,286.3728L1057.6166666666668,276.8472L1069.5,206.1612L1081.3833333333332,293.1012L1093.2666666666667,270.9504L1105.15,280.1736L1117.0333333333333,232.6968L1128.9166666666665,277.3764L1140.8,300.3588L1152.6833333333334,250.8408L1164.5666666666666,279.5688L1176.45,302.7024L1188.3333333333335,273.3696L1200.2166666666667,213.3432L1212.1,269.2872L1223.9833333333333,292.0428L1235.8666666666668,290.1528L1247.75,250.236L1259.6333333333332,236.5524L1271.5166666666667,317.7468L1283.4,290.3796L1295.2833333333333,290.4552" style="fill: none;" fill="none"></path></g><g><path stroke="rgb(0, 119, 187)" stroke-width="2px" d="M118.83333333333333,79.22879999999998L130.71666666666667,82.9332L142.6,93.29040000000003L154.48333333333335,71.29079999999999L166.36666666666667,131.166L178.25,103.94999999999999L190.13333333333333,159.6672L202.01666666666665,117.40679999999998L213.9,161.5572L225.78333333333333,178.18920000000003L237.66666666666666,130.7124L249.54999999999998,158.9868L261.43333333333334,130.48559999999998L273.31666666666666,172.5948L285.2,131.4684L297.08333333333337,148.78079999999997L308.9666666666667,114.53399999999999L320.85,223.02L332.73333333333335,99.79200000000003L344.6166666666667,79.4556L356.5,214.2504L368.3833333333334,158.2308L380.26666666666665,150.066L392.15000000000003,100.32119999999998L404.0333333333333,135.6264L415.9166666666667,139.3308L427.8,131.166L439.68333333333334,123.30360000000002L451.56666666666666,146.3616L463.45,121.56479999999999L475.3333333333333,147.1176L487.2166666666667,175.46759999999998L499.09999999999997,143.33759999999998L510.98333333333335,133.58520000000001L522.8666666666667,145.45440000000002L534.75,170.3268L546.6333333333333,149.83919999999998L558.5166666666667,183.02759999999998L570.4,171.612L582.2833333333333,155.0556L594.1666666666667,158.9868L606.05,148.7052L617.9333333333334,185.3712L629.8166666666666,181.59120000000001L641.7,239.7276L653.5833333333333,285.84360000000004L665.4666666666667,315.63L677.35,277.5276L689.2333333333333,260.8956L701.1166666666667,316.9152L713,286.902L724.8833333333333,320.544L736.7666666666668,292.572L748.65,285.84360000000004L760.5333333333333,263.466L772.4166666666666,321.6024L784.3000000000001,334.4544L796.1833333333334,299.754L808.0666666666666,260.8956L819.9499999999999,291.7404L831.8333333333334,337.2516L843.7166666666667,309.0528L855.6,316.5372L867.4833333333332,326.1384L879.3666666666667,325.6092L891.25,331.7328L903.1333333333333,259.9128L915.0166666666668,328.86L926.9,333.4716L938.7833333333333,333.774L950.6666666666666,272.0844L962.5500000000001,310.6404L974.4333333333334,299.30039999999997L986.3166666666666,312.4548L998.1999999999999,328.3308L1010.0833333333334,311.6232L1021.9666666666667,318.9564L1033.85,323.0388L1045.7333333333333,318.2004L1057.6166666666668,309.8088L1069.5,327.0456L1081.3833333333332,299.5272L1093.2666666666667,318.8808L1105.15,321.8292L1117.0333333333333,311.472L1128.9166666666665,313.1352L1140.8,330.1452L1152.6833333333334,325.7604L1164.5666666666666,317.2176L1176.45,318.9564L1188.3333333333335,307.314L1200.2166666666667,329.4648L1212.1,323.7948L1223.9833333333333,312.3036L1235.8666666666668,310.6404L1247.75,312.5304L1259.6333333333332,314.42040000000003L1271.5166666666667,307.1628L1283.4,295.7472L1295.2833333333333,287.8848" style="fill: none;" fill="none"></path></g><g><path stroke="rgb(204, 51, 17)" stroke-width="2px" d="M118.83333333333333,82.9332L130.71666666666667,87.4692L142.6,68.418L154.48333333333335,86.18399999999997L166.36666666666667,139.482L178.25,133.66080000000002L190.13333333333333,150.59519999999998L202.01666666666665,142.506L213.9,243.054L225.78333333333333,162.8424L237.66666666666666,102.13560000000001L249.54999999999998,150.67079999999999L261.43333333333334,77.4144L273.31666666666666,115.74360000000001L285.2,100.77479999999997L297.08333333333337,117.78480000000002L308.9666666666667,127.83959999999999L320.85,117.33120000000002L332.73333333333335,132.75359999999998L344.6166666666667,116.19720000000001L356.5,104.78160000000003L368.3833333333334,92.0052L380.26666666666665,133.8876L392.15000000000003,114.98759999999999L404.0333333333333,92.5344L415.9166666666667,132.0732L427.8,123.3792L439.68333333333334,93.21480000000003L451.56666666666666,136.3068L463.45,108.93959999999998L475.3333333333333,93.74399999999997L487.2166666666667,134.1144L499.09999999999997,133.20720000000003L510.98333333333335,151.80479999999997L522.8666666666667,99.4896L534.75,138.5748L546.6333333333333,101.0016L558.5166666666667,119.5992L570.4,135.32399999999998L582.2833333333333,96.9948L594.1666666666667,181.81799999999998L606.05,233.3772L617.9333333333334,202.5324L629.8166666666666,140.91840000000002L641.7,327.1968L653.5833333333333,251.37L665.4666666666667,135.09720000000002L677.35,298.84680000000003L689.2333333333333,217.728L701.1166666666667,207.144L713,175.3164L724.8833333333333,292.3452L736.7666666666668,261.1224L748.65,292.6476L760.5333333333333,236.0232L772.4166666666666,297.3348L784.3000000000001,198.9792L796.1833333333334,219.8448L808.0666666666666,304.28999999999996L819.9499999999999,310.4136L831.8333333333334,313.0596L843.7166666666667,285.9948L855.6,305.046L867.4833333333332,328.3308L879.3666666666667,326.97L891.25,320.0904L903.1333333333333,333.396L915.0166666666668,336.4956L926.9,314.496L938.7833333333333,296.2008L950.6666666666666,295.8984L962.5500000000001,312.98400000000004L974.4333333333334,326.592L986.3166666666666,233.982L998.1999999999999,333.01800000000003L1010.0833333333334,334.3788L1021.9666666666667,335.9664L1033.85,325.9116L1045.7333333333333,324.324L1057.6166666666668,334.7568L1069.5,327.4992L1081.3833333333332,314.2692L1093.2666666666667,244.7172L1105.15,321.4512L1117.0333333333333,293.7816L1128.9166666666665,250.46280000000002L1140.8,321.2244L1152.6833333333334,300.3588L1164.5666666666666,317.5956L1176.45,292.4964L1188.3333333333335,324.6264L1200.2166666666667,323.1144L1212.1,298.1664L1223.9833333333333,291.1356L1235.8666666666668,316.764L1247.75,310.7916L1259.6333333333332,326.8188L1271.5166666666667,310.716L1283.4,301.0392L1295.2833333333333,313.5888" style="fill: none;" fill="none"></path></g><g><path stroke="rgb(255, 112, 67)" stroke-width="2px" d="M118.83333333333333,97.9776L130.71666666666667,95.40719999999999L142.6,110.22480000000002L154.48333333333335,98.43119999999999L166.36666666666667,98.88480000000004L178.25,99.18719999999996L190.13333333333333,87.16680000000002L202.01666666666665,92.83680000000004L213.9,109.77120000000002L225.78333333333333,99.64079999999996L237.66666666666666,101.9844L249.54999999999998,116.95319999999998L261.43333333333334,154.52640000000002L273.31666666666666,151.2756L285.2,125.79839999999999L297.08333333333337,160.72560000000001L308.9666666666667,165.186L320.85,148.6296L332.73333333333335,142.27919999999997L344.6166666666667,154.1484L356.5,160.5744L368.3833333333334,150.74640000000002L380.26666666666665,169.4952L392.15000000000003,177.73559999999998L404.0333333333333,175.01399999999998L415.9166666666667,182.8764L427.8,159.5916L439.68333333333334,197.0136L451.56666666666666,173.4264L463.45,166.24439999999998L475.3333333333333,155.28240000000002L487.2166666666667,169.8732L499.09999999999997,183.2544L510.98333333333335,184.99319999999997L522.8666666666667,163.29600000000002L534.75,179.24759999999998L546.6333333333333,182.0448L558.5166666666667,190.58759999999998L570.4,190.2852L582.2833333333333,187.3368L594.1666666666667,164.2032L606.05,173.124L617.9333333333334,166.69799999999998L629.8166666666666,153.9216L641.7,186.20280000000002L653.5833333333333,171.30960000000002L665.4666666666667,147.9492L677.35,189.5292L689.2333333333333,199.6596" style="fill: none;" fill="none"></path></g></g></g></g></g></g><g transform="translate(70, 378)" clip-path="url(#clip_1)"><clipPath id="clip_1"><rect width="1426" height="22"></rect></clipPath><g><g><line x1="0" y1="0" x2="0" y2="5" style="visibility: inherit;" fill="rgb(0, 0, 0)" stroke="rgb(204, 204, 204)" stroke-width="1px"></line><line x1="118.83333333333333" y1="0" x2="118.83333333333333" y2="5" style="visibility: inherit;" fill="rgb(0, 0, 0)" stroke="rgb(204, 204, 204)" stroke-width="1px"></line><line x1="237.66666666666666" y1="0" x2="237.66666666666666" y2="5" style="visibility: inherit;" fill="rgb(0, 0, 0)" stroke="rgb(204, 204, 204)" stroke-width="1px"></line><line x1="356.5" y1="0" x2="356.5" y2="5" style="visibility: inherit;" fill="rgb(0, 0, 0)" stroke="rgb(204, 204, 204)" stroke-width="1px"></line><line x1="475.3333333333333" y1="0" x2="475.3333333333333" y2="5" style="visibility: inherit;" fill="rgb(0, 0, 0)" stroke="rgb(204, 204, 204)" stroke-width="1px"></line><line x1="594.1666666666667" y1="0" x2="594.1666666666667" y2="5" style="visibility: inherit;" fill="rgb(0, 0, 0)" stroke="rgb(204, 204, 204)" stroke-width="1px"></line><line x1="713" y1="0" x2="713" y2="5" style="visibility: inherit;" fill="rgb(0, 0, 0)" stroke="rgb(204, 204, 204)" stroke-width="1px"></line><line x1="831.8333333333334" y1="0" x2="831.8333333333334" y2="5" style="visibility: inherit;" fill="rgb(0, 0, 0)" stroke="rgb(204, 204, 204)" stroke-width="1px"></line><line x1="950.6666666666666" y1="0" x2="950.6666666666666" y2="5" style="visibility: inherit;" fill="rgb(0, 0, 0)" stroke="rgb(204, 204, 204)" stroke-width="1px"></line><line x1="1069.5" y1="0" x2="1069.5" y2="5" style="visibility: inherit;" fill="rgb(0, 0, 0)" stroke="rgb(204, 204, 204)" stroke-width="1px"></line><line x1="1188.3333333333335" y1="0" x2="1188.3333333333335" y2="5" style="visibility: inherit;" fill="rgb(0, 0, 0)" stroke="rgb(204, 204, 204)" stroke-width="1px"></line><line x1="1307.1666666666665" y1="0" x2="1307.1666666666665" y2="5" style="visibility: inherit;" fill="rgb(0, 0, 0)" stroke="rgb(204, 204, 204)" stroke-width="1px"></line><line x1="1426" y1="0" x2="1426" y2="5" style="visibility: inherit;" fill="rgb(0, 0, 0)" stroke="rgb(204, 204, 204)" stroke-width="1px"></line></g><g transform="translate(0, 8)"><text x="0" y="0" dx="0em" dy="0.95em" style="text-anchor: middle; visibility: hidden; font-family: &quot;Helvetica Neue&quot;, sans-serif; font-size: 12px; font-weight: 200;" fill="rgb(50, 49, 63)" stroke="none" stroke-width="1px">-50</text><text x="118.83333333333333" y="0" dx="0em" dy="0.95em" style="text-anchor: middle; visibility: inherit; font-family: &quot;Helvetica Neue&quot;, sans-serif; font-size: 12px; font-weight: 200;" fill="rgb(50, 49, 63)" stroke="none" stroke-width="1px">0</text><text x="237.66666666666666" y="0" dx="0em" dy="0.95em" style="text-anchor: middle; visibility: inherit; font-family: &quot;Helvetica Neue&quot;, sans-serif; font-size: 12px; font-weight: 200;" fill="rgb(50, 49, 63)" stroke="none" stroke-width="1px">50</text><text x="356.5" y="0" dx="0em" dy="0.95em" style="text-anchor: middle; visibility: inherit; font-family: &quot;Helvetica Neue&quot;, sans-serif; font-size: 12px; font-weight: 200;" fill="rgb(50, 49, 63)" stroke="none" stroke-width="1px">100</text><text x="475.3333333333333" y="0" dx="0em" dy="0.95em" style="text-anchor: middle; visibility: inherit; font-family: &quot;Helvetica Neue&quot;, sans-serif; font-size: 12px; font-weight: 200;" fill="rgb(50, 49, 63)" stroke="none" stroke-width="1px">150</text><text x="594.1666666666667" y="0" dx="0em" dy="0.95em" style="text-anchor: middle; visibility: inherit; font-family: &quot;Helvetica Neue&quot;, sans-serif; font-size: 12px; font-weight: 200;" fill="rgb(50, 49, 63)" stroke="none" stroke-width="1px">200</text><text x="713" y="0" dx="0em" dy="0.95em" style="text-anchor: middle; visibility: inherit; font-family: &quot;Helvetica Neue&quot;, sans-serif; font-size: 12px; font-weight: 200;" fill="rgb(50, 49, 63)" stroke="none" stroke-width="1px">250</text><text x="831.8333333333334" y="0" dx="0em" dy="0.95em" style="text-anchor: middle; visibility: inherit; font-family: &quot;Helvetica Neue&quot;, sans-serif; font-size: 12px; font-weight: 200;" fill="rgb(50, 49, 63)" stroke="none" stroke-width="1px">300</text><text x="950.6666666666666" y="0" dx="0em" dy="0.95em" style="text-anchor: middle; visibility: inherit; font-family: &quot;Helvetica Neue&quot;, sans-serif; font-size: 12px; font-weight: 200;" fill="rgb(50, 49, 63)" stroke="none" stroke-width="1px">350</text><text x="1069.5" y="0" dx="0em" dy="0.95em" style="text-anchor: middle; visibility: inherit; font-family: &quot;Helvetica Neue&quot;, sans-serif; font-size: 12px; font-weight: 200;" fill="rgb(50, 49, 63)" stroke="none" stroke-width="1px">400</text><text x="1188.3333333333335" y="0" dx="0em" dy="0.95em" style="text-anchor: middle; visibility: inherit; font-family: &quot;Helvetica Neue&quot;, sans-serif; font-size: 12px; font-weight: 200;" fill="rgb(50, 49, 63)" stroke="none" stroke-width="1px">450</text><text x="1307.1666666666665" y="0" dx="0em" dy="0.95em" style="text-anchor: middle; visibility: inherit; font-family: &quot;Helvetica Neue&quot;, sans-serif; font-size: 12px; font-weight: 200;" fill="rgb(50, 49, 63)" stroke="none" stroke-width="1px">500</text><text x="1426" y="0" dx="0em" dy="0.95em" style="text-anchor: middle; visibility: hidden; font-family: &quot;Helvetica Neue&quot;, sans-serif; font-size: 12px; font-weight: 200;" fill="rgb(50, 49, 63)" stroke="none" stroke-width="1px">550</text></g><line x1="0" y1="0" x2="1426" y2="0" fill="rgb(0, 0, 0)" stroke="rgb(204, 204, 204)" stroke-width="1px"></line></g></g></g></g></svg>