<svg viewBox="0 0 1496 400" xmlns="http://www.w3.org/2000/svg"><g><g><g><g><g><line x1="70" y1="378" x2="65" y2="378" style="visibility: inherit;" fill="rgb(0, 0, 0)" stroke="rgb(204, 204, 204)" stroke-width="1px"></line><line x1="70" y1="352.8" x2="65" y2="352.8" style="visibility: inherit;" fill="rgb(0, 0, 0)" stroke="rgb(204, 204, 204)" stroke-width="1px"></line><line x1="70" y1="327.6" x2="65" y2="327.6" style="visibility: inherit;" fill="rgb(0, 0, 0)" stroke="rgb(204, 204, 204)" stroke-width="1px"></line><line x1="70" y1="302.4" x2="65" y2="302.4" style="visibility: inherit;" fill="rgb(0, 0, 0)" stroke="rgb(204, 204, 204)" stroke-width="1px"></line><line x1="70" y1="277.2" x2="65" y2="277.2" style="visibility: inherit;" fill="rgb(0, 0, 0)" stroke="rgb(204, 204, 204)" stroke-width="1px"></line><line x1="70" y1="252" x2="65" y2="252" style="visibility: inherit;" fill="rgb(0, 0, 0)" stroke="rgb(204, 204, 204)" stroke-width="1px"></line><line x1="70" y1="226.79999999999998" x2="65" y2="226.79999999999998" style="visibility: inherit;" fill="rgb(0, 0, 0)" stroke="rgb(204, 204, 204)" stroke-width="1px"></line><line x1="70" y1="201.6" x2="65" y2="201.6" style="visibility: inherit;" fill="rgb(0, 0, 0)" stroke="rgb(204, 204, 204)" stroke-width="1px"></line><line x1="70" y1="176.4" x2="65" y2="176.4" style="visibility: inherit;" fill="rgb(0, 0, 0)" stroke="rgb(204, 204, 204)" stroke-width="1px"></line><line x1="70" y1="151.20000000000002" x2="65" y2="151.20000000000002" style="visibility: inherit;" fill="rgb(0, 0, 0)" stroke="rgb(204, 204, 204)" stroke-width="1px"></line><line x1="70" y1="126" x2="65" y2="126" style="visibility: inherit;" fill="rgb(0, 0, 0)" stroke="rgb(204, 204, 204)" stroke-width="1px"></line><line x1="70" y1="100.80000000000001" x2="65" y2="100.80000000000001" style="visibility: inherit;" fill="rgb(0, 0, 0)" stroke="rgb(204, 204, 204)" stroke-width="1px"></line><line x1="70" y1="75.59999999999997" x2="65" y2="75.59999999999997" style="visibility: inherit;" fill="rgb(0, 0, 0)" stroke="rgb(204, 204, 204)" stroke-width="1px"></line><line x1="70" y1="50.39999999999998" x2="65" y2="50.39999999999998" style="visibility: inherit;" fill="rgb(0, 0, 0)" stroke="rgb(204, 204, 204)" stroke-width="1px"></line><line x1="70" y1="25.19999999999999" x2="65" y2="25.19999999999999" style="visibility: inherit;" fill="rgb(0, 0, 0)" stroke="rgb(204, 204, 204)" stroke-width="1px"></line><line x1="70" y1="0" x2="65" y2="0" style="visibility: inherit;" fill="rgb(0, 0, 0)" stroke="rgb(204, 204, 204)" stroke-width="1px"></line></g><g transform="translate(60, 0)"><text x="0" y="378" dx="0em" dy="0.3em" style="text-anchor: end; visibility: hidden; font-family: &quot;Helvetica Neue&quot;, sans-serif; font-size: 12px; font-weight: 200;" fill="rgb(50, 49, 63)" stroke="none" stroke-width="1px">-400</text><text x="0" y="352.8" dx="0em" dy="0.3em" style="text-anchor: end; visibility: inherit; font-family: &quot;Helvetica Neue&quot;, sans-serif; font-size: 12px; font-weight: 200;" fill="rgb(50, 49, 63)" stroke="none" stroke-width="1px">-200</text><text x="0" y="327.6" dx="0em" dy="0.3em" style="text-anchor: end; visibility: inherit; font-family: &quot;Helvetica Neue&quot;, sans-serif; font-size: 12px; font-weight: 200;" fill="rgb(50, 49, 63)" stroke="none" stroke-width="1px">0</text><text x="0" y="302.4" dx="0em" dy="0.3em" style="text-anchor: end; visibility: inherit; font-family: &quot;Helvetica Neue&quot;, sans-serif; font-size: 12px; font-weight: 200;" fill="rgb(50, 49, 63)" stroke="none" stroke-width="1px">200</text><text x="0" y="277.2" dx="0em" dy="0.3em" style="text-anchor: end; visibility: inherit; font-family: &quot;Helvetica Neue&quot;, sans-serif; font-size: 12px; font-weight: 200;" fill="rgb(50, 49, 63)" stroke="none" stroke-width="1px">400</text><text x="0" y="252" dx="0em" dy="0.3em" style="text-anchor: end; visibility: inherit; font-family: &quot;Helvetica Neue&quot;, sans-serif; font-size: 12px; font-weight: 200;" fill="rgb(50, 49, 63)" stroke="none" stroke-width="1px">600</text><text x="0" y="226.79999999999998" dx="0em" dy="0.3em" style="text-anchor: end; visibility: inherit; font-family: &quot;Helvetica Neue&quot;, sans-serif; font-size: 12px; font-weight: 200;" fill="rgb(50, 49, 63)" stroke="none" stroke-width="1px">800</text><text x="0" y="201.6" dx="0em" dy="0.3em" style="text-anchor: end; visibility: inherit; font-family: &quot;Helvetica Neue&quot;, sans-serif; font-size: 12px; font-weight: 200;" fill="rgb(50, 49, 63)" stroke="none" stroke-width="1px">1e+3</text><text x="0" y="176.4" dx="0em" dy="0.3em" style="text-anchor: end; visibility: inherit; font-family: &quot;Helvetica Neue&quot;, sans-serif; font-size: 12px; font-weight: 200;" fill="rgb(50, 49, 63)" stroke="none" stroke-width="1px">1.2e+3</text><text x="0" y="151.20000000000002" dx="0em" dy="0.3em" style="text-anchor: end; visibility: inherit; font-family: &quot;Helvetica Neue&quot;, sans-serif; font-size: 12px; font-weight: 200;" fill="rgb(50, 49, 63)" stroke="none" stroke-width="1px">1.4e+3</text><text x="0" y="126" dx="0em" dy="0.3em" style="text-anchor: end; visibility: inherit; font-family: &quot;Helvetica Neue&quot;, sans-serif; font-size: 12px; font-weight: 200;" fill="rgb(50, 49, 63)" stroke="none" stroke-width="1px">1.6e+3</text><text x="0" y="100.80000000000001" dx="0em" dy="0.3em" style="text-anchor: end; visibility: inherit; font-family: &quot;Helvetica Neue&quot;, sans-serif; font-size: 12px; font-weight: 200;" fill="rgb(50, 49, 63)" stroke="none" stroke-width="1px">1.8e+3</text><text x="0" y="75.59999999999997" dx="0em" dy="0.3em" style="text-anchor: end; visibility: inherit; font-family: &quot;Helvetica Neue&quot;, sans-serif; font-size: 12px; font-weight: 200;" fill="rgb(50, 49, 63)" stroke="none" stroke-width="1px">2e+3</text><text x="0" y="50.39999999999998" dx="0em" dy="0.3em" style="text-anchor: end; visibility: inherit; font-family: &quot;Helvetica Neue&quot;, sans-serif; font-size: 12px; font-weight: 200;" fill="rgb(50, 49, 63)" stroke="none" stroke-width="1px">2.2e+3</text><text x="0" y="25.19999999999999" dx="0em" dy="0.3em" style="text-anchor: end; visibility: inherit; font-family: &quot;Helvetica Neue&quot;, sans-serif; font-size: 12px; font-weight: 200;" fill="rgb(50, 49, 63)" stroke="none" stroke-width="1px">2.4e+3</text><text x="0" y="0" dx="0em" dy="0.3em" style="text-anchor: end; visibility: hidden; font-family: &quot;Helvetica Neue&quot;, sans-serif; font-size: 12px; font-weight: 200;" fill="rgb(50, 49, 63)" stroke="none" stroke-width="1px">2.6e+3</text></g><line x1="70" y1="0" x2="70" y2="378" fill="rgb(0, 0, 0)" stroke="rgb(204, 204, 204)" stroke-width="1px"></line></g></g><g transform="translate(70, 0)" clip-path="url(#clip_0)"><clipPath id="clip_0"><rect width="1426" height="378"></rect></clipPath><g><g><g><line x1="0" y1="0" x2="0" y2="378" fill="rgb(0, 0, 0)" stroke="rgb(60, 60, 60)" stroke-width="1px" opacity="0.25"></line><line x1="118.83333333333333" y1="0" x2="118.83333333333333" y2="378" fill="rgb(0, 0, 0)" stroke="rgb(60, 60, 60)" stroke-width="1px" opacity="0.25"></line><line x1="237.66666666666666" y1="0" x2="237.66666666666666" y2="378" fill="rgb(0, 0, 0)" stroke="rgb(60, 60, 60)" stroke-width="1px" opacity="0.25"></line><line x1="356.5" y1="0" x2="356.5" y2="378" fill="rgb(0, 0, 0)" stroke="rgb(60, 60, 60)" stroke-width="1px" opacity="0.25"></line><line x1="475.3333333333333" y1="0" x2="475.3333333333333" y2="378" fill="rgb(0, 0, 0)" stroke="rgb(60, 60, 60)" stroke-width="1px" opacity="0.25"></line><line x1="594.1666666666667" y1="0" x2="594.1666666666667" y2="378" fill="rgb(0, 0, 0)" stroke="rgb(60, 60, 60)" stroke-width="1px" opacity="0.25"></line><line x1="713" y1="0" x2="713" y2="378" fill="rgb(0, 0, 0)" stroke="rgb(60, 60, 60)" stroke-width="1px" opacity="0.25"></line><line x1="831.8333333333334" y1="0" x2="831.8333333333334" y2="378" fill="rgb(0, 0, 0)" stroke="rgb(60, 60, 60)" stroke-width="1px" opacity="0.25"></line><line x1="950.6666666666666" y1="0" x2="950.6666666666666" y2="378" fill="rgb(0, 0, 0)" stroke="rgb(60, 60, 60)" stroke-width="1px" opacity="0.25"></line><line x1="1069.5" y1="0" x2="1069.5" y2="378" fill="rgb(0, 0, 0)" stroke="rgb(60, 60, 60)" stroke-width="1px" opacity="0.25"></line><line x1="1188.3333333333335" y1="0" x2="1188.3333333333335" y2="378" fill="rgb(0, 0, 0)" stroke="rgb(60, 60, 60)" stroke-width="1px" opacity="0.25"></line><line x1="1307.1666666666665" y1="0" x2="1307.1666666666665" y2="378" fill="rgb(0, 0, 0)" stroke="rgb(60, 60, 60)" stroke-width="1px" opacity="0.25"></line><line x1="1426" y1="0" x2="1426" y2="378" fill="rgb(0, 0, 0)" stroke="rgb(60, 60, 60)" stroke-width="1px" opacity="0.25"></line></g><g><line x1="0" y1="378" x2="1426" y2="378" fill="rgb(0, 0, 0)" stroke="rgb(60, 60, 60)" stroke-width="1px" opacity="0.25"></line><line x1="0" y1="352.8" x2="1426" y2="352.8" fill="rgb(0, 0, 0)" stroke="rgb(60, 60, 60)" stroke-width="1px" opacity="0.25"></line><line x1="0" y1="327.6" x2="1426" y2="327.6" fill="rgb(0, 0, 0)" stroke="rgb(60, 60, 60)" stroke-width="1px" opacity="0.25"></line><line x1="0" y1="302.4" x2="1426" y2="302.4" fill="rgb(0, 0, 0)" stroke="rgb(60, 60, 60)" stroke-width="1px" opacity="0.25"></line><line x1="0" y1="277.2" x2="1426" y2="277.2" fill="rgb(0, 0, 0)" stroke="rgb(60, 60, 60)" stroke-width="1px" opacity="0.25"></line><line x1="0" y1="252" x2="1426" y2="252" fill="rgb(0, 0, 0)" stroke="rgb(60, 60, 60)" stroke-width="1px" opacity="0.25"></line><line x1="0" y1="226.79999999999998" x2="1426" y2="226.79999999999998" fill="rgb(0, 0, 0)" stroke="rgb(60, 60, 60)" stroke-width="1px" opacity="0.25"></line><line x1="0" y1="201.6" x2="1426" y2="201.6" fill="rgb(0, 0, 0)" stroke="rgb(60, 60, 60)" stroke-width="1px" opacity="0.25"></line><line x1="0" y1="176.4" x2="1426" y2="176.4" fill="rgb(0, 0, 0)" stroke="rgb(60, 60, 60)" stroke-width="1px" opacity="0.25"></line><line x1="0" y1="151.20000000000002" x2="1426" y2="151.20000000000002" fill="rgb(0, 0, 0)" stroke="rgb(60, 60, 60)" stroke-width="1px" opacity="0.25"></line><line x1="0" y1="126" x2="1426" y2="126" fill="rgb(0, 0, 0)" stroke="rgb(60, 60, 60)" stroke-width="1px" opacity="0.25"></line><line x1="0" y1="100.80000000000001" x2="1426" y2="100.80000000000001" fill="rgb(0, 0, 0)" stroke="rgb(60, 60, 60)" stroke-width="1px" opacity="0.25"></line><line x1="0" y1="75.59999999999997" x2="1426" y2="75.59999999999997" fill="rgb(0, 0, 0)" stroke="rgb(60, 60, 60)" stroke-width="1px" opacity="0.25"></line><line x1="0" y1="50.39999999999998" x2="1426" y2="50.39999999999998" fill="rgb(0, 0, 0)" stroke="rgb(60, 60, 60)" stroke-width="1px" opacity="0.25"></line><line x1="0" y1="25.19999999999999" x2="1426" y2="25.19999999999999" fill="rgb(0, 0, 0)" stroke="rgb(60, 60, 60)" stroke-width="1px" opacity="0.25"></line><line x1="0" y1="0" x2="1426" y2="0" fill="rgb(0, 0, 0)" stroke="rgb(60, 60, 60)" stroke-width="1px" opacity="0.25"></line></g></g></g><g><g><line x1="0" y1="327.6" x2="1426" y2="327.6" fill="rgb(0, 0, 0)" stroke="rgb(153, 153, 153)" stroke-width="1.5px"></line></g></g><g><g><line x1="118.83333333333333" y1="0" x2="118.83333333333333" y2="378" fill="rgb(0, 0, 0)" stroke="rgb(153, 153, 153)" stroke-width="1.5px"></line></g></g><g><g><g><g><g><path stroke="rgb(51, 187, 238)" stroke-width="2px" d="M118.83333333333333,217.476L130.71666666666667,229.761L142.6,259.6217142857143L154.48333333333335,288.3139411764706L166.36666666666667,289.06778348369187L178.25,302.1687067669173L190.13333333333333,305.21942463588715L202.01666666666665,294.5891062531245L213.9,279.11108091786565L225.78333333333333,289.54815756204863L237.66666666666666,282.365235106024L249.54999999999998,277.1125070178963L261.43333333333334,292.4387213102674L273.31666666666666,287.6498800507376L285.2,272.62686443407654L297.08333333333337,253.58514678261378L308.9666666666667,261.7724739105488L320.85,263.55886577220934L332.73333333333335,244.1669377973067L344.6166666666667,236.16146998579694L356.5,234.180838542464L368.3833333333334,232.43808018699596L380.26666666666665,245.20214891390603L392.15000000000003,228.36600957229513L404.0333333333333,240.642040644487L415.9166666666667,245.84043325420018L427.8,234.3434481854666L439.68333333333334,250.42767878851305L451.56666666666666,261.5398113674457L463.45,265.4854876927535L475.3333333333333,244.82008987450382L487.2166666666667,268.0032557697719L499.09999999999997,261.652353158595L510.98333333333335,259.45461183218913L522.8666666666667,261.5127671346946L534.75,255.5908602197357L546.6333333333333,257.53131614385023L558.5166666666667,263.7355897093478L570.4,249.76775379448952L582.2833333333333,228.03105224763718L594.1666666666667,235.7538313547764L606.05,239.9338988148774L617.9333333333334,253.1267392927357L629.8166666666666,235.18724357253353L641.7,238.63634614387865L653.5833333333333,230.67620768583075L665.4666666666667,219.34812461107455L677.35,217.2888747665985L689.2333333333333,229.76212486012713L701.1166666666667,228.47647491606588L713,213.49228494956688L724.8833333333333,216.24497096974812L736.7666666666668,201.86938258182377L748.65,212.79922954910575L760.5333333333333,218.60113772946707L772.4166666666666,227.4750826376836L784.3000000000001,223.07224958260915L796.1833333333334,229.0993497495663L808.0666666666666,205.24760984973784L819.9499999999999,219.26136590984342L831.8333333333334,209.47521954590576L843.7166666666667,195.74113172754318L855.6,196.92547903652593L867.4833333333332,209.73208742191565L879.3666666666667,216.5592524531494L891.25,233.15475147188968L903.1333333333333,231.6208508831338L915.0166666666668,215.5301105298803L926.9,218.7780663179282L938.7833333333333,183.58203979075688L950.6666666666666,195.32522387445414L962.5500000000001,193.09753432467247L974.4333333333334,181.32812059480347L986.3166666666666,197.1480723568821L998.1999999999999,178.21444341412925L1010.0833333333334,173.30546604847757L1021.9666666666667,168.04167962908653L1033.85,155.81140777745188L1045.7333333333333,161.1236446664711L1057.6166666666668,147.5277867998827L1069.5,172.0798720799296L1081.3833333333332,162.82072324795777L1093.2666666666667,169.00843394877467L1105.15,162.6410603692648L1117.0333333333333,163.86063622155888L1128.9166666666665,153.20198173293534L1140.8,158.2475890397612L1152.6833333333334,173.32055342385672L1164.5666666666666,167.29473205431404L1176.45,156.1696392325884L1188.3333333333335,173.18258353955304L1200.2166666666667,190.29515012373184L1212.1,165.9378900742391L1223.9833333333333,171.83633404454346L1235.8666666666668,177.24020042672606L1247.75,181.59132025603563L1259.6333333333332,184.45399215362136L1271.5166666666667,171.10199529217286L1283.4,174.02759717530367L1295.2833333333333,151.3389583051822" style="fill: none;" fill="none"></path></g><g><path stroke="rgb(0, 119, 187)" stroke-width="2px" d="M118.83333333333333,302.274L130.71666666666667,298.494L142.6,288.46542857142856L154.48333333333335,301.2965735294118L166.36666666666667,262.75538098542677L178.25,261.6261428571429L190.13333333333333,222.04280560457218L202.01666666666665,228.54041830528246L213.9,202.02422888713497L225.78333333333333,174.26911275860817L237.66666666666666,190.35020940035366L249.54999999999998,180.66664663182812L261.43333333333334,194.50125694030385L273.31666666666666,181.65628831188823L285.2,193.8226934481443L297.08333333333337,189.62443169310347L308.9666666666667,210.9494686322412L320.85,182.35957759124943L332.73333333333335,216.2154095928483L344.6166666666667,251.49693570420368L356.5,251.09335256913891L368.3833333333334,237.9990391918996L380.26666666666665,216.9376571870407L392.15000000000003,237.86749348577015L404.0333333333333,225.1748600059395L415.9166666666667,217.861703528655L427.8,216.19542041176828L439.68333333333334,220.89085513050028L451.56666666666666,207.2777080624472L463.45,216.39702685351187L475.3333333333333,204.3294145114065L487.2166666666667,186.10164725615766L499.09999999999997,194.92178877487368L510.98333333333335,204.29627353351424L522.8666666666667,197.67376400626293L534.75,187.95465830351077L546.6333333333333,186.1047949706583L558.5166666666667,198.14927702711847L570.4,190.91116620014517L582.2833333333333,185.20749971246272L594.1666666666667,185.56529982776462L606.05,183.9151798958647L617.9333333333334,164.3275079318631L629.8166666666666,173.28930476067043L641.7,160.52238285507516L653.5833333333333,140.46382971179415L665.4666666666667,120.2638978263206L677.35,115.40153869568314L689.2333333333333,130.17452321760894L701.1166666666667,110.91511393040969L713,110.0442683582416L724.8833333333333,108.81616101494137L736.7666666666668,103.59369660895572L748.65,107.96981796537801L760.5333333333333,122.13709077923573L772.4166666666666,99.33905446753283L784.3000000000001,83.14023268051602L796.1833333333334,78.56173960830898L808.0666666666666,95.11784376498673L819.9499999999999,89.1251062589917L831.8333333333334,82.75746375539484L843.7166666666667,74.5520782532368L855.6,71.39284695194203L867.4833333333332,76.4021081711652L879.3666666666667,68.06766490269916L891.25,66.84699894161946L903.1333333333333,71.7089993649717L915.0166666666668,70.34219961898305L926.9,64.28051977138978L938.7833333333333,66.69151186283386L950.6666666666666,70.70850711770026L962.5500000000001,70.64910427062023L974.4333333333334,71.92386256237205L986.3166666666666,70.3199175374233L998.1999999999999,70.163950522454L1010.0833333333334,78.28557031347242L1021.9666666666667,74.8929421880834L1033.85,69.43016531285008L1045.7333333333333,72.09969918771003L1057.6166666666668,68.30861951262597L1069.5,68.95717170757558L1081.3833333333332,71.21110302454537L1093.2666666666667,71.30346181472726L1105.15,75.84447708883636L1117.0333333333333,73.73068625330177L1128.9166666666665,69.79121175198105L1140.8,68.58672705118863L1152.6833333333334,70.43443623071323L1164.5666666666666,72.60146173842793L1176.45,70.67607704305675L1188.3333333333335,78.79444622583401L1200.2166666666667,69.30146773550047L1212.1,76.20568064130026L1223.9833333333333,75.4594083847802L1235.8666666666668,79.5980450308681L1247.75,84.5508270185208L1259.6333333333332,81.72649621111253L1271.5166666666667,80.13269772666752L1283.4,87.9964186360005L1295.2833333333333,103.60105118160027" style="fill: none;" fill="none"></path></g><g><path stroke="rgb(204, 51, 17)" stroke-width="2px" d="M118.83333333333333,296.73L130.71666666666667,291.92625L142.6,306.8485714285714L154.48333333333335,299.6506985294118L166.36666666666667,256.1944621790424L178.25,236.56567669172932L190.13333333333333,213.1544412547078L202.01666666666665,208.45371052741208L213.9,193.6688287727276L225.78333333333333,189.9137919921505L237.66666666666666,219.4418019460986L249.54999999999998,205.77372874735298L261.43333333333334,245.63549948746905L273.31666666666666,243.84549697197286L285.2,252.90755902869208L297.08333333333337,246.6459689538356L308.9666666666667,240.77298727269292L320.85,240.02211610517256L332.73333333333335,238.21075928631151L344.6166666666667,243.9786664556117L356.5,250.00973217655803L368.3833333333334,266.5308567597915L380.26666666666665,244.0863368047174L392.15000000000003,242.8669963051302L404.0333333333333,257.8098402660139L415.9166666666667,248.83308884691064L427.8,240.47344475213114L439.68333333333334,256.071276429817L451.56666666666666,236.14755851686618L463.45,242.08533642280753L475.3333333333333,260.76800433183485L487.2166666666667,240.42720098024535L499.09999999999997,245.20752081641686L510.98333333333335,225.09331191355432L522.8666666666667,242.5087874475169L534.75,227.10287230960702L546.6333333333333,243.16012348513698L558.5166666666667,239.48887407745013L570.4,230.38132442617925L582.2833333333333,247.04239467797922L594.1666666666667,229.47023679269378L606.05,194.8357420589491L617.9333333333334,183.73184523216332L629.8166666666666,196.42310714149667L641.7,194.05866428465222L653.5833333333333,173.2359985694927L665.4666666666667,187.45439914222763L677.35,168.81983948491822L689.2333333333333,163.78790369088316L701.1166666666667,145.90074221438533L713,164.09804532871945L724.8833333333333,154.90682719720488L736.7666666666668,136.84249631829138L748.65,118.69589779095583L760.5333333333333,125.80073867457799L772.4166666666666,121.79804320474528L784.3000000000001,134.26442592284997L796.1833333333334,130.7570555537095L808.0666666666666,109.90383333222405L819.9499999999999,104.2462999993341L831.8333333333334,92.93897999960018L843.7166666666667,91.74898799976006L855.6,96.27659279985613L867.4833333333332,97.98515567991365L879.3666666666667,85.45269340794817L891.25,77.37881604476888L903.1333333333333,73.79448962686132L915.0166666666668,73.6598937761168L926.9,78.77033626567004L938.7833333333333,78.661401759402L950.6666666666666,84.49284105564118L962.5500000000001,93.18290463338474L974.4333333333334,73.14654278003087L986.3166666666666,84.40952566801849L998.1999999999999,77.15611540081107L1010.0833333333334,71.34246924048671L1021.9666666666667,69.41668154429203L1033.85,76.67800892657516L1045.7333333333333,69.03960535594513L1057.6166666666668,71.36136321356702L1069.5,77.64321792814025L1081.3833333333332,79.44673075688411L1093.2666666666667,119.38723845413045L1105.15,95.9251430724783L1117.0333333333333,115.81748584348696L1128.9166666666665,115.75769150609221L1140.8,111.6898149036553L1152.6833333333334,111.01308894219318L1164.5666666666666,98.05745336531595L1176.45,100.01127201918956L1188.3333333333335,104.15716321151376L1200.2166666666667,112.69269792690824L1212.1,110.80841875614493L1223.9833333333333,118.901051253687L1235.8666666666668,112.31583075221215L1247.75,115.31989845132733L1259.6333333333332,99.78473907079638L1271.5166666666667,102.81164344247787L1283.4,117.02618606548668L1295.2833333333333,112.047711639292" style="fill: none;" fill="none"></path></g><g><path stroke="rgb(255, 112, 67)" stroke-width="2px" d="M118.83333333333333,271.278L130.71666666666667,273.71925L142.6,261.5451428571428L154.48333333333335,265.55472794117645L166.36666666666667,269.89514781401806L178.25,269.735227443609L190.13333333333333,277.784875082304L202.01666666666665,278.777192165889L213.9,267.3972315156079L225.78333333333333,267.79273033951415L237.66666666666666,266.5615715960324L249.54999999999998,255.31967178869576L261.43333333333334,222.70120108670662L273.31666666666666,206.03245833109824L285.2,213.3349085010795L297.08333333333337,193.26328267439985L308.9666666666667,178.60268805571621L320.85,181.1490714440163L332.73333333333335,186.86019087903523L344.6166666666667,183.88560577187667L356.5,176.60720379718114L368.3833333333334,178.84275170297113L380.26666666666665,166.62635454520216L392.15000000000003,153.90375244258092L404.0333333333333,148.1854352082079L415.9166666666667,139.36164607315277L427.8,149.74179826787744L439.68333333333334,131.72746789823026L451.56666666666666,135.8372822532261L463.45,143.69597108928684L475.3333333333333,156.0215842884951L487.2166666666667,153.13535034339148L499.09999999999997,142.8860097166087L510.98333333333335,134.92200560178713L522.8666666666667,146.37240355791272L534.75,142.104242090724L546.6333333333333,136.82174522174287L558.5166666666667,127.3522470978836L570.4,123.58574825033875L582.2833333333333,122.68664894900138L594.1666666666667,138.5775893821462L606.05,143.7273536317659L617.9333333333334,152.36121218155247L629.8166666666666,163.5895273108767L641.7,148.70491638497882L653.5833333333333,150.4589498310967L665.4666666666667,167.08496989928017L677.35,151.55818193921945L689.2333333333333,145.6693091634524" style="fill: none;" fill="none"></path></g></g></g></g><g opacity="0.2"><g><g><g><path stroke="rgb(51, 187, 238)" stroke-width="2px" d="M118.83333333333333,217.476L130.71666666666667,237.132L142.6,288.288L154.48333333333335,322.056L166.36666666666667,290.052L178.25,320.292L190.13333333333333,309.582L202.01666666666665,279.09000000000003L213.9,256.284L225.78333333333333,305.046L237.66666666666666,271.656L249.54999999999998,269.262L261.43333333333334,315.378L273.31666666666666,280.476L285.2,250.11L297.08333333333337,225.036L308.9666666666667,274.05L320.85,266.238L332.73333333333335,215.082L344.6166666666667,224.154L356.5,231.21L368.3833333333334,229.82399999999998L380.26666666666665,264.34799999999996L392.15000000000003,203.112L404.0333333333333,259.05600000000004L415.9166666666667,253.63799999999998L427.8,217.09799999999998L439.68333333333334,274.554L451.56666666666666,278.20799999999997L463.45,271.404L475.3333333333333,213.822L487.2166666666667,302.778L499.09999999999997,252.12599999999998L510.98333333333335,256.158L522.8666666666667,264.6L534.75,246.708L546.6333333333333,260.442L558.5166666666667,273.04200000000003L570.4,228.816L582.2833333333333,195.42600000000002L594.1666666666667,247.338L606.05,246.204L617.9333333333334,272.916L629.8166666666666,208.278L641.7,243.81L653.5833333333333,218.736L665.4666666666667,202.356L677.35,214.2L689.2333333333333,248.472L701.1166666666667,226.548L713,191.01600000000002L724.8833333333333,220.374L736.7666666666668,180.30599999999998L748.65,229.194L760.5333333333333,227.304L772.4166666666666,240.786L784.3000000000001,216.468L796.1833333333334,238.14000000000001L808.0666666666666,169.47L819.9499999999999,240.282L831.8333333333334,194.796L843.7166666666667,175.14000000000001L855.6,198.702L867.4833333333332,228.942L879.3666666666667,226.79999999999998L891.25,258.048L903.1333333333333,229.32000000000002L915.0166666666668,191.394L926.9,223.65L938.7833333333333,130.78799999999998L950.6666666666666,212.94L962.5500000000001,189.756L974.4333333333334,163.674L986.3166666666666,220.878L998.1999999999999,149.814L1010.0833333333334,165.94199999999998L1021.9666666666667,160.146L1033.85,137.466L1045.7333333333333,169.092L1057.6166666666668,127.13400000000001L1069.5,208.908L1081.3833333333332,148.93200000000002L1093.2666666666667,178.29L1105.15,153.09L1117.0333333333333,165.69L1128.9166666666665,137.214L1140.8,165.816L1152.6833333333334,195.92999999999998L1164.5666666666666,158.256L1176.45,139.482L1188.3333333333335,198.702L1200.2166666666667,215.964L1212.1,129.40200000000002L1223.9833333333333,180.684L1235.8666666666668,185.34599999999998L1247.75,188.11800000000002L1259.6333333333332,188.748L1271.5166666666667,151.07399999999998L1283.4,178.416L1295.2833333333333,117.30599999999998" style="fill: none;" fill="none"></path></g><g><path stroke="rgb(0, 119, 187)" stroke-width="2px" d="M118.83333333333333,302.274L130.71666666666667,296.226L142.6,278.838L154.48333333333335,316.38599999999997L166.36666666666667,212.436L178.25,260.064L190.13333333333333,165.438L202.01666666666665,238.01399999999998L213.9,162.918L225.78333333333333,133.05599999999998L237.66666666666666,214.326L249.54999999999998,166.194L261.43333333333334,215.208L273.31666666666666,162.414L285.2,212.058L297.08333333333337,183.32999999999998L308.9666666666667,242.928L320.85,139.482L332.73333333333335,266.99399999999997L344.6166666666667,304.416L356.5,250.488L368.3833333333334,218.358L380.26666666666665,185.34599999999998L392.15000000000003,269.262L404.0333333333333,206.136L415.9166666666667,206.892L427.8,213.696L439.68333333333334,227.934L451.56666666666666,186.85799999999998L463.45,230.07600000000002L475.3333333333333,186.228L487.2166666666667,158.76000000000002L499.09999999999997,208.15200000000002L510.98333333333335,218.358L522.8666666666667,187.74L534.75,173.376L546.6333333333333,183.32999999999998L558.5166666666667,216.216L570.4,180.05400000000003L582.2833333333333,176.65200000000002L594.1666666666667,186.10199999999998L606.05,181.44L617.9333333333334,134.946L629.8166666666666,186.732L641.7,141.37199999999999L653.5833333333333,110.37600000000003L665.4666666666667,89.964L677.35,108.108L689.2333333333333,152.334L701.1166666666667,82.02600000000001L713,108.738L724.8833333333333,106.97399999999999L736.7666666666668,95.75999999999999L748.65,114.53399999999999L760.5333333333333,143.38799999999998L772.4166666666666,65.142L784.3000000000001,58.841999999999985L796.1833333333334,71.69400000000002L808.0666666666666,119.952L819.9499999999999,80.13599999999997L831.8333333333334,73.20600000000002L843.7166666666667,62.24399999999997L855.6,66.654L867.4833333333332,83.916L879.3666666666667,55.56600000000003L891.25,65.01600000000002L903.1333333333333,79.00200000000001L915.0166666666668,68.29199999999997L926.9,55.18799999999999L938.7833333333333,70.30799999999999L950.6666666666666,76.73399999999998L962.5500000000001,70.56L974.4333333333334,73.83600000000001L986.3166666666666,67.91399999999999L998.1999999999999,69.93L1010.0833333333334,90.46799999999996L1021.9666666666667,69.80399999999997L1033.85,61.23599999999999L1045.7333333333333,76.10399999999998L1057.6166666666668,62.62199999999996L1069.5,69.93L1081.3833333333332,74.59199999999998L1093.2666666666667,71.44200000000001L1105.15,82.656L1117.0333333333333,70.56L1128.9166666666665,63.882000000000005L1140.8,66.77999999999997L1152.6833333333334,73.20600000000002L1164.5666666666666,75.85199999999998L1176.45,67.78800000000001L1188.3333333333335,90.97200000000004L1200.2166666666667,55.06200000000001L1212.1,86.56200000000001L1223.9833333333333,74.33999999999997L1235.8666666666668,85.80599999999998L1247.75,91.97999999999996L1259.6333333333332,77.49000000000001L1271.5166666666667,77.74200000000002L1283.4,99.79200000000003L1295.2833333333333,127.00799999999998" style="fill: none;" fill="none"></path></g><g><path stroke="rgb(204, 51, 17)" stroke-width="2px" d="M118.83333333333333,296.73L130.71666666666667,289.044L142.6,321.174L154.48333333333335,291.18600000000004L166.36666666666667,199.458L178.25,209.412L190.13333333333333,179.67600000000002L202.01666666666665,201.6L213.9,171.864L225.78333333333333,184.33800000000002L237.66666666666666,263.466L249.54999999999998,185.34599999999998L261.43333333333334,305.298L273.31666666666666,241.16400000000002L285.2,266.49L297.08333333333337,237.25799999999998L308.9666666666667,231.966L320.85,238.89600000000002L332.73333333333335,235.494L344.6166666666667,252.63L356.5,259.05600000000004L368.3833333333334,291.312L380.26666666666665,210.42L392.15000000000003,241.038L404.0333333333333,280.224L415.9166666666667,235.368L427.8,227.934L439.68333333333334,279.468L451.56666666666666,206.262L463.45,250.992L475.3333333333333,288.79200000000003L487.2166666666667,209.916L499.09999999999997,252.37800000000001L510.98333333333335,194.922L522.8666666666667,268.632L534.75,203.994L546.6333333333333,267.246L558.5166666666667,233.982L570.4,216.72L582.2833333333333,272.034L594.1666666666667,203.112L606.05,142.88400000000001L617.9333333333334,167.076L629.8166666666666,215.46L641.7,190.512L653.5833333333333,142.002L665.4666666666667,208.782L677.35,140.86800000000002L689.2333333333333,156.24L701.1166666666667,119.07L713,191.394L724.8833333333333,141.11999999999998L736.7666666666668,109.74599999999998L748.65,91.476L760.5333333333333,136.458L772.4166666666666,115.79399999999998L784.3000000000001,152.96399999999997L796.1833333333334,125.49599999999998L808.0666666666666,78.62399999999997L819.9499999999999,95.75999999999999L831.8333333333334,75.97800000000001L843.7166666666667,89.964L855.6,103.06799999999998L867.4833333333332,100.548L879.3666666666667,66.654L891.25,65.26799999999997L903.1333333333333,68.418L915.0166666666668,73.45800000000003L926.9,86.43599999999998L938.7833333333333,78.49799999999999L950.6666666666666,93.24000000000001L962.5500000000001,106.21800000000002L974.4333333333334,43.091999999999985L986.3166666666666,101.30400000000003L998.1999999999999,66.27600000000001L1010.0833333333334,62.62199999999996L1021.9666666666667,66.52800000000002L1033.85,87.57L1045.7333333333333,57.581999999999994L1057.6166666666668,74.844L1069.5,87.06599999999997L1081.3833333333332,82.15200000000004L1093.2666666666667,179.29800000000003L1105.15,60.73199999999997L1117.0333333333333,145.65599999999998L1128.9166666666665,115.668L1140.8,105.58800000000002L1152.6833333333334,109.99799999999999L1164.5666666666666,78.62399999999997L1176.45,102.94200000000001L1188.3333333333335,110.37600000000003L1200.2166666666667,125.49599999999998L1212.1,107.98199999999997L1223.9833333333333,131.04L1235.8666666666668,102.43799999999999L1247.75,119.82599999999996L1259.6333333333332,76.48200000000003L1271.5166666666667,107.35200000000003L1283.4,138.34799999999998L1295.2833333333333,104.57999999999998" style="fill: none;" fill="none"></path></g><g><path stroke="rgb(255, 112, 67)" stroke-width="2px" d="M118.83333333333333,271.278L130.71666666666667,275.18399999999997L142.6,249.858L154.48333333333335,270.27L166.36666666666667,275.562L178.25,269.514L190.13333333333333,289.296L202.01666666666665,280.224L213.9,250.61399999999998L225.78333333333333,268.38L237.66666666666666,264.726L249.54999999999998,238.518L261.43333333333334,173.88L273.31666666666666,181.06199999999998L285.2,224.28L297.08333333333337,163.17L308.9666666666667,156.618L320.85,184.968L332.73333333333335,195.42600000000002L344.6166666666667,179.424L356.5,165.69L368.3833333333334,182.196L380.26666666666665,148.302L392.15000000000003,134.82000000000002L404.0333333333333,139.60799999999998L415.9166666666667,126.126L427.8,165.312L439.68333333333334,104.70600000000002L451.56666666666666,142.002L463.45,155.484L475.3333333333333,174.51L487.2166666666667,148.806L499.09999999999997,127.51200000000003L510.98333333333335,122.976L522.8666666666667,163.548L534.75,135.702L546.6333333333333,128.898L558.5166666666667,113.14800000000002L570.4,117.93600000000004L582.2833333333333,121.33799999999997L594.1666666666667,162.414L606.05,151.45199999999997L617.9333333333334,165.312L629.8166666666666,180.43200000000002L641.7,126.37800000000001L653.5833333333333,153.09L665.4666666666667,192.024L677.35,128.26800000000003L689.2333333333333,136.83599999999998" style="fill: none;" fill="none"></path></g></g></g></g></g></g><g transform="translate(70, 378)" clip-path="url(#clip_1)"><clipPath id="clip_1"><rect width="1426" height="22"></rect></clipPath><g><g><line x1="0" y1="0" x2="0" y2="5" style="visibility: inherit;" fill="rgb(0, 0, 0)" stroke="rgb(204, 204, 204)" stroke-width="1px"></line><line x1="118.83333333333333" y1="0" x2="118.83333333333333" y2="5" style="visibility: inherit;" fill="rgb(0, 0, 0)" stroke="rgb(204, 204, 204)" stroke-width="1px"></line><line x1="237.66666666666666" y1="0" x2="237.66666666666666" y2="5" style="visibility: inherit;" fill="rgb(0, 0, 0)" stroke="rgb(204, 204, 204)" stroke-width="1px"></line><line x1="356.5" y1="0" x2="356.5" y2="5" style="visibility: inherit;" fill="rgb(0, 0, 0)" stroke="rgb(204, 204, 204)" stroke-width="1px"></line><line x1="475.3333333333333" y1="0" x2="475.3333333333333" y2="5" style="visibility: inherit;" fill="rgb(0, 0, 0)" stroke="rgb(204, 204, 204)" stroke-width="1px"></line><line x1="594.1666666666667" y1="0" x2="594.1666666666667" y2="5" style="visibility: inherit;" fill="rgb(0, 0, 0)" stroke="rgb(204, 204, 204)" stroke-width="1px"></line><line x1="713" y1="0" x2="713" y2="5" style="visibility: inherit;" fill="rgb(0, 0, 0)" stroke="rgb(204, 204, 204)" stroke-width="1px"></line><line x1="831.8333333333334" y1="0" x2="831.8333333333334" y2="5" style="visibility: inherit;" fill="rgb(0, 0, 0)" stroke="rgb(204, 204, 204)" stroke-width="1px"></line><line x1="950.6666666666666" y1="0" x2="950.6666666666666" y2="5" style="visibility: inherit;" fill="rgb(0, 0, 0)" stroke="rgb(204, 204, 204)" stroke-width="1px"></line><line x1="1069.5" y1="0" x2="1069.5" y2="5" style="visibility: inherit;" fill="rgb(0, 0, 0)" stroke="rgb(204, 204, 204)" stroke-width="1px"></line><line x1="1188.3333333333335" y1="0" x2="1188.3333333333335" y2="5" style="visibility: inherit;" fill="rgb(0, 0, 0)" stroke="rgb(204, 204, 204)" stroke-width="1px"></line><line x1="1307.1666666666665" y1="0" x2="1307.1666666666665" y2="5" style="visibility: inherit;" fill="rgb(0, 0, 0)" stroke="rgb(204, 204, 204)" stroke-width="1px"></line><line x1="1426" y1="0" x2="1426" y2="5" style="visibility: inherit;" fill="rgb(0, 0, 0)" stroke="rgb(204, 204, 204)" stroke-width="1px"></line></g><g transform="translate(0, 8)"><text x="0" y="0" dx="0em" dy="0.95em" style="text-anchor: middle; visibility: hidden; font-family: &quot;Helvetica Neue&quot;, sans-serif; font-size: 12px; font-weight: 200;" fill="rgb(50, 49, 63)" stroke="none" stroke-width="1px">-50</text><text x="118.83333333333333" y="0" dx="0em" dy="0.95em" style="text-anchor: middle; visibility: inherit; font-family: &quot;Helvetica Neue&quot;, sans-serif; font-size: 12px; font-weight: 200;" fill="rgb(50, 49, 63)" stroke="none" stroke-width="1px">0</text><text x="237.66666666666666" y="0" dx="0em" dy="0.95em" style="text-anchor: middle; visibility: inherit; font-family: &quot;Helvetica Neue&quot;, sans-serif; font-size: 12px; font-weight: 200;" fill="rgb(50, 49, 63)" stroke="none" stroke-width="1px">50</text><text x="356.5" y="0" dx="0em" dy="0.95em" style="text-anchor: middle; visibility: inherit; font-family: &quot;Helvetica Neue&quot;, sans-serif; font-size: 12px; font-weight: 200;" fill="rgb(50, 49, 63)" stroke="none" stroke-width="1px">100</text><text x="475.3333333333333" y="0" dx="0em" dy="0.95em" style="text-anchor: middle; visibility: inherit; font-family: &quot;Helvetica Neue&quot;, sans-serif; font-size: 12px; font-weight: 200;" fill="rgb(50, 49, 63)" stroke="none" stroke-width="1px">150</text><text x="594.1666666666667" y="0" dx="0em" dy="0.95em" style="text-anchor: middle; visibility: inherit; font-family: &quot;Helvetica Neue&quot;, sans-serif; font-size: 12px; font-weight: 200;" fill="rgb(50, 49, 63)" stroke="none" stroke-width="1px">200</text><text x="713" y="0" dx="0em" dy="0.95em" style="text-anchor: middle; visibility: inherit; font-family: &quot;Helvetica Neue&quot;, sans-serif; font-size: 12px; font-weight: 200;" fill="rgb(50, 49, 63)" stroke="none" stroke-width="1px">250</text><text x="831.8333333333334" y="0" dx="0em" dy="0.95em" style="text-anchor: middle; visibility: inherit; font-family: &quot;Helvetica Neue&quot;, sans-serif; font-size: 12px; font-weight: 200;" fill="rgb(50, 49, 63)" stroke="none" stroke-width="1px">300</text><text x="950.6666666666666" y="0" dx="0em" dy="0.95em" style="text-anchor: middle; visibility: inherit; font-family: &quot;Helvetica Neue&quot;, sans-serif; font-size: 12px; font-weight: 200;" fill="rgb(50, 49, 63)" stroke="none" stroke-width="1px">350</text><text x="1069.5" y="0" dx="0em" dy="0.95em" style="text-anchor: middle; visibility: inherit; font-family: &quot;Helvetica Neue&quot;, sans-serif; font-size: 12px; font-weight: 200;" fill="rgb(50, 49, 63)" stroke="none" stroke-width="1px">400</text><text x="1188.3333333333335" y="0" dx="0em" dy="0.95em" style="text-anchor: middle; visibility: inherit; font-family: &quot;Helvetica Neue&quot;, sans-serif; font-size: 12px; font-weight: 200;" fill="rgb(50, 49, 63)" stroke="none" stroke-width="1px">450</text><text x="1307.1666666666665" y="0" dx="0em" dy="0.95em" style="text-anchor: middle; visibility: inherit; font-family: &quot;Helvetica Neue&quot;, sans-serif; font-size: 12px; font-weight: 200;" fill="rgb(50, 49, 63)" stroke="none" stroke-width="1px">500</text><text x="1426" y="0" dx="0em" dy="0.95em" style="text-anchor: middle; visibility: hidden; font-family: &quot;Helvetica Neue&quot;, sans-serif; font-size: 12px; font-weight: 200;" fill="rgb(50, 49, 63)" stroke="none" stroke-width="1px">550</text></g><line x1="0" y1="0" x2="1426" y2="0" fill="rgb(0, 0, 0)" stroke="rgb(204, 204, 204)" stroke-width="1px"></line></g></g></g></g></svg>