<svg viewBox="0 0 1496 400" xmlns="http://www.w3.org/2000/svg"><g><g><g><g><g><line x1="50" y1="378" x2="45" y2="378" style="visibility: inherit;" fill="rgb(0, 0, 0)" stroke="rgb(204, 204, 204)" stroke-width="1px"></line><line x1="50" y1="346.5" x2="45" y2="346.5" style="visibility: inherit;" fill="rgb(0, 0, 0)" stroke="rgb(204, 204, 204)" stroke-width="1px"></line><line x1="50" y1="315" x2="45" y2="315" style="visibility: inherit;" fill="rgb(0, 0, 0)" stroke="rgb(204, 204, 204)" stroke-width="1px"></line><line x1="50" y1="283.5" x2="45" y2="283.5" style="visibility: inherit;" fill="rgb(0, 0, 0)" stroke="rgb(204, 204, 204)" stroke-width="1px"></line><line x1="50" y1="252" x2="45" y2="252" style="visibility: inherit;" fill="rgb(0, 0, 0)" stroke="rgb(204, 204, 204)" stroke-width="1px"></line><line x1="50" y1="220.5" x2="45" y2="220.5" style="visibility: inherit;" fill="rgb(0, 0, 0)" stroke="rgb(204, 204, 204)" stroke-width="1px"></line><line x1="50" y1="189.00000000000003" x2="45" y2="189.00000000000003" style="visibility: inherit;" fill="rgb(0, 0, 0)" stroke="rgb(204, 204, 204)" stroke-width="1px"></line><line x1="50" y1="157.50000000000003" x2="45" y2="157.50000000000003" style="visibility: inherit;" fill="rgb(0, 0, 0)" stroke="rgb(204, 204, 204)" stroke-width="1px"></line><line x1="50" y1="126.00000000000006" x2="45" y2="126.00000000000006" style="visibility: inherit;" fill="rgb(0, 0, 0)" stroke="rgb(204, 204, 204)" stroke-width="1px"></line><line x1="50" y1="94.50000000000006" x2="45" y2="94.50000000000006" style="visibility: inherit;" fill="rgb(0, 0, 0)" stroke="rgb(204, 204, 204)" stroke-width="1px"></line><line x1="50" y1="63" x2="45" y2="63" style="visibility: inherit;" fill="rgb(0, 0, 0)" stroke="rgb(204, 204, 204)" stroke-width="1px"></line><line x1="50" y1="31.5" x2="45" y2="31.5" style="visibility: inherit;" fill="rgb(0, 0, 0)" stroke="rgb(204, 204, 204)" stroke-width="1px"></line><line x1="50" y1="0" x2="45" y2="0" style="visibility: inherit;" fill="rgb(0, 0, 0)" stroke="rgb(204, 204, 204)" stroke-width="1px"></line></g><g transform="translate(40, 0)"><text x="0" y="378" dx="0em" dy="0.3em" style="text-anchor: end; visibility: hidden; font-family: &quot;Helvetica Neue&quot;, sans-serif; font-size: 12px; font-weight: 200;" fill="rgb(50, 49, 63)" stroke="none" stroke-width="1px">-0.1</text><text x="0" y="346.5" dx="0em" dy="0.3em" style="text-anchor: end; visibility: inherit; font-family: &quot;Helvetica Neue&quot;, sans-serif; font-size: 12px; font-weight: 200;" fill="rgb(50, 49, 63)" stroke="none" stroke-width="1px">0</text><text x="0" y="315" dx="0em" dy="0.3em" style="text-anchor: end; visibility: inherit; font-family: &quot;Helvetica Neue&quot;, sans-serif; font-size: 12px; font-weight: 200;" fill="rgb(50, 49, 63)" stroke="none" stroke-width="1px">0.1</text><text x="0" y="283.5" dx="0em" dy="0.3em" style="text-anchor: end; visibility: inherit; font-family: &quot;Helvetica Neue&quot;, sans-serif; font-size: 12px; font-weight: 200;" fill="rgb(50, 49, 63)" stroke="none" stroke-width="1px">0.2</text><text x="0" y="252" dx="0em" dy="0.3em" style="text-anchor: end; visibility: inherit; font-family: &quot;Helvetica Neue&quot;, sans-serif; font-size: 12px; font-weight: 200;" fill="rgb(50, 49, 63)" stroke="none" stroke-width="1px">0.3</text><text x="0" y="220.5" dx="0em" dy="0.3em" style="text-anchor: end; visibility: inherit; font-family: &quot;Helvetica Neue&quot;, sans-serif; font-size: 12px; font-weight: 200;" fill="rgb(50, 49, 63)" stroke="none" stroke-width="1px">0.4</text><text x="0" y="189.00000000000003" dx="0em" dy="0.3em" style="text-anchor: end; visibility: inherit; font-family: &quot;Helvetica Neue&quot;, sans-serif; font-size: 12px; font-weight: 200;" fill="rgb(50, 49, 63)" stroke="none" stroke-width="1px">0.5</text><text x="0" y="157.50000000000003" dx="0em" dy="0.3em" style="text-anchor: end; visibility: inherit; font-family: &quot;Helvetica Neue&quot;, sans-serif; font-size: 12px; font-weight: 200;" fill="rgb(50, 49, 63)" stroke="none" stroke-width="1px">0.6</text><text x="0" y="126.00000000000006" dx="0em" dy="0.3em" style="text-anchor: end; visibility: inherit; font-family: &quot;Helvetica Neue&quot;, sans-serif; font-size: 12px; font-weight: 200;" fill="rgb(50, 49, 63)" stroke="none" stroke-width="1px">0.7</text><text x="0" y="94.50000000000006" dx="0em" dy="0.3em" style="text-anchor: end; visibility: inherit; font-family: &quot;Helvetica Neue&quot;, sans-serif; font-size: 12px; font-weight: 200;" fill="rgb(50, 49, 63)" stroke="none" stroke-width="1px">0.8</text><text x="0" y="63" dx="0em" dy="0.3em" style="text-anchor: end; visibility: inherit; font-family: &quot;Helvetica Neue&quot;, sans-serif; font-size: 12px; font-weight: 200;" fill="rgb(50, 49, 63)" stroke="none" stroke-width="1px">0.9</text><text x="0" y="31.5" dx="0em" dy="0.3em" style="text-anchor: end; visibility: inherit; font-family: &quot;Helvetica Neue&quot;, sans-serif; font-size: 12px; font-weight: 200;" fill="rgb(50, 49, 63)" stroke="none" stroke-width="1px">1</text><text x="0" y="0" dx="0em" dy="0.3em" style="text-anchor: end; visibility: hidden; font-family: &quot;Helvetica Neue&quot;, sans-serif; font-size: 12px; font-weight: 200;" fill="rgb(50, 49, 63)" stroke="none" stroke-width="1px">1.1</text></g><line x1="50" y1="0" x2="50" y2="378" fill="rgb(0, 0, 0)" stroke="rgb(204, 204, 204)" stroke-width="1px"></line></g></g><g transform="translate(50, 0)" clip-path="url(#clip_0)"><clipPath id="clip_0"><rect width="1446" height="378"></rect></clipPath><g><g><g><line x1="0" y1="0" x2="0" y2="378" fill="rgb(0, 0, 0)" stroke="rgb(60, 60, 60)" stroke-width="1px" opacity="0.25"></line><line x1="120.5" y1="0" x2="120.5" y2="378" fill="rgb(0, 0, 0)" stroke="rgb(60, 60, 60)" stroke-width="1px" opacity="0.25"></line><line x1="241" y1="0" x2="241" y2="378" fill="rgb(0, 0, 0)" stroke="rgb(60, 60, 60)" stroke-width="1px" opacity="0.25"></line><line x1="361.5" y1="0" x2="361.5" y2="378" fill="rgb(0, 0, 0)" stroke="rgb(60, 60, 60)" stroke-width="1px" opacity="0.25"></line><line x1="482" y1="0" x2="482" y2="378" fill="rgb(0, 0, 0)" stroke="rgb(60, 60, 60)" stroke-width="1px" opacity="0.25"></line><line x1="602.5" y1="0" x2="602.5" y2="378" fill="rgb(0, 0, 0)" stroke="rgb(60, 60, 60)" stroke-width="1px" opacity="0.25"></line><line x1="723" y1="0" x2="723" y2="378" fill="rgb(0, 0, 0)" stroke="rgb(60, 60, 60)" stroke-width="1px" opacity="0.25"></line><line x1="843.5" y1="0" x2="843.5" y2="378" fill="rgb(0, 0, 0)" stroke="rgb(60, 60, 60)" stroke-width="1px" opacity="0.25"></line><line x1="964" y1="0" x2="964" y2="378" fill="rgb(0, 0, 0)" stroke="rgb(60, 60, 60)" stroke-width="1px" opacity="0.25"></line><line x1="1084.5" y1="0" x2="1084.5" y2="378" fill="rgb(0, 0, 0)" stroke="rgb(60, 60, 60)" stroke-width="1px" opacity="0.25"></line><line x1="1205" y1="0" x2="1205" y2="378" fill="rgb(0, 0, 0)" stroke="rgb(60, 60, 60)" stroke-width="1px" opacity="0.25"></line><line x1="1325.5" y1="0" x2="1325.5" y2="378" fill="rgb(0, 0, 0)" stroke="rgb(60, 60, 60)" stroke-width="1px" opacity="0.25"></line><line x1="1446" y1="0" x2="1446" y2="378" fill="rgb(0, 0, 0)" stroke="rgb(60, 60, 60)" stroke-width="1px" opacity="0.25"></line></g><g><line x1="0" y1="378" x2="1446" y2="378" fill="rgb(0, 0, 0)" stroke="rgb(60, 60, 60)" stroke-width="1px" opacity="0.25"></line><line x1="0" y1="346.5" x2="1446" y2="346.5" fill="rgb(0, 0, 0)" stroke="rgb(60, 60, 60)" stroke-width="1px" opacity="0.25"></line><line x1="0" y1="315" x2="1446" y2="315" fill="rgb(0, 0, 0)" stroke="rgb(60, 60, 60)" stroke-width="1px" opacity="0.25"></line><line x1="0" y1="283.5" x2="1446" y2="283.5" fill="rgb(0, 0, 0)" stroke="rgb(60, 60, 60)" stroke-width="1px" opacity="0.25"></line><line x1="0" y1="252" x2="1446" y2="252" fill="rgb(0, 0, 0)" stroke="rgb(60, 60, 60)" stroke-width="1px" opacity="0.25"></line><line x1="0" y1="220.5" x2="1446" y2="220.5" fill="rgb(0, 0, 0)" stroke="rgb(60, 60, 60)" stroke-width="1px" opacity="0.25"></line><line x1="0" y1="189.00000000000003" x2="1446" y2="189.00000000000003" fill="rgb(0, 0, 0)" stroke="rgb(60, 60, 60)" stroke-width="1px" opacity="0.25"></line><line x1="0" y1="157.50000000000003" x2="1446" y2="157.50000000000003" fill="rgb(0, 0, 0)" stroke="rgb(60, 60, 60)" stroke-width="1px" opacity="0.25"></line><line x1="0" y1="126.00000000000006" x2="1446" y2="126.00000000000006" fill="rgb(0, 0, 0)" stroke="rgb(60, 60, 60)" stroke-width="1px" opacity="0.25"></line><line x1="0" y1="94.50000000000006" x2="1446" y2="94.50000000000006" fill="rgb(0, 0, 0)" stroke="rgb(60, 60, 60)" stroke-width="1px" opacity="0.25"></line><line x1="0" y1="63" x2="1446" y2="63" fill="rgb(0, 0, 0)" stroke="rgb(60, 60, 60)" stroke-width="1px" opacity="0.25"></line><line x1="0" y1="31.5" x2="1446" y2="31.5" fill="rgb(0, 0, 0)" stroke="rgb(60, 60, 60)" stroke-width="1px" opacity="0.25"></line><line x1="0" y1="0" x2="1446" y2="0" fill="rgb(0, 0, 0)" stroke="rgb(60, 60, 60)" stroke-width="1px" opacity="0.25"></line></g></g></g><g><g><line x1="0" y1="346.5" x2="1446" y2="346.5" fill="rgb(0, 0, 0)" stroke="rgb(153, 153, 153)" stroke-width="1.5px"></line></g></g><g><g><line x1="120.5" y1="0" x2="120.5" y2="378" fill="rgb(0, 0, 0)" stroke="rgb(153, 153, 153)" stroke-width="1.5px"></line></g></g><g><g><g><g><g><path stroke="rgb(51, 187, 238)" stroke-width="2px" d="M120.5,57.375273048877716L132.54999999999998,57.27666666358709L144.6,57.89046984059473L156.65,58.34253141174429L168.7,58.265167719163L180.75,58.487582127514656L192.8,58.614198246888975L204.85,58.623674556541346L216.9,58.342368605951776L228.95,58.42938596869732L241,58.259572087723086L253.04999999999998,58.25295131188312L265.09999999999997,58.50175807379503L277.15000000000003,58.39819616008617L289.2,58.30453833239898L301.25,62.130760865371656L313.3,60.48073381102836L325.35,66.30751733835126L337.4,63.20776016069715L349.45,60.71690027462779L361.5,59.38022006163999L373.55,59.745794486332954L385.6,59.08157832074994L397.65000000000003,58.39905297793575L409.7,58.08420599616511L421.75,58.147746177324166L433.8,57.80720628920591L445.85,63.44059821379193L457.9,61.36158063348478L469.95,61.06082212436911L482,59.49193640109712L494.05,72.02468959629164L506.09999999999997,66.73291803446324L518.15,66.55560586568475L530.1999999999999,64.65056672228815L542.25,61.83511510885586L554.3000000000001,89.90242243134185L566.35,85.94791480219163L578.4,118.38062308096039L590.45,141.37442852866621L602.5,109.00542281542027L614.55,131.33157706425402L626.6,147.81968601324877L638.65,113.28279866442023L650.7,111.55690628072529L662.75,99.88726397549397L674.8,99.85918126222555L686.85,128.6206930746163L698.9,133.8235050124348L710.9499999999999,185.25623490151142L723,186.58018807016285L735.05,197.21978947787088L747.1,197.32405913632292L759.15,169.64958422634794L771.2,132.21844964772376L783.25,175.11063337059394L795.3000000000001,169.3853908522806L807.35,211.2635413017259L819.4,211.74580376186293L831.4499999999999,240.05619747542477L843.5,239.78172802390534L855.55,233.0851153103224L867.6,231.81245083616446L879.65,242.5980638325589L891.7,249.03787758710249L903.75,236.1774957940713L915.8,199.71445932184074L927.85,202.38660311814795L939.9,214.4662222988406L951.95,206.94614954751725L964,213.88865169264076L976.0500000000001,218.3065928362441L988.1,205.87396531955193L1000.15,222.58568719420313L1012.1999999999999,209.2618571006863L1024.25,197.38626527092507L1036.3,162.05054404319316L1048.35,177.54783051002616L1060.3999999999999,182.96491237156746L1072.45,171.73131112857558L1084.5,155.96636355283198L1096.55,167.77560875631775L1108.6000000000001,172.96784568916203L1120.65,173.6218823497918L1132.7,157.353146142091L1144.75,159.10956205506665L1156.8,176.91923193680967L1168.85,174.4780599388345L1180.9,175.5693281240978L1192.95,181.17826158688774L1205,187.13115084699578L1217.05,169.97110441048022L1229.1,161.3475046796744L1241.1499999999999,178.51443736810356L1253.2,189.19326052104756L1265.25,179.63361144682958L1277.3,168.34410009754419L1289.3500000000001,186.02569308264682L1301.4,192.0591436170556L1313.45,180.40648245471823" style="fill: none;" fill="none"></path></g><g><path stroke="rgb(0, 119, 187)" stroke-width="2px" d="M120.5,58.3219318985939L132.54999999999998,58.371240958571434L144.6,58.34608327490946L156.65,58.58876367220108L168.7,57.583420295420865L180.75,57.628487747190604L192.8,57.199649189707486L204.85,57.49576185744991L216.9,57.28769553330079L228.95,56.62450499696064L241,56.767557235479785L253.04999999999998,56.600065138914886L265.09999999999997,56.87896227371357L277.15000000000003,61.404098068742826L289.2,59.38140319195054L301.25,58.199961807420664L313.3,58.122520562502245L325.35,77.45293567957333L337.4,69.54761259209022L349.45,65.68830260861978L361.5,106.13107699873382L373.55,98.96675392470547L385.6,82.9926966172174L397.65000000000003,73.66079153327246L409.7,66.98879119926784L421.75,64.72114231704904L433.8,61.6565753000537L445.85,60.10183492656904L457.9,58.50632987455981L469.95,58.02235674909275L482,57.41641744713144L494.05,62.00702310821919L506.09999999999997,63.720068996819805L518.15,63.23324227468487L530.1999999999999,60.22740084807339L542.25,65.20826699435423L554.3000000000001,62.13818499393517L566.35,82.38479231333906L578.4,80.71156746095869L590.45,71.94504499423738L602.5,70.69264898192716L614.55,64.48215535277376L626.6,64.41626338357366L638.65,75.76816215827813L650.7,95.48538953696851L662.75,118.80182580279791L674.8,140.11250348246855L686.85,141.53902642346705L698.9,146.52867381828165L710.9499999999999,155.2970662180723L723,154.7203896083888L735.05,167.97468323940663L747.1,161.4434090580506L759.15,159.41796224867863L771.2,156.08849440547954L783.25,158.7609848411876L795.3000000000001,164.15110699129218L807.35,156.11996250028568L819.4,147.1675421755018L831.4499999999999,144.69917461636666L843.5,160.4788578829949L855.55,155.43126719485426L867.6,156.63111229712194L879.65,165.6815947054293L891.7,163.79107573976913L903.75,167.57937535852673L915.8,143.37752521759555L927.85,154.9525890155214L939.9,160.54074710628856L951.95,167.80649353278557L964,148.02619329221778L976.0500000000001,150.70497159437974L988.1,148.39939451382543L1000.15,151.023558212316L1012.1999999999999,159.72954058229683L1024.25,163.12292039143898L1036.3,163.04474851934822L1048.35,162.55607376962132L1060.3999999999999,163.96685484927437L1072.45,157.9342792027088L1084.5,163.3395281549032L1096.55,156.26412610505434L1108.6000000000001,159.308135487404L1120.65,165.1736088620225L1132.7,161.34052667776345L1144.75,158.06246822929145L1156.8,163.92132879409647L1168.85,167.21575556465066L1180.9,166.2893345014338L1192.95,164.4397172722867L1205,164.2766057845146L1217.05,164.4311787483806L1229.1,170.0460866330692L1241.1499999999999,165.5577779316085L1253.2,165.04210806507933L1265.25,167.06778796088142L1277.3,165.44322685939937L1289.3500000000001,161.50229747618957L1301.4,159.89506692603663L1313.45,162.46491662809515" style="fill: none;" fill="none"></path></g><g><path stroke="rgb(204, 51, 17)" stroke-width="2px" d="M120.5,58.71638560295105L132.54999999999998,58.66707654297352L144.6,58.77272923503608L156.65,58.710579360013526L168.7,57.891915473608776L180.75,57.509649532405945L192.8,56.902464122047206L204.85,58.69953380890291L216.9,94.63111441154041L228.95,85.41611194507544L241,74.38062954967938L253.04999999999998,68.48075276330127L265.09999999999997,64.41191022668136L277.15000000000003,61.91085087460556L289.2,60.50618062772821L301.25,59.442849388701916L313.3,61.677055636547266L325.35,60.36643083275328L337.4,65.16575370184376L349.45,65.42598501571916L361.5,62.42652399828319L373.55,63.37222878836917L385.6,61.16276081367943L397.65000000000003,59.61620809140186L409.7,59.130054030514316L421.75,64.1080957176012L433.8,61.60429585743992L445.85,60.417573228499236L457.9,59.35843424814692L469.95,58.50206149253154L482,61.11220506858302L494.05,59.775213636037165L506.09999999999997,69.2284626689069L518.15,68.27381468222302L530.1999999999999,64.32461929926751L542.25,62.081325797602744L554.3000000000001,60.89312368394633L566.35,59.61220710851978L578.4,61.08408061223264L590.45,59.82144715353172L602.5,77.208121659183L614.55,94.07739151444628L626.6,97.38302472285466L638.65,85.76610504814619L650.7,150.30008522483143L662.75,145.22182776784484L674.8,110.36720353386858L686.85,140.79477628550933L698.9,129.04230199131638L710.9499999999999,108.26430164483247L723,100.6254465502551L735.05,132.2990848257302L747.1,130.41371007168908L759.15,137.86550793293677L771.2,129.96693604733193L783.25,145.6440212103524L795.3000000000001,123.30571814612827L807.35,111.73294592044363L819.4,128.2979197749009L831.4499999999999,145.08438307336118L843.5,151.3065250771712L855.55,147.24567244395433L867.6,156.04282084670567L879.65,170.40901231507613L891.7,169.9723825677642L903.75,166.49177214052733L915.8,170.74600515691316L927.85,175.85451635079312L939.9,172.98723762248L951.95,161.64253044732834L964,158.40144446258802L976.0500000000001,166.83845988968045L988.1,161.7714419845285L1000.15,134.65459874174255L1012.1999999999999,150.94948212445533L1024.25,160.37930641258214L1036.3,167.67807131817617L1048.35,173.13020528442073L1060.3999999999999,168.22868428877837L1072.45,173.96546029002573L1084.5,177.43908368915984L1096.55,172.77043711764023L1108.6000000000001,165.26752023471838L1120.65,163.10085943087012L1132.7,171.51986877169654L1144.75,150.97998771695165L1156.8,165.66733401791973L1168.85,166.87492822275595L1180.9,166.9368310610416L1192.95,162.58779176711818L1205,175.25109591865407L1217.05,186.0046029018394L1229.1,177.65730878871872L1241.1499999999999,175.4889013598096L1253.2,177.7220374244292L1265.25,180.9236789642477L1277.3,178.67937996975806L1289.3500000000001,178.34256750936643L1301.4,181.86399232503973L1313.45,180.75821463559393" style="fill: none;" fill="none"></path></g><g><path stroke="rgb(255, 112, 67)" stroke-width="2px" d="M120.5,58.479720890522L132.54999999999998,58.33180544525385L144.6,58.08527331692835L156.65,58.194031856296704L168.7,59.89186992064526L180.75,59.365563020446245L192.8,59.001021334332165L204.85,58.88522205861699L216.9,58.46635298952242L228.95,58.43998290169952L241,58.487601143006486L253.04999999999998,58.19982496098811L265.09999999999997,57.52201318542302L277.15000000000003,57.55801122533961L289.2,57.76901281945101L301.25,57.16957617708414L313.3,57.030949402776L325.35,57.1371393576635L337.4,57.16928670649321L349.45,58.13526732435912L361.5,57.95748939761825L373.55,57.88238335130626L385.6,57.174653928123234L397.65000000000003,56.81312823690598L409.7,56.65932969473977L421.75,56.47238480282823L433.8,56.454884053635L445.85,56.88615551334465L457.9,56.64003081039914L469.95,56.87101967027019L482,57.19894474856784L494.05,57.04859399858225L506.09999999999997,57.21082342483288L518.15,56.89794723578535L530.1999999999999,57.81465436835367L542.25,58.049123181253776L554.3000000000001,57.65336695268212L566.35,57.03724967581411L578.4,57.74045433643596L590.45,57.78371359141369L602.5,58.44078005147054L614.55,59.81322906555465L626.6,61.425575841783484L638.65,60.84677945920879L650.7,60.43639354313552L662.75,60.66349141840652L674.8,60.799750143560004L686.85,62.269935854868606L698.9,69.52619684264698" style="fill: none;" fill="none"></path></g></g></g></g><g opacity="0.2"><g><g><g><path stroke="rgb(51, 187, 238)" stroke-width="2px" d="M120.5,57.375273048877716L132.54999999999998,57.21750283241272L144.6,58.479720890522L156.65,58.874155819416046L168.7,58.164161682128906L180.75,58.795261323451996L192.8,58.795261323451996L204.85,58.637491106987L216.9,57.92749696969986L228.95,58.55859661102295L241,58.00639146566391L253.04999999999998,58.24305617809296L265.09999999999997,58.874155819416046L277.15000000000003,58.24305617809296L289.2,58.164161682128906L301.25,67.86739611625677L313.3,58.00639146566391L325.35,75.04621320962912L337.4,58.55859661102295L349.45,56.98083811998367L361.5,57.375273048877716L373.55,60.294144093990326L385.6,58.085267186164856L397.65000000000003,57.375273048877716L409.7,57.61193776130676L421.75,58.24305617809296L433.8,57.29639732837677L445.85,71.89067745208746L457.9,58.24305617809296L469.95,60.60968452692032L482,57.13860833644867L494.05,90.82381689548498L506.09999999999997,58.795261323451996L518.15,66.2896376252175L530.1999999999999,61.79300808906555L542.25,57.61193776130676L554.3000000000001,132.00338298082355L566.35,80.01615339517599L578.4,167.02968531847006L590.45,175.8651366233826L602.5,60.45191431045532L614.55,164.82080841064456L626.6,172.55184942483905L638.65,61.47746765613556L650.7,108.96806770563126L662.75,82.38280051946646L674.8,99.81705719232559L686.85,171.7629607915879L698.9,141.62772291898733L710.9499999999999,262.405329734087L723,188.56611782312396L735.05,213.1791915893555L747.1,197.48046362400058L759.15,128.13787186145785L771.2,76.07174777984625L783.25,239.4489089548588L795.3000000000001,160.79752707481387L807.35,274.08076697587967L819.4,212.46919745206836L831.4499999999999,282.52178804576397L843.5,239.3700238466263L855.55,223.0401962399483L867.6,229.90345412492755L879.65,258.77648332715034L891.7,258.69759821891785L903.75,216.88692310452464L915.8,145.0199046134949L927.85,206.39481881260875L939.9,232.58565106987956L951.95,195.66604042053225L964,224.30240491032603L976.0500000000001,224.93350455164912L988.1,187.22502404451373L1000.15,247.65327000617984L1012.1999999999999,189.2761119604111L1024.25,179.5728775262833L1036.3,109.04696220159536L1048.35,200.79376021027568L1060.3999999999999,191.09053516387942L1072.45,154.8809092640877L1084.5,132.31894218921667L1096.55,185.48947656154638L1108.6000000000001,180.75620108842855L1120.65,174.60293734073645L1132.7,132.95004183053973L1144.75,161.7441859245301L1156.8,203.63373675942424L1168.85,170.81630194187167L1180.9,177.20623040199285L1192.95,189.59166178107264L1205,196.06048473715785L1217.05,144.23103475570682L1229.1,148.4121050834656L1241.1499999999999,204.26483640074733L1253.2,205.2114952504635L1265.25,165.29413783550265L1277.3,151.40983307361606L1289.3500000000001,212.54808256030086L1301.4,201.10931941866878L1313.45,162.92749071121222" style="fill: none;" fill="none"></path></g><g><path stroke="rgb(0, 119, 187)" stroke-width="2px" d="M120.5,58.3219318985939L132.54999999999998,58.40082639455795L144.6,58.3219318985939L156.65,58.874155819416046L168.7,56.27084398269653L180.75,57.69083225727081L192.8,56.58640319108963L204.85,57.92749696969986L216.9,56.98083811998367L228.95,55.639744341373444L241,56.98083811998367L253.04999999999998,56.34973847866058L265.09999999999997,57.29639732837677L277.15000000000003,68.18293654918676L289.2,56.34973847866058L301.25,56.428632974624634L313.3,58.00639146566391L325.35,106.44365036487585L337.4,57.69083225727081L349.45,59.89969038963318L361.5,166.79302060604098L373.55,88.22050505876547L385.6,59.03192603588104L397.65000000000003,59.663044452667236L409.7,56.98083811998367L421.75,61.31967866420746L433.8,57.05973261594772L445.85,57.76972675323486L457.9,56.11307376623154L469.95,57.29639732837677L482,56.50750869512558L494.05,68.8929306864739L506.09999999999997,66.2896376252175L518.15,62.50300222635269L530.1999999999999,55.718638837337494L542.25,72.67956608533865L554.3000000000001,57.53306204080582L566.35,112.75470310449606L578.4,78.20173019170767L590.45,58.795261323451996L602.5,68.81405496597296L614.55,55.16641491651535L626.6,64.31742542982107L638.65,92.7960103154183L650.7,125.06123059988028L662.75,153.77648019790655L674.8,172.07851999998095L686.85,143.67881083488467L698.9,154.01314491033557L710.9499999999999,168.4496548175812L723,153.85537469387057L735.05,187.85612368583682L747.1,151.64649778604513L759.15,156.37979203462604L771.2,151.09429264068606L783.25,162.76972049474722L795.3000000000001,172.23629021644595L807.35,144.07324576377874L819.4,133.73891168832782L831.4499999999999,140.9966232776642L843.5,184.14838278293612L855.55,147.85988116264346L867.6,158.4308799505234L879.65,179.2573183178902L891.7,160.95529729127887L903.75,173.26182478666308L915.8,107.07475000619894L927.85,172.31518471241003L939.9,168.92298424243933L951.95,178.70511317253116L964,118.35574293136602L976.0500000000001,154.7231390476227L988.1,144.94102889299396L1000.15,154.95980376005176L1012.1999999999999,172.7885141372681L1024.25,168.2129901051522L1036.3,162.92749071121222L1048.35,161.823061645031L1060.3999999999999,166.08302646875384L1072.45,148.8854157328606L1084.5,171.44740158319476L1096.55,145.6510230302811L1108.6000000000001,163.87414956092837L1120.65,173.97181892395022L1132.7,155.59090340137485L1144.75,153.14538055658343L1156.8,172.70961964130404L1168.85,172.1573957204819L1180.9,164.89970290660864L1192.95,161.665291428566L1205,164.0319385528565L1217.05,164.66303819417956L1229.1,178.46844846010214L1241.1499999999999,158.82531487941745L1253.2,164.26860326528552L1265.25,170.10630780458453L1277.3,163.00638520717624L1289.3500000000001,155.59090340137485L1301.4,157.48422110080725L1313.45,166.31969118118292" style="fill: none;" fill="none"></path></g><g><path stroke="rgb(204, 51, 17)" stroke-width="2px" d="M120.5,58.71638560295105L132.54999999999998,58.637491106987L144.6,58.874155819416046L156.65,58.637491106987L168.7,56.82306790351868L180.75,56.98083811998367L192.8,56.03417927026749L204.85,61.31967866420746L216.9,147.62321645021444L228.95,71.73290723562246L241,57.92749696969986L253.04999999999998,59.663044452667236L265.09999999999997,58.3219318985939L277.15000000000003,58.164161682128906L289.2,58.40082639455795L301.25,57.84860247373581L313.3,65.02741956710821L325.35,58.40082639455795L337.4,72.36400687694555L349.45,65.8163082003594L361.5,57.92749696969986L373.55,64.79075485467916L385.6,57.84860247373581L397.65000000000003,57.29639732837677L409.7,58.40082639455795L421.75,71.57513701915747L433.8,57.84860247373581L445.85,58.637491106987L457.9,57.76972675323486L469.95,57.21750283241272L482,65.02741956710821L494.05,57.76972675323486L506.09999999999997,83.40833508968359L518.15,66.84184277057653L530.1999999999999,58.40082639455795L542.25,58.71638560295105L554.3000000000001,59.11082053184509L566.35,57.69083225727081L578.4,63.29189085960394L590.45,57.92749696969986L602.5,103.2881333827973L614.55,119.3812962770462L626.6,102.34147453308111L638.65,68.34072554111486L650.7,247.10105547308925L662.75,137.60444158315664L674.8,58.085267186164856L686.85,186.43613541126254L698.9,111.41359055042267L710.9499999999999,77.09730112552649L723,89.16716390848165L735.05,179.80954223871234L747.1,127.58564794063571L759.15,149.04320472478872L771.2,118.11907821893692L783.25,169.15964895486835L795.3000000000001,89.79826354980474L807.35,94.37378758192068L819.4,153.14538055658343L831.4499999999999,170.26407802104953L843.5,160.6397380828858L855.55,141.1543934941292L867.6,169.2385434508324L879.65,191.95829951763156L891.7,169.31743794679647L903.75,161.27085649967196L915.8,177.12735468149188L927.85,183.51728314161304L939.9,168.68631953001025L951.95,144.6254696846009L964,153.53981548547748L976.0500000000001,179.49398303031927L988.1,154.17091512680057L1000.15,93.97933387756353L1012.1999999999999,175.3918071985245L1024.25,174.52404284477237L1036.3,178.62621867656713L1048.35,181.30840623378757L1060.3999999999999,160.87640279531482L1072.45,182.57062429189685L1084.5,182.6495187878609L1096.55,165.76746726036077L1108.6000000000001,154.01314491033557L1120.65,159.85086822509768L1132.7,184.14838278293612L1144.75,120.17016613483435L1156.8,187.69835346937182L1168.85,168.68631953001025L1180.9,167.02968531847006L1192.95,156.06423282623297L1205,194.24605214595798L1217.05,202.13486337661746L1229.1,165.13636761903766L1241.1499999999999,172.23629021644595L1253.2,181.07174152135855L1265.25,185.7261412739754L1277.3,175.3129314780236L1289.3500000000001,177.83734881877902L1301.4,187.14612954854968L1313.45,179.0995481014252" style="fill: none;" fill="none"></path></g><g><path stroke="rgb(255, 112, 67)" stroke-width="2px" d="M120.5,58.479720890522L132.54999999999998,58.24305617809296L144.6,57.84860247373581L156.65,58.3219318985939L168.7,62.10856729745865L180.75,58.637491106987L192.8,58.479720890522L204.85,58.71638560295105L216.9,57.84860247373581L228.95,58.40082639455795L241,58.55859661102295L253.04999999999998,57.76972675323486L265.09999999999997,56.50750869512558L277.15000000000003,57.61193776130676L289.2,58.085267186164856L301.25,56.27084398269653L313.3,56.82306790351868L325.35,57.29639732837677L337.4,57.21750283241272L349.45,59.584149956703186L361.5,57.69083225727081L373.55,57.76972675323486L385.6,56.11307376623154L397.65000000000003,56.27084398269653L409.7,56.428632974624634L421.75,56.19196826219559L433.8,56.428632974624634L445.85,57.53306204080582L457.9,56.27084398269653L469.95,57.21750283241272L482,57.69083225727081L494.05,56.82306790351868L506.09999999999997,57.454167544841766L518.15,56.428632974624634L530.1999999999999,59.18971502780914L542.25,58.40082639455795L554.3000000000001,57.05973261594772L566.35,56.11307376623154L578.4,58.795261323451996L590.45,57.84860247373581L602.5,59.42637974023819L614.55,61.8719025850296L626.6,63.84409600496298L638.65,59.97858488559723L650.7,59.82081466913223L662.75,61.004138231277466L674.8,61.004138231277466L686.85,64.47521442174917L698.9,80.41058832407003" style="fill: none;" fill="none"></path></g></g></g></g></g></g><g transform="translate(50, 378)" clip-path="url(#clip_1)"><clipPath id="clip_1"><rect width="1446" height="22"></rect></clipPath><g><g><line x1="0" y1="0" x2="0" y2="5" style="visibility: inherit;" fill="rgb(0, 0, 0)" stroke="rgb(204, 204, 204)" stroke-width="1px"></line><line x1="120.5" y1="0" x2="120.5" y2="5" style="visibility: inherit;" fill="rgb(0, 0, 0)" stroke="rgb(204, 204, 204)" stroke-width="1px"></line><line x1="241" y1="0" x2="241" y2="5" style="visibility: inherit;" fill="rgb(0, 0, 0)" stroke="rgb(204, 204, 204)" stroke-width="1px"></line><line x1="361.5" y1="0" x2="361.5" y2="5" style="visibility: inherit;" fill="rgb(0, 0, 0)" stroke="rgb(204, 204, 204)" stroke-width="1px"></line><line x1="482" y1="0" x2="482" y2="5" style="visibility: inherit;" fill="rgb(0, 0, 0)" stroke="rgb(204, 204, 204)" stroke-width="1px"></line><line x1="602.5" y1="0" x2="602.5" y2="5" style="visibility: inherit;" fill="rgb(0, 0, 0)" stroke="rgb(204, 204, 204)" stroke-width="1px"></line><line x1="723" y1="0" x2="723" y2="5" style="visibility: inherit;" fill="rgb(0, 0, 0)" stroke="rgb(204, 204, 204)" stroke-width="1px"></line><line x1="843.5" y1="0" x2="843.5" y2="5" style="visibility: inherit;" fill="rgb(0, 0, 0)" stroke="rgb(204, 204, 204)" stroke-width="1px"></line><line x1="964" y1="0" x2="964" y2="5" style="visibility: inherit;" fill="rgb(0, 0, 0)" stroke="rgb(204, 204, 204)" stroke-width="1px"></line><line x1="1084.5" y1="0" x2="1084.5" y2="5" style="visibility: inherit;" fill="rgb(0, 0, 0)" stroke="rgb(204, 204, 204)" stroke-width="1px"></line><line x1="1205" y1="0" x2="1205" y2="5" style="visibility: inherit;" fill="rgb(0, 0, 0)" stroke="rgb(204, 204, 204)" stroke-width="1px"></line><line x1="1325.5" y1="0" x2="1325.5" y2="5" style="visibility: inherit;" fill="rgb(0, 0, 0)" stroke="rgb(204, 204, 204)" stroke-width="1px"></line><line x1="1446" y1="0" x2="1446" y2="5" style="visibility: inherit;" fill="rgb(0, 0, 0)" stroke="rgb(204, 204, 204)" stroke-width="1px"></line></g><g transform="translate(0, 8)"><text x="0" y="0" dx="0em" dy="0.95em" style="text-anchor: middle; visibility: hidden; font-family: &quot;Helvetica Neue&quot;, sans-serif; font-size: 12px; font-weight: 200;" fill="rgb(50, 49, 63)" stroke="none" stroke-width="1px">-50</text><text x="120.5" y="0" dx="0em" dy="0.95em" style="text-anchor: middle; visibility: inherit; font-family: &quot;Helvetica Neue&quot;, sans-serif; font-size: 12px; font-weight: 200;" fill="rgb(50, 49, 63)" stroke="none" stroke-width="1px">0</text><text x="241" y="0" dx="0em" dy="0.95em" style="text-anchor: middle; visibility: inherit; font-family: &quot;Helvetica Neue&quot;, sans-serif; font-size: 12px; font-weight: 200;" fill="rgb(50, 49, 63)" stroke="none" stroke-width="1px">50</text><text x="361.5" y="0" dx="0em" dy="0.95em" style="text-anchor: middle; visibility: inherit; font-family: &quot;Helvetica Neue&quot;, sans-serif; font-size: 12px; font-weight: 200;" fill="rgb(50, 49, 63)" stroke="none" stroke-width="1px">100</text><text x="482" y="0" dx="0em" dy="0.95em" style="text-anchor: middle; visibility: inherit; font-family: &quot;Helvetica Neue&quot;, sans-serif; font-size: 12px; font-weight: 200;" fill="rgb(50, 49, 63)" stroke="none" stroke-width="1px">150</text><text x="602.5" y="0" dx="0em" dy="0.95em" style="text-anchor: middle; visibility: inherit; font-family: &quot;Helvetica Neue&quot;, sans-serif; font-size: 12px; font-weight: 200;" fill="rgb(50, 49, 63)" stroke="none" stroke-width="1px">200</text><text x="723" y="0" dx="0em" dy="0.95em" style="text-anchor: middle; visibility: inherit; font-family: &quot;Helvetica Neue&quot;, sans-serif; font-size: 12px; font-weight: 200;" fill="rgb(50, 49, 63)" stroke="none" stroke-width="1px">250</text><text x="843.5" y="0" dx="0em" dy="0.95em" style="text-anchor: middle; visibility: inherit; font-family: &quot;Helvetica Neue&quot;, sans-serif; font-size: 12px; font-weight: 200;" fill="rgb(50, 49, 63)" stroke="none" stroke-width="1px">300</text><text x="964" y="0" dx="0em" dy="0.95em" style="text-anchor: middle; visibility: inherit; font-family: &quot;Helvetica Neue&quot;, sans-serif; font-size: 12px; font-weight: 200;" fill="rgb(50, 49, 63)" stroke="none" stroke-width="1px">350</text><text x="1084.5" y="0" dx="0em" dy="0.95em" style="text-anchor: middle; visibility: inherit; font-family: &quot;Helvetica Neue&quot;, sans-serif; font-size: 12px; font-weight: 200;" fill="rgb(50, 49, 63)" stroke="none" stroke-width="1px">400</text><text x="1205" y="0" dx="0em" dy="0.95em" style="text-anchor: middle; visibility: inherit; font-family: &quot;Helvetica Neue&quot;, sans-serif; font-size: 12px; font-weight: 200;" fill="rgb(50, 49, 63)" stroke="none" stroke-width="1px">450</text><text x="1325.5" y="0" dx="0em" dy="0.95em" style="text-anchor: middle; visibility: inherit; font-family: &quot;Helvetica Neue&quot;, sans-serif; font-size: 12px; font-weight: 200;" fill="rgb(50, 49, 63)" stroke="none" stroke-width="1px">500</text><text x="1446" y="0" dx="0em" dy="0.95em" style="text-anchor: middle; visibility: hidden; font-family: &quot;Helvetica Neue&quot;, sans-serif; font-size: 12px; font-weight: 200;" fill="rgb(50, 49, 63)" stroke="none" stroke-width="1px">550</text></g><line x1="0" y1="0" x2="1446" y2="0" fill="rgb(0, 0, 0)" stroke="rgb(204, 204, 204)" stroke-width="1px"></line></g></g></g></g></svg>