<svg viewBox="0 0 1496 400" xmlns="http://www.w3.org/2000/svg"><g><g><g><g><g><line x1="60" y1="378" x2="55" y2="378" style="visibility: inherit;" fill="rgb(0, 0, 0)" stroke="rgb(204, 204, 204)" stroke-width="1px"></line><line x1="60" y1="348.9230769230769" x2="55" y2="348.9230769230769" style="visibility: inherit;" fill="rgb(0, 0, 0)" stroke="rgb(204, 204, 204)" stroke-width="1px"></line><line x1="60" y1="319.8461538461538" x2="55" y2="319.8461538461538" style="visibility: inherit;" fill="rgb(0, 0, 0)" stroke="rgb(204, 204, 204)" stroke-width="1px"></line><line x1="60" y1="290.7692307692308" x2="55" y2="290.7692307692308" style="visibility: inherit;" fill="rgb(0, 0, 0)" stroke="rgb(204, 204, 204)" stroke-width="1px"></line><line x1="60" y1="261.6923076923077" x2="55" y2="261.6923076923077" style="visibility: inherit;" fill="rgb(0, 0, 0)" stroke="rgb(204, 204, 204)" stroke-width="1px"></line><line x1="60" y1="232.6153846153846" x2="55" y2="232.6153846153846" style="visibility: inherit;" fill="rgb(0, 0, 0)" stroke="rgb(204, 204, 204)" stroke-width="1px"></line><line x1="60" y1="203.53846153846152" x2="55" y2="203.53846153846152" style="visibility: inherit;" fill="rgb(0, 0, 0)" stroke="rgb(204, 204, 204)" stroke-width="1px"></line><line x1="60" y1="174.46153846153848" x2="55" y2="174.46153846153848" style="visibility: inherit;" fill="rgb(0, 0, 0)" stroke="rgb(204, 204, 204)" stroke-width="1px"></line><line x1="60" y1="145.38461538461536" x2="55" y2="145.38461538461536" style="visibility: inherit;" fill="rgb(0, 0, 0)" stroke="rgb(204, 204, 204)" stroke-width="1px"></line><line x1="60" y1="116.30769230769232" x2="55" y2="116.30769230769232" style="visibility: inherit;" fill="rgb(0, 0, 0)" stroke="rgb(204, 204, 204)" stroke-width="1px"></line><line x1="60" y1="87.23076923076923" x2="55" y2="87.23076923076923" style="visibility: inherit;" fill="rgb(0, 0, 0)" stroke="rgb(204, 204, 204)" stroke-width="1px"></line><line x1="60" y1="58.15384615384613" x2="55" y2="58.15384615384613" style="visibility: inherit;" fill="rgb(0, 0, 0)" stroke="rgb(204, 204, 204)" stroke-width="1px"></line><line x1="60" y1="29.076923076923038" x2="55" y2="29.076923076923038" style="visibility: inherit;" fill="rgb(0, 0, 0)" stroke="rgb(204, 204, 204)" stroke-width="1px"></line><line x1="60" y1="0" x2="55" y2="0" style="visibility: inherit;" fill="rgb(0, 0, 0)" stroke="rgb(204, 204, 204)" stroke-width="1px"></line></g><g transform="translate(50, 0)"><text x="0" y="378" dx="0em" dy="0.3em" style="text-anchor: end; visibility: hidden; font-family: &quot;Helvetica Neue&quot;, sans-serif; font-size: 12px; font-weight: 200;" fill="rgb(50, 49, 63)" stroke="none" stroke-width="1px">-8e+4</text><text x="0" y="348.9230769230769" dx="0em" dy="0.3em" style="text-anchor: end; visibility: inherit; font-family: &quot;Helvetica Neue&quot;, sans-serif; font-size: 12px; font-weight: 200;" fill="rgb(50, 49, 63)" stroke="none" stroke-width="1px">-7e+4</text><text x="0" y="319.8461538461538" dx="0em" dy="0.3em" style="text-anchor: end; visibility: inherit; font-family: &quot;Helvetica Neue&quot;, sans-serif; font-size: 12px; font-weight: 200;" fill="rgb(50, 49, 63)" stroke="none" stroke-width="1px">-6e+4</text><text x="0" y="290.7692307692308" dx="0em" dy="0.3em" style="text-anchor: end; visibility: inherit; font-family: &quot;Helvetica Neue&quot;, sans-serif; font-size: 12px; font-weight: 200;" fill="rgb(50, 49, 63)" stroke="none" stroke-width="1px">-5e+4</text><text x="0" y="261.6923076923077" dx="0em" dy="0.3em" style="text-anchor: end; visibility: inherit; font-family: &quot;Helvetica Neue&quot;, sans-serif; font-size: 12px; font-weight: 200;" fill="rgb(50, 49, 63)" stroke="none" stroke-width="1px">-4e+4</text><text x="0" y="232.6153846153846" dx="0em" dy="0.3em" style="text-anchor: end; visibility: inherit; font-family: &quot;Helvetica Neue&quot;, sans-serif; font-size: 12px; font-weight: 200;" fill="rgb(50, 49, 63)" stroke="none" stroke-width="1px">-3e+4</text><text x="0" y="203.53846153846152" dx="0em" dy="0.3em" style="text-anchor: end; visibility: inherit; font-family: &quot;Helvetica Neue&quot;, sans-serif; font-size: 12px; font-weight: 200;" fill="rgb(50, 49, 63)" stroke="none" stroke-width="1px">-2e+4</text><text x="0" y="174.46153846153848" dx="0em" dy="0.3em" style="text-anchor: end; visibility: inherit; font-family: &quot;Helvetica Neue&quot;, sans-serif; font-size: 12px; font-weight: 200;" fill="rgb(50, 49, 63)" stroke="none" stroke-width="1px">-1e+4</text><text x="0" y="145.38461538461536" dx="0em" dy="0.3em" style="text-anchor: end; visibility: inherit; font-family: &quot;Helvetica Neue&quot;, sans-serif; font-size: 12px; font-weight: 200;" fill="rgb(50, 49, 63)" stroke="none" stroke-width="1px">0</text><text x="0" y="116.30769230769232" dx="0em" dy="0.3em" style="text-anchor: end; visibility: inherit; font-family: &quot;Helvetica Neue&quot;, sans-serif; font-size: 12px; font-weight: 200;" fill="rgb(50, 49, 63)" stroke="none" stroke-width="1px">1e+4</text><text x="0" y="87.23076923076923" dx="0em" dy="0.3em" style="text-anchor: end; visibility: inherit; font-family: &quot;Helvetica Neue&quot;, sans-serif; font-size: 12px; font-weight: 200;" fill="rgb(50, 49, 63)" stroke="none" stroke-width="1px">2e+4</text><text x="0" y="58.15384615384613" dx="0em" dy="0.3em" style="text-anchor: end; visibility: inherit; font-family: &quot;Helvetica Neue&quot;, sans-serif; font-size: 12px; font-weight: 200;" fill="rgb(50, 49, 63)" stroke="none" stroke-width="1px">3e+4</text><text x="0" y="29.076923076923038" dx="0em" dy="0.3em" style="text-anchor: end; visibility: inherit; font-family: &quot;Helvetica Neue&quot;, sans-serif; font-size: 12px; font-weight: 200;" fill="rgb(50, 49, 63)" stroke="none" stroke-width="1px">4e+4</text><text x="0" y="0" dx="0em" dy="0.3em" style="text-anchor: end; visibility: hidden; font-family: &quot;Helvetica Neue&quot;, sans-serif; font-size: 12px; font-weight: 200;" fill="rgb(50, 49, 63)" stroke="none" stroke-width="1px">5e+4</text></g><line x1="60" y1="0" x2="60" y2="378" fill="rgb(0, 0, 0)" stroke="rgb(204, 204, 204)" stroke-width="1px"></line></g></g><g transform="translate(60, 0)" clip-path="url(#clip_0)"><clipPath id="clip_0"><rect width="1436" height="378"></rect></clipPath><g><g><g><line x1="0" y1="0" x2="0" y2="378" fill="rgb(0, 0, 0)" stroke="rgb(60, 60, 60)" stroke-width="1px" opacity="0.25"></line><line x1="119.66666666666666" y1="0" x2="119.66666666666666" y2="378" fill="rgb(0, 0, 0)" stroke="rgb(60, 60, 60)" stroke-width="1px" opacity="0.25"></line><line x1="239.33333333333331" y1="0" x2="239.33333333333331" y2="378" fill="rgb(0, 0, 0)" stroke="rgb(60, 60, 60)" stroke-width="1px" opacity="0.25"></line><line x1="359" y1="0" x2="359" y2="378" fill="rgb(0, 0, 0)" stroke="rgb(60, 60, 60)" stroke-width="1px" opacity="0.25"></line><line x1="478.66666666666663" y1="0" x2="478.66666666666663" y2="378" fill="rgb(0, 0, 0)" stroke="rgb(60, 60, 60)" stroke-width="1px" opacity="0.25"></line><line x1="598.3333333333334" y1="0" x2="598.3333333333334" y2="378" fill="rgb(0, 0, 0)" stroke="rgb(60, 60, 60)" stroke-width="1px" opacity="0.25"></line><line x1="718" y1="0" x2="718" y2="378" fill="rgb(0, 0, 0)" stroke="rgb(60, 60, 60)" stroke-width="1px" opacity="0.25"></line><line x1="837.6666666666667" y1="0" x2="837.6666666666667" y2="378" fill="rgb(0, 0, 0)" stroke="rgb(60, 60, 60)" stroke-width="1px" opacity="0.25"></line><line x1="957.3333333333333" y1="0" x2="957.3333333333333" y2="378" fill="rgb(0, 0, 0)" stroke="rgb(60, 60, 60)" stroke-width="1px" opacity="0.25"></line><line x1="1077" y1="0" x2="1077" y2="378" fill="rgb(0, 0, 0)" stroke="rgb(60, 60, 60)" stroke-width="1px" opacity="0.25"></line><line x1="1196.6666666666667" y1="0" x2="1196.6666666666667" y2="378" fill="rgb(0, 0, 0)" stroke="rgb(60, 60, 60)" stroke-width="1px" opacity="0.25"></line><line x1="1316.3333333333333" y1="0" x2="1316.3333333333333" y2="378" fill="rgb(0, 0, 0)" stroke="rgb(60, 60, 60)" stroke-width="1px" opacity="0.25"></line><line x1="1436" y1="0" x2="1436" y2="378" fill="rgb(0, 0, 0)" stroke="rgb(60, 60, 60)" stroke-width="1px" opacity="0.25"></line></g><g><line x1="0" y1="378" x2="1436" y2="378" fill="rgb(0, 0, 0)" stroke="rgb(60, 60, 60)" stroke-width="1px" opacity="0.25"></line><line x1="0" y1="348.9230769230769" x2="1436" y2="348.9230769230769" fill="rgb(0, 0, 0)" stroke="rgb(60, 60, 60)" stroke-width="1px" opacity="0.25"></line><line x1="0" y1="319.8461538461538" x2="1436" y2="319.8461538461538" fill="rgb(0, 0, 0)" stroke="rgb(60, 60, 60)" stroke-width="1px" opacity="0.25"></line><line x1="0" y1="290.7692307692308" x2="1436" y2="290.7692307692308" fill="rgb(0, 0, 0)" stroke="rgb(60, 60, 60)" stroke-width="1px" opacity="0.25"></line><line x1="0" y1="261.6923076923077" x2="1436" y2="261.6923076923077" fill="rgb(0, 0, 0)" stroke="rgb(60, 60, 60)" stroke-width="1px" opacity="0.25"></line><line x1="0" y1="232.6153846153846" x2="1436" y2="232.6153846153846" fill="rgb(0, 0, 0)" stroke="rgb(60, 60, 60)" stroke-width="1px" opacity="0.25"></line><line x1="0" y1="203.53846153846152" x2="1436" y2="203.53846153846152" fill="rgb(0, 0, 0)" stroke="rgb(60, 60, 60)" stroke-width="1px" opacity="0.25"></line><line x1="0" y1="174.46153846153848" x2="1436" y2="174.46153846153848" fill="rgb(0, 0, 0)" stroke="rgb(60, 60, 60)" stroke-width="1px" opacity="0.25"></line><line x1="0" y1="145.38461538461536" x2="1436" y2="145.38461538461536" fill="rgb(0, 0, 0)" stroke="rgb(60, 60, 60)" stroke-width="1px" opacity="0.25"></line><line x1="0" y1="116.30769230769232" x2="1436" y2="116.30769230769232" fill="rgb(0, 0, 0)" stroke="rgb(60, 60, 60)" stroke-width="1px" opacity="0.25"></line><line x1="0" y1="87.23076923076923" x2="1436" y2="87.23076923076923" fill="rgb(0, 0, 0)" stroke="rgb(60, 60, 60)" stroke-width="1px" opacity="0.25"></line><line x1="0" y1="58.15384615384613" x2="1436" y2="58.15384615384613" fill="rgb(0, 0, 0)" stroke="rgb(60, 60, 60)" stroke-width="1px" opacity="0.25"></line><line x1="0" y1="29.076923076923038" x2="1436" y2="29.076923076923038" fill="rgb(0, 0, 0)" stroke="rgb(60, 60, 60)" stroke-width="1px" opacity="0.25"></line><line x1="0" y1="0" x2="1436" y2="0" fill="rgb(0, 0, 0)" stroke="rgb(60, 60, 60)" stroke-width="1px" opacity="0.25"></line></g></g></g><g><g><line x1="0" y1="145.38461538461536" x2="1436" y2="145.38461538461536" fill="rgb(0, 0, 0)" stroke="rgb(153, 153, 153)" stroke-width="1.5px"></line></g></g><g><g><line x1="119.66666666666666" y1="0" x2="119.66666666666666" y2="378" fill="rgb(0, 0, 0)" stroke="rgb(153, 153, 153)" stroke-width="1.5px"></line></g></g><g><g><g><g><g><path stroke="rgb(51, 187, 238)" stroke-width="2px" d="M119.66666666666666,217.43432307692308L131.63333333333333,217.48157307692307L143.6,255.56603736263736L155.56666666666666,257.11999360859727L167.53333333333333,274.2355878503176L179.5,282.37196022267204L191.46666666666667,298.1116260427028L203.43333333333334,301.51476920889786L215.4,292.2980645313225L227.36666666666665,302.3370483070858L239.33333333333331,288.540180507902L251.29999999999998,288.10727673668964L263.26666666666665,289.16646325927536L275.23333333333335,295.1007313720901L287.2,289.71237299035914L299.1666666666667,275.294839526489L311.1333333333333,286.0689427962775L323.1,277.91320199646884L335.06666666666666,266.81140469904983L347.03333333333336,262.61424628774535L359,259.80643694710307L370.9666666666667,250.8443226689252L382.93333333333334,262.4121311096807L394.90000000000003,250.95744592760343L406.8666666666667,266.11340910694037L418.83333333333337,272.458603980215L430.8,261.1887323919855L442.7666666666667,273.3512530579711L454.7333333333333,285.73489793607905L466.7,292.8975741912822L478.66666666666663,276.04462227932044L490.6333333333333,287.9557158540174L502.59999999999997,284.84752167168034L514.5666666666667,283.9619160545576L526.5333333333333,280.41934649491225L538.5,272.4749308919283L550.4666666666667,252.32775225662692L562.4333333333333,268.25796833620507L574.4,234.71479323468398L586.3666666666667,199.92248820199407L598.3333333333334,230.0712898684542L610.3,219.4069831467098L622.2666666666667,215.37642373301594L634.2333333333333,224.82612501067743L646.2,227.93950269903777L658.1666666666666,232.41282161970165L670.1333333333333,223.25668989455528L682.1,201.42061701316595L694.0666666666667,209.1299086695419L706.0333333333333,174.1317790475961L718,160.43120896695277L729.9666666666666,154.85919307246317L741.9333333333334,140.34695584345258L753.9,171.20400119841156L765.8666666666667,200.14056071906512L777.8333333333333,178.43009027758472L789.8000000000001,180.7715433973206L801.7666666666667,157.96231680762L813.7333333333333,138.36486085380116L825.6999999999999,133.99541497381898L837.6666666666667,125.70607359967573L849.6333333333333,117.24672723672842L861.6,118.85415941896014L873.5666666666666,122.06800949752994L885.5333333333334,124.38711339082565L897.5,143.1875111114185L909.4666666666666,161.5194851283896L921.4333333333334,146.81234338472603L933.4,142.37285833852798L945.3666666666667,117.57930269542447L957.3333333333333,121.96488623263929L969.3000000000001,120.52197789342972L981.2666666666667,118.42802365913474L993.2333333333333,121.17147265701931L1005.1999999999999,114.96909897882699L1017.1666666666667,118.68555169498848L1029.1333333333334,145.03531255545465L1041.1,120.92720599481123L1053.0666666666666,120.22503128919442L1065.0333333333333,117.07631108120898L1077,146.68669126411L1088.9666666666667,132.9847101430814L1100.9333333333334,132.70966300892573L1112.9,128.22729318997082L1124.8666666666666,139.1202836062902L1136.8333333333333,129.52652708685102L1148.8,121.73488855980293L1160.7666666666667,133.74773313588176L1172.7333333333333,129.28512603537519L1184.7,117.73677408276359L1196.6666666666667,125.6718859881197L1208.6333333333334,151.4392854390257L1220.6,136.59226664803077L1232.5666666666666,132.5713046042031L1244.5333333333333,129.59114583944492L1256.5,136.61684750366695L1268.4666666666667,146.05564696373867L1280.4333333333334,132.84916663978163L1292.4,129.4438322915613L1304.3666666666666,115.86756091339834" style="fill: none;" fill="none"></path></g><g><path stroke="rgb(0, 119, 187)" stroke-width="2px" d="M119.66666666666666,254.78944615384614L131.63333333333333,247.83824423076922L143.6,260.0514791208791L155.56666666666666,271.39135367647054L167.53333333333333,255.11547695510592L179.5,251.3613909196067L191.46666666666667,234.55188203777575L203.43333333333334,245.93419764758755L215.4,232.0906816893077L227.36666666666665,212.2208545362427L239.33333333333331,227.67605450144907L251.29999999999998,220.81258164516152L263.26666666666665,235.09773253942328L275.23333333333335,222.44084413577897L287.2,231.96298980522826L299.1666666666667,232.26939416932953L311.1333333333333,244.59194383607627L323.1,211.22229420455207L335.06666666666666,238.40786387112843L347.03333333333336,277.205896840234L359,249.44803687364416L370.9666666666667,238.73013336100664L382.93333333333334,237.5310428547161L394.90000000000003,256.6130730538424L406.8666666666667,251.72211915795185L418.83333333333337,245.94033855518677L430.8,247.28409373920178L442.7666666666667,250.7968276314399L454.7333333333333,244.36166343855487L466.7,249.21317759721467L478.66666666666663,246.3528969481595L490.6333333333333,226.4636504321318L502.59999999999997,232.63339670774278L514.5666666666667,242.19831522176878L526.5333333333333,238.50471214648869L538.5,228.31100564428945L550.4666666666667,226.74124953070515L562.4333333333333,224.03500816991277L574.4,217.54960181057564L586.3666666666667,217.31158262448875L598.3333333333334,219.55889419188034L610.3,221.46788420835458L622.2666666666667,208.27253975197198L634.2333333333333,208.5643300050799L646.2,182.1933364618453L658.1666666666666,148.94784802887986L670.1333333333333,120.31469650856417L682.1,112.89418405881804L694.0666666666667,120.76118735847376L706.0333333333333,99.69946318414475L718,97.17189329509L729.9666666666666,91.91373290011563L741.9333333333334,90.14638743237396L753.9,94.46404784404427L765.8666666666667,109.7403240910516L777.8333333333333,88.5474559930845L789.8000000000001,69.64765513430791L801.7666666666667,69.51867308058473L813.7333333333333,90.78839769450644L825.6999999999999,91.66242323208854L837.6666666666667,85.28862932386829L849.6333333333333,76.67480220970549L861.6,73.83149671043861L873.5666666666666,72.32672571857086L885.5333333333334,64.46052158498861L897.5,66.16214679714705L909.4666666666666,85.51786653982668L921.4333333333334,77.3857414623576L933.4,69.16378333895301L945.3666666666667,66.66260231106406L957.3333333333333,89.08405984817693L969.3000000000001,83.07284206275233L981.2666666666667,81.3689052376514L993.2333333333333,80.17324468105238L1005.1999999999999,74.43019296247758L1017.1666666666667,81.35784500825577L1029.1333333333334,76.28425777418425L1041.1,70.93837620297205L1053.0666666666666,71.89582572178324L1065.0333333333333,71.90620312537766L1077,70.32482956753427L1088.9666666666667,76.04741466359752L1100.9333333333334,79.85082418277386L1112.9,82.20963297120278L1124.8666666666666,80.16011209041397L1136.8333333333333,79.98763648501756L1148.8,77.62661881408746L1160.7666666666667,82.20101744229868L1172.7333333333333,75.8503950807638L1184.7,76.98426166384291L1196.6666666666667,81.84235392138265L1208.6333333333334,73.02641542975266L1220.6,73.4510492578516L1232.5666666666666,73.62441417009558L1244.5333333333333,78.93203927128815L1256.5,84.34041740892673L1268.4666666666667,81.25016429150986L1280.4333333333334,80.73471395952129L1292.4,88.7460960680205L1304.3666666666666,95.85232841004301" style="fill: none;" fill="none"></path></g><g><path stroke="rgb(204, 51, 17)" stroke-width="2px" d="M119.66666666666666,259.75578461538464L131.63333333333333,254.59281346153847L143.6,280.84308131868136L155.56666666666666,287.7712396493213L167.53333333333333,261.62276118080393L179.5,251.08432625795257L191.46666666666667,236.33207007295425L203.43333333333334,233.6193088413149L215.4,200.09860460704078L227.36666666666665,205.54100627052458L239.33333333333331,234.59574272155686L251.29999999999998,232.83790844109205L263.26666666666665,264.5073691166703L275.23333333333335,258.41255608995135L287.2,271.83490925827283L299.1666666666667,268.10015039998046L311.1333333333333,263.6555656125653L323.1,266.1294552310462L335.06666666666666,263.5181847875507L347.03333333333336,269.88981459864226L359,277.9905341565781L370.9666666666667,264.9590043553467L382.93333333333334,257.10879292540807L394.90000000000003,265.5822451364619L406.8666666666667,274.6207635478761L418.83333333333337,270.7299222608921L430.8,255.45966695834528L442.7666666666667,268.32737730776296L454.7333333333333,258.7983982582586L466.7,264.83274490437645L478.66666666666663,279.9375751000424L490.6333333333333,268.57218723241584L502.59999999999997,267.04379226646563L514.5666666666667,253.38292112232546L526.5333333333333,273.89113764133066L538.5,260.32342090639366L550.4666666666667,274.02421262862566L562.4333333333333,271.15940141269164L574.4,257.38405927846316L586.3666666666667,276.50350020802045L598.3333333333334,249.52965702625482L610.3,209.17544958094862L622.2666666666667,199.61187897657703L634.2333333333333,218.09248738914786L646.2,175.458329352134L658.1666666666666,159.4976437641311L670.1333333333333,190.5382047211787L682.1,159.68408590893756L694.0666666666667,164.31103000696334L706.0333333333333,164.49702415802565L718,184.18204218721857L729.9666666666666,153.1976376199333L741.9333333333334,137.2599733411629L753.9,116.70280862006081L765.8666666666667,128.94083594127497L777.8333333333333,118.61651387245337L789.8000000000001,144.292554477324L801.7666666666667,147.95226499408722L813.7333333333333,117.713365150296L825.6999999999999,102.16950216709995L837.6666666666667,86.3811289925672L849.6333333333333,91.05693585707888L861.6,87.72137382193961L873.5666666666666,83.40667660085603L885.5333333333334,75.18275057589818L897.5,70.45542265323121L909.4666666666666,66.0639920534772L921.4333333333334,64.4642721551632L933.4,73.94770790848253L945.3666666666667,75.17388012970497L957.3333333333333,79.4255650008999L969.3000000000001,85.77634823130916L981.2666666666667,72.54076278493937L993.2333333333333,98.09137459404053L1005.1999999999999,81.37664629488586L1017.1666666666667,72.7865354692392L1029.1333333333334,70.35174282000509L1041.1,71.60432569200304L1053.0666666666666,67.60586926135568L1065.0333333333333,72.84123232604412L1077,70.66021016485723L1088.9666666666667,75.45891379122207L1100.9333333333334,107.9733359670409L1112.9,87.12670927253225L1124.8666666666666,98.39667787121164L1136.8333333333333,114.44815441503471L1148.8,104.19624034132852L1160.7666666666667,104.18148574325863L1172.7333333333333,95.68682375364745L1184.7,98.63502963680389L1196.6666666666667,96.21455008977466L1208.6333333333334,98.09796697694168L1220.6,98.04516787847274L1232.5666666666666,101.23404841939134L1244.5333333333333,100.04079828240407L1256.5,96.13801743098082L1268.4666666666667,92.49486584320391L1280.4333333333334,95.57655027515312L1292.4,106.10444093432267L1304.3666666666666,102.45476917597819" style="fill: none;" fill="none"></path></g><g><path stroke="rgb(255, 112, 67)" stroke-width="2px" d="M119.66666666666666,231.30401538461538L131.63333333333333,234.449775L143.6,219.3106747252747L155.56666666666666,242.76956996606333L167.53333333333333,255.77047046388725L179.5,260.8415234817814L191.46666666666667,273.2746354998106L203.43333333333334,273.5605059018209L215.4,267.8284887843466L227.36666666666665,263.9900065130722L239.33333333333331,270.4379877632211L251.29999999999998,261.33946715899765L263.26666666666665,237.18610971891556L275.23333333333335,224.71054176449795L287.2,231.73487086969382L299.1666666666667,221.26169099958997L311.1333333333333,209.05512074286906L323.1,211.71155146347954L335.06666666666666,215.5163811906315L347.03333333333336,211.42290981981066L359,210.1753862173304L370.9666666666667,209.99215239556654L382.93333333333334,203.22936110645625L394.90000000000003,195.71271335482265L406.8666666666667,192.5426159232922L418.83333333333337,187.24088358711174L430.8,196.80485994090475L442.7666666666667,185.3017765928735L454.7333333333333,187.9371653882888L466.7,193.1948850107026L478.66666666666663,202.05673525881903L490.6333333333333,200.81757951820967L502.59999999999997,194.00747661649922L514.5666666666667,189.778356617961L526.5333333333333,196.8502264000394L538.5,194.1125604271708L550.4666666666667,189.08889622521275L562.4333333333333,184.24866694792416L574.4,182.99144631979968L586.3666666666667,182.24525548319002L598.3333333333334,193.93075945313254L610.3,198.09484952003723L622.2666666666667,203.64638048285605L634.2333333333333,210.12923752160597L646.2,201.19835481972754L658.1666666666666,201.76104981494854L670.1333333333333,216.85927604338028L682.1,204.13843331805023L694.0666666666667,192.91899845221747" style="fill: none;" fill="none"></path></g></g></g></g><g opacity="0.2"><g><g><g><path stroke="rgb(51, 187, 238)" stroke-width="2px" d="M119.66666666666666,217.43432307692308L131.63333333333333,217.5099230769231L143.6,292.12712307692306L155.56666666666666,258.94744615384616L167.53333333333333,296.5817076923077L179.5,293.6274923076923L191.46666666666667,320.6196L203.43333333333334,306.4765846153846L215.4,278.70521538461537L227.36666666666665,317.2437692307692L239.33333333333331,267.9700153846154L251.29999999999998,287.4602769230769L263.26666666666665,290.7517846153846L275.23333333333335,303.9905076923077L287.2,281.6361692307692L299.1666666666667,253.67870769230768L311.1333333333333,302.22553846153846L323.1,265.6816615384615L335.06666666666666,250.16039999999998L347.03333333333336,256.3188923076923L359,255.59487692307692L370.9666666666667,237.40144615384617L382.93333333333334,279.7636153846154L394.90000000000003,233.77555384615383L406.8666666666667,288.84724615384613L418.83333333333337,281.97636923076925L430.8,244.28395384615385L442.7666666666667,291.5950153846154L454.7333333333333,304.3103538461538L466.7,303.6415846153846L478.66666666666663,250.7652L490.6333333333333,305.8223538461539L502.59999999999997,280.18523076923077L514.5666666666667,282.6335076923077L526.5333333333333,275.1054923076923L538.5,260.55830769230766L550.4666666666667,222.10698461538462L562.4333333333333,292.1532923076923L574.4,184.40003076923074L586.3666666666667,147.73403076923077L598.3333333333334,275.2944923076923L610.3,203.41052307692308L622.2666666666667,209.33058461538462L634.2333333333333,239.00067692307692L646.2,232.60956923076924L658.1666666666666,239.1228L670.1333333333333,209.52249230769232L682.1,168.6665076923077L694.0666666666667,220.69384615384615L706.0333333333333,121.6345846153846L718,139.88035384615387L729.9666666666666,146.50116923076922L741.9333333333334,118.5786L753.9,217.48956923076923L765.8666666666667,243.5454L777.8333333333333,145.8643846153846L789.8000000000001,184.28372307692308L801.7666666666667,123.74847692307694L813.7333333333333,108.96867692307694L825.6999999999999,127.44124615384615L837.6666666666667,113.27206153846151L849.6333333333333,104.5577076923077L861.6,121.26530769230772L873.5666666666666,126.8887846153846L885.5333333333334,127.86576923076922L897.5,171.3881076923077L909.4666666666666,189.01744615384615L921.4333333333334,124.75163076923079L933.4,135.71363076923078L945.3666666666667,80.38896923076919L957.3333333333333,128.5432615384615L969.3000000000001,118.35761538461537L981.2666666666667,115.28709230769232L993.2333333333333,125.28664615384616L1005.1999999999999,105.66553846153846L1017.1666666666667,124.26023076923079L1029.1333333333334,184.55995384615383L1041.1,84.76504615384619L1053.0666666666666,119.1717692307692L1065.0333333333333,112.35323076923078L1077,191.10226153846153L1088.9666666666667,112.43173846153849L1100.9333333333334,132.2970923076923L1112.9,121.50373846153849L1124.8666666666666,155.4597692307692L1136.8333333333333,115.1358923076923L1148.8,110.04743076923074L1160.7666666666667,151.767L1172.7333333333333,122.59121538461537L1184.7,100.41424615384614L1196.6666666666667,137.57455384615386L1208.6333333333334,190.0903846153846L1220.6,114.32173846153847L1232.5666666666666,126.53986153846154L1244.5333333333333,125.1209076923077L1256.5,147.1554L1268.4666666666667,160.21384615384616L1280.4333333333334,113.03944615384614L1292.4,124.33583076923077L1304.3666666666666,95.50315384615385" style="fill: none;" fill="none"></path></g><g><path stroke="rgb(0, 119, 187)" stroke-width="2px" d="M119.66666666666666,254.78944615384614L131.63333333333333,243.66752307692306L143.6,271.77618461538464L155.56666666666666,284.7270461538461L167.53333333333333,233.8656923076923L179.5,246.16813846153846L191.46666666666667,210.51401538461536L203.43333333333334,262.52972307692306L215.4,211.6741846153846L227.36666666666665,182.7164769230769L239.33333333333331,250.71867692307694L251.29999999999998,210.55472307692307L263.26666666666665,256.47881538461536L275.23333333333335,203.4803076923077L287.2,246.2350153846154L299.1666666666667,232.72878461538463L311.1333333333333,263.07055384615387L323.1,161.17629230769234L335.06666666666666,279.1820769230769L347.03333333333336,335.3994L359,207.81276923076925L370.9666666666667,222.65363076923077L382.93333333333334,235.73243076923077L394.90000000000003,285.2358923076923L406.8666666666667,244.38572307692309L418.83333333333337,237.26769230769233L430.8,249.29972307692307L442.7666666666667,256.06592307692307L454.7333333333333,234.70892307692307L466.7,256.49044615384616L478.66666666666663,242.06247692307693L490.6333333333333,196.62978461538464L502.59999999999997,241.8880153846154L514.5666666666667,256.5456923076923L526.5333333333333,232.9643076923077L538.5,213.02044615384617L550.4666666666667,224.38661538461537L562.4333333333333,219.97564615384616L574.4,207.8214923076923L586.3666666666667,216.95455384615386L598.3333333333334,222.92986153846152L610.3,224.3313692307692L622.2666666666667,188.47952307692307L634.2333333333333,209.0020153846154L646.2,142.63684615384616L658.1666666666666,99.07961538461541L670.1333333333333,77.36496923076919L682.1,101.76341538461537L694.0666666666667,132.56169230769234L706.0333333333333,68.10687692307692L718,93.38053846153844L729.9666666666666,84.02649230769231L741.9333333333334,87.4953692307692L753.9,100.9405384615385L765.8666666666667,132.65473846153847L777.8333333333333,56.758153846153846L789.8000000000001,41.29795384615386L801.7666666666667,69.3252L813.7333333333333,122.6929846153846L825.6999999999999,92.97346153846155L837.6666666666667,75.72793846153849L849.6333333333333,63.75406153846154L861.6,69.56653846153841L873.5666666666666,70.06956923076922L885.5333333333334,52.66121538461539L897.5,68.71458461538464L909.4666666666666,114.55144615384614L921.4333333333334,65.18755384615383L933.4,56.83084615384615L945.3666666666667,62.910830769230756L957.3333333333333,122.71624615384613L969.3000000000001,74.05601538461536L981.2666666666667,78.81299999999999L993.2333333333333,78.37975384615385L1005.1999999999999,65.81561538461534L1017.1666666666667,91.74932307692308L1029.1333333333334,68.67387692307693L1041.1,62.91955384615386L1053.0666666666666,73.332L1065.0333333333333,71.9217692307692L1077,67.95276923076926L1088.9666666666667,84.63129230769232L1100.9333333333334,85.55593846153846L1112.9,85.74784615384613L1124.8666666666666,77.08583076923077L1136.8333333333333,79.72892307692308L1148.8,74.08509230769232L1160.7666666666667,89.06261538461536L1172.7333333333333,66.32446153846155L1184.7,78.68506153846158L1196.6666666666667,89.12949230769232L1208.6333333333334,59.8025076923077L1220.6,74.08799999999997L1232.5666666666666,73.88446153846155L1244.5333333333333,86.89347692307695L1256.5,92.4529846153846L1268.4666666666667,76.61478461538462L1280.4333333333334,79.96153846153845L1292.4,100.76316923076922L1304.3666666666666,106.51167692307689" style="fill: none;" fill="none"></path></g><g><path stroke="rgb(204, 51, 17)" stroke-width="2px" d="M119.66666666666666,259.75578461538464L131.63333333333333,251.49503076923077L143.6,306.04333846153844L155.56666666666666,295.91875384615383L167.53333333333333,227.4833076923077L179.5,236.50587692307693L191.46666666666667,215.23610769230768L203.43333333333334,229.66407692307692L215.4,150.6620769230769L227.36666666666665,213.62233846153845L239.33333333333331,277.9143230769231L251.29999999999998,230.21072307692307L263.26666666666665,311.9081538461538L275.23333333333335,249.28227692307692L287.2,291.95266153846154L299.1666666666667,262.50064615384616L311.1333333333333,256.9905692307692L323.1,269.83966153846154L335.06666666666666,259.6016769230769L347.03333333333336,279.4466769230769L359,290.14116923076926L370.9666666666667,245.41213846153846L382.93333333333334,245.33363076923078L394.90000000000003,278.2923230769231L406.8666666666667,288.1784769230769L418.83333333333337,264.8936769230769L430.8,232.55432307692308L442.7666666666667,287.62892307692306L454.7333333333333,244.50493846153844L466.7,273.88426153846154L478.66666666666663,302.5948153846154L490.6333333333333,251.5241076923077L502.59999999999997,264.75120000000004L514.5666666666667,232.8916153846154L526.5333333333333,304.65346153846156L538.5,239.97184615384614L550.4666666666667,294.5754L562.4333333333333,266.8621846153846L574.4,236.72104615384615L586.3666666666667,305.18266153846156L598.3333333333334,209.06889230769232L610.3,148.64413846153846L622.2666666666667,185.26652307692305L634.2333333333333,245.8134L646.2,111.50709230769229L658.1666666666666,135.5566153846154L670.1333333333333,237.09904615384616L682.1,113.40290769230768L694.0666666666667,171.25144615384616L706.0333333333333,164.77601538461536L718,213.70956923076923L729.9666666666666,106.72103076923077L741.9333333333334,113.35347692307693L753.9,85.86706153846154L765.8666666666667,147.2978769230769L777.8333333333333,103.13003076923076L789.8000000000001,182.8066153846154L801.7666666666667,153.44183076923076L813.7333333333333,72.3550153846154L825.6999999999999,78.8537076923077L837.6666666666667,62.69856923076924L849.6333333333333,98.07064615384616L861.6,82.71803076923078L873.5666666666666,76.93463076923075L885.5333333333334,62.84686153846155L897.5,63.36443076923075L909.4666666666666,59.47684615384611L921.4333333333334,62.06469230769227L933.4,88.17286153846152L945.3666666666667,77.01313846153846L957.3333333333333,85.80309230769234L969.3000000000001,95.30252307692308L981.2666666666667,52.687384615384644L993.2333333333333,136.41729230769232L1005.1999999999999,56.30455384615385L1017.1666666666667,59.90136923076926L1029.1333333333334,66.69955384615383L1041.1,73.48320000000001L1053.0666666666666,61.60818461538463L1065.0333333333333,80.69427692307693L1077,67.38867692307696L1088.9666666666667,82.65696923076922L1100.9333333333334,156.74496923076924L1112.9,55.8567692307692L1124.8666666666666,115.30163076923077L1136.8333333333333,138.52536923076923L1148.8,88.81836923076924L1160.7666666666667,104.15935384615386L1172.7333333333333,82.94483076923075L1184.7,103.05733846153845L1196.6666666666667,92.58383076923081L1208.6333333333334,100.92309230769229L1220.6,97.96596923076925L1232.5666666666666,106.01736923076925L1244.5333333333333,98.25092307692307L1256.5,90.28384615384613L1268.4666666666667,87.03013846153846L1280.4333333333334,100.19907692307692L1292.4,121.89627692307693L1304.3666666666666,96.98026153846155" style="fill: none;" fill="none"></path></g><g><path stroke="rgb(255, 112, 67)" stroke-width="2px" d="M119.66666666666666,231.30401538461538L131.63333333333333,236.33723076923079L143.6,204.77713846153847L155.56666666666666,270.3572307692308L167.53333333333333,272.7444461538462L179.5,267.8566153846154L191.46666666666667,291.0541846153846L203.43333333333334,273.9773076923077L215.4,259.37487692307695L227.36666666666665,258.2903076923077L239.33333333333331,280.05147692307696L251.29999999999998,247.7412L263.26666666666665,201.03493846153847L275.23333333333335,206.02163076923077L287.2,242.2631076923077L299.1666666666667,205.5593076923077L311.1333333333333,190.75043076923077L323.1,215.69552307692308L335.06666666666666,221.22304615384616L347.03333333333336,205.28307692307692L359,208.30416923076922L370.9666666666667,209.7173076923077L382.93333333333334,193.08530769230768L394.90000000000003,184.4378307692308L406.8666666666667,187.78749230769228L418.83333333333337,179.28830769230768L430.8,211.1508L442.7666666666667,168.0471692307692L454.7333333333333,191.89024615384616L466.7,201.08146153846155L478.66666666666663,215.3495076923077L490.6333333333333,198.95884615384617L502.59999999999997,183.79232307692305L514.5666666666667,183.43467692307692L526.5333333333333,207.45803076923076L538.5,190.00606153846152L550.4666666666667,181.55339999999998L562.4333333333333,176.98832307692308L574.4,181.1056153846154L586.3666666666667,181.12596923076924L598.3333333333334,211.45901538461538L610.3,204.34098461538463L622.2666666666667,211.9736769230769L634.2333333333333,219.85352307692307L646.2,187.80203076923075L658.1666666666666,202.6050923076923L670.1333333333333,239.5066153846154L682.1,185.05716923076923L694.0666666666667,176.08984615384614" style="fill: none;" fill="none"></path></g></g></g></g></g></g><g transform="translate(60, 378)" clip-path="url(#clip_1)"><clipPath id="clip_1"><rect width="1436" height="22"></rect></clipPath><g><g><line x1="0" y1="0" x2="0" y2="5" style="visibility: inherit;" fill="rgb(0, 0, 0)" stroke="rgb(204, 204, 204)" stroke-width="1px"></line><line x1="119.66666666666666" y1="0" x2="119.66666666666666" y2="5" style="visibility: inherit;" fill="rgb(0, 0, 0)" stroke="rgb(204, 204, 204)" stroke-width="1px"></line><line x1="239.33333333333331" y1="0" x2="239.33333333333331" y2="5" style="visibility: inherit;" fill="rgb(0, 0, 0)" stroke="rgb(204, 204, 204)" stroke-width="1px"></line><line x1="359" y1="0" x2="359" y2="5" style="visibility: inherit;" fill="rgb(0, 0, 0)" stroke="rgb(204, 204, 204)" stroke-width="1px"></line><line x1="478.66666666666663" y1="0" x2="478.66666666666663" y2="5" style="visibility: inherit;" fill="rgb(0, 0, 0)" stroke="rgb(204, 204, 204)" stroke-width="1px"></line><line x1="598.3333333333334" y1="0" x2="598.3333333333334" y2="5" style="visibility: inherit;" fill="rgb(0, 0, 0)" stroke="rgb(204, 204, 204)" stroke-width="1px"></line><line x1="718" y1="0" x2="718" y2="5" style="visibility: inherit;" fill="rgb(0, 0, 0)" stroke="rgb(204, 204, 204)" stroke-width="1px"></line><line x1="837.6666666666667" y1="0" x2="837.6666666666667" y2="5" style="visibility: inherit;" fill="rgb(0, 0, 0)" stroke="rgb(204, 204, 204)" stroke-width="1px"></line><line x1="957.3333333333333" y1="0" x2="957.3333333333333" y2="5" style="visibility: inherit;" fill="rgb(0, 0, 0)" stroke="rgb(204, 204, 204)" stroke-width="1px"></line><line x1="1077" y1="0" x2="1077" y2="5" style="visibility: inherit;" fill="rgb(0, 0, 0)" stroke="rgb(204, 204, 204)" stroke-width="1px"></line><line x1="1196.6666666666667" y1="0" x2="1196.6666666666667" y2="5" style="visibility: inherit;" fill="rgb(0, 0, 0)" stroke="rgb(204, 204, 204)" stroke-width="1px"></line><line x1="1316.3333333333333" y1="0" x2="1316.3333333333333" y2="5" style="visibility: inherit;" fill="rgb(0, 0, 0)" stroke="rgb(204, 204, 204)" stroke-width="1px"></line><line x1="1436" y1="0" x2="1436" y2="5" style="visibility: inherit;" fill="rgb(0, 0, 0)" stroke="rgb(204, 204, 204)" stroke-width="1px"></line></g><g transform="translate(0, 8)"><text x="0" y="0" dx="0em" dy="0.95em" style="text-anchor: middle; visibility: hidden; font-family: &quot;Helvetica Neue&quot;, sans-serif; font-size: 12px; font-weight: 200;" fill="rgb(50, 49, 63)" stroke="none" stroke-width="1px">-50</text><text x="119.66666666666666" y="0" dx="0em" dy="0.95em" style="text-anchor: middle; visibility: inherit; font-family: &quot;Helvetica Neue&quot;, sans-serif; font-size: 12px; font-weight: 200;" fill="rgb(50, 49, 63)" stroke="none" stroke-width="1px">0</text><text x="239.33333333333331" y="0" dx="0em" dy="0.95em" style="text-anchor: middle; visibility: inherit; font-family: &quot;Helvetica Neue&quot;, sans-serif; font-size: 12px; font-weight: 200;" fill="rgb(50, 49, 63)" stroke="none" stroke-width="1px">50</text><text x="359" y="0" dx="0em" dy="0.95em" style="text-anchor: middle; visibility: inherit; font-family: &quot;Helvetica Neue&quot;, sans-serif; font-size: 12px; font-weight: 200;" fill="rgb(50, 49, 63)" stroke="none" stroke-width="1px">100</text><text x="478.66666666666663" y="0" dx="0em" dy="0.95em" style="text-anchor: middle; visibility: inherit; font-family: &quot;Helvetica Neue&quot;, sans-serif; font-size: 12px; font-weight: 200;" fill="rgb(50, 49, 63)" stroke="none" stroke-width="1px">150</text><text x="598.3333333333334" y="0" dx="0em" dy="0.95em" style="text-anchor: middle; visibility: inherit; font-family: &quot;Helvetica Neue&quot;, sans-serif; font-size: 12px; font-weight: 200;" fill="rgb(50, 49, 63)" stroke="none" stroke-width="1px">200</text><text x="718" y="0" dx="0em" dy="0.95em" style="text-anchor: middle; visibility: inherit; font-family: &quot;Helvetica Neue&quot;, sans-serif; font-size: 12px; font-weight: 200;" fill="rgb(50, 49, 63)" stroke="none" stroke-width="1px">250</text><text x="837.6666666666667" y="0" dx="0em" dy="0.95em" style="text-anchor: middle; visibility: inherit; font-family: &quot;Helvetica Neue&quot;, sans-serif; font-size: 12px; font-weight: 200;" fill="rgb(50, 49, 63)" stroke="none" stroke-width="1px">300</text><text x="957.3333333333333" y="0" dx="0em" dy="0.95em" style="text-anchor: middle; visibility: inherit; font-family: &quot;Helvetica Neue&quot;, sans-serif; font-size: 12px; font-weight: 200;" fill="rgb(50, 49, 63)" stroke="none" stroke-width="1px">350</text><text x="1077" y="0" dx="0em" dy="0.95em" style="text-anchor: middle; visibility: inherit; font-family: &quot;Helvetica Neue&quot;, sans-serif; font-size: 12px; font-weight: 200;" fill="rgb(50, 49, 63)" stroke="none" stroke-width="1px">400</text><text x="1196.6666666666667" y="0" dx="0em" dy="0.95em" style="text-anchor: middle; visibility: inherit; font-family: &quot;Helvetica Neue&quot;, sans-serif; font-size: 12px; font-weight: 200;" fill="rgb(50, 49, 63)" stroke="none" stroke-width="1px">450</text><text x="1316.3333333333333" y="0" dx="0em" dy="0.95em" style="text-anchor: middle; visibility: inherit; font-family: &quot;Helvetica Neue&quot;, sans-serif; font-size: 12px; font-weight: 200;" fill="rgb(50, 49, 63)" stroke="none" stroke-width="1px">500</text><text x="1436" y="0" dx="0em" dy="0.95em" style="text-anchor: middle; visibility: hidden; font-family: &quot;Helvetica Neue&quot;, sans-serif; font-size: 12px; font-weight: 200;" fill="rgb(50, 49, 63)" stroke="none" stroke-width="1px">550</text></g><line x1="0" y1="0" x2="1436" y2="0" fill="rgb(0, 0, 0)" stroke="rgb(204, 204, 204)" stroke-width="1px"></line></g></g></g></g></svg>